M48
; DRILL file {KiCad (6.0.0-0)} date Saturday, March 25, 2023 at 09:38:41 PM
; FORMAT={-:-/ absolute / inch / decimal}
; #@! TF.CreationDate,2023-03-25T21:38:41-07:00
; #@! TF.GenerationSoftware,Kicad,Pcbnew,(6.0.0-0)
; #@! TF.FileFunction,Plated,1,2,PTH
FMAT,2
INCH
; #@! TA.AperFunction,Plated,PTH,ViaDrill
T1C0.0130
; #@! TA.AperFunction,Plated,PTH,ComponentDrill
T2C0.0394
%
G90
G05
T1
X5.4055Y-4.0315
X5.4055Y-4.4882
X5.7441Y-3.9567
X5.7638Y-4.4213
X5.815Y-4.1929
X5.8701Y-3.9567
X5.8898Y-4.2244
X5.9173Y-4.4213
X5.9606Y-3.9567
X5.9685Y-4.2244
X6.0Y-4.1732
X6.0433Y-3.9567
X6.0472Y-4.4213
X6.1457Y-4.4213
X6.2992Y-4.0315
X6.2992Y-4.4882
T2
X5.4988Y-4.501
X5.5988Y-4.501
X5.6Y-3.901
X5.6988Y-4.501
X5.7Y-3.901
X5.7988Y-4.501
X5.8Y-3.901
X5.8988Y-4.501
X5.9Y-3.901
X5.9988Y-4.501
X6.0Y-3.901
X6.0988Y-4.501
X6.1Y-3.901
X6.1988Y-4.501
T0
M30
