G04 #@! TF.GenerationSoftware,KiCad,Pcbnew,(6.0.0-0)*
G04 #@! TF.CreationDate,2023-02-05T22:05:22-08:00*
G04 #@! TF.ProjectId,breakout,62726561-6b6f-4757-942e-6b696361645f,1.0.0*
G04 #@! TF.SameCoordinates,Original*
G04 #@! TF.FileFunction,Copper,L1,Top*
G04 #@! TF.FilePolarity,Positive*
%FSLAX46Y46*%
G04 Gerber Fmt 4.6, Leading zero omitted, Abs format (unit mm)*
G04 Created by KiCad (PCBNEW (6.0.0-0)) date 2023-02-05 22:05:22*
%MOMM*%
%LPD*%
G01*
G04 APERTURE LIST*
G04 Aperture macros list*
%AMRoundRect*
0 Rectangle with rounded corners*
0 $1 Rounding radius*
0 $2 $3 $4 $5 $6 $7 $8 $9 X,Y pos of 4 corners*
0 Add a 4 corners polygon primitive as box body*
4,1,4,$2,$3,$4,$5,$6,$7,$8,$9,$2,$3,0*
0 Add four circle primitives for the rounded corners*
1,1,$1+$1,$2,$3*
1,1,$1+$1,$4,$5*
1,1,$1+$1,$6,$7*
1,1,$1+$1,$8,$9*
0 Add four rect primitives between the rounded corners*
20,1,$1+$1,$2,$3,$4,$5,0*
20,1,$1+$1,$4,$5,$6,$7,0*
20,1,$1+$1,$6,$7,$8,$9,0*
20,1,$1+$1,$8,$9,$2,$3,0*%
G04 Aperture macros list end*
G04 #@! TA.AperFunction,SMDPad,CuDef*
%ADD10RoundRect,0.243750X-0.456250X0.243750X-0.456250X-0.243750X0.456250X-0.243750X0.456250X0.243750X0*%
G04 #@! TD*
G04 #@! TA.AperFunction,ComponentPad*
%ADD11C,1.700000*%
G04 #@! TD*
G04 #@! TA.AperFunction,ComponentPad*
%ADD12R,1.700000X1.700000*%
G04 #@! TD*
G04 #@! TA.AperFunction,ComponentPad*
%ADD13O,1.700000X1.700000*%
G04 #@! TD*
G04 #@! TA.AperFunction,SMDPad,CuDef*
%ADD14RoundRect,0.250000X-0.250000X-0.475000X0.250000X-0.475000X0.250000X0.475000X-0.250000X0.475000X0*%
G04 #@! TD*
G04 #@! TA.AperFunction,SMDPad,CuDef*
%ADD15RoundRect,0.250000X0.250000X0.475000X-0.250000X0.475000X-0.250000X-0.475000X0.250000X-0.475000X0*%
G04 #@! TD*
G04 #@! TA.AperFunction,SMDPad,CuDef*
%ADD16RoundRect,0.243750X0.243750X0.456250X-0.243750X0.456250X-0.243750X-0.456250X0.243750X-0.456250X0*%
G04 #@! TD*
G04 #@! TA.AperFunction,SMDPad,CuDef*
%ADD17RoundRect,0.100000X-0.637500X-0.100000X0.637500X-0.100000X0.637500X0.100000X-0.637500X0.100000X0*%
G04 #@! TD*
G04 #@! TA.AperFunction,SMDPad,CuDef*
%ADD18RoundRect,0.250000X0.450000X-0.262500X0.450000X0.262500X-0.450000X0.262500X-0.450000X-0.262500X0*%
G04 #@! TD*
G04 #@! TA.AperFunction,ViaPad*
%ADD19C,0.685800*%
G04 #@! TD*
G04 #@! TA.AperFunction,Conductor*
%ADD20C,0.152400*%
G04 #@! TD*
G04 APERTURE END LIST*
D10*
X138000000Y-104462500D03*
X138000000Y-106337500D03*
D11*
X139669800Y-114325800D03*
D12*
X142209800Y-114325800D03*
D13*
X144749800Y-114325800D03*
X147289800Y-114325800D03*
X149829800Y-114325800D03*
X152369800Y-114325800D03*
X154909800Y-114325800D03*
X157449800Y-114325800D03*
D14*
X157150000Y-107200000D03*
X159050000Y-107200000D03*
D15*
X143179800Y-104063800D03*
X141279800Y-104063800D03*
D16*
X159037500Y-105041000D03*
X157162500Y-105041000D03*
D14*
X141279800Y-111429800D03*
X143179800Y-111429800D03*
D17*
X146078300Y-103637800D03*
X146078300Y-104287800D03*
X146078300Y-104937800D03*
X146078300Y-105587800D03*
X146078300Y-106237800D03*
X146078300Y-106887800D03*
X146078300Y-107537800D03*
X151803300Y-107537800D03*
X151803300Y-106887800D03*
X151803300Y-106237800D03*
X151803300Y-105587800D03*
X151803300Y-104937800D03*
X151803300Y-104287800D03*
X151803300Y-103637800D03*
D16*
X143147300Y-102031800D03*
X141272300Y-102031800D03*
D18*
X138000000Y-109868500D03*
X138000000Y-108043500D03*
D15*
X143179800Y-106095800D03*
X141279800Y-106095800D03*
D11*
X142239800Y-99085800D03*
D13*
X144779800Y-99085800D03*
X147319800Y-99085800D03*
X149859800Y-99085800D03*
X152399800Y-99085800D03*
D12*
X154939800Y-99085800D03*
D14*
X145704800Y-109651800D03*
X147604800Y-109651800D03*
X141279800Y-109397800D03*
X143179800Y-109397800D03*
X157150000Y-109232000D03*
X159050000Y-109232000D03*
D19*
X158846800Y-112699800D03*
X160100000Y-102300000D03*
X146146800Y-100253800D03*
X137000000Y-102300000D03*
X156306800Y-112699800D03*
X151226800Y-112699800D03*
X143606800Y-100253800D03*
X153766800Y-112699800D03*
X148686800Y-100253800D03*
X146146800Y-112699800D03*
X146146800Y-102285800D03*
X144500000Y-105600000D03*
X138272800Y-112699800D03*
X148686800Y-112699800D03*
X147924800Y-103555800D03*
X157000000Y-103400000D03*
X144622800Y-102285800D03*
X153766800Y-104317800D03*
X151734800Y-109143800D03*
D20*
X147842800Y-103637800D02*
X147924800Y-103555800D01*
X146078300Y-103637800D02*
X147842800Y-103637800D01*
X147924800Y-101015800D02*
X147319800Y-100410800D01*
X149555480Y-101630480D02*
X148940800Y-101015800D01*
X147319800Y-100410800D02*
X147319800Y-99085800D01*
X149229893Y-105587800D02*
X149555480Y-105262213D01*
X146078300Y-105587800D02*
X149229893Y-105587800D01*
X148940800Y-101015800D02*
X147924800Y-101015800D01*
X149555480Y-105262213D02*
X149555480Y-101630480D01*
X157162500Y-105041000D02*
X157162500Y-103562500D01*
X144622800Y-103809800D02*
X144622800Y-102285800D01*
X157150000Y-105053500D02*
X157162500Y-105041000D01*
X157162500Y-103562500D02*
X157000000Y-103400000D01*
X157150000Y-109232000D02*
X157150000Y-107200000D01*
X146078300Y-104287800D02*
X145100800Y-104287800D01*
X145100800Y-104287800D02*
X144622800Y-103809800D01*
X157150000Y-107200000D02*
X157150000Y-105053500D01*
X145181120Y-101320120D02*
X144779800Y-100918800D01*
X148991120Y-105283480D02*
X149251160Y-105023440D01*
X147366480Y-105283480D02*
X148991120Y-105283480D01*
X149251160Y-101756534D02*
X148814746Y-101320120D01*
X148814746Y-101320120D02*
X145181120Y-101320120D01*
X147020800Y-104937800D02*
X147366480Y-105283480D01*
X144779800Y-100918800D02*
X144779800Y-99085800D01*
X149251160Y-105023440D02*
X149251160Y-101756534D01*
X146078300Y-104937800D02*
X147020800Y-104937800D01*
X149859800Y-105388267D02*
X149859800Y-99085800D01*
X149355947Y-105892120D02*
X149859800Y-105388267D01*
X146078300Y-106237800D02*
X147020800Y-106237800D01*
X147020800Y-106237800D02*
X147366480Y-105892120D01*
X147366480Y-105892120D02*
X149355947Y-105892120D01*
X143147300Y-104031300D02*
X143179800Y-104063800D01*
X143179800Y-104063800D02*
X143179800Y-106095800D01*
X146078300Y-106887800D02*
X143971800Y-106887800D01*
X143147300Y-102031800D02*
X143147300Y-104031300D01*
X143971800Y-106887800D02*
X143179800Y-106095800D01*
X146078300Y-109278300D02*
X145704800Y-109651800D01*
X146078300Y-107537800D02*
X146078300Y-109278300D01*
X150830800Y-106237800D02*
X149829800Y-107238800D01*
X149829800Y-107238800D02*
X149829800Y-114325800D01*
X151803300Y-106237800D02*
X150830800Y-106237800D01*
X145384800Y-111683800D02*
X144749800Y-112318800D01*
X149525480Y-107112746D02*
X149525480Y-111099120D01*
X144749800Y-112318800D02*
X144749800Y-114325800D01*
X151050426Y-105587800D02*
X149525480Y-107112746D01*
X151803300Y-105587800D02*
X151050426Y-105587800D01*
X148940800Y-111683800D02*
X145384800Y-111683800D01*
X149525480Y-111099120D02*
X148940800Y-111683800D01*
X154605480Y-105410480D02*
X154132800Y-104937800D01*
X152369800Y-112318800D02*
X153004800Y-111683800D01*
X153004800Y-111683800D02*
X154020800Y-111683800D01*
X154605480Y-111099120D02*
X154605480Y-105410480D01*
X152369800Y-114325800D02*
X152369800Y-112318800D01*
X154132800Y-104937800D02*
X151803300Y-104937800D01*
X154020800Y-111683800D02*
X154605480Y-111099120D01*
X153736800Y-104287800D02*
X153766800Y-104317800D01*
X151803300Y-104287800D02*
X153736800Y-104287800D01*
X154356800Y-103637800D02*
X154909800Y-104190800D01*
X154909800Y-104190800D02*
X154909800Y-114325800D01*
X151803300Y-103637800D02*
X154356800Y-103637800D01*
X139669800Y-110330200D02*
X139669800Y-109778800D01*
X141279800Y-109397800D02*
X140050800Y-109397800D01*
X138000000Y-109868500D02*
X139208100Y-109868500D01*
X139669800Y-114325800D02*
X139669800Y-111810800D01*
X151803300Y-109075300D02*
X151734800Y-109143800D01*
X140050800Y-109397800D02*
X139669800Y-109778800D01*
X140050800Y-111429800D02*
X139669800Y-111810800D01*
X139669800Y-111810800D02*
X139669800Y-110330200D01*
X141279800Y-111429800D02*
X140050800Y-111429800D01*
X139208100Y-109868500D02*
X139669800Y-110330200D01*
X151803300Y-107537800D02*
X151803300Y-109075300D01*
X138000000Y-106337500D02*
X138000000Y-108043500D01*
X152399800Y-102099800D02*
X152399800Y-99085800D01*
X159037500Y-103337500D02*
X158200000Y-102500000D01*
X159037500Y-105041000D02*
X159037500Y-103337500D01*
X152800000Y-102500000D02*
X152399800Y-102099800D01*
X158200000Y-102500000D02*
X152800000Y-102500000D01*
X142239800Y-99085800D02*
X141272300Y-100053300D01*
X141272300Y-100053300D02*
X141272300Y-102031800D01*
G04 #@! TA.AperFunction,Conductor*
G36*
X149417132Y-111779314D02*
G01*
X149473968Y-111821861D01*
X149498779Y-111888381D01*
X149499100Y-111897370D01*
X149499100Y-113182636D01*
X149479098Y-113250757D01*
X149425442Y-113297250D01*
X149416714Y-113300847D01*
X149352263Y-113324624D01*
X149177810Y-113428412D01*
X149173470Y-113432218D01*
X149173466Y-113432221D01*
X149153523Y-113449711D01*
X149025192Y-113562255D01*
X148899520Y-113721669D01*
X148896831Y-113726780D01*
X148896829Y-113726783D01*
X148885307Y-113748683D01*
X148805003Y-113901315D01*
X148744807Y-114095178D01*
X148720948Y-114296764D01*
X148734224Y-114499322D01*
X148735645Y-114504918D01*
X148735646Y-114504923D01*
X148782771Y-114690474D01*
X148784192Y-114696069D01*
X148786609Y-114701312D01*
X148823810Y-114782008D01*
X148869177Y-114880416D01*
X148872510Y-114885132D01*
X148920526Y-114953073D01*
X148986333Y-115046189D01*
X148990475Y-115050224D01*
X149041311Y-115099746D01*
X149076149Y-115161607D01*
X149072012Y-115232483D01*
X149030213Y-115289871D01*
X148964023Y-115315551D01*
X148953390Y-115316000D01*
X148171614Y-115316000D01*
X148103493Y-115295998D01*
X148057000Y-115242342D01*
X148046896Y-115172068D01*
X148074740Y-115109431D01*
X148200249Y-114958524D01*
X148200256Y-114958514D01*
X148203947Y-114954076D01*
X148303134Y-114776965D01*
X148304990Y-114771498D01*
X148304992Y-114771493D01*
X148366528Y-114590214D01*
X148366529Y-114590209D01*
X148368384Y-114584745D01*
X148369212Y-114579036D01*
X148369213Y-114579031D01*
X148396979Y-114387527D01*
X148397512Y-114383853D01*
X148399032Y-114325800D01*
X148380458Y-114123659D01*
X148378890Y-114118099D01*
X148326925Y-113933846D01*
X148326924Y-113933844D01*
X148325357Y-113928287D01*
X148314778Y-113906833D01*
X148238131Y-113751409D01*
X148235576Y-113746228D01*
X148114120Y-113583579D01*
X147965058Y-113445787D01*
X147960175Y-113442706D01*
X147960171Y-113442703D01*
X147798264Y-113340548D01*
X147793381Y-113337467D01*
X147604839Y-113262246D01*
X147599179Y-113261120D01*
X147599175Y-113261119D01*
X147411413Y-113223771D01*
X147411410Y-113223771D01*
X147405746Y-113222644D01*
X147399971Y-113222568D01*
X147399967Y-113222568D01*
X147298593Y-113221241D01*
X147202771Y-113219987D01*
X147197074Y-113220966D01*
X147197073Y-113220966D01*
X147099420Y-113237746D01*
X147002710Y-113254364D01*
X146812263Y-113324624D01*
X146637810Y-113428412D01*
X146633470Y-113432218D01*
X146633466Y-113432221D01*
X146613523Y-113449711D01*
X146485192Y-113562255D01*
X146359520Y-113721669D01*
X146356831Y-113726780D01*
X146356829Y-113726783D01*
X146345307Y-113748683D01*
X146265003Y-113901315D01*
X146204807Y-114095178D01*
X146180948Y-114296764D01*
X146194224Y-114499322D01*
X146195645Y-114504918D01*
X146195646Y-114504923D01*
X146242771Y-114690474D01*
X146244192Y-114696069D01*
X146246609Y-114701312D01*
X146283810Y-114782008D01*
X146329177Y-114880416D01*
X146332510Y-114885132D01*
X146380526Y-114953073D01*
X146446333Y-115046189D01*
X146450475Y-115050224D01*
X146501311Y-115099746D01*
X146536149Y-115161607D01*
X146532012Y-115232483D01*
X146490213Y-115289871D01*
X146424023Y-115315551D01*
X146413390Y-115316000D01*
X145631614Y-115316000D01*
X145563493Y-115295998D01*
X145517000Y-115242342D01*
X145506896Y-115172068D01*
X145534740Y-115109431D01*
X145660249Y-114958524D01*
X145660256Y-114958514D01*
X145663947Y-114954076D01*
X145763134Y-114776965D01*
X145764990Y-114771498D01*
X145764992Y-114771493D01*
X145826528Y-114590214D01*
X145826529Y-114590209D01*
X145828384Y-114584745D01*
X145829212Y-114579036D01*
X145829213Y-114579031D01*
X145856979Y-114387527D01*
X145857512Y-114383853D01*
X145859032Y-114325800D01*
X145840458Y-114123659D01*
X145838890Y-114118099D01*
X145786925Y-113933846D01*
X145786924Y-113933844D01*
X145785357Y-113928287D01*
X145774778Y-113906833D01*
X145698131Y-113751409D01*
X145695576Y-113746228D01*
X145574120Y-113583579D01*
X145425058Y-113445787D01*
X145420175Y-113442706D01*
X145420171Y-113442703D01*
X145258264Y-113340548D01*
X145253381Y-113337467D01*
X145248017Y-113335327D01*
X145159809Y-113300135D01*
X145103950Y-113256314D01*
X145080500Y-113183105D01*
X145080500Y-112507971D01*
X145100502Y-112439850D01*
X145117405Y-112418875D01*
X145484877Y-112051404D01*
X145547189Y-112017379D01*
X145573972Y-112014500D01*
X148920851Y-112014500D01*
X148931832Y-112014979D01*
X148959091Y-112017364D01*
X148959092Y-112017364D01*
X148970067Y-112018324D01*
X149007139Y-112008391D01*
X149017853Y-112006016D01*
X149033700Y-112003222D01*
X149044797Y-112001265D01*
X149044798Y-112001265D01*
X149055651Y-111999351D01*
X149065196Y-111993840D01*
X149068689Y-111992569D01*
X149072067Y-111990994D01*
X149082716Y-111988140D01*
X149091747Y-111981816D01*
X149091750Y-111981815D01*
X149114155Y-111966127D01*
X149123424Y-111960222D01*
X149136701Y-111952556D01*
X149156649Y-111941039D01*
X149163733Y-111932596D01*
X149163736Y-111932594D01*
X149181322Y-111911636D01*
X149188748Y-111903532D01*
X149284005Y-111808275D01*
X149346317Y-111774249D01*
X149417132Y-111779314D01*
G37*
G04 #@! TD.AperFunction*
G04 #@! TA.AperFunction,Conductor*
G36*
X141485827Y-98064002D02*
G01*
X141532320Y-98117658D01*
X141542424Y-98187932D01*
X141512930Y-98252512D01*
X141500784Y-98264732D01*
X141481437Y-98281699D01*
X141435192Y-98322255D01*
X141309520Y-98481669D01*
X141306831Y-98486780D01*
X141306829Y-98486783D01*
X141293873Y-98511409D01*
X141215003Y-98661315D01*
X141154807Y-98855178D01*
X141130948Y-99056764D01*
X141144224Y-99259322D01*
X141145645Y-99264918D01*
X141145646Y-99264923D01*
X141174928Y-99380218D01*
X141194192Y-99456069D01*
X141222952Y-99518455D01*
X141233307Y-99588689D01*
X141204045Y-99653375D01*
X141197621Y-99660299D01*
X141052568Y-99805352D01*
X141044464Y-99812778D01*
X141023506Y-99830364D01*
X141023504Y-99830367D01*
X141015061Y-99837451D01*
X140996682Y-99869283D01*
X140995878Y-99870676D01*
X140989973Y-99879945D01*
X140974285Y-99902350D01*
X140974284Y-99902353D01*
X140967960Y-99911384D01*
X140965106Y-99922033D01*
X140963531Y-99925411D01*
X140962260Y-99928904D01*
X140956749Y-99938449D01*
X140954835Y-99949302D01*
X140954835Y-99949303D01*
X140950085Y-99976243D01*
X140947709Y-99986961D01*
X140937776Y-100024033D01*
X140938736Y-100035008D01*
X140938736Y-100035009D01*
X140941121Y-100062268D01*
X140941600Y-100073249D01*
X140941600Y-100988666D01*
X140921598Y-101056787D01*
X140867942Y-101103280D01*
X140859864Y-101106634D01*
X140786818Y-101134017D01*
X140779635Y-101139401D01*
X140779634Y-101139401D01*
X140753054Y-101159322D01*
X140672611Y-101219611D01*
X140587017Y-101333818D01*
X140536919Y-101467458D01*
X140530300Y-101528385D01*
X140530301Y-102535214D01*
X140530670Y-102538608D01*
X140530670Y-102538614D01*
X140535106Y-102579447D01*
X140536919Y-102596142D01*
X140539694Y-102603544D01*
X140539694Y-102603545D01*
X140583865Y-102721374D01*
X140587017Y-102729782D01*
X140592401Y-102736966D01*
X140592402Y-102736967D01*
X140628105Y-102784606D01*
X140652953Y-102851113D01*
X140637900Y-102920495D01*
X140593582Y-102967315D01*
X140561993Y-102986863D01*
X140550592Y-102995899D01*
X140436061Y-103110629D01*
X140427049Y-103122040D01*
X140341984Y-103260043D01*
X140335837Y-103273224D01*
X140284662Y-103427510D01*
X140281795Y-103440886D01*
X140272128Y-103535238D01*
X140271800Y-103541655D01*
X140271800Y-103791685D01*
X140276275Y-103806924D01*
X140277665Y-103808129D01*
X140285348Y-103809800D01*
X141407800Y-103809800D01*
X141475921Y-103829802D01*
X141522414Y-103883458D01*
X141533800Y-103935800D01*
X141533800Y-107310684D01*
X141538275Y-107325923D01*
X141539665Y-107327128D01*
X141547348Y-107328799D01*
X141576895Y-107328799D01*
X141583414Y-107328462D01*
X141679006Y-107318543D01*
X141692400Y-107315651D01*
X141846584Y-107264212D01*
X141859762Y-107258039D01*
X141997607Y-107172737D01*
X142009008Y-107163701D01*
X142123539Y-107048971D01*
X142132551Y-107037560D01*
X142217616Y-106899557D01*
X142223764Y-106886374D01*
X142245517Y-106820790D01*
X142285947Y-106762430D01*
X142351512Y-106735193D01*
X142421393Y-106747726D01*
X142475630Y-106799947D01*
X142479577Y-106807157D01*
X142482729Y-106815564D01*
X142488114Y-106822749D01*
X142488115Y-106822751D01*
X142519628Y-106864798D01*
X142569396Y-106931204D01*
X142576576Y-106936585D01*
X142677854Y-107012489D01*
X142677857Y-107012491D01*
X142685036Y-107017871D01*
X142747011Y-107041104D01*
X142812957Y-107065826D01*
X142812959Y-107065826D01*
X142820352Y-107068598D01*
X142828202Y-107069451D01*
X142828203Y-107069451D01*
X142851667Y-107072000D01*
X142882044Y-107075300D01*
X143477556Y-107075300D01*
X143507933Y-107072000D01*
X143531397Y-107069451D01*
X143531398Y-107069451D01*
X143539248Y-107068598D01*
X143569239Y-107057355D01*
X143640044Y-107052172D01*
X143702562Y-107086242D01*
X143723852Y-107107532D01*
X143731278Y-107115636D01*
X143748864Y-107136594D01*
X143748867Y-107136596D01*
X143755951Y-107145039D01*
X143787783Y-107163418D01*
X143789176Y-107164222D01*
X143798445Y-107170127D01*
X143820850Y-107185815D01*
X143820853Y-107185816D01*
X143829884Y-107192140D01*
X143840533Y-107194994D01*
X143843911Y-107196569D01*
X143847404Y-107197840D01*
X143856949Y-107203351D01*
X143867802Y-107205265D01*
X143867803Y-107205265D01*
X143878900Y-107207222D01*
X143894747Y-107210016D01*
X143905461Y-107212391D01*
X143942533Y-107222324D01*
X143953508Y-107221364D01*
X143953509Y-107221364D01*
X143980768Y-107218979D01*
X143991749Y-107218500D01*
X144967676Y-107218500D01*
X145035797Y-107238502D01*
X145082290Y-107292158D01*
X145092356Y-107362688D01*
X145086300Y-107404198D01*
X145086300Y-107671402D01*
X145086970Y-107675952D01*
X145086970Y-107675955D01*
X145095131Y-107731392D01*
X145096557Y-107741078D01*
X145100873Y-107749868D01*
X145143726Y-107837149D01*
X145148570Y-107847016D01*
X145232094Y-107930395D01*
X145338123Y-107982223D01*
X145368445Y-107986647D01*
X145402672Y-107991640D01*
X145402676Y-107991640D01*
X145407198Y-107992300D01*
X145621600Y-107992300D01*
X145689721Y-108012302D01*
X145736214Y-108065958D01*
X145747600Y-108118300D01*
X145747600Y-108546300D01*
X145727598Y-108614421D01*
X145673942Y-108660914D01*
X145621600Y-108672300D01*
X145407044Y-108672300D01*
X145403648Y-108672669D01*
X145403647Y-108672669D01*
X145353203Y-108678149D01*
X145353202Y-108678149D01*
X145345352Y-108679002D01*
X145337959Y-108681774D01*
X145337957Y-108681774D01*
X145306270Y-108693653D01*
X145210036Y-108729729D01*
X145202857Y-108735109D01*
X145202854Y-108735111D01*
X145114904Y-108801026D01*
X145094396Y-108816396D01*
X145089015Y-108823576D01*
X145013111Y-108924854D01*
X145013109Y-108924857D01*
X145007729Y-108932036D01*
X144957002Y-109067352D01*
X144956149Y-109075202D01*
X144956149Y-109075203D01*
X144955384Y-109082249D01*
X144950300Y-109129044D01*
X144950300Y-110174556D01*
X144957002Y-110236248D01*
X145007729Y-110371564D01*
X145013109Y-110378743D01*
X145013111Y-110378746D01*
X145074401Y-110460525D01*
X145094396Y-110487204D01*
X145101576Y-110492585D01*
X145202854Y-110568489D01*
X145202857Y-110568491D01*
X145210036Y-110573871D01*
X145283940Y-110601576D01*
X145337957Y-110621826D01*
X145337959Y-110621826D01*
X145345352Y-110624598D01*
X145353202Y-110625451D01*
X145353203Y-110625451D01*
X145403647Y-110630931D01*
X145407044Y-110631300D01*
X146002556Y-110631300D01*
X146005953Y-110630931D01*
X146056397Y-110625451D01*
X146056398Y-110625451D01*
X146064248Y-110624598D01*
X146071641Y-110621826D01*
X146071643Y-110621826D01*
X146125660Y-110601576D01*
X146199564Y-110573871D01*
X146206743Y-110568491D01*
X146206746Y-110568489D01*
X146308024Y-110492585D01*
X146315204Y-110487204D01*
X146401871Y-110371564D01*
X146405023Y-110363155D01*
X146408981Y-110355926D01*
X146459238Y-110305779D01*
X146528629Y-110290764D01*
X146595122Y-110315648D01*
X146639026Y-110376557D01*
X146661388Y-110443584D01*
X146667561Y-110456762D01*
X146752863Y-110594607D01*
X146761899Y-110606008D01*
X146876629Y-110720539D01*
X146888040Y-110729551D01*
X147026043Y-110814616D01*
X147039224Y-110820763D01*
X147193510Y-110871938D01*
X147206886Y-110874805D01*
X147301238Y-110884472D01*
X147307654Y-110884800D01*
X147332685Y-110884800D01*
X147347924Y-110880325D01*
X147349129Y-110878935D01*
X147350800Y-110871252D01*
X147350800Y-110866684D01*
X147858800Y-110866684D01*
X147863275Y-110881923D01*
X147864665Y-110883128D01*
X147872348Y-110884799D01*
X147901895Y-110884799D01*
X147908414Y-110884462D01*
X148004006Y-110874543D01*
X148017400Y-110871651D01*
X148171584Y-110820212D01*
X148184762Y-110814039D01*
X148322607Y-110728737D01*
X148334008Y-110719701D01*
X148448539Y-110604971D01*
X148457551Y-110593560D01*
X148542616Y-110455557D01*
X148548763Y-110442376D01*
X148599938Y-110288090D01*
X148602805Y-110274714D01*
X148612472Y-110180362D01*
X148612800Y-110173946D01*
X148612800Y-109923915D01*
X148608325Y-109908676D01*
X148606935Y-109907471D01*
X148599252Y-109905800D01*
X147876915Y-109905800D01*
X147861676Y-109910275D01*
X147860471Y-109911665D01*
X147858800Y-109919348D01*
X147858800Y-110866684D01*
X147350800Y-110866684D01*
X147350800Y-109379685D01*
X147858800Y-109379685D01*
X147863275Y-109394924D01*
X147864665Y-109396129D01*
X147872348Y-109397800D01*
X148594684Y-109397800D01*
X148609923Y-109393325D01*
X148611128Y-109391935D01*
X148612799Y-109384252D01*
X148612799Y-109129705D01*
X148612462Y-109123186D01*
X148602543Y-109027594D01*
X148599651Y-109014200D01*
X148548212Y-108860016D01*
X148542039Y-108846838D01*
X148456737Y-108708993D01*
X148447701Y-108697592D01*
X148332971Y-108583061D01*
X148321560Y-108574049D01*
X148183557Y-108488984D01*
X148170376Y-108482837D01*
X148016090Y-108431662D01*
X148002714Y-108428795D01*
X147908362Y-108419128D01*
X147901945Y-108418800D01*
X147876915Y-108418800D01*
X147861676Y-108423275D01*
X147860471Y-108424665D01*
X147858800Y-108432348D01*
X147858800Y-109379685D01*
X147350800Y-109379685D01*
X147350800Y-108436916D01*
X147346325Y-108421677D01*
X147344935Y-108420472D01*
X147337252Y-108418801D01*
X147307705Y-108418801D01*
X147301186Y-108419138D01*
X147205594Y-108429057D01*
X147192200Y-108431949D01*
X147038016Y-108483388D01*
X147024838Y-108489561D01*
X146886993Y-108574863D01*
X146875592Y-108583899D01*
X146761061Y-108698629D01*
X146752049Y-108710040D01*
X146666984Y-108848043D01*
X146660837Y-108861224D01*
X146654593Y-108880049D01*
X146614162Y-108938409D01*
X146548598Y-108965645D01*
X146478716Y-108953111D01*
X146426704Y-108904786D01*
X146409000Y-108840381D01*
X146409000Y-108118300D01*
X146429002Y-108050179D01*
X146482658Y-108003686D01*
X146535000Y-107992300D01*
X146749402Y-107992300D01*
X146753952Y-107991630D01*
X146753955Y-107991630D01*
X146809392Y-107983469D01*
X146809393Y-107983469D01*
X146819078Y-107982043D01*
X146869478Y-107957298D01*
X146915668Y-107934620D01*
X146915670Y-107934619D01*
X146925016Y-107930030D01*
X147008395Y-107846506D01*
X147060223Y-107740477D01*
X147070300Y-107671402D01*
X147070300Y-107404198D01*
X147060043Y-107334522D01*
X147054354Y-107322935D01*
X147027560Y-107268360D01*
X147015492Y-107198397D01*
X147027463Y-107157497D01*
X147033553Y-107145039D01*
X147060223Y-107090477D01*
X147070300Y-107021402D01*
X147070300Y-106754198D01*
X147069630Y-106749649D01*
X147069629Y-106749631D01*
X147060236Y-106685829D01*
X147070103Y-106615522D01*
X147116415Y-106561710D01*
X147131872Y-106554017D01*
X147135651Y-106553351D01*
X147145195Y-106547841D01*
X147148685Y-106546571D01*
X147152068Y-106544993D01*
X147162716Y-106542140D01*
X147171747Y-106535816D01*
X147171750Y-106535815D01*
X147194155Y-106520127D01*
X147203424Y-106514222D01*
X147204817Y-106513418D01*
X147236649Y-106495039D01*
X147243733Y-106486596D01*
X147243736Y-106486594D01*
X147261322Y-106465636D01*
X147268748Y-106457532D01*
X147466555Y-106259725D01*
X147528867Y-106225699D01*
X147555650Y-106222820D01*
X149335998Y-106222820D01*
X149346979Y-106223299D01*
X149374238Y-106225684D01*
X149374239Y-106225684D01*
X149385214Y-106226644D01*
X149422286Y-106216711D01*
X149433000Y-106214336D01*
X149448847Y-106211542D01*
X149459944Y-106209585D01*
X149459945Y-106209585D01*
X149470798Y-106207671D01*
X149480343Y-106202160D01*
X149483836Y-106200889D01*
X149487214Y-106199314D01*
X149497863Y-106196460D01*
X149506894Y-106190136D01*
X149506897Y-106190135D01*
X149529302Y-106174447D01*
X149538571Y-106168542D01*
X149539964Y-106167738D01*
X149571796Y-106149359D01*
X149581432Y-106137876D01*
X149596464Y-106119961D01*
X149603890Y-106111857D01*
X150079544Y-105636204D01*
X150087647Y-105628779D01*
X150108597Y-105611200D01*
X150108598Y-105611199D01*
X150117039Y-105604116D01*
X150134979Y-105573044D01*
X150136221Y-105570892D01*
X150142127Y-105561622D01*
X150157815Y-105539217D01*
X150157816Y-105539214D01*
X150164140Y-105530183D01*
X150166994Y-105519534D01*
X150168569Y-105516156D01*
X150169840Y-105512663D01*
X150175351Y-105503118D01*
X150182016Y-105465320D01*
X150184391Y-105454606D01*
X150194324Y-105417534D01*
X150192336Y-105394803D01*
X150190979Y-105379299D01*
X150190500Y-105368318D01*
X150190500Y-100230316D01*
X150210502Y-100162195D01*
X150264158Y-100115702D01*
X150275984Y-100111008D01*
X150310965Y-100099134D01*
X150320810Y-100093621D01*
X150464070Y-100013391D01*
X150488076Y-99999947D01*
X150503295Y-99987290D01*
X150639713Y-99873831D01*
X150644145Y-99870145D01*
X150773947Y-99714076D01*
X150835652Y-99603894D01*
X150870310Y-99542008D01*
X150870311Y-99542006D01*
X150873134Y-99536965D01*
X150874990Y-99531498D01*
X150874992Y-99531493D01*
X150936528Y-99350214D01*
X150936529Y-99350209D01*
X150938384Y-99344745D01*
X150939212Y-99339036D01*
X150939213Y-99339031D01*
X150966979Y-99147527D01*
X150967512Y-99143853D01*
X150969032Y-99085800D01*
X150951826Y-98898546D01*
X150950987Y-98889413D01*
X150950986Y-98889410D01*
X150950458Y-98883659D01*
X150947430Y-98872923D01*
X150896925Y-98693846D01*
X150896924Y-98693844D01*
X150895357Y-98688287D01*
X150884778Y-98666833D01*
X150808131Y-98511409D01*
X150805576Y-98506228D01*
X150684120Y-98343579D01*
X150610342Y-98275379D01*
X150596436Y-98262524D01*
X150559991Y-98201596D01*
X150562272Y-98130636D01*
X150602555Y-98072174D01*
X150668050Y-98044771D01*
X150681965Y-98044000D01*
X151577706Y-98044000D01*
X151645827Y-98064002D01*
X151692320Y-98117658D01*
X151702424Y-98187932D01*
X151672930Y-98252512D01*
X151660784Y-98264732D01*
X151641437Y-98281699D01*
X151595192Y-98322255D01*
X151469520Y-98481669D01*
X151466831Y-98486780D01*
X151466829Y-98486783D01*
X151453873Y-98511409D01*
X151375003Y-98661315D01*
X151314807Y-98855178D01*
X151290948Y-99056764D01*
X151304224Y-99259322D01*
X151305645Y-99264918D01*
X151305646Y-99264923D01*
X151334928Y-99380218D01*
X151354192Y-99456069D01*
X151356607Y-99461307D01*
X151356609Y-99461312D01*
X151422340Y-99603894D01*
X151439177Y-99640416D01*
X151556333Y-99806189D01*
X151560475Y-99810224D01*
X151583495Y-99832649D01*
X151701738Y-99947835D01*
X151706542Y-99951045D01*
X151752357Y-99981658D01*
X151870520Y-100060612D01*
X151875823Y-100062890D01*
X151875826Y-100062892D01*
X151992838Y-100113164D01*
X152047531Y-100158432D01*
X152069100Y-100228932D01*
X152069100Y-102079851D01*
X152068621Y-102090832D01*
X152065276Y-102129067D01*
X152075209Y-102166139D01*
X152077584Y-102176853D01*
X152084249Y-102214651D01*
X152089760Y-102224196D01*
X152091031Y-102227689D01*
X152092606Y-102231067D01*
X152095460Y-102241716D01*
X152101784Y-102250747D01*
X152101785Y-102250750D01*
X152117473Y-102273155D01*
X152123378Y-102282424D01*
X152142561Y-102315649D01*
X152151004Y-102322733D01*
X152151006Y-102322736D01*
X152171964Y-102340322D01*
X152180068Y-102347748D01*
X152552052Y-102719732D01*
X152559478Y-102727836D01*
X152577063Y-102748793D01*
X152577066Y-102748796D01*
X152584151Y-102757239D01*
X152593698Y-102762751D01*
X152617383Y-102776426D01*
X152626639Y-102782322D01*
X152658083Y-102804340D01*
X152668735Y-102807194D01*
X152672114Y-102808770D01*
X152675603Y-102810040D01*
X152685149Y-102815551D01*
X152722945Y-102822216D01*
X152733661Y-102824591D01*
X152770733Y-102834524D01*
X152781708Y-102833564D01*
X152781709Y-102833564D01*
X152808968Y-102831179D01*
X152819949Y-102830700D01*
X156428330Y-102830700D01*
X156496451Y-102850702D01*
X156542944Y-102904358D01*
X156553048Y-102974632D01*
X156528293Y-103033403D01*
X156478172Y-103098723D01*
X156417977Y-103244047D01*
X156397445Y-103400000D01*
X156417977Y-103555953D01*
X156478172Y-103701277D01*
X156573929Y-103826071D01*
X156580475Y-103831094D01*
X156604393Y-103849447D01*
X156694102Y-103918283D01*
X156698722Y-103921828D01*
X156698169Y-103922549D01*
X156742317Y-103968851D01*
X156755752Y-104038564D01*
X156729365Y-104104475D01*
X156690829Y-104137108D01*
X156685432Y-104140063D01*
X156677018Y-104143217D01*
X156562811Y-104228811D01*
X156557429Y-104235992D01*
X156493962Y-104320676D01*
X156477217Y-104343018D01*
X156474065Y-104351426D01*
X156449560Y-104416796D01*
X156427119Y-104476658D01*
X156420500Y-104537585D01*
X156420501Y-105544414D01*
X156420870Y-105547808D01*
X156420870Y-105547814D01*
X156425642Y-105591742D01*
X156427119Y-105605342D01*
X156429894Y-105612744D01*
X156429894Y-105612745D01*
X156474065Y-105730574D01*
X156477217Y-105738982D01*
X156482601Y-105746165D01*
X156482601Y-105746166D01*
X156552120Y-105838924D01*
X156562811Y-105853189D01*
X156569992Y-105858571D01*
X156663410Y-105928584D01*
X156677018Y-105938783D01*
X156685424Y-105941934D01*
X156737529Y-105961467D01*
X156794294Y-106004108D01*
X156818994Y-106070670D01*
X156819300Y-106079449D01*
X156819300Y-106129097D01*
X156799298Y-106197218D01*
X156745642Y-106243711D01*
X156737529Y-106247079D01*
X156655236Y-106277929D01*
X156648057Y-106283309D01*
X156648054Y-106283311D01*
X156560210Y-106349147D01*
X156539596Y-106364596D01*
X156534215Y-106371776D01*
X156458311Y-106473054D01*
X156458309Y-106473057D01*
X156452929Y-106480236D01*
X156402202Y-106615552D01*
X156401349Y-106623402D01*
X156401349Y-106623403D01*
X156400435Y-106631814D01*
X156395500Y-106677244D01*
X156395500Y-107722756D01*
X156402202Y-107784448D01*
X156452929Y-107919764D01*
X156458309Y-107926943D01*
X156458311Y-107926946D01*
X156499604Y-107982043D01*
X156539596Y-108035404D01*
X156546776Y-108040785D01*
X156646033Y-108115174D01*
X156688548Y-108172033D01*
X156693574Y-108242852D01*
X156659514Y-108305145D01*
X156646033Y-108316826D01*
X156592225Y-108357153D01*
X156539596Y-108396596D01*
X156534215Y-108403776D01*
X156458311Y-108505054D01*
X156458309Y-108505057D01*
X156452929Y-108512236D01*
X156402202Y-108647552D01*
X156401349Y-108655402D01*
X156401349Y-108655403D01*
X156399569Y-108671785D01*
X156395500Y-108709244D01*
X156395500Y-109754756D01*
X156395869Y-109758152D01*
X156395869Y-109758153D01*
X156400650Y-109802158D01*
X156402202Y-109816448D01*
X156452929Y-109951764D01*
X156458309Y-109958943D01*
X156458311Y-109958946D01*
X156504604Y-110020714D01*
X156539596Y-110067404D01*
X156546776Y-110072785D01*
X156648054Y-110148689D01*
X156648057Y-110148691D01*
X156655236Y-110154071D01*
X156718942Y-110177953D01*
X156783157Y-110202026D01*
X156783159Y-110202026D01*
X156790552Y-110204798D01*
X156798402Y-110205651D01*
X156798403Y-110205651D01*
X156848847Y-110211131D01*
X156852244Y-110211500D01*
X157447756Y-110211500D01*
X157451153Y-110211131D01*
X157501597Y-110205651D01*
X157501598Y-110205651D01*
X157509448Y-110204798D01*
X157516841Y-110202026D01*
X157516843Y-110202026D01*
X157581058Y-110177953D01*
X157644764Y-110154071D01*
X157651943Y-110148691D01*
X157651946Y-110148689D01*
X157753224Y-110072785D01*
X157760404Y-110067404D01*
X157847071Y-109951764D01*
X157850223Y-109943355D01*
X157854181Y-109936126D01*
X157904438Y-109885979D01*
X157973829Y-109870964D01*
X158040322Y-109895848D01*
X158084226Y-109956757D01*
X158106588Y-110023784D01*
X158112761Y-110036962D01*
X158198063Y-110174807D01*
X158207099Y-110186208D01*
X158321829Y-110300739D01*
X158333240Y-110309751D01*
X158471243Y-110394816D01*
X158484424Y-110400963D01*
X158638710Y-110452138D01*
X158652086Y-110455005D01*
X158746438Y-110464672D01*
X158752854Y-110465000D01*
X158777885Y-110465000D01*
X158793124Y-110460525D01*
X158794329Y-110459135D01*
X158796000Y-110451452D01*
X158796000Y-110446884D01*
X159304000Y-110446884D01*
X159308475Y-110462123D01*
X159309865Y-110463328D01*
X159317548Y-110464999D01*
X159347095Y-110464999D01*
X159353614Y-110464662D01*
X159449206Y-110454743D01*
X159462600Y-110451851D01*
X159616784Y-110400412D01*
X159629962Y-110394239D01*
X159767807Y-110308937D01*
X159779208Y-110299901D01*
X159893739Y-110185171D01*
X159902751Y-110173760D01*
X159987816Y-110035757D01*
X159993963Y-110022576D01*
X160045138Y-109868290D01*
X160048005Y-109854914D01*
X160057672Y-109760562D01*
X160058000Y-109754146D01*
X160058000Y-109504115D01*
X160053525Y-109488876D01*
X160052135Y-109487671D01*
X160044452Y-109486000D01*
X159322115Y-109486000D01*
X159306876Y-109490475D01*
X159305671Y-109491865D01*
X159304000Y-109499548D01*
X159304000Y-110446884D01*
X158796000Y-110446884D01*
X158796000Y-108959885D01*
X159304000Y-108959885D01*
X159308475Y-108975124D01*
X159309865Y-108976329D01*
X159317548Y-108978000D01*
X160039884Y-108978000D01*
X160055123Y-108973525D01*
X160056328Y-108972135D01*
X160057999Y-108964452D01*
X160057999Y-108709905D01*
X160057662Y-108703386D01*
X160047743Y-108607794D01*
X160044851Y-108594400D01*
X159993412Y-108440216D01*
X159987239Y-108427038D01*
X159898083Y-108282965D01*
X159900714Y-108281337D01*
X159879304Y-108228418D01*
X159892485Y-108158656D01*
X159899208Y-108148175D01*
X159898910Y-108147991D01*
X159987816Y-108003757D01*
X159993963Y-107990576D01*
X160045138Y-107836290D01*
X160048005Y-107822914D01*
X160057672Y-107728562D01*
X160058000Y-107722146D01*
X160058000Y-107472115D01*
X160053525Y-107456876D01*
X160052135Y-107455671D01*
X160044452Y-107454000D01*
X159322115Y-107454000D01*
X159306876Y-107458475D01*
X159305671Y-107459865D01*
X159304000Y-107467548D01*
X159304000Y-108959885D01*
X158796000Y-108959885D01*
X158796000Y-107072000D01*
X158816002Y-107003879D01*
X158869658Y-106957386D01*
X158922000Y-106946000D01*
X160039884Y-106946000D01*
X160055123Y-106941525D01*
X160056328Y-106940135D01*
X160057999Y-106932452D01*
X160057999Y-106677905D01*
X160057662Y-106671386D01*
X160047743Y-106575794D01*
X160044851Y-106562400D01*
X159993412Y-106408216D01*
X159987239Y-106395038D01*
X159901937Y-106257193D01*
X159892901Y-106245792D01*
X159778171Y-106131261D01*
X159766760Y-106122249D01*
X159654724Y-106053189D01*
X159607231Y-106000417D01*
X159595807Y-105930345D01*
X159624081Y-105865221D01*
X159630483Y-105858215D01*
X159637189Y-105853189D01*
X159647880Y-105838924D01*
X159717399Y-105746166D01*
X159717399Y-105746165D01*
X159722783Y-105738982D01*
X159725935Y-105730574D01*
X159770108Y-105612740D01*
X159770109Y-105612738D01*
X159772881Y-105605342D01*
X159779500Y-105544415D01*
X159779499Y-104537586D01*
X159775747Y-104503043D01*
X159773735Y-104484517D01*
X159773734Y-104484511D01*
X159772881Y-104476658D01*
X159722783Y-104343018D01*
X159706039Y-104320676D01*
X159642571Y-104235992D01*
X159637189Y-104228811D01*
X159605743Y-104205243D01*
X159530166Y-104148601D01*
X159530165Y-104148601D01*
X159522982Y-104143217D01*
X159449968Y-104115846D01*
X159393207Y-104073208D01*
X159368506Y-104006647D01*
X159368200Y-103997866D01*
X159368200Y-103357449D01*
X159368679Y-103346468D01*
X159371064Y-103319209D01*
X159371064Y-103319208D01*
X159372024Y-103308233D01*
X159362091Y-103271161D01*
X159359715Y-103260443D01*
X159359645Y-103260043D01*
X159355479Y-103236416D01*
X159354965Y-103233503D01*
X159354965Y-103233502D01*
X159353051Y-103222649D01*
X159347540Y-103213104D01*
X159346269Y-103209611D01*
X159344694Y-103206233D01*
X159341840Y-103195584D01*
X159335516Y-103186553D01*
X159335515Y-103186550D01*
X159319827Y-103164145D01*
X159313922Y-103154876D01*
X159306331Y-103141729D01*
X159294739Y-103121651D01*
X159286296Y-103114567D01*
X159286294Y-103114564D01*
X159265336Y-103096978D01*
X159257232Y-103089552D01*
X158447948Y-102280268D01*
X158440522Y-102272164D01*
X158422936Y-102251206D01*
X158422933Y-102251204D01*
X158415849Y-102242761D01*
X158382625Y-102223578D01*
X158373355Y-102217673D01*
X158350950Y-102201985D01*
X158350947Y-102201984D01*
X158341916Y-102195660D01*
X158331267Y-102192806D01*
X158327889Y-102191231D01*
X158324396Y-102189960D01*
X158314851Y-102184449D01*
X158303998Y-102182535D01*
X158303997Y-102182535D01*
X158292900Y-102180578D01*
X158277053Y-102177784D01*
X158266339Y-102175409D01*
X158229267Y-102165476D01*
X158218292Y-102166436D01*
X158218291Y-102166436D01*
X158191032Y-102168821D01*
X158180051Y-102169300D01*
X152989170Y-102169300D01*
X152921049Y-102149298D01*
X152900075Y-102132395D01*
X152767405Y-101999725D01*
X152733379Y-101937413D01*
X152730500Y-101910630D01*
X152730500Y-100230316D01*
X152750502Y-100162195D01*
X152804158Y-100115702D01*
X152815984Y-100111008D01*
X152850965Y-100099134D01*
X152860810Y-100093621D01*
X153004070Y-100013391D01*
X153028076Y-99999947D01*
X153043295Y-99987290D01*
X153179713Y-99873831D01*
X153184145Y-99870145D01*
X153313947Y-99714076D01*
X153316769Y-99709036D01*
X153316773Y-99709031D01*
X153345867Y-99657079D01*
X153396604Y-99607417D01*
X153466135Y-99593070D01*
X153532386Y-99618591D01*
X153574322Y-99675880D01*
X153581801Y-99718645D01*
X153581801Y-99980469D01*
X153582171Y-99987290D01*
X153587695Y-100038152D01*
X153591321Y-100053404D01*
X153636476Y-100173854D01*
X153645014Y-100189449D01*
X153721515Y-100291524D01*
X153734076Y-100304085D01*
X153836151Y-100380586D01*
X153851746Y-100389124D01*
X153972194Y-100434278D01*
X153987449Y-100437905D01*
X154038314Y-100443431D01*
X154045128Y-100443800D01*
X154667685Y-100443800D01*
X154682924Y-100439325D01*
X154684129Y-100437935D01*
X154685800Y-100430252D01*
X154685800Y-100425684D01*
X155193800Y-100425684D01*
X155198275Y-100440923D01*
X155199665Y-100442128D01*
X155207348Y-100443799D01*
X155834469Y-100443799D01*
X155841290Y-100443429D01*
X155892152Y-100437905D01*
X155907404Y-100434279D01*
X156027854Y-100389124D01*
X156043449Y-100380586D01*
X156110946Y-100330000D01*
X157140539Y-100330000D01*
X157160354Y-100581775D01*
X157161508Y-100586582D01*
X157161509Y-100586588D01*
X157190571Y-100707636D01*
X157219312Y-100827351D01*
X157221205Y-100831922D01*
X157221206Y-100831924D01*
X157310165Y-101046689D01*
X157315960Y-101060680D01*
X157318546Y-101064900D01*
X157328793Y-101081622D01*
X157447919Y-101276017D01*
X157611939Y-101468061D01*
X157803983Y-101632081D01*
X158019320Y-101764040D01*
X158023890Y-101765933D01*
X158023894Y-101765935D01*
X158242806Y-101856611D01*
X158252649Y-101860688D01*
X158338865Y-101881387D01*
X158493412Y-101918491D01*
X158493418Y-101918492D01*
X158498225Y-101919646D01*
X158586253Y-101926574D01*
X158684507Y-101934307D01*
X158684516Y-101934307D01*
X158686964Y-101934500D01*
X158813036Y-101934500D01*
X158815484Y-101934307D01*
X158815493Y-101934307D01*
X158913747Y-101926574D01*
X159001775Y-101919646D01*
X159006582Y-101918492D01*
X159006588Y-101918491D01*
X159161135Y-101881387D01*
X159247351Y-101860688D01*
X159257194Y-101856611D01*
X159476106Y-101765935D01*
X159476110Y-101765933D01*
X159480680Y-101764040D01*
X159696017Y-101632081D01*
X159888061Y-101468061D01*
X160052081Y-101276017D01*
X160171207Y-101081622D01*
X160181454Y-101064900D01*
X160184040Y-101060680D01*
X160189836Y-101046689D01*
X160278794Y-100831924D01*
X160278795Y-100831922D01*
X160280688Y-100827351D01*
X160309429Y-100707636D01*
X160338491Y-100586588D01*
X160338492Y-100586582D01*
X160339646Y-100581775D01*
X160359461Y-100330000D01*
X160339646Y-100078225D01*
X160338492Y-100073418D01*
X160338491Y-100073412D01*
X160290575Y-99873831D01*
X160280688Y-99832649D01*
X160233466Y-99718645D01*
X160185935Y-99603894D01*
X160185933Y-99603890D01*
X160184040Y-99599320D01*
X160052081Y-99383983D01*
X159888061Y-99191939D01*
X159696017Y-99027919D01*
X159480680Y-98895960D01*
X159476110Y-98894067D01*
X159476106Y-98894065D01*
X159251924Y-98801206D01*
X159251922Y-98801205D01*
X159247351Y-98799312D01*
X159161135Y-98778613D01*
X159006588Y-98741509D01*
X159006582Y-98741508D01*
X159001775Y-98740354D01*
X158913747Y-98733426D01*
X158815493Y-98725693D01*
X158815484Y-98725693D01*
X158813036Y-98725500D01*
X158686964Y-98725500D01*
X158684516Y-98725693D01*
X158684507Y-98725693D01*
X158586253Y-98733426D01*
X158498225Y-98740354D01*
X158493418Y-98741508D01*
X158493412Y-98741509D01*
X158338865Y-98778613D01*
X158252649Y-98799312D01*
X158248078Y-98801205D01*
X158248076Y-98801206D01*
X158023894Y-98894065D01*
X158023890Y-98894067D01*
X158019320Y-98895960D01*
X157803983Y-99027919D01*
X157611939Y-99191939D01*
X157447919Y-99383983D01*
X157315960Y-99599320D01*
X157314067Y-99603890D01*
X157314065Y-99603894D01*
X157266534Y-99718645D01*
X157219312Y-99832649D01*
X157209425Y-99873831D01*
X157161509Y-100073412D01*
X157161508Y-100073418D01*
X157160354Y-100078225D01*
X157140539Y-100330000D01*
X156110946Y-100330000D01*
X156145524Y-100304085D01*
X156158085Y-100291524D01*
X156234586Y-100189449D01*
X156243124Y-100173854D01*
X156288278Y-100053406D01*
X156291905Y-100038151D01*
X156297431Y-99987286D01*
X156297800Y-99980472D01*
X156297800Y-99357915D01*
X156293325Y-99342676D01*
X156291935Y-99341471D01*
X156284252Y-99339800D01*
X155211915Y-99339800D01*
X155196676Y-99344275D01*
X155195471Y-99345665D01*
X155193800Y-99353348D01*
X155193800Y-100425684D01*
X154685800Y-100425684D01*
X154685800Y-98957800D01*
X154705802Y-98889679D01*
X154759458Y-98843186D01*
X154811800Y-98831800D01*
X156279684Y-98831800D01*
X156294923Y-98827325D01*
X156296128Y-98825935D01*
X156297799Y-98818252D01*
X156297799Y-98191131D01*
X156297430Y-98184323D01*
X156297352Y-98183603D01*
X156297382Y-98183435D01*
X156297246Y-98180923D01*
X156297838Y-98180891D01*
X156309883Y-98113721D01*
X156358206Y-98061707D01*
X156422616Y-98044000D01*
X159982575Y-98044000D01*
X160007153Y-98046421D01*
X160020000Y-98048976D01*
X160032172Y-98046555D01*
X160043699Y-98046555D01*
X160054681Y-98047034D01*
X160185449Y-98058475D01*
X160207070Y-98062287D01*
X160356848Y-98102420D01*
X160377484Y-98109931D01*
X160518010Y-98175460D01*
X160537030Y-98186442D01*
X160664046Y-98275379D01*
X160680871Y-98289497D01*
X160790503Y-98399129D01*
X160804621Y-98415954D01*
X160893558Y-98542970D01*
X160904540Y-98561990D01*
X160970069Y-98702516D01*
X160977580Y-98723152D01*
X161017713Y-98872930D01*
X161021526Y-98894554D01*
X161032966Y-99025320D01*
X161033445Y-99036301D01*
X161033445Y-99047828D01*
X161031024Y-99060000D01*
X161033445Y-99072170D01*
X161033579Y-99072844D01*
X161036000Y-99097425D01*
X161036000Y-114262575D01*
X161033579Y-114287153D01*
X161031024Y-114300000D01*
X161033445Y-114312172D01*
X161033445Y-114323699D01*
X161032966Y-114334680D01*
X161021526Y-114465446D01*
X161017713Y-114487070D01*
X160990076Y-114590214D01*
X160977581Y-114636846D01*
X160970069Y-114657484D01*
X160904540Y-114798010D01*
X160893558Y-114817030D01*
X160804621Y-114944046D01*
X160790503Y-114960871D01*
X160680871Y-115070503D01*
X160664046Y-115084621D01*
X160537030Y-115173558D01*
X160518010Y-115184540D01*
X160377484Y-115250069D01*
X160356848Y-115257580D01*
X160207070Y-115297713D01*
X160185449Y-115301525D01*
X160076878Y-115311024D01*
X160054680Y-115312966D01*
X160043699Y-115313445D01*
X160032172Y-115313445D01*
X160020000Y-115311024D01*
X160007153Y-115313579D01*
X159982575Y-115316000D01*
X158331614Y-115316000D01*
X158263493Y-115295998D01*
X158217000Y-115242342D01*
X158206896Y-115172068D01*
X158234740Y-115109431D01*
X158360249Y-114958524D01*
X158360256Y-114958514D01*
X158363947Y-114954076D01*
X158463134Y-114776965D01*
X158464990Y-114771498D01*
X158464992Y-114771493D01*
X158526528Y-114590214D01*
X158526529Y-114590209D01*
X158528384Y-114584745D01*
X158529212Y-114579036D01*
X158529213Y-114579031D01*
X158556979Y-114387527D01*
X158557512Y-114383853D01*
X158559032Y-114325800D01*
X158540458Y-114123659D01*
X158538890Y-114118099D01*
X158486925Y-113933846D01*
X158486924Y-113933844D01*
X158485357Y-113928287D01*
X158474778Y-113906833D01*
X158398131Y-113751409D01*
X158395576Y-113746228D01*
X158274120Y-113583579D01*
X158125058Y-113445787D01*
X158120175Y-113442706D01*
X158120171Y-113442703D01*
X157958264Y-113340548D01*
X157953381Y-113337467D01*
X157764839Y-113262246D01*
X157759179Y-113261120D01*
X157759175Y-113261119D01*
X157571413Y-113223771D01*
X157571410Y-113223771D01*
X157565746Y-113222644D01*
X157559971Y-113222568D01*
X157559967Y-113222568D01*
X157458593Y-113221241D01*
X157362771Y-113219987D01*
X157357074Y-113220966D01*
X157357073Y-113220966D01*
X157259420Y-113237746D01*
X157162710Y-113254364D01*
X156972263Y-113324624D01*
X156797810Y-113428412D01*
X156793470Y-113432218D01*
X156793466Y-113432221D01*
X156773523Y-113449711D01*
X156645192Y-113562255D01*
X156519520Y-113721669D01*
X156516831Y-113726780D01*
X156516829Y-113726783D01*
X156505307Y-113748683D01*
X156425003Y-113901315D01*
X156364807Y-114095178D01*
X156340948Y-114296764D01*
X156354224Y-114499322D01*
X156355645Y-114504918D01*
X156355646Y-114504923D01*
X156402771Y-114690474D01*
X156404192Y-114696069D01*
X156406609Y-114701312D01*
X156443810Y-114782008D01*
X156489177Y-114880416D01*
X156492510Y-114885132D01*
X156540526Y-114953073D01*
X156606333Y-115046189D01*
X156610475Y-115050224D01*
X156661311Y-115099746D01*
X156696149Y-115161607D01*
X156692012Y-115232483D01*
X156650213Y-115289871D01*
X156584023Y-115315551D01*
X156573390Y-115316000D01*
X155791614Y-115316000D01*
X155723493Y-115295998D01*
X155677000Y-115242342D01*
X155666896Y-115172068D01*
X155694740Y-115109431D01*
X155820249Y-114958524D01*
X155820256Y-114958514D01*
X155823947Y-114954076D01*
X155923134Y-114776965D01*
X155924990Y-114771498D01*
X155924992Y-114771493D01*
X155986528Y-114590214D01*
X155986529Y-114590209D01*
X155988384Y-114584745D01*
X155989212Y-114579036D01*
X155989213Y-114579031D01*
X156016979Y-114387527D01*
X156017512Y-114383853D01*
X156019032Y-114325800D01*
X156000458Y-114123659D01*
X155998890Y-114118099D01*
X155946925Y-113933846D01*
X155946924Y-113933844D01*
X155945357Y-113928287D01*
X155934778Y-113906833D01*
X155858131Y-113751409D01*
X155855576Y-113746228D01*
X155734120Y-113583579D01*
X155585058Y-113445787D01*
X155580175Y-113442706D01*
X155580171Y-113442703D01*
X155418264Y-113340548D01*
X155413381Y-113337467D01*
X155408017Y-113335327D01*
X155319809Y-113300135D01*
X155263950Y-113256314D01*
X155240500Y-113183105D01*
X155240500Y-104210749D01*
X155240979Y-104199768D01*
X155243364Y-104172509D01*
X155243364Y-104172508D01*
X155244324Y-104161533D01*
X155234391Y-104124461D01*
X155232015Y-104113743D01*
X155227265Y-104086803D01*
X155227265Y-104086802D01*
X155225351Y-104075949D01*
X155219840Y-104066404D01*
X155218569Y-104062911D01*
X155216994Y-104059533D01*
X155214140Y-104048884D01*
X155207816Y-104039853D01*
X155207815Y-104039850D01*
X155192127Y-104017445D01*
X155186222Y-104008176D01*
X155177127Y-103992424D01*
X155167039Y-103974951D01*
X155158596Y-103967867D01*
X155158594Y-103967864D01*
X155137636Y-103950278D01*
X155129532Y-103942852D01*
X154604748Y-103418068D01*
X154597322Y-103409964D01*
X154579736Y-103389006D01*
X154579733Y-103389004D01*
X154572649Y-103380561D01*
X154539425Y-103361378D01*
X154530155Y-103355473D01*
X154507750Y-103339785D01*
X154507747Y-103339784D01*
X154498716Y-103333460D01*
X154488067Y-103330606D01*
X154484689Y-103329031D01*
X154481196Y-103327760D01*
X154471651Y-103322249D01*
X154460798Y-103320335D01*
X154460797Y-103320335D01*
X154449700Y-103318378D01*
X154433853Y-103315584D01*
X154423139Y-103313209D01*
X154386067Y-103303276D01*
X154375092Y-103304236D01*
X154375091Y-103304236D01*
X154347832Y-103306621D01*
X154336851Y-103307100D01*
X152763636Y-103307100D01*
X152695515Y-103287098D01*
X152674619Y-103270274D01*
X152656877Y-103252563D01*
X152656876Y-103252563D01*
X152649506Y-103245205D01*
X152543477Y-103193377D01*
X152513155Y-103188953D01*
X152478928Y-103183960D01*
X152478924Y-103183960D01*
X152474402Y-103183300D01*
X151132198Y-103183300D01*
X151127648Y-103183970D01*
X151127645Y-103183970D01*
X151072208Y-103192131D01*
X151072207Y-103192131D01*
X151062522Y-103193557D01*
X151029824Y-103209611D01*
X150965932Y-103240980D01*
X150965930Y-103240981D01*
X150956584Y-103245570D01*
X150873205Y-103329094D01*
X150821377Y-103435123D01*
X150819965Y-103444803D01*
X150815244Y-103477166D01*
X150811300Y-103504198D01*
X150811300Y-103771402D01*
X150811970Y-103775952D01*
X150811970Y-103775955D01*
X150817207Y-103811527D01*
X150821557Y-103841078D01*
X150825874Y-103849870D01*
X150825874Y-103849871D01*
X150854040Y-103907240D01*
X150866108Y-103977203D01*
X150854137Y-104018103D01*
X150821377Y-104085123D01*
X150819965Y-104094803D01*
X150812117Y-104148601D01*
X150811300Y-104154198D01*
X150811300Y-104421402D01*
X150811970Y-104425952D01*
X150811970Y-104425955D01*
X150819434Y-104476658D01*
X150821557Y-104491078D01*
X150825874Y-104499870D01*
X150825874Y-104499871D01*
X150854040Y-104557240D01*
X150866108Y-104627203D01*
X150854137Y-104668103D01*
X150821377Y-104735123D01*
X150811300Y-104804198D01*
X150811300Y-105071402D01*
X150821557Y-105141078D01*
X150825873Y-105149868D01*
X150848888Y-105196745D01*
X150860956Y-105266709D01*
X150832306Y-105333268D01*
X150809904Y-105359965D01*
X150802478Y-105368068D01*
X149305748Y-106864798D01*
X149297644Y-106872224D01*
X149276686Y-106889810D01*
X149276684Y-106889813D01*
X149268241Y-106896897D01*
X149252579Y-106924024D01*
X149249058Y-106930122D01*
X149243153Y-106939391D01*
X149227465Y-106961796D01*
X149227464Y-106961799D01*
X149221140Y-106970830D01*
X149218286Y-106981479D01*
X149216711Y-106984857D01*
X149215440Y-106988350D01*
X149209929Y-106997895D01*
X149208015Y-107008748D01*
X149208015Y-107008749D01*
X149203265Y-107035689D01*
X149200889Y-107046407D01*
X149190956Y-107083479D01*
X149191916Y-107094454D01*
X149191916Y-107094455D01*
X149194301Y-107121714D01*
X149194780Y-107132695D01*
X149194780Y-110909950D01*
X149174778Y-110978071D01*
X149157875Y-110999045D01*
X148840725Y-111316195D01*
X148778413Y-111350221D01*
X148751630Y-111353100D01*
X145404749Y-111353100D01*
X145393768Y-111352621D01*
X145366509Y-111350236D01*
X145366508Y-111350236D01*
X145355533Y-111349276D01*
X145318461Y-111359209D01*
X145307747Y-111361584D01*
X145291900Y-111364378D01*
X145280803Y-111366335D01*
X145280802Y-111366335D01*
X145269949Y-111368249D01*
X145260404Y-111373760D01*
X145256911Y-111375031D01*
X145253533Y-111376606D01*
X145242884Y-111379460D01*
X145233853Y-111385784D01*
X145233850Y-111385785D01*
X145211445Y-111401473D01*
X145202175Y-111407379D01*
X145168951Y-111426561D01*
X145161868Y-111435002D01*
X145161867Y-111435003D01*
X145144288Y-111455953D01*
X145136863Y-111464056D01*
X144530063Y-112070857D01*
X144521959Y-112078283D01*
X144492561Y-112102951D01*
X144474677Y-112133926D01*
X144473378Y-112136176D01*
X144467473Y-112145445D01*
X144451785Y-112167850D01*
X144451784Y-112167853D01*
X144445460Y-112176884D01*
X144442606Y-112187533D01*
X144441031Y-112190911D01*
X144439760Y-112194404D01*
X144434249Y-112203949D01*
X144432335Y-112214802D01*
X144432335Y-112214803D01*
X144427585Y-112241743D01*
X144425209Y-112252461D01*
X144415276Y-112289533D01*
X144416236Y-112300508D01*
X144416236Y-112300509D01*
X144418621Y-112327768D01*
X144419100Y-112338749D01*
X144419100Y-113182636D01*
X144399098Y-113250757D01*
X144345442Y-113297250D01*
X144336714Y-113300847D01*
X144272263Y-113324624D01*
X144097810Y-113428412D01*
X144093470Y-113432218D01*
X144093466Y-113432221D01*
X144073523Y-113449711D01*
X143945192Y-113562255D01*
X143819520Y-113721669D01*
X143816831Y-113726780D01*
X143816829Y-113726783D01*
X143805307Y-113748683D01*
X143755887Y-113799656D01*
X143686755Y-113815818D01*
X143619859Y-113792039D01*
X143576438Y-113735868D01*
X143567799Y-113690015D01*
X143567799Y-113431131D01*
X143567429Y-113424310D01*
X143561905Y-113373448D01*
X143558279Y-113358196D01*
X143513124Y-113237746D01*
X143504586Y-113222151D01*
X143428085Y-113120076D01*
X143415524Y-113107515D01*
X143313449Y-113031014D01*
X143297854Y-113022476D01*
X143177406Y-112977322D01*
X143162151Y-112973695D01*
X143111286Y-112968169D01*
X143104472Y-112967800D01*
X142481915Y-112967800D01*
X142466676Y-112972275D01*
X142465471Y-112973665D01*
X142463800Y-112981348D01*
X142463800Y-114453800D01*
X142443798Y-114521921D01*
X142390142Y-114568414D01*
X142337800Y-114579800D01*
X142081800Y-114579800D01*
X142013679Y-114559798D01*
X141967186Y-114506142D01*
X141955800Y-114453800D01*
X141955800Y-112985916D01*
X141951325Y-112970677D01*
X141949935Y-112969472D01*
X141942252Y-112967801D01*
X141315131Y-112967801D01*
X141308310Y-112968171D01*
X141257448Y-112973695D01*
X141242196Y-112977321D01*
X141121746Y-113022476D01*
X141106151Y-113031014D01*
X141004076Y-113107515D01*
X140991515Y-113120076D01*
X140915014Y-113222151D01*
X140906476Y-113237746D01*
X140861322Y-113358194D01*
X140857695Y-113373449D01*
X140852169Y-113424314D01*
X140851800Y-113431128D01*
X140851800Y-113685960D01*
X140831798Y-113754081D01*
X140778142Y-113800574D01*
X140707868Y-113810678D01*
X140643288Y-113781184D01*
X140618367Y-113751794D01*
X140618131Y-113751408D01*
X140615576Y-113746228D01*
X140494120Y-113583579D01*
X140345058Y-113445787D01*
X140340175Y-113442706D01*
X140340171Y-113442703D01*
X140178264Y-113340548D01*
X140173381Y-113337467D01*
X140168017Y-113335327D01*
X140079809Y-113300135D01*
X140023950Y-113256314D01*
X140000500Y-113183105D01*
X140000500Y-111999970D01*
X140020502Y-111931849D01*
X140037405Y-111910875D01*
X140150875Y-111797405D01*
X140213187Y-111763379D01*
X140239970Y-111760500D01*
X140399300Y-111760500D01*
X140467421Y-111780502D01*
X140513914Y-111834158D01*
X140525300Y-111886500D01*
X140525300Y-111952556D01*
X140525669Y-111955952D01*
X140525669Y-111955953D01*
X140530592Y-112001265D01*
X140532002Y-112014248D01*
X140582729Y-112149564D01*
X140588109Y-112156743D01*
X140588111Y-112156746D01*
X140623488Y-112203949D01*
X140669396Y-112265204D01*
X140676576Y-112270585D01*
X140777854Y-112346489D01*
X140777857Y-112346491D01*
X140785036Y-112351871D01*
X140867996Y-112382971D01*
X140912957Y-112399826D01*
X140912959Y-112399826D01*
X140920352Y-112402598D01*
X140928202Y-112403451D01*
X140928203Y-112403451D01*
X140978647Y-112408931D01*
X140982044Y-112409300D01*
X141577556Y-112409300D01*
X141580953Y-112408931D01*
X141631397Y-112403451D01*
X141631398Y-112403451D01*
X141639248Y-112402598D01*
X141646641Y-112399826D01*
X141646643Y-112399826D01*
X141691604Y-112382971D01*
X141774564Y-112351871D01*
X141781743Y-112346491D01*
X141781746Y-112346489D01*
X141883024Y-112270585D01*
X141890204Y-112265204D01*
X141976871Y-112149564D01*
X141980023Y-112141155D01*
X141983981Y-112133926D01*
X142034238Y-112083779D01*
X142103629Y-112068764D01*
X142170122Y-112093648D01*
X142214026Y-112154557D01*
X142236388Y-112221584D01*
X142242561Y-112234762D01*
X142327863Y-112372607D01*
X142336899Y-112384008D01*
X142451629Y-112498539D01*
X142463040Y-112507551D01*
X142601043Y-112592616D01*
X142614224Y-112598763D01*
X142768510Y-112649938D01*
X142781886Y-112652805D01*
X142876238Y-112662472D01*
X142882654Y-112662800D01*
X142907685Y-112662800D01*
X142922924Y-112658325D01*
X142924129Y-112656935D01*
X142925800Y-112649252D01*
X142925800Y-112644684D01*
X143433800Y-112644684D01*
X143438275Y-112659923D01*
X143439665Y-112661128D01*
X143447348Y-112662799D01*
X143476895Y-112662799D01*
X143483414Y-112662462D01*
X143579006Y-112652543D01*
X143592400Y-112649651D01*
X143746584Y-112598212D01*
X143759762Y-112592039D01*
X143897607Y-112506737D01*
X143909008Y-112497701D01*
X144023539Y-112382971D01*
X144032551Y-112371560D01*
X144117616Y-112233557D01*
X144123763Y-112220376D01*
X144174938Y-112066090D01*
X144177805Y-112052714D01*
X144187472Y-111958362D01*
X144187800Y-111951946D01*
X144187800Y-111701915D01*
X144183325Y-111686676D01*
X144181935Y-111685471D01*
X144174252Y-111683800D01*
X143451915Y-111683800D01*
X143436676Y-111688275D01*
X143435471Y-111689665D01*
X143433800Y-111697348D01*
X143433800Y-112644684D01*
X142925800Y-112644684D01*
X142925800Y-111157685D01*
X143433800Y-111157685D01*
X143438275Y-111172924D01*
X143439665Y-111174129D01*
X143447348Y-111175800D01*
X144169684Y-111175800D01*
X144184923Y-111171325D01*
X144186128Y-111169935D01*
X144187799Y-111162252D01*
X144187799Y-110907705D01*
X144187462Y-110901186D01*
X144177543Y-110805594D01*
X144174651Y-110792200D01*
X144123212Y-110638016D01*
X144117039Y-110624838D01*
X144027883Y-110480765D01*
X144030514Y-110479137D01*
X144009104Y-110426218D01*
X144022285Y-110356456D01*
X144029008Y-110345975D01*
X144028710Y-110345791D01*
X144117616Y-110201557D01*
X144123763Y-110188376D01*
X144174938Y-110034090D01*
X144177805Y-110020714D01*
X144187472Y-109926362D01*
X144187800Y-109919946D01*
X144187800Y-109669915D01*
X144183325Y-109654676D01*
X144181935Y-109653471D01*
X144174252Y-109651800D01*
X143451915Y-109651800D01*
X143436676Y-109656275D01*
X143435471Y-109657665D01*
X143433800Y-109665348D01*
X143433800Y-111157685D01*
X142925800Y-111157685D01*
X142925800Y-109125685D01*
X143433800Y-109125685D01*
X143438275Y-109140924D01*
X143439665Y-109142129D01*
X143447348Y-109143800D01*
X144169684Y-109143800D01*
X144184923Y-109139325D01*
X144186128Y-109137935D01*
X144187799Y-109130252D01*
X144187799Y-108875705D01*
X144187462Y-108869186D01*
X144177543Y-108773594D01*
X144174651Y-108760200D01*
X144123212Y-108606016D01*
X144117039Y-108592838D01*
X144031737Y-108454993D01*
X144022701Y-108443592D01*
X143907971Y-108329061D01*
X143896560Y-108320049D01*
X143758557Y-108234984D01*
X143745376Y-108228837D01*
X143591090Y-108177662D01*
X143577714Y-108174795D01*
X143483362Y-108165128D01*
X143476945Y-108164800D01*
X143451915Y-108164800D01*
X143436676Y-108169275D01*
X143435471Y-108170665D01*
X143433800Y-108178348D01*
X143433800Y-109125685D01*
X142925800Y-109125685D01*
X142925800Y-108182916D01*
X142921325Y-108167677D01*
X142919935Y-108166472D01*
X142912252Y-108164801D01*
X142882705Y-108164801D01*
X142876186Y-108165138D01*
X142780594Y-108175057D01*
X142767200Y-108177949D01*
X142613016Y-108229388D01*
X142599838Y-108235561D01*
X142461993Y-108320863D01*
X142450592Y-108329899D01*
X142336061Y-108444629D01*
X142327049Y-108456040D01*
X142241984Y-108594043D01*
X142235836Y-108607226D01*
X142214083Y-108672810D01*
X142173653Y-108731170D01*
X142108088Y-108758407D01*
X142038207Y-108745874D01*
X141983970Y-108693653D01*
X141980021Y-108686440D01*
X141976871Y-108678036D01*
X141968154Y-108666404D01*
X141895585Y-108569576D01*
X141890204Y-108562396D01*
X141834489Y-108520640D01*
X141781746Y-108481111D01*
X141781743Y-108481109D01*
X141774564Y-108475729D01*
X141658844Y-108432348D01*
X141646643Y-108427774D01*
X141646641Y-108427774D01*
X141639248Y-108425002D01*
X141631398Y-108424149D01*
X141631397Y-108424149D01*
X141580953Y-108418669D01*
X141580952Y-108418669D01*
X141577556Y-108418300D01*
X140982044Y-108418300D01*
X140978648Y-108418669D01*
X140978647Y-108418669D01*
X140928203Y-108424149D01*
X140928202Y-108424149D01*
X140920352Y-108425002D01*
X140912959Y-108427774D01*
X140912957Y-108427774D01*
X140900756Y-108432348D01*
X140785036Y-108475729D01*
X140777857Y-108481109D01*
X140777854Y-108481111D01*
X140725111Y-108520640D01*
X140669396Y-108562396D01*
X140664015Y-108569576D01*
X140588111Y-108670854D01*
X140588109Y-108670857D01*
X140582729Y-108678036D01*
X140562810Y-108731170D01*
X140535584Y-108803798D01*
X140532002Y-108813352D01*
X140525300Y-108875044D01*
X140525300Y-108941100D01*
X140505298Y-109009221D01*
X140451642Y-109055714D01*
X140399300Y-109067100D01*
X140070740Y-109067100D01*
X140059760Y-109066621D01*
X140032510Y-109064237D01*
X140032509Y-109064237D01*
X140021533Y-109063277D01*
X140010889Y-109066129D01*
X140010888Y-109066129D01*
X139984482Y-109073204D01*
X139973753Y-109075583D01*
X139946803Y-109080335D01*
X139946802Y-109080335D01*
X139935949Y-109082249D01*
X139926404Y-109087760D01*
X139922914Y-109089030D01*
X139919535Y-109090606D01*
X139908883Y-109093460D01*
X139877439Y-109115478D01*
X139868183Y-109121374D01*
X139854899Y-109129044D01*
X139834951Y-109140561D01*
X139827866Y-109149004D01*
X139827863Y-109149007D01*
X139810278Y-109169964D01*
X139802852Y-109178068D01*
X139455214Y-109525706D01*
X139392902Y-109559732D01*
X139326990Y-109555281D01*
X139322951Y-109552949D01*
X139285153Y-109546284D01*
X139274439Y-109543909D01*
X139237367Y-109533976D01*
X139226392Y-109534936D01*
X139226391Y-109534936D01*
X139199132Y-109537321D01*
X139188151Y-109537800D01*
X139050589Y-109537800D01*
X138982468Y-109517798D01*
X138935975Y-109464142D01*
X138932607Y-109456029D01*
X138910778Y-109397800D01*
X138897071Y-109361236D01*
X138891691Y-109354057D01*
X138891689Y-109354054D01*
X138815785Y-109252776D01*
X138810404Y-109245596D01*
X138789977Y-109230287D01*
X138701946Y-109164311D01*
X138701943Y-109164309D01*
X138694764Y-109158929D01*
X138594585Y-109121374D01*
X138566843Y-109110974D01*
X138566841Y-109110974D01*
X138559448Y-109108202D01*
X138551598Y-109107349D01*
X138551597Y-109107349D01*
X138501153Y-109101869D01*
X138501152Y-109101869D01*
X138497756Y-109101500D01*
X137502244Y-109101500D01*
X137498848Y-109101869D01*
X137498847Y-109101869D01*
X137448403Y-109107349D01*
X137448402Y-109107349D01*
X137440552Y-109108202D01*
X137433159Y-109110974D01*
X137433157Y-109110974D01*
X137405415Y-109121374D01*
X137305236Y-109158929D01*
X137298057Y-109164309D01*
X137298054Y-109164311D01*
X137210023Y-109230287D01*
X137189596Y-109245596D01*
X137184215Y-109252776D01*
X137108311Y-109354054D01*
X137108309Y-109354057D01*
X137102929Y-109361236D01*
X137089222Y-109397800D01*
X137055080Y-109488876D01*
X137052202Y-109496552D01*
X137051349Y-109504402D01*
X137051349Y-109504403D01*
X137047773Y-109537321D01*
X137045500Y-109558244D01*
X137045500Y-110178756D01*
X137052202Y-110240448D01*
X137054974Y-110247841D01*
X137054974Y-110247843D01*
X137065048Y-110274714D01*
X137102929Y-110375764D01*
X137108309Y-110382943D01*
X137108311Y-110382946D01*
X137165412Y-110459135D01*
X137189596Y-110491404D01*
X137196776Y-110496785D01*
X137298054Y-110572689D01*
X137298057Y-110572691D01*
X137305236Y-110578071D01*
X137376993Y-110604971D01*
X137433157Y-110626026D01*
X137433159Y-110626026D01*
X137440552Y-110628798D01*
X137448402Y-110629651D01*
X137448403Y-110629651D01*
X137498847Y-110635131D01*
X137502244Y-110635500D01*
X138497756Y-110635500D01*
X138501153Y-110635131D01*
X138551597Y-110629651D01*
X138551598Y-110629651D01*
X138559448Y-110628798D01*
X138566841Y-110626026D01*
X138566843Y-110626026D01*
X138623007Y-110604971D01*
X138694764Y-110578071D01*
X138701943Y-110572691D01*
X138701946Y-110572689D01*
X138803224Y-110496785D01*
X138810404Y-110491404D01*
X138834588Y-110459135D01*
X138891689Y-110382946D01*
X138891691Y-110382943D01*
X138897071Y-110375764D01*
X138923975Y-110303997D01*
X138966617Y-110247233D01*
X139033178Y-110222533D01*
X139102527Y-110237740D01*
X139131052Y-110259132D01*
X139302195Y-110430275D01*
X139336221Y-110492587D01*
X139339100Y-110519370D01*
X139339100Y-111754292D01*
X139338620Y-111765277D01*
X139338129Y-111770884D01*
X139335276Y-111781533D01*
X139336237Y-111792512D01*
X139338621Y-111819768D01*
X139339100Y-111830749D01*
X139339100Y-113182636D01*
X139319098Y-113250757D01*
X139265442Y-113297250D01*
X139256714Y-113300847D01*
X139192263Y-113324624D01*
X139017810Y-113428412D01*
X139013470Y-113432218D01*
X139013466Y-113432221D01*
X138993523Y-113449711D01*
X138865192Y-113562255D01*
X138739520Y-113721669D01*
X138736831Y-113726780D01*
X138736829Y-113726783D01*
X138725307Y-113748683D01*
X138645003Y-113901315D01*
X138584807Y-114095178D01*
X138560948Y-114296764D01*
X138574224Y-114499322D01*
X138575645Y-114504918D01*
X138575646Y-114504923D01*
X138622771Y-114690474D01*
X138624192Y-114696069D01*
X138626609Y-114701312D01*
X138663810Y-114782008D01*
X138709177Y-114880416D01*
X138712510Y-114885132D01*
X138760526Y-114953073D01*
X138826333Y-115046189D01*
X138830475Y-115050224D01*
X138881311Y-115099746D01*
X138916149Y-115161607D01*
X138912012Y-115232483D01*
X138870213Y-115289871D01*
X138804023Y-115315551D01*
X138793390Y-115316000D01*
X137197425Y-115316000D01*
X137172847Y-115313579D01*
X137160000Y-115311024D01*
X137147828Y-115313445D01*
X137136301Y-115313445D01*
X137125320Y-115312966D01*
X137103122Y-115311024D01*
X136994551Y-115301525D01*
X136972930Y-115297713D01*
X136823152Y-115257580D01*
X136802516Y-115250069D01*
X136661990Y-115184540D01*
X136642970Y-115173558D01*
X136515954Y-115084621D01*
X136499129Y-115070503D01*
X136389497Y-114960871D01*
X136375379Y-114944046D01*
X136286442Y-114817030D01*
X136275460Y-114798010D01*
X136209931Y-114657484D01*
X136202419Y-114636846D01*
X136189924Y-114590214D01*
X136162287Y-114487070D01*
X136158474Y-114465446D01*
X136147034Y-114334680D01*
X136146555Y-114323699D01*
X136146555Y-114312172D01*
X136148976Y-114300000D01*
X136146421Y-114287153D01*
X136144000Y-114262575D01*
X136144000Y-104752933D01*
X136792001Y-104752933D01*
X136792338Y-104759452D01*
X136802166Y-104854170D01*
X136805058Y-104867564D01*
X136856036Y-105020365D01*
X136862210Y-105033543D01*
X136946744Y-105170149D01*
X136955780Y-105181550D01*
X137069479Y-105295051D01*
X137080890Y-105304063D01*
X137217654Y-105388365D01*
X137230831Y-105394509D01*
X137295221Y-105415866D01*
X137353581Y-105456296D01*
X137380818Y-105521860D01*
X137368285Y-105591742D01*
X137316061Y-105645980D01*
X137310425Y-105649065D01*
X137302018Y-105652217D01*
X137187811Y-105737811D01*
X137182429Y-105744992D01*
X137114271Y-105835935D01*
X137102217Y-105852018D01*
X137099065Y-105860426D01*
X137058604Y-105968360D01*
X137052119Y-105985658D01*
X137051266Y-105993511D01*
X137046811Y-106034522D01*
X137045500Y-106046585D01*
X137045501Y-106628414D01*
X137045870Y-106631808D01*
X137045870Y-106631814D01*
X137050877Y-106677905D01*
X137052119Y-106689342D01*
X137054894Y-106696744D01*
X137054894Y-106696745D01*
X137074720Y-106749631D01*
X137102217Y-106822982D01*
X137107601Y-106830165D01*
X137107601Y-106830166D01*
X137159607Y-106899557D01*
X137187811Y-106937189D01*
X137194992Y-106942571D01*
X137294074Y-107016829D01*
X137302018Y-107022783D01*
X137310424Y-107025934D01*
X137403903Y-107060977D01*
X137460668Y-107103618D01*
X137485368Y-107170179D01*
X137470161Y-107239528D01*
X137419875Y-107289647D01*
X137403904Y-107296940D01*
X137305236Y-107333929D01*
X137298057Y-107339309D01*
X137298054Y-107339311D01*
X137266860Y-107362690D01*
X137189596Y-107420596D01*
X137184215Y-107427776D01*
X137108311Y-107529054D01*
X137108309Y-107529057D01*
X137102929Y-107536236D01*
X137052202Y-107671552D01*
X137045500Y-107733244D01*
X137045500Y-108353756D01*
X137052202Y-108415448D01*
X137054974Y-108422841D01*
X137054974Y-108422843D01*
X137063141Y-108444629D01*
X137102929Y-108550764D01*
X137108309Y-108557943D01*
X137108311Y-108557946D01*
X137174287Y-108645977D01*
X137189596Y-108666404D01*
X137198144Y-108672810D01*
X137298054Y-108747689D01*
X137298057Y-108747691D01*
X137305236Y-108753071D01*
X137359982Y-108773594D01*
X137433157Y-108801026D01*
X137433159Y-108801026D01*
X137440552Y-108803798D01*
X137448402Y-108804651D01*
X137448403Y-108804651D01*
X137498847Y-108810131D01*
X137502244Y-108810500D01*
X138497756Y-108810500D01*
X138501153Y-108810131D01*
X138551597Y-108804651D01*
X138551598Y-108804651D01*
X138559448Y-108803798D01*
X138566841Y-108801026D01*
X138566843Y-108801026D01*
X138640018Y-108773594D01*
X138694764Y-108753071D01*
X138701943Y-108747691D01*
X138701946Y-108747689D01*
X138801856Y-108672810D01*
X138810404Y-108666404D01*
X138825713Y-108645977D01*
X138891689Y-108557946D01*
X138891691Y-108557943D01*
X138897071Y-108550764D01*
X138936859Y-108444629D01*
X138945026Y-108422843D01*
X138945026Y-108422841D01*
X138947798Y-108415448D01*
X138954500Y-108353756D01*
X138954500Y-107733244D01*
X138947798Y-107671552D01*
X138897071Y-107536236D01*
X138891691Y-107529057D01*
X138891689Y-107529054D01*
X138815785Y-107427776D01*
X138810404Y-107420596D01*
X138733140Y-107362690D01*
X138701946Y-107339311D01*
X138701943Y-107339309D01*
X138694764Y-107333929D01*
X138596097Y-107296941D01*
X138539332Y-107254300D01*
X138514632Y-107187739D01*
X138529839Y-107118390D01*
X138580125Y-107068271D01*
X138596097Y-107060977D01*
X138689576Y-107025934D01*
X138697982Y-107022783D01*
X138705927Y-107016829D01*
X138805008Y-106942571D01*
X138812189Y-106937189D01*
X138840393Y-106899557D01*
X138892399Y-106830166D01*
X138892399Y-106830165D01*
X138897783Y-106822982D01*
X138925280Y-106749631D01*
X138945108Y-106696740D01*
X138945109Y-106696738D01*
X138947881Y-106689342D01*
X138954500Y-106628415D01*
X138954500Y-106617895D01*
X140271801Y-106617895D01*
X140272138Y-106624414D01*
X140282057Y-106720006D01*
X140284949Y-106733400D01*
X140336388Y-106887584D01*
X140342561Y-106900762D01*
X140427863Y-107038607D01*
X140436899Y-107050008D01*
X140551629Y-107164539D01*
X140563040Y-107173551D01*
X140701043Y-107258616D01*
X140714224Y-107264763D01*
X140868510Y-107315938D01*
X140881886Y-107318805D01*
X140976238Y-107328472D01*
X140982654Y-107328800D01*
X141007685Y-107328800D01*
X141022924Y-107324325D01*
X141024129Y-107322935D01*
X141025800Y-107315252D01*
X141025800Y-106367915D01*
X141021325Y-106352676D01*
X141019935Y-106351471D01*
X141012252Y-106349800D01*
X140289916Y-106349800D01*
X140274677Y-106354275D01*
X140273472Y-106355665D01*
X140271801Y-106363348D01*
X140271801Y-106617895D01*
X138954500Y-106617895D01*
X138954499Y-106046586D01*
X138953189Y-106034522D01*
X138948735Y-105993517D01*
X138948734Y-105993511D01*
X138947881Y-105985658D01*
X138941397Y-105968360D01*
X138900935Y-105860426D01*
X138897783Y-105852018D01*
X138885730Y-105835935D01*
X138876549Y-105823685D01*
X140271800Y-105823685D01*
X140276275Y-105838924D01*
X140277665Y-105840129D01*
X140285348Y-105841800D01*
X141007685Y-105841800D01*
X141022924Y-105837325D01*
X141024129Y-105835935D01*
X141025800Y-105828252D01*
X141025800Y-104335915D01*
X141021325Y-104320676D01*
X141019935Y-104319471D01*
X141012252Y-104317800D01*
X140289916Y-104317800D01*
X140274677Y-104322275D01*
X140273472Y-104323665D01*
X140271801Y-104331348D01*
X140271801Y-104585895D01*
X140272138Y-104592414D01*
X140282057Y-104688006D01*
X140284949Y-104701400D01*
X140336388Y-104855584D01*
X140342561Y-104868762D01*
X140431717Y-105012835D01*
X140429086Y-105014463D01*
X140450496Y-105067382D01*
X140437315Y-105137144D01*
X140430592Y-105147625D01*
X140430890Y-105147809D01*
X140341984Y-105292043D01*
X140335837Y-105305224D01*
X140284662Y-105459510D01*
X140281795Y-105472886D01*
X140272128Y-105567238D01*
X140271800Y-105573655D01*
X140271800Y-105823685D01*
X138876549Y-105823685D01*
X138817571Y-105744992D01*
X138812189Y-105737811D01*
X138697982Y-105652217D01*
X138689572Y-105649064D01*
X138683918Y-105645969D01*
X138633770Y-105595712D01*
X138618754Y-105526322D01*
X138643637Y-105459828D01*
X138704546Y-105415924D01*
X138770360Y-105393966D01*
X138783543Y-105387790D01*
X138920149Y-105303256D01*
X138931550Y-105294220D01*
X139045051Y-105180521D01*
X139054063Y-105169110D01*
X139138365Y-105032346D01*
X139144509Y-105019168D01*
X139195227Y-104866260D01*
X139198093Y-104852894D01*
X139207672Y-104759399D01*
X139208000Y-104752984D01*
X139208000Y-104734615D01*
X139203525Y-104719376D01*
X139202135Y-104718171D01*
X139194452Y-104716500D01*
X136810116Y-104716500D01*
X136794877Y-104720975D01*
X136793672Y-104722365D01*
X136792001Y-104730048D01*
X136792001Y-104752933D01*
X136144000Y-104752933D01*
X136144000Y-104190385D01*
X136792000Y-104190385D01*
X136796475Y-104205624D01*
X136797865Y-104206829D01*
X136805548Y-104208500D01*
X137727885Y-104208500D01*
X137743124Y-104204025D01*
X137744329Y-104202635D01*
X137746000Y-104194952D01*
X137746000Y-104190385D01*
X138254000Y-104190385D01*
X138258475Y-104205624D01*
X138259865Y-104206829D01*
X138267548Y-104208500D01*
X139189884Y-104208500D01*
X139205123Y-104204025D01*
X139206328Y-104202635D01*
X139207999Y-104194952D01*
X139207999Y-104172067D01*
X139207662Y-104165548D01*
X139197834Y-104070830D01*
X139194942Y-104057436D01*
X139143964Y-103904635D01*
X139137790Y-103891457D01*
X139053256Y-103754851D01*
X139044220Y-103743450D01*
X138930521Y-103629949D01*
X138919110Y-103620937D01*
X138782346Y-103536635D01*
X138769168Y-103530491D01*
X138616260Y-103479773D01*
X138602894Y-103476907D01*
X138509399Y-103467328D01*
X138502984Y-103467000D01*
X138272115Y-103467000D01*
X138256876Y-103471475D01*
X138255671Y-103472865D01*
X138254000Y-103480548D01*
X138254000Y-104190385D01*
X137746000Y-104190385D01*
X137746000Y-103485116D01*
X137741525Y-103469877D01*
X137740135Y-103468672D01*
X137732452Y-103467001D01*
X137497067Y-103467001D01*
X137490548Y-103467338D01*
X137395830Y-103477166D01*
X137382436Y-103480058D01*
X137229635Y-103531036D01*
X137216457Y-103537210D01*
X137079851Y-103621744D01*
X137068450Y-103630780D01*
X136954949Y-103744479D01*
X136945937Y-103755890D01*
X136861635Y-103892654D01*
X136855491Y-103905832D01*
X136804773Y-104058740D01*
X136801907Y-104072106D01*
X136792328Y-104165601D01*
X136792000Y-104172016D01*
X136792000Y-104190385D01*
X136144000Y-104190385D01*
X136144000Y-100330000D01*
X136820539Y-100330000D01*
X136840354Y-100581775D01*
X136841508Y-100586582D01*
X136841509Y-100586588D01*
X136870571Y-100707636D01*
X136899312Y-100827351D01*
X136901205Y-100831922D01*
X136901206Y-100831924D01*
X136990165Y-101046689D01*
X136995960Y-101060680D01*
X136998546Y-101064900D01*
X137008793Y-101081622D01*
X137127919Y-101276017D01*
X137291939Y-101468061D01*
X137483983Y-101632081D01*
X137699320Y-101764040D01*
X137703890Y-101765933D01*
X137703894Y-101765935D01*
X137922806Y-101856611D01*
X137932649Y-101860688D01*
X138018865Y-101881387D01*
X138173412Y-101918491D01*
X138173418Y-101918492D01*
X138178225Y-101919646D01*
X138266253Y-101926574D01*
X138364507Y-101934307D01*
X138364516Y-101934307D01*
X138366964Y-101934500D01*
X138493036Y-101934500D01*
X138495484Y-101934307D01*
X138495493Y-101934307D01*
X138593747Y-101926574D01*
X138681775Y-101919646D01*
X138686582Y-101918492D01*
X138686588Y-101918491D01*
X138841135Y-101881387D01*
X138927351Y-101860688D01*
X138937194Y-101856611D01*
X139156106Y-101765935D01*
X139156110Y-101765933D01*
X139160680Y-101764040D01*
X139376017Y-101632081D01*
X139568061Y-101468061D01*
X139732081Y-101276017D01*
X139851207Y-101081622D01*
X139861454Y-101064900D01*
X139864040Y-101060680D01*
X139869836Y-101046689D01*
X139958794Y-100831924D01*
X139958795Y-100831922D01*
X139960688Y-100827351D01*
X139989429Y-100707636D01*
X140018491Y-100586588D01*
X140018492Y-100586582D01*
X140019646Y-100581775D01*
X140039461Y-100330000D01*
X140019646Y-100078225D01*
X140018492Y-100073418D01*
X140018491Y-100073412D01*
X139970575Y-99873831D01*
X139960688Y-99832649D01*
X139913466Y-99718645D01*
X139865935Y-99603894D01*
X139865933Y-99603890D01*
X139864040Y-99599320D01*
X139732081Y-99383983D01*
X139568061Y-99191939D01*
X139376017Y-99027919D01*
X139160680Y-98895960D01*
X139156110Y-98894067D01*
X139156106Y-98894065D01*
X138931924Y-98801206D01*
X138931922Y-98801205D01*
X138927351Y-98799312D01*
X138841135Y-98778613D01*
X138686588Y-98741509D01*
X138686582Y-98741508D01*
X138681775Y-98740354D01*
X138593747Y-98733426D01*
X138495493Y-98725693D01*
X138495484Y-98725693D01*
X138493036Y-98725500D01*
X138366964Y-98725500D01*
X138364516Y-98725693D01*
X138364507Y-98725693D01*
X138266253Y-98733426D01*
X138178225Y-98740354D01*
X138173418Y-98741508D01*
X138173412Y-98741509D01*
X138018865Y-98778613D01*
X137932649Y-98799312D01*
X137928078Y-98801205D01*
X137928076Y-98801206D01*
X137703894Y-98894065D01*
X137703890Y-98894067D01*
X137699320Y-98895960D01*
X137483983Y-99027919D01*
X137291939Y-99191939D01*
X137127919Y-99383983D01*
X136995960Y-99599320D01*
X136994067Y-99603890D01*
X136994065Y-99603894D01*
X136946534Y-99718645D01*
X136899312Y-99832649D01*
X136889425Y-99873831D01*
X136841509Y-100073412D01*
X136841508Y-100073418D01*
X136840354Y-100078225D01*
X136820539Y-100330000D01*
X136144000Y-100330000D01*
X136144000Y-99097425D01*
X136146421Y-99072844D01*
X136146555Y-99072170D01*
X136148976Y-99060000D01*
X136146555Y-99047828D01*
X136146555Y-99036301D01*
X136147034Y-99025320D01*
X136158474Y-98894554D01*
X136162287Y-98872930D01*
X136202420Y-98723152D01*
X136209931Y-98702516D01*
X136275460Y-98561990D01*
X136286442Y-98542970D01*
X136375379Y-98415954D01*
X136389497Y-98399129D01*
X136499129Y-98289497D01*
X136515954Y-98275379D01*
X136642970Y-98186442D01*
X136661990Y-98175460D01*
X136802516Y-98109931D01*
X136823152Y-98102420D01*
X136972930Y-98062287D01*
X136994551Y-98058475D01*
X137125319Y-98047034D01*
X137136301Y-98046555D01*
X137147828Y-98046555D01*
X137160000Y-98048976D01*
X137172847Y-98046421D01*
X137197425Y-98044000D01*
X141417706Y-98044000D01*
X141485827Y-98064002D01*
G37*
G04 #@! TD.AperFunction*
G04 #@! TA.AperFunction,Conductor*
G36*
X154497132Y-111779314D02*
G01*
X154553968Y-111821861D01*
X154578779Y-111888381D01*
X154579100Y-111897370D01*
X154579100Y-113182636D01*
X154559098Y-113250757D01*
X154505442Y-113297250D01*
X154496714Y-113300847D01*
X154432263Y-113324624D01*
X154257810Y-113428412D01*
X154253470Y-113432218D01*
X154253466Y-113432221D01*
X154233523Y-113449711D01*
X154105192Y-113562255D01*
X153979520Y-113721669D01*
X153976831Y-113726780D01*
X153976829Y-113726783D01*
X153965307Y-113748683D01*
X153885003Y-113901315D01*
X153824807Y-114095178D01*
X153800948Y-114296764D01*
X153814224Y-114499322D01*
X153815645Y-114504918D01*
X153815646Y-114504923D01*
X153862771Y-114690474D01*
X153864192Y-114696069D01*
X153866609Y-114701312D01*
X153903810Y-114782008D01*
X153949177Y-114880416D01*
X153952510Y-114885132D01*
X154000526Y-114953073D01*
X154066333Y-115046189D01*
X154070475Y-115050224D01*
X154121311Y-115099746D01*
X154156149Y-115161607D01*
X154152012Y-115232483D01*
X154110213Y-115289871D01*
X154044023Y-115315551D01*
X154033390Y-115316000D01*
X153251614Y-115316000D01*
X153183493Y-115295998D01*
X153137000Y-115242342D01*
X153126896Y-115172068D01*
X153154740Y-115109431D01*
X153280249Y-114958524D01*
X153280256Y-114958514D01*
X153283947Y-114954076D01*
X153383134Y-114776965D01*
X153384990Y-114771498D01*
X153384992Y-114771493D01*
X153446528Y-114590214D01*
X153446529Y-114590209D01*
X153448384Y-114584745D01*
X153449212Y-114579036D01*
X153449213Y-114579031D01*
X153476979Y-114387527D01*
X153477512Y-114383853D01*
X153479032Y-114325800D01*
X153460458Y-114123659D01*
X153458890Y-114118099D01*
X153406925Y-113933846D01*
X153406924Y-113933844D01*
X153405357Y-113928287D01*
X153394778Y-113906833D01*
X153318131Y-113751409D01*
X153315576Y-113746228D01*
X153194120Y-113583579D01*
X153045058Y-113445787D01*
X153040175Y-113442706D01*
X153040171Y-113442703D01*
X152878264Y-113340548D01*
X152873381Y-113337467D01*
X152868017Y-113335327D01*
X152779809Y-113300135D01*
X152723950Y-113256314D01*
X152700500Y-113183105D01*
X152700500Y-112507971D01*
X152720502Y-112439850D01*
X152737405Y-112418875D01*
X153104877Y-112051404D01*
X153167189Y-112017379D01*
X153193972Y-112014500D01*
X154000851Y-112014500D01*
X154011832Y-112014979D01*
X154039091Y-112017364D01*
X154039092Y-112017364D01*
X154050067Y-112018324D01*
X154087139Y-112008391D01*
X154097853Y-112006016D01*
X154113700Y-112003222D01*
X154124797Y-112001265D01*
X154124798Y-112001265D01*
X154135651Y-111999351D01*
X154145196Y-111993840D01*
X154148689Y-111992569D01*
X154152067Y-111990994D01*
X154162716Y-111988140D01*
X154171747Y-111981816D01*
X154171750Y-111981815D01*
X154194155Y-111966127D01*
X154203424Y-111960222D01*
X154216701Y-111952556D01*
X154236649Y-111941039D01*
X154243733Y-111932596D01*
X154243736Y-111932594D01*
X154261322Y-111911636D01*
X154268748Y-111903532D01*
X154364005Y-111808275D01*
X154426317Y-111774249D01*
X154497132Y-111779314D01*
G37*
G04 #@! TD.AperFunction*
G04 #@! TA.AperFunction,Conductor*
G36*
X154011751Y-105288502D02*
G01*
X154032725Y-105305405D01*
X154237875Y-105510555D01*
X154271901Y-105572867D01*
X154274780Y-105599650D01*
X154274780Y-110909950D01*
X154254778Y-110978071D01*
X154237875Y-110999045D01*
X153920725Y-111316195D01*
X153858413Y-111350221D01*
X153831630Y-111353100D01*
X153024749Y-111353100D01*
X153013768Y-111352621D01*
X152986509Y-111350236D01*
X152986508Y-111350236D01*
X152975533Y-111349276D01*
X152938461Y-111359209D01*
X152927747Y-111361584D01*
X152911900Y-111364378D01*
X152900803Y-111366335D01*
X152900802Y-111366335D01*
X152889949Y-111368249D01*
X152880404Y-111373760D01*
X152876911Y-111375031D01*
X152873533Y-111376606D01*
X152862884Y-111379460D01*
X152853853Y-111385784D01*
X152853850Y-111385785D01*
X152831445Y-111401473D01*
X152822175Y-111407379D01*
X152788951Y-111426561D01*
X152781868Y-111435002D01*
X152781867Y-111435003D01*
X152764288Y-111455953D01*
X152756863Y-111464056D01*
X152150063Y-112070857D01*
X152141959Y-112078283D01*
X152112561Y-112102951D01*
X152094677Y-112133926D01*
X152093378Y-112136176D01*
X152087473Y-112145445D01*
X152071785Y-112167850D01*
X152071784Y-112167853D01*
X152065460Y-112176884D01*
X152062606Y-112187533D01*
X152061031Y-112190911D01*
X152059760Y-112194404D01*
X152054249Y-112203949D01*
X152052335Y-112214802D01*
X152052335Y-112214803D01*
X152047585Y-112241743D01*
X152045209Y-112252461D01*
X152035276Y-112289533D01*
X152036236Y-112300508D01*
X152036236Y-112300509D01*
X152038621Y-112327768D01*
X152039100Y-112338749D01*
X152039100Y-113182636D01*
X152019098Y-113250757D01*
X151965442Y-113297250D01*
X151956714Y-113300847D01*
X151892263Y-113324624D01*
X151717810Y-113428412D01*
X151713470Y-113432218D01*
X151713466Y-113432221D01*
X151693523Y-113449711D01*
X151565192Y-113562255D01*
X151439520Y-113721669D01*
X151436831Y-113726780D01*
X151436829Y-113726783D01*
X151425307Y-113748683D01*
X151345003Y-113901315D01*
X151284807Y-114095178D01*
X151260948Y-114296764D01*
X151274224Y-114499322D01*
X151275645Y-114504918D01*
X151275646Y-114504923D01*
X151322771Y-114690474D01*
X151324192Y-114696069D01*
X151326609Y-114701312D01*
X151363810Y-114782008D01*
X151409177Y-114880416D01*
X151412510Y-114885132D01*
X151460526Y-114953073D01*
X151526333Y-115046189D01*
X151530475Y-115050224D01*
X151581311Y-115099746D01*
X151616149Y-115161607D01*
X151612012Y-115232483D01*
X151570213Y-115289871D01*
X151504023Y-115315551D01*
X151493390Y-115316000D01*
X150711614Y-115316000D01*
X150643493Y-115295998D01*
X150597000Y-115242342D01*
X150586896Y-115172068D01*
X150614740Y-115109431D01*
X150740249Y-114958524D01*
X150740256Y-114958514D01*
X150743947Y-114954076D01*
X150843134Y-114776965D01*
X150844990Y-114771498D01*
X150844992Y-114771493D01*
X150906528Y-114590214D01*
X150906529Y-114590209D01*
X150908384Y-114584745D01*
X150909212Y-114579036D01*
X150909213Y-114579031D01*
X150936979Y-114387527D01*
X150937512Y-114383853D01*
X150939032Y-114325800D01*
X150920458Y-114123659D01*
X150918890Y-114118099D01*
X150866925Y-113933846D01*
X150866924Y-113933844D01*
X150865357Y-113928287D01*
X150854778Y-113906833D01*
X150778131Y-113751409D01*
X150775576Y-113746228D01*
X150654120Y-113583579D01*
X150505058Y-113445787D01*
X150500175Y-113442706D01*
X150500171Y-113442703D01*
X150338264Y-113340548D01*
X150333381Y-113337467D01*
X150328017Y-113335327D01*
X150239809Y-113300135D01*
X150183950Y-113256314D01*
X150160500Y-113183105D01*
X150160500Y-107427971D01*
X150180502Y-107359850D01*
X150197405Y-107338876D01*
X150386308Y-107149973D01*
X150448620Y-107115947D01*
X150519435Y-107121012D01*
X150576271Y-107163559D01*
X150591812Y-107190850D01*
X150631553Y-107286793D01*
X150639741Y-107300976D01*
X150727144Y-107414880D01*
X150738717Y-107426453D01*
X150762005Y-107444323D01*
X150803872Y-107501662D01*
X150811300Y-107544285D01*
X150811300Y-107671402D01*
X150811970Y-107675952D01*
X150811970Y-107675955D01*
X150820131Y-107731392D01*
X150821557Y-107741078D01*
X150825873Y-107749868D01*
X150868726Y-107837149D01*
X150873570Y-107847016D01*
X150957094Y-107930395D01*
X151063123Y-107982223D01*
X151093445Y-107986647D01*
X151127672Y-107991640D01*
X151127676Y-107991640D01*
X151132198Y-107992300D01*
X151346600Y-107992300D01*
X151414721Y-108012302D01*
X151461214Y-108065958D01*
X151472600Y-108118300D01*
X151472600Y-108529850D01*
X151452598Y-108597971D01*
X151423304Y-108629813D01*
X151315334Y-108712661D01*
X151308729Y-108717729D01*
X151212972Y-108842523D01*
X151152777Y-108987847D01*
X151132245Y-109143800D01*
X151152777Y-109299753D01*
X151212972Y-109445077D01*
X151308729Y-109569871D01*
X151433522Y-109665628D01*
X151578847Y-109725823D01*
X151734800Y-109746355D01*
X151890753Y-109725823D01*
X152036078Y-109665628D01*
X152160871Y-109569871D01*
X152256628Y-109445077D01*
X152316823Y-109299753D01*
X152337355Y-109143800D01*
X152316823Y-108987847D01*
X152256628Y-108842523D01*
X152160871Y-108717729D01*
X152163495Y-108715716D01*
X152136879Y-108666974D01*
X152134000Y-108640191D01*
X152134000Y-108118300D01*
X152154002Y-108050179D01*
X152207658Y-108003686D01*
X152260000Y-107992300D01*
X152474402Y-107992300D01*
X152478952Y-107991630D01*
X152478955Y-107991630D01*
X152534392Y-107983469D01*
X152534393Y-107983469D01*
X152544078Y-107982043D01*
X152594478Y-107957298D01*
X152640668Y-107934620D01*
X152640670Y-107934619D01*
X152650016Y-107930030D01*
X152733395Y-107846506D01*
X152785223Y-107740477D01*
X152795300Y-107671402D01*
X152795300Y-107544285D01*
X152815302Y-107476164D01*
X152844595Y-107444323D01*
X152867883Y-107426453D01*
X152879456Y-107414880D01*
X152966859Y-107300976D01*
X152975047Y-107286793D01*
X153029989Y-107154151D01*
X153034228Y-107138331D01*
X153038516Y-107105760D01*
X153036305Y-107091578D01*
X153023148Y-107087800D01*
X152514389Y-107087800D01*
X152496200Y-107086480D01*
X152478928Y-107083960D01*
X152478924Y-107083960D01*
X152474402Y-107083300D01*
X151729300Y-107083300D01*
X151661179Y-107063298D01*
X151614686Y-107009642D01*
X151603300Y-106957300D01*
X151603300Y-106818300D01*
X151623302Y-106750179D01*
X151676958Y-106703686D01*
X151729300Y-106692300D01*
X152474402Y-106692300D01*
X152478951Y-106691630D01*
X152478956Y-106691630D01*
X152495848Y-106689143D01*
X152514198Y-106687800D01*
X153022765Y-106687800D01*
X153036536Y-106683756D01*
X153038565Y-106670217D01*
X153034228Y-106637267D01*
X153029990Y-106621452D01*
X152975047Y-106488807D01*
X152966859Y-106474624D01*
X152879456Y-106360720D01*
X152867883Y-106349147D01*
X152844595Y-106331277D01*
X152802728Y-106273938D01*
X152795300Y-106231315D01*
X152795300Y-106104198D01*
X152790365Y-106070670D01*
X152786469Y-106044208D01*
X152786469Y-106044207D01*
X152785043Y-106034522D01*
X152778256Y-106020699D01*
X152752560Y-105968360D01*
X152740492Y-105898397D01*
X152752463Y-105857497D01*
X152766758Y-105828252D01*
X152785223Y-105790477D01*
X152791859Y-105744992D01*
X152794640Y-105725928D01*
X152794640Y-105725924D01*
X152795300Y-105721402D01*
X152795300Y-105454198D01*
X152794630Y-105449647D01*
X152794629Y-105449633D01*
X152789214Y-105412852D01*
X152799081Y-105342544D01*
X152845393Y-105288732D01*
X152913870Y-105268500D01*
X153943630Y-105268500D01*
X154011751Y-105288502D01*
G37*
G04 #@! TD.AperFunction*
G04 #@! TA.AperFunction,Conductor*
G36*
X144056047Y-102543714D02*
G01*
X144100641Y-102587331D01*
X144100972Y-102587077D01*
X144196729Y-102711871D01*
X144203279Y-102716897D01*
X144203282Y-102716900D01*
X144242804Y-102747226D01*
X144284672Y-102804564D01*
X144292100Y-102847188D01*
X144292100Y-103789851D01*
X144291621Y-103800832D01*
X144289986Y-103819526D01*
X144288276Y-103839067D01*
X144298209Y-103876139D01*
X144300584Y-103886853D01*
X144307249Y-103924651D01*
X144312760Y-103934196D01*
X144314031Y-103937689D01*
X144315606Y-103941067D01*
X144318460Y-103951716D01*
X144324784Y-103960747D01*
X144324785Y-103960750D01*
X144340473Y-103983155D01*
X144346378Y-103992424D01*
X144365561Y-104025649D01*
X144374004Y-104032733D01*
X144374006Y-104032736D01*
X144394964Y-104050322D01*
X144403068Y-104057748D01*
X144852852Y-104507532D01*
X144860278Y-104515636D01*
X144877864Y-104536594D01*
X144877867Y-104536596D01*
X144884951Y-104545039D01*
X144908212Y-104558469D01*
X144918176Y-104564222D01*
X144927445Y-104570127D01*
X144949850Y-104585815D01*
X144949853Y-104585816D01*
X144958884Y-104592140D01*
X144969533Y-104594994D01*
X144972911Y-104596569D01*
X144976404Y-104597840D01*
X144985949Y-104603351D01*
X144996803Y-104605265D01*
X145007164Y-104609036D01*
X145006260Y-104611520D01*
X145055506Y-104635928D01*
X145091974Y-104696842D01*
X145094692Y-104746673D01*
X145086300Y-104804198D01*
X145086300Y-105071402D01*
X145096557Y-105141078D01*
X145100873Y-105149868D01*
X145100874Y-105149871D01*
X145129040Y-105207240D01*
X145141108Y-105277203D01*
X145129137Y-105318103D01*
X145096377Y-105385123D01*
X145094965Y-105394803D01*
X145088106Y-105441821D01*
X145086300Y-105454198D01*
X145086300Y-105721402D01*
X145086970Y-105725952D01*
X145086970Y-105725955D01*
X145095131Y-105781392D01*
X145096557Y-105791078D01*
X145100874Y-105799870D01*
X145100874Y-105799871D01*
X145129040Y-105857240D01*
X145141108Y-105927203D01*
X145129137Y-105968103D01*
X145096377Y-106035123D01*
X145092397Y-106062406D01*
X145089911Y-106079449D01*
X145086300Y-106104198D01*
X145086300Y-106371402D01*
X145086970Y-106375953D01*
X145086971Y-106375967D01*
X145092386Y-106412748D01*
X145082519Y-106483056D01*
X145036207Y-106536868D01*
X144967730Y-106557100D01*
X144160970Y-106557100D01*
X144092849Y-106537098D01*
X144071875Y-106520195D01*
X143971205Y-106419525D01*
X143937179Y-106357213D01*
X143934300Y-106330430D01*
X143934300Y-105573044D01*
X143927598Y-105511352D01*
X143876871Y-105376036D01*
X143871491Y-105368857D01*
X143871489Y-105368854D01*
X143795585Y-105267576D01*
X143790204Y-105260396D01*
X143719278Y-105207240D01*
X143683767Y-105180626D01*
X143641252Y-105123767D01*
X143636226Y-105052948D01*
X143670286Y-104990655D01*
X143683767Y-104978974D01*
X143783024Y-104904585D01*
X143790204Y-104899204D01*
X143844483Y-104826780D01*
X143871489Y-104790746D01*
X143871491Y-104790743D01*
X143876871Y-104783564D01*
X143927598Y-104648248D01*
X143930423Y-104622249D01*
X143933931Y-104589953D01*
X143933931Y-104589952D01*
X143934300Y-104586556D01*
X143934300Y-103541044D01*
X143933931Y-103537647D01*
X143928451Y-103487203D01*
X143928451Y-103487202D01*
X143927598Y-103479352D01*
X143923595Y-103468672D01*
X143900863Y-103408036D01*
X143876871Y-103344036D01*
X143871491Y-103336857D01*
X143871489Y-103336854D01*
X143795585Y-103235576D01*
X143790204Y-103228396D01*
X143734369Y-103186550D01*
X143681746Y-103147111D01*
X143681743Y-103147109D01*
X143674564Y-103141729D01*
X143666162Y-103138579D01*
X143658285Y-103134267D01*
X143659983Y-103131165D01*
X143616769Y-103098710D01*
X143592062Y-103032151D01*
X143607262Y-102962800D01*
X143642190Y-102922532D01*
X143739808Y-102849371D01*
X143746989Y-102843989D01*
X143776537Y-102804564D01*
X143827199Y-102736966D01*
X143827199Y-102736965D01*
X143832583Y-102729782D01*
X143836351Y-102719732D01*
X143877496Y-102609973D01*
X143920136Y-102553208D01*
X143986698Y-102528507D01*
X144056047Y-102543714D01*
G37*
G04 #@! TD.AperFunction*
G04 #@! TA.AperFunction,Conductor*
G36*
X148693696Y-101670822D02*
G01*
X148714671Y-101687725D01*
X148883556Y-101856611D01*
X148917581Y-101918923D01*
X148920460Y-101945706D01*
X148920460Y-104826780D01*
X148900458Y-104894901D01*
X148846802Y-104941394D01*
X148794460Y-104952780D01*
X147555650Y-104952780D01*
X147487529Y-104932778D01*
X147466555Y-104915875D01*
X147268748Y-104718068D01*
X147261322Y-104709964D01*
X147243736Y-104689006D01*
X147243733Y-104689004D01*
X147236649Y-104680561D01*
X147203425Y-104661378D01*
X147194155Y-104655473D01*
X147171750Y-104639785D01*
X147171747Y-104639784D01*
X147162716Y-104633460D01*
X147152067Y-104630606D01*
X147148689Y-104629031D01*
X147145196Y-104627760D01*
X147137436Y-104623279D01*
X147137370Y-104623231D01*
X147137193Y-104623139D01*
X147135633Y-104622238D01*
X147135749Y-104622037D01*
X147084712Y-104584459D01*
X147059374Y-104518138D01*
X147060298Y-104489964D01*
X147069640Y-104425929D01*
X147069640Y-104425923D01*
X147070300Y-104421402D01*
X147070300Y-104154198D01*
X147069630Y-104149647D01*
X147069629Y-104149633D01*
X147064214Y-104112852D01*
X147074081Y-104042544D01*
X147120393Y-103988732D01*
X147188870Y-103968500D01*
X147438532Y-103968500D01*
X147506653Y-103988502D01*
X147515236Y-103994538D01*
X147616966Y-104072598D01*
X147616969Y-104072600D01*
X147623522Y-104077628D01*
X147768847Y-104137823D01*
X147924800Y-104158355D01*
X148080753Y-104137823D01*
X148226078Y-104077628D01*
X148342229Y-103988502D01*
X148344325Y-103986894D01*
X148350871Y-103981871D01*
X148446628Y-103857077D01*
X148506823Y-103711753D01*
X148527355Y-103555800D01*
X148506823Y-103399847D01*
X148446628Y-103254523D01*
X148350871Y-103129729D01*
X148340851Y-103122040D01*
X148291729Y-103084348D01*
X148226078Y-103033972D01*
X148080753Y-102973777D01*
X147924800Y-102953245D01*
X147768847Y-102973777D01*
X147623523Y-103033972D01*
X147498729Y-103129729D01*
X147402972Y-103254523D01*
X147400938Y-103252962D01*
X147358859Y-103293089D01*
X147301115Y-103307100D01*
X147038636Y-103307100D01*
X146970515Y-103287098D01*
X146949619Y-103270274D01*
X146931877Y-103252563D01*
X146931876Y-103252563D01*
X146924506Y-103245205D01*
X146818477Y-103193377D01*
X146788155Y-103188953D01*
X146753928Y-103183960D01*
X146753924Y-103183960D01*
X146749402Y-103183300D01*
X145407198Y-103183300D01*
X145402648Y-103183970D01*
X145402645Y-103183970D01*
X145347208Y-103192131D01*
X145347207Y-103192131D01*
X145337522Y-103193557D01*
X145304824Y-103209611D01*
X145240932Y-103240980D01*
X145240930Y-103240981D01*
X145231584Y-103245570D01*
X145224227Y-103252940D01*
X145168673Y-103308590D01*
X145106390Y-103342669D01*
X145035570Y-103337666D01*
X144978697Y-103295168D01*
X144953829Y-103228670D01*
X144953500Y-103219572D01*
X144953500Y-102847188D01*
X144973502Y-102779067D01*
X145002796Y-102747226D01*
X145042318Y-102716900D01*
X145042321Y-102716897D01*
X145048871Y-102711871D01*
X145144628Y-102587077D01*
X145204823Y-102441753D01*
X145225355Y-102285800D01*
X145204823Y-102129847D01*
X145144628Y-101984523D01*
X145048871Y-101859729D01*
X145050329Y-101858610D01*
X145021236Y-101805331D01*
X145026301Y-101734516D01*
X145068848Y-101677680D01*
X145135368Y-101652869D01*
X145145530Y-101652950D01*
X145151853Y-101654644D01*
X145190088Y-101651299D01*
X145201069Y-101650820D01*
X148625575Y-101650820D01*
X148693696Y-101670822D01*
G37*
G04 #@! TD.AperFunction*
G04 #@! TA.AperFunction,Conductor*
G36*
X144025827Y-98064002D02*
G01*
X144072320Y-98117658D01*
X144082424Y-98187932D01*
X144052930Y-98252512D01*
X144040784Y-98264732D01*
X144021437Y-98281699D01*
X143975192Y-98322255D01*
X143849520Y-98481669D01*
X143846831Y-98486780D01*
X143846829Y-98486783D01*
X143833873Y-98511409D01*
X143755003Y-98661315D01*
X143694807Y-98855178D01*
X143670948Y-99056764D01*
X143684224Y-99259322D01*
X143685645Y-99264918D01*
X143685646Y-99264923D01*
X143714928Y-99380218D01*
X143734192Y-99456069D01*
X143736607Y-99461307D01*
X143736609Y-99461312D01*
X143802340Y-99603894D01*
X143819177Y-99640416D01*
X143936333Y-99806189D01*
X143940475Y-99810224D01*
X143963495Y-99832649D01*
X144081738Y-99947835D01*
X144086542Y-99951045D01*
X144132357Y-99981658D01*
X144250520Y-100060612D01*
X144255823Y-100062890D01*
X144255826Y-100062892D01*
X144372838Y-100113164D01*
X144427531Y-100158432D01*
X144449100Y-100228932D01*
X144449100Y-100898851D01*
X144448621Y-100909832D01*
X144447616Y-100921325D01*
X144445276Y-100948067D01*
X144455209Y-100985139D01*
X144457584Y-100995853D01*
X144464249Y-101033651D01*
X144469760Y-101043196D01*
X144471031Y-101046689D01*
X144472606Y-101050067D01*
X144475460Y-101060716D01*
X144481784Y-101069747D01*
X144481785Y-101069750D01*
X144497473Y-101092155D01*
X144503378Y-101101424D01*
X144522561Y-101134649D01*
X144531004Y-101141733D01*
X144531006Y-101141736D01*
X144551964Y-101159322D01*
X144560068Y-101166748D01*
X144882896Y-101489576D01*
X144916922Y-101551888D01*
X144911857Y-101622703D01*
X144869310Y-101679539D01*
X144802790Y-101704350D01*
X144777356Y-101703593D01*
X144622800Y-101683245D01*
X144466847Y-101703777D01*
X144321523Y-101763972D01*
X144196729Y-101859729D01*
X144191707Y-101866274D01*
X144191706Y-101866275D01*
X144115262Y-101965899D01*
X144057924Y-102007766D01*
X143987053Y-102011988D01*
X143925150Y-101977224D01*
X143891869Y-101914511D01*
X143889299Y-101889195D01*
X143889299Y-101528386D01*
X143888930Y-101524986D01*
X143883535Y-101475317D01*
X143883534Y-101475311D01*
X143882681Y-101467458D01*
X143832583Y-101333818D01*
X143746989Y-101219611D01*
X143666546Y-101159322D01*
X143639966Y-101139401D01*
X143639965Y-101139401D01*
X143632782Y-101134017D01*
X143624374Y-101130865D01*
X143506540Y-101086692D01*
X143506538Y-101086691D01*
X143499142Y-101083919D01*
X143438215Y-101077300D01*
X143147343Y-101077300D01*
X142856386Y-101077301D01*
X142852992Y-101077670D01*
X142852986Y-101077670D01*
X142803317Y-101083065D01*
X142803314Y-101083066D01*
X142795458Y-101083919D01*
X142788056Y-101086694D01*
X142788055Y-101086694D01*
X142761486Y-101096654D01*
X142661818Y-101134017D01*
X142654635Y-101139401D01*
X142654634Y-101139401D01*
X142628054Y-101159322D01*
X142547611Y-101219611D01*
X142462017Y-101333818D01*
X142411919Y-101467458D01*
X142405300Y-101528385D01*
X142405301Y-102535214D01*
X142405670Y-102538608D01*
X142405670Y-102538614D01*
X142410106Y-102579447D01*
X142411919Y-102596142D01*
X142414694Y-102603544D01*
X142414694Y-102603545D01*
X142458865Y-102721374D01*
X142462017Y-102729782D01*
X142467401Y-102736965D01*
X142467401Y-102736966D01*
X142518063Y-102804564D01*
X142547611Y-102843989D01*
X142554792Y-102849371D01*
X142633382Y-102908271D01*
X142661818Y-102929583D01*
X142668807Y-102932203D01*
X142718415Y-102981920D01*
X142733430Y-103051311D01*
X142708546Y-103117804D01*
X142683326Y-103143010D01*
X142625231Y-103186550D01*
X142569396Y-103228396D01*
X142482729Y-103344036D01*
X142479579Y-103352440D01*
X142475619Y-103359674D01*
X142425362Y-103409821D01*
X142355971Y-103424836D01*
X142289478Y-103399952D01*
X142245574Y-103339043D01*
X142223212Y-103272016D01*
X142217039Y-103258838D01*
X142131737Y-103120993D01*
X142122701Y-103109592D01*
X142007971Y-102995061D01*
X141996557Y-102986047D01*
X141955993Y-102961043D01*
X141908499Y-102908271D01*
X141897075Y-102838200D01*
X141921282Y-102778218D01*
X141952199Y-102736966D01*
X141952199Y-102736965D01*
X141957583Y-102729782D01*
X141960735Y-102721374D01*
X142004908Y-102603540D01*
X142004909Y-102603538D01*
X142007681Y-102596142D01*
X142014300Y-102535215D01*
X142014299Y-101528386D01*
X142013930Y-101524986D01*
X142008535Y-101475317D01*
X142008534Y-101475311D01*
X142007681Y-101467458D01*
X141957583Y-101333818D01*
X141871989Y-101219611D01*
X141791546Y-101159322D01*
X141764966Y-101139401D01*
X141764965Y-101139401D01*
X141757782Y-101134017D01*
X141684768Y-101106646D01*
X141628007Y-101064008D01*
X141603306Y-100997447D01*
X141603000Y-100988666D01*
X141603000Y-100242470D01*
X141623002Y-100174349D01*
X141639905Y-100153375D01*
X141665633Y-100127647D01*
X141727945Y-100093621D01*
X141804465Y-100100974D01*
X141897028Y-100140742D01*
X141952858Y-100153375D01*
X142089379Y-100184267D01*
X142089384Y-100184268D01*
X142095016Y-100185542D01*
X142100787Y-100185769D01*
X142100789Y-100185769D01*
X142160556Y-100188117D01*
X142297853Y-100193512D01*
X142398299Y-100178948D01*
X142493031Y-100165213D01*
X142493036Y-100165212D01*
X142498745Y-100164384D01*
X142504209Y-100162529D01*
X142504214Y-100162528D01*
X142685493Y-100100992D01*
X142685500Y-100100989D01*
X142690965Y-100099134D01*
X142700810Y-100093621D01*
X142844070Y-100013391D01*
X142868076Y-99999947D01*
X142883295Y-99987290D01*
X143019713Y-99873831D01*
X143024145Y-99870145D01*
X143153947Y-99714076D01*
X143215652Y-99603894D01*
X143250310Y-99542008D01*
X143250311Y-99542006D01*
X143253134Y-99536965D01*
X143254990Y-99531498D01*
X143254992Y-99531493D01*
X143316528Y-99350214D01*
X143316529Y-99350209D01*
X143318384Y-99344745D01*
X143319212Y-99339036D01*
X143319213Y-99339031D01*
X143346979Y-99147527D01*
X143347512Y-99143853D01*
X143349032Y-99085800D01*
X143331826Y-98898546D01*
X143330987Y-98889413D01*
X143330986Y-98889410D01*
X143330458Y-98883659D01*
X143327430Y-98872923D01*
X143276925Y-98693846D01*
X143276924Y-98693844D01*
X143275357Y-98688287D01*
X143264778Y-98666833D01*
X143188131Y-98511409D01*
X143185576Y-98506228D01*
X143064120Y-98343579D01*
X142990342Y-98275379D01*
X142976436Y-98262524D01*
X142939991Y-98201596D01*
X142942272Y-98130636D01*
X142982555Y-98072174D01*
X143048050Y-98044771D01*
X143061965Y-98044000D01*
X143957706Y-98044000D01*
X144025827Y-98064002D01*
G37*
G04 #@! TD.AperFunction*
G04 #@! TA.AperFunction,Conductor*
G36*
X146565827Y-98064002D02*
G01*
X146612320Y-98117658D01*
X146622424Y-98187932D01*
X146592930Y-98252512D01*
X146580784Y-98264732D01*
X146561437Y-98281699D01*
X146515192Y-98322255D01*
X146389520Y-98481669D01*
X146386831Y-98486780D01*
X146386829Y-98486783D01*
X146373873Y-98511409D01*
X146295003Y-98661315D01*
X146234807Y-98855178D01*
X146210948Y-99056764D01*
X146224224Y-99259322D01*
X146225645Y-99264918D01*
X146225646Y-99264923D01*
X146254928Y-99380218D01*
X146274192Y-99456069D01*
X146276607Y-99461307D01*
X146276609Y-99461312D01*
X146342340Y-99603894D01*
X146359177Y-99640416D01*
X146476333Y-99806189D01*
X146480475Y-99810224D01*
X146503495Y-99832649D01*
X146621738Y-99947835D01*
X146626542Y-99951045D01*
X146672357Y-99981658D01*
X146790520Y-100060612D01*
X146795823Y-100062890D01*
X146795826Y-100062892D01*
X146912838Y-100113164D01*
X146967531Y-100158432D01*
X146989100Y-100228932D01*
X146989100Y-100390851D01*
X146988621Y-100401832D01*
X146985276Y-100440067D01*
X146995209Y-100477139D01*
X146997584Y-100487853D01*
X147004249Y-100525651D01*
X147009760Y-100535196D01*
X147011031Y-100538689D01*
X147012606Y-100542067D01*
X147015460Y-100552716D01*
X147021784Y-100561747D01*
X147021785Y-100561750D01*
X147037473Y-100584155D01*
X147043378Y-100593424D01*
X147062561Y-100626649D01*
X147071004Y-100633733D01*
X147071006Y-100633736D01*
X147091964Y-100651322D01*
X147100068Y-100658748D01*
X147215645Y-100774325D01*
X147249671Y-100836637D01*
X147244606Y-100907452D01*
X147202059Y-100964288D01*
X147135539Y-100989099D01*
X147126550Y-100989420D01*
X145370290Y-100989420D01*
X145302169Y-100969418D01*
X145281195Y-100952515D01*
X145147405Y-100818725D01*
X145113379Y-100756413D01*
X145110500Y-100729630D01*
X145110500Y-100230316D01*
X145130502Y-100162195D01*
X145184158Y-100115702D01*
X145195984Y-100111008D01*
X145230965Y-100099134D01*
X145240810Y-100093621D01*
X145384070Y-100013391D01*
X145408076Y-99999947D01*
X145423295Y-99987290D01*
X145559713Y-99873831D01*
X145564145Y-99870145D01*
X145693947Y-99714076D01*
X145755652Y-99603894D01*
X145790310Y-99542008D01*
X145790311Y-99542006D01*
X145793134Y-99536965D01*
X145794990Y-99531498D01*
X145794992Y-99531493D01*
X145856528Y-99350214D01*
X145856529Y-99350209D01*
X145858384Y-99344745D01*
X145859212Y-99339036D01*
X145859213Y-99339031D01*
X145886979Y-99147527D01*
X145887512Y-99143853D01*
X145889032Y-99085800D01*
X145871826Y-98898546D01*
X145870987Y-98889413D01*
X145870986Y-98889410D01*
X145870458Y-98883659D01*
X145867430Y-98872923D01*
X145816925Y-98693846D01*
X145816924Y-98693844D01*
X145815357Y-98688287D01*
X145804778Y-98666833D01*
X145728131Y-98511409D01*
X145725576Y-98506228D01*
X145604120Y-98343579D01*
X145530342Y-98275379D01*
X145516436Y-98262524D01*
X145479991Y-98201596D01*
X145482272Y-98130636D01*
X145522555Y-98072174D01*
X145588050Y-98044771D01*
X145601965Y-98044000D01*
X146497706Y-98044000D01*
X146565827Y-98064002D01*
G37*
G04 #@! TD.AperFunction*
G04 #@! TA.AperFunction,Conductor*
G36*
X149105827Y-98064002D02*
G01*
X149152320Y-98117658D01*
X149162424Y-98187932D01*
X149132930Y-98252512D01*
X149120784Y-98264732D01*
X149101437Y-98281699D01*
X149055192Y-98322255D01*
X148929520Y-98481669D01*
X148926831Y-98486780D01*
X148926829Y-98486783D01*
X148913873Y-98511409D01*
X148835003Y-98661315D01*
X148774807Y-98855178D01*
X148750948Y-99056764D01*
X148764224Y-99259322D01*
X148765645Y-99264918D01*
X148765646Y-99264923D01*
X148794928Y-99380218D01*
X148814192Y-99456069D01*
X148816607Y-99461307D01*
X148816609Y-99461312D01*
X148882340Y-99603894D01*
X148899177Y-99640416D01*
X149016333Y-99806189D01*
X149020475Y-99810224D01*
X149043495Y-99832649D01*
X149161738Y-99947835D01*
X149166542Y-99951045D01*
X149212357Y-99981658D01*
X149330520Y-100060612D01*
X149335823Y-100062890D01*
X149335826Y-100062892D01*
X149452838Y-100113164D01*
X149507531Y-100158432D01*
X149529100Y-100228932D01*
X149529100Y-100832230D01*
X149509098Y-100900351D01*
X149455442Y-100946844D01*
X149385168Y-100956948D01*
X149320588Y-100927454D01*
X149314005Y-100921325D01*
X149188748Y-100796068D01*
X149181322Y-100787964D01*
X149163736Y-100767006D01*
X149163733Y-100767004D01*
X149156649Y-100758561D01*
X149123425Y-100739378D01*
X149114155Y-100733473D01*
X149091750Y-100717785D01*
X149091747Y-100717784D01*
X149082716Y-100711460D01*
X149072067Y-100708606D01*
X149068689Y-100707031D01*
X149065196Y-100705760D01*
X149055651Y-100700249D01*
X149044798Y-100698335D01*
X149044797Y-100698335D01*
X149033700Y-100696378D01*
X149017853Y-100693584D01*
X149007139Y-100691209D01*
X148970067Y-100681276D01*
X148959092Y-100682236D01*
X148959091Y-100682236D01*
X148931832Y-100684621D01*
X148920851Y-100685100D01*
X148113970Y-100685100D01*
X148045849Y-100665098D01*
X148024875Y-100648195D01*
X147693890Y-100317210D01*
X147659864Y-100254898D01*
X147664929Y-100184083D01*
X147707476Y-100127247D01*
X147742484Y-100108802D01*
X147765493Y-100100992D01*
X147765500Y-100100989D01*
X147770965Y-100099134D01*
X147780810Y-100093621D01*
X147924070Y-100013391D01*
X147948076Y-99999947D01*
X147963295Y-99987290D01*
X148099713Y-99873831D01*
X148104145Y-99870145D01*
X148233947Y-99714076D01*
X148295652Y-99603894D01*
X148330310Y-99542008D01*
X148330311Y-99542006D01*
X148333134Y-99536965D01*
X148334990Y-99531498D01*
X148334992Y-99531493D01*
X148396528Y-99350214D01*
X148396529Y-99350209D01*
X148398384Y-99344745D01*
X148399212Y-99339036D01*
X148399213Y-99339031D01*
X148426979Y-99147527D01*
X148427512Y-99143853D01*
X148429032Y-99085800D01*
X148411826Y-98898546D01*
X148410987Y-98889413D01*
X148410986Y-98889410D01*
X148410458Y-98883659D01*
X148407430Y-98872923D01*
X148356925Y-98693846D01*
X148356924Y-98693844D01*
X148355357Y-98688287D01*
X148344778Y-98666833D01*
X148268131Y-98511409D01*
X148265576Y-98506228D01*
X148144120Y-98343579D01*
X148070342Y-98275379D01*
X148056436Y-98262524D01*
X148019991Y-98201596D01*
X148022272Y-98130636D01*
X148062555Y-98072174D01*
X148128050Y-98044771D01*
X148141965Y-98044000D01*
X149037706Y-98044000D01*
X149105827Y-98064002D01*
G37*
G04 #@! TD.AperFunction*
M02*
