G04 #@! TF.GenerationSoftware,KiCad,Pcbnew,(6.0.0-0)*
G04 #@! TF.CreationDate,2023-02-04T16:45:17-08:00*
G04 #@! TF.ProjectId,breakout,62726561-6b6f-4757-942e-6b696361645f,0.0.0*
G04 #@! TF.SameCoordinates,Original*
G04 #@! TF.FileFunction,Legend,Top*
G04 #@! TF.FilePolarity,Positive*
%FSLAX46Y46*%
G04 Gerber Fmt 4.6, Leading zero omitted, Abs format (unit mm)*
G04 Created by KiCad (PCBNEW (6.0.0-0)) date 2023-02-04 16:45:17*
%MOMM*%
%LPD*%
G01*
G04 APERTURE LIST*
%ADD10C,0.120000*%
%ADD11C,0.100000*%
%ADD12C,0.140000*%
%ADD13C,0.150000*%
%ADD14C,0.010000*%
G04 APERTURE END LIST*
D10*
X156161000Y-112278000D02*
X156761000Y-112278000D01*
X156646714Y-113047428D02*
X156446714Y-112761714D01*
X156303857Y-113047428D02*
X156303857Y-112447428D01*
X156532428Y-112447428D01*
X156589571Y-112476000D01*
X156618142Y-112504571D01*
X156646714Y-112561714D01*
X156646714Y-112647428D01*
X156618142Y-112704571D01*
X156589571Y-112733142D01*
X156532428Y-112761714D01*
X156303857Y-112761714D01*
X156761000Y-112278000D02*
X157332428Y-112278000D01*
X156875285Y-113018857D02*
X156961000Y-113047428D01*
X157103857Y-113047428D01*
X157161000Y-113018857D01*
X157189571Y-112990285D01*
X157218142Y-112933142D01*
X157218142Y-112876000D01*
X157189571Y-112818857D01*
X157161000Y-112790285D01*
X157103857Y-112761714D01*
X156989571Y-112733142D01*
X156932428Y-112704571D01*
X156903857Y-112676000D01*
X156875285Y-112618857D01*
X156875285Y-112561714D01*
X156903857Y-112504571D01*
X156932428Y-112476000D01*
X156989571Y-112447428D01*
X157132428Y-112447428D01*
X157218142Y-112476000D01*
X157332428Y-112278000D02*
X157789571Y-112278000D01*
X157389571Y-112447428D02*
X157732428Y-112447428D01*
X157561000Y-113047428D02*
X157561000Y-112447428D01*
X153979714Y-113047428D02*
X153779714Y-112761714D01*
X153636857Y-113047428D02*
X153636857Y-112447428D01*
X153865428Y-112447428D01*
X153922571Y-112476000D01*
X153951142Y-112504571D01*
X153979714Y-112561714D01*
X153979714Y-112647428D01*
X153951142Y-112704571D01*
X153922571Y-112733142D01*
X153865428Y-112761714D01*
X153636857Y-112761714D01*
X154236857Y-113047428D02*
X154236857Y-112447428D01*
X154379714Y-112447428D01*
X154465428Y-112476000D01*
X154522571Y-112533142D01*
X154551142Y-112590285D01*
X154579714Y-112704571D01*
X154579714Y-112790285D01*
X154551142Y-112904571D01*
X154522571Y-112961714D01*
X154465428Y-113018857D01*
X154379714Y-113047428D01*
X154236857Y-113047428D01*
X154951142Y-112761714D02*
X154951142Y-113047428D01*
X154751142Y-112447428D02*
X154951142Y-112761714D01*
X155151142Y-112447428D01*
X151208000Y-112278000D02*
X151808000Y-112278000D01*
X151693714Y-112990285D02*
X151665142Y-113018857D01*
X151579428Y-113047428D01*
X151522285Y-113047428D01*
X151436571Y-113018857D01*
X151379428Y-112961714D01*
X151350857Y-112904571D01*
X151322285Y-112790285D01*
X151322285Y-112704571D01*
X151350857Y-112590285D01*
X151379428Y-112533142D01*
X151436571Y-112476000D01*
X151522285Y-112447428D01*
X151579428Y-112447428D01*
X151665142Y-112476000D01*
X151693714Y-112504571D01*
X151808000Y-112278000D02*
X152379428Y-112278000D01*
X151922285Y-113018857D02*
X152008000Y-113047428D01*
X152150857Y-113047428D01*
X152208000Y-113018857D01*
X152236571Y-112990285D01*
X152265142Y-112933142D01*
X152265142Y-112876000D01*
X152236571Y-112818857D01*
X152208000Y-112790285D01*
X152150857Y-112761714D01*
X152036571Y-112733142D01*
X151979428Y-112704571D01*
X151950857Y-112676000D01*
X151922285Y-112618857D01*
X151922285Y-112561714D01*
X151950857Y-112504571D01*
X151979428Y-112476000D01*
X152036571Y-112447428D01*
X152179428Y-112447428D01*
X152265142Y-112476000D01*
D11*
X148527190Y-113002190D02*
X148527190Y-112502190D01*
X148527190Y-112740285D02*
X148830047Y-112740285D01*
X148830047Y-113002190D02*
X148830047Y-112502190D01*
X149183380Y-112502190D02*
X149284333Y-112502190D01*
X149334809Y-112526000D01*
X149385285Y-112573619D01*
X149410523Y-112668857D01*
X149410523Y-112835523D01*
X149385285Y-112930761D01*
X149334809Y-112978380D01*
X149284333Y-113002190D01*
X149183380Y-113002190D01*
X149132904Y-112978380D01*
X149082428Y-112930761D01*
X149057190Y-112835523D01*
X149057190Y-112668857D01*
X149082428Y-112573619D01*
X149132904Y-112526000D01*
X149183380Y-112502190D01*
X149637666Y-113002190D02*
X149637666Y-112502190D01*
X149839571Y-112502190D01*
X149890047Y-112526000D01*
X149915285Y-112549809D01*
X149940523Y-112597428D01*
X149940523Y-112668857D01*
X149915285Y-112716476D01*
X149890047Y-112740285D01*
X149839571Y-112764095D01*
X149637666Y-112764095D01*
X150167666Y-113002190D02*
X150167666Y-112502190D01*
X145987190Y-113002190D02*
X145987190Y-112502190D01*
X145987190Y-112740285D02*
X146290047Y-112740285D01*
X146290047Y-113002190D02*
X146290047Y-112502190D01*
X146542428Y-113002190D02*
X146542428Y-112502190D01*
X146794809Y-113002190D02*
X146794809Y-112502190D01*
X146996714Y-112502190D01*
X147047190Y-112526000D01*
X147072428Y-112549809D01*
X147097666Y-112597428D01*
X147097666Y-112668857D01*
X147072428Y-112716476D01*
X147047190Y-112740285D01*
X146996714Y-112764095D01*
X146794809Y-112764095D01*
X147425761Y-112502190D02*
X147526714Y-112502190D01*
X147577190Y-112526000D01*
X147627666Y-112573619D01*
X147652904Y-112668857D01*
X147652904Y-112835523D01*
X147627666Y-112930761D01*
X147577190Y-112978380D01*
X147526714Y-113002190D01*
X147425761Y-113002190D01*
X147375285Y-112978380D01*
X147324809Y-112930761D01*
X147299571Y-112835523D01*
X147299571Y-112668857D01*
X147324809Y-112573619D01*
X147375285Y-112526000D01*
X147425761Y-112502190D01*
D10*
X143448285Y-113018857D02*
X143534000Y-113047428D01*
X143676857Y-113047428D01*
X143734000Y-113018857D01*
X143762571Y-112990285D01*
X143791142Y-112933142D01*
X143791142Y-112876000D01*
X143762571Y-112818857D01*
X143734000Y-112790285D01*
X143676857Y-112761714D01*
X143562571Y-112733142D01*
X143505428Y-112704571D01*
X143476857Y-112676000D01*
X143448285Y-112618857D01*
X143448285Y-112561714D01*
X143476857Y-112504571D01*
X143505428Y-112476000D01*
X143562571Y-112447428D01*
X143705428Y-112447428D01*
X143791142Y-112476000D01*
X144334000Y-113047428D02*
X144048285Y-113047428D01*
X144048285Y-112447428D01*
X144534000Y-113047428D02*
X144534000Y-112447428D01*
X144876857Y-113047428D02*
X144619714Y-112704571D01*
X144876857Y-112447428D02*
X144534000Y-112790285D01*
X138438142Y-112447428D02*
X138638142Y-113047428D01*
X138838142Y-112447428D01*
X139295285Y-113018857D02*
X139238142Y-113047428D01*
X139123857Y-113047428D01*
X139066714Y-113018857D01*
X139038142Y-112990285D01*
X139009571Y-112933142D01*
X139009571Y-112761714D01*
X139038142Y-112704571D01*
X139066714Y-112676000D01*
X139123857Y-112647428D01*
X139238142Y-112647428D01*
X139295285Y-112676000D01*
X139809571Y-113018857D02*
X139752428Y-113047428D01*
X139638142Y-113047428D01*
X139581000Y-113018857D01*
X139552428Y-112990285D01*
X139523857Y-112933142D01*
X139523857Y-112761714D01*
X139552428Y-112704571D01*
X139581000Y-112676000D01*
X139638142Y-112647428D01*
X139752428Y-112647428D01*
X139809571Y-112676000D01*
X141124142Y-112476000D02*
X141067000Y-112447428D01*
X140981285Y-112447428D01*
X140895571Y-112476000D01*
X140838428Y-112533142D01*
X140809857Y-112590285D01*
X140781285Y-112704571D01*
X140781285Y-112790285D01*
X140809857Y-112904571D01*
X140838428Y-112961714D01*
X140895571Y-113018857D01*
X140981285Y-113047428D01*
X141038428Y-113047428D01*
X141124142Y-113018857D01*
X141152714Y-112990285D01*
X141152714Y-112790285D01*
X141038428Y-112790285D01*
X141409857Y-113047428D02*
X141409857Y-112447428D01*
X141752714Y-113047428D01*
X141752714Y-112447428D01*
X142038428Y-113047428D02*
X142038428Y-112447428D01*
X142181285Y-112447428D01*
X142267000Y-112476000D01*
X142324142Y-112533142D01*
X142352714Y-112590285D01*
X142381285Y-112704571D01*
X142381285Y-112790285D01*
X142352714Y-112904571D01*
X142324142Y-112961714D01*
X142267000Y-113018857D01*
X142181285Y-113047428D01*
X142038428Y-113047428D01*
X153951142Y-100030000D02*
X153894000Y-100001428D01*
X153808285Y-100001428D01*
X153722571Y-100030000D01*
X153665428Y-100087142D01*
X153636857Y-100144285D01*
X153608285Y-100258571D01*
X153608285Y-100344285D01*
X153636857Y-100458571D01*
X153665428Y-100515714D01*
X153722571Y-100572857D01*
X153808285Y-100601428D01*
X153865428Y-100601428D01*
X153951142Y-100572857D01*
X153979714Y-100544285D01*
X153979714Y-100344285D01*
X153865428Y-100344285D01*
X154236857Y-100601428D02*
X154236857Y-100001428D01*
X154579714Y-100601428D01*
X154579714Y-100001428D01*
X154865428Y-100601428D02*
X154865428Y-100001428D01*
X155008285Y-100001428D01*
X155094000Y-100030000D01*
X155151142Y-100087142D01*
X155179714Y-100144285D01*
X155208285Y-100258571D01*
X155208285Y-100344285D01*
X155179714Y-100458571D01*
X155151142Y-100515714D01*
X155094000Y-100572857D01*
X155008285Y-100601428D01*
X154865428Y-100601428D01*
X150884142Y-100001428D02*
X151084142Y-100601428D01*
X151284142Y-100001428D01*
X151455571Y-100572857D02*
X151512714Y-100601428D01*
X151627000Y-100601428D01*
X151684142Y-100572857D01*
X151712714Y-100515714D01*
X151712714Y-100487142D01*
X151684142Y-100430000D01*
X151627000Y-100401428D01*
X151541285Y-100401428D01*
X151484142Y-100372857D01*
X151455571Y-100315714D01*
X151455571Y-100287142D01*
X151484142Y-100230000D01*
X151541285Y-100201428D01*
X151627000Y-100201428D01*
X151684142Y-100230000D01*
X151941285Y-100572857D02*
X151998428Y-100601428D01*
X152112714Y-100601428D01*
X152169857Y-100572857D01*
X152198428Y-100515714D01*
X152198428Y-100487142D01*
X152169857Y-100430000D01*
X152112714Y-100401428D01*
X152027000Y-100401428D01*
X151969857Y-100372857D01*
X151941285Y-100315714D01*
X151941285Y-100287142D01*
X151969857Y-100230000D01*
X152027000Y-100201428D01*
X152112714Y-100201428D01*
X152169857Y-100230000D01*
X152455571Y-100372857D02*
X152912714Y-100372857D01*
D12*
X149562000Y-100773666D02*
X149228666Y-100773666D01*
X149228666Y-100073666D01*
X146495000Y-100073666D02*
X146661666Y-100773666D01*
X146795000Y-100273666D01*
X146928333Y-100773666D01*
X147095000Y-100073666D01*
X144021666Y-100773666D02*
X144021666Y-100073666D01*
X144021666Y-100407000D02*
X144421666Y-100407000D01*
X144421666Y-100773666D02*
X144421666Y-100073666D01*
D13*
X150920142Y-110265250D02*
X151277285Y-110265250D01*
X150848714Y-110479535D02*
X151098714Y-109729535D01*
X151348714Y-110479535D01*
X151598714Y-110479535D02*
X151598714Y-109729535D01*
X151777285Y-109729535D01*
X151884428Y-109765250D01*
X151955857Y-109836678D01*
X151991571Y-109908107D01*
X152027285Y-110050964D01*
X152027285Y-110158107D01*
X151991571Y-110300964D01*
X151955857Y-110372392D01*
X151884428Y-110443821D01*
X151777285Y-110479535D01*
X151598714Y-110479535D01*
X152705857Y-109729535D02*
X152348714Y-109729535D01*
X152313000Y-110086678D01*
X152348714Y-110050964D01*
X152420142Y-110015250D01*
X152598714Y-110015250D01*
X152670142Y-110050964D01*
X152705857Y-110086678D01*
X152741571Y-110158107D01*
X152741571Y-110336678D01*
X152705857Y-110408107D01*
X152670142Y-110443821D01*
X152598714Y-110479535D01*
X152420142Y-110479535D01*
X152348714Y-110443821D01*
X152313000Y-110408107D01*
X153027285Y-109800964D02*
X153063000Y-109765250D01*
X153134428Y-109729535D01*
X153313000Y-109729535D01*
X153384428Y-109765250D01*
X153420142Y-109800964D01*
X153455857Y-109872392D01*
X153455857Y-109943821D01*
X153420142Y-110050964D01*
X152991571Y-110479535D01*
X153455857Y-110479535D01*
X153813000Y-110479535D02*
X153955857Y-110479535D01*
X154027285Y-110443821D01*
X154063000Y-110408107D01*
X154134428Y-110300964D01*
X154170142Y-110158107D01*
X154170142Y-109872392D01*
X154134428Y-109800964D01*
X154098714Y-109765250D01*
X154027285Y-109729535D01*
X153884428Y-109729535D01*
X153813000Y-109765250D01*
X153777285Y-109800964D01*
X153741571Y-109872392D01*
X153741571Y-110050964D01*
X153777285Y-110122392D01*
X153813000Y-110158107D01*
X153884428Y-110193821D01*
X154027285Y-110193821D01*
X154098714Y-110158107D01*
X154134428Y-110122392D01*
X154170142Y-110050964D01*
X154420142Y-109729535D02*
X154884428Y-109729535D01*
X154634428Y-110015250D01*
X154741571Y-110015250D01*
X154813000Y-110050964D01*
X154848714Y-110086678D01*
X154884428Y-110158107D01*
X154884428Y-110336678D01*
X154848714Y-110408107D01*
X154813000Y-110443821D01*
X154741571Y-110479535D01*
X154527285Y-110479535D01*
X154455857Y-110443821D01*
X154420142Y-110408107D01*
X155205857Y-110193821D02*
X155777285Y-110193821D01*
X156527285Y-110479535D02*
X156098714Y-110479535D01*
X156313000Y-110479535D02*
X156313000Y-109729535D01*
X156241571Y-109836678D01*
X156170142Y-109908107D01*
X156098714Y-109943821D01*
X156991571Y-109729535D02*
X157063000Y-109729535D01*
X157134428Y-109765250D01*
X157170142Y-109800964D01*
X157205857Y-109872392D01*
X157241571Y-110015250D01*
X157241571Y-110193821D01*
X157205857Y-110336678D01*
X157170142Y-110408107D01*
X157134428Y-110443821D01*
X157063000Y-110479535D01*
X156991571Y-110479535D01*
X156920142Y-110443821D01*
X156884428Y-110408107D01*
X156848714Y-110336678D01*
X156813000Y-110193821D01*
X156813000Y-110015250D01*
X156848714Y-109872392D01*
X156884428Y-109800964D01*
X156920142Y-109765250D01*
X156991571Y-109729535D01*
X157705857Y-109729535D02*
X157777285Y-109729535D01*
X157848714Y-109765250D01*
X157884428Y-109800964D01*
X157920142Y-109872392D01*
X157955857Y-110015250D01*
X157955857Y-110193821D01*
X157920142Y-110336678D01*
X157884428Y-110408107D01*
X157848714Y-110443821D01*
X157777285Y-110479535D01*
X157705857Y-110479535D01*
X157634428Y-110443821D01*
X157598714Y-110408107D01*
X157563000Y-110336678D01*
X157527285Y-110193821D01*
X157527285Y-110015250D01*
X157563000Y-109872392D01*
X157598714Y-109800964D01*
X157634428Y-109765250D01*
X157705857Y-109729535D01*
X158277285Y-110479535D02*
X158277285Y-109729535D01*
X158705857Y-110479535D02*
X158384428Y-110050964D01*
X158705857Y-109729535D02*
X158277285Y-110158107D01*
X152366571Y-111687035D02*
X152366571Y-110937035D01*
X152545142Y-110937035D01*
X152652285Y-110972750D01*
X152723714Y-111044178D01*
X152759428Y-111115607D01*
X152795142Y-111258464D01*
X152795142Y-111365607D01*
X152759428Y-111508464D01*
X152723714Y-111579892D01*
X152652285Y-111651321D01*
X152545142Y-111687035D01*
X152366571Y-111687035D01*
X153116571Y-111687035D02*
X153116571Y-110937035D01*
X153866571Y-110972750D02*
X153795142Y-110937035D01*
X153688000Y-110937035D01*
X153580857Y-110972750D01*
X153509428Y-111044178D01*
X153473714Y-111115607D01*
X153438000Y-111258464D01*
X153438000Y-111365607D01*
X153473714Y-111508464D01*
X153509428Y-111579892D01*
X153580857Y-111651321D01*
X153688000Y-111687035D01*
X153759428Y-111687035D01*
X153866571Y-111651321D01*
X153902285Y-111615607D01*
X153902285Y-111365607D01*
X153759428Y-111365607D01*
X154223714Y-111687035D02*
X154223714Y-110937035D01*
X154580857Y-111401321D02*
X155152285Y-111401321D01*
X155509428Y-111687035D02*
X155509428Y-110937035D01*
X155795142Y-110937035D01*
X155866571Y-110972750D01*
X155902285Y-111008464D01*
X155938000Y-111079892D01*
X155938000Y-111187035D01*
X155902285Y-111258464D01*
X155866571Y-111294178D01*
X155795142Y-111329892D01*
X155509428Y-111329892D01*
X156402285Y-110937035D02*
X156545142Y-110937035D01*
X156616571Y-110972750D01*
X156688000Y-111044178D01*
X156723714Y-111187035D01*
X156723714Y-111437035D01*
X156688000Y-111579892D01*
X156616571Y-111651321D01*
X156545142Y-111687035D01*
X156402285Y-111687035D01*
X156330857Y-111651321D01*
X156259428Y-111579892D01*
X156223714Y-111437035D01*
X156223714Y-111187035D01*
X156259428Y-111044178D01*
X156330857Y-110972750D01*
X156402285Y-110937035D01*
X156938000Y-110937035D02*
X157366571Y-110937035D01*
X157152285Y-111687035D02*
X157152285Y-110937035D01*
D10*
X140343142Y-100001428D02*
X140543142Y-100601428D01*
X140743142Y-100001428D01*
X141200285Y-100601428D02*
X141200285Y-100001428D01*
X141200285Y-100572857D02*
X141143142Y-100601428D01*
X141028857Y-100601428D01*
X140971714Y-100572857D01*
X140943142Y-100544285D01*
X140914571Y-100487142D01*
X140914571Y-100315714D01*
X140943142Y-100258571D01*
X140971714Y-100230000D01*
X141028857Y-100201428D01*
X141143142Y-100201428D01*
X141200285Y-100230000D01*
X141743142Y-100601428D02*
X141743142Y-100001428D01*
X141743142Y-100572857D02*
X141686000Y-100601428D01*
X141571714Y-100601428D01*
X141514571Y-100572857D01*
X141486000Y-100544285D01*
X141457428Y-100487142D01*
X141457428Y-100315714D01*
X141486000Y-100258571D01*
X141514571Y-100230000D01*
X141571714Y-100201428D01*
X141686000Y-100201428D01*
X141743142Y-100230000D01*
X142028857Y-100372857D02*
X142486000Y-100372857D01*
X142257428Y-100601428D02*
X142257428Y-100144285D01*
D11*
X138314952Y-103604190D02*
X138314952Y-103104190D01*
X138434000Y-103104190D01*
X138505428Y-103128000D01*
X138553047Y-103175619D01*
X138576857Y-103223238D01*
X138600666Y-103318476D01*
X138600666Y-103389904D01*
X138576857Y-103485142D01*
X138553047Y-103532761D01*
X138505428Y-103580380D01*
X138434000Y-103604190D01*
X138314952Y-103604190D01*
X139076857Y-103604190D02*
X138791142Y-103604190D01*
X138934000Y-103604190D02*
X138934000Y-103104190D01*
X138886380Y-103175619D01*
X138838761Y-103223238D01*
X138791142Y-103247047D01*
X138017333Y-104366190D02*
X138017333Y-103866190D01*
X138207809Y-103866190D01*
X138255428Y-103890000D01*
X138279238Y-103913809D01*
X138303047Y-103961428D01*
X138303047Y-104032857D01*
X138279238Y-104080476D01*
X138255428Y-104104285D01*
X138207809Y-104128095D01*
X138017333Y-104128095D01*
X138469714Y-103866190D02*
X138588761Y-104366190D01*
X138684000Y-104009047D01*
X138779238Y-104366190D01*
X138898285Y-103866190D01*
X139374476Y-104366190D02*
X139207809Y-104128095D01*
X139088761Y-104366190D02*
X139088761Y-103866190D01*
X139279238Y-103866190D01*
X139326857Y-103890000D01*
X139350666Y-103913809D01*
X139374476Y-103961428D01*
X139374476Y-104032857D01*
X139350666Y-104080476D01*
X139326857Y-104104285D01*
X139279238Y-104128095D01*
X139088761Y-104128095D01*
X157142666Y-100032571D02*
X157118857Y-100056380D01*
X157047428Y-100080190D01*
X156999809Y-100080190D01*
X156928380Y-100056380D01*
X156880761Y-100008761D01*
X156856952Y-99961142D01*
X156833142Y-99865904D01*
X156833142Y-99794476D01*
X156856952Y-99699238D01*
X156880761Y-99651619D01*
X156928380Y-99604000D01*
X156999809Y-99580190D01*
X157047428Y-99580190D01*
X157118857Y-99604000D01*
X157142666Y-99627809D01*
X157595047Y-99580190D02*
X157356952Y-99580190D01*
X157333142Y-99818285D01*
X157356952Y-99794476D01*
X157404571Y-99770666D01*
X157523619Y-99770666D01*
X157571238Y-99794476D01*
X157595047Y-99818285D01*
X157618857Y-99865904D01*
X157618857Y-99984952D01*
X157595047Y-100032571D01*
X157571238Y-100056380D01*
X157523619Y-100080190D01*
X157404571Y-100080190D01*
X157356952Y-100056380D01*
X157333142Y-100032571D01*
X156309285Y-100780190D02*
X156023571Y-100780190D01*
X156166428Y-100780190D02*
X156166428Y-100280190D01*
X156118809Y-100351619D01*
X156071190Y-100399238D01*
X156023571Y-100423047D01*
X156618809Y-100280190D02*
X156666428Y-100280190D01*
X156714047Y-100304000D01*
X156737857Y-100327809D01*
X156761666Y-100375428D01*
X156785476Y-100470666D01*
X156785476Y-100589714D01*
X156761666Y-100684952D01*
X156737857Y-100732571D01*
X156714047Y-100756380D01*
X156666428Y-100780190D01*
X156618809Y-100780190D01*
X156571190Y-100756380D01*
X156547380Y-100732571D01*
X156523571Y-100684952D01*
X156499761Y-100589714D01*
X156499761Y-100470666D01*
X156523571Y-100375428D01*
X156547380Y-100327809D01*
X156571190Y-100304000D01*
X156618809Y-100280190D01*
X157214047Y-100446857D02*
X157214047Y-100780190D01*
X156999761Y-100446857D02*
X156999761Y-100708761D01*
X157023571Y-100756380D01*
X157071190Y-100780190D01*
X157142619Y-100780190D01*
X157190238Y-100756380D01*
X157214047Y-100732571D01*
X157618809Y-100518285D02*
X157452142Y-100518285D01*
X157452142Y-100780190D02*
X157452142Y-100280190D01*
X157690238Y-100280190D01*
X139108666Y-101270571D02*
X139084857Y-101294380D01*
X139013428Y-101318190D01*
X138965809Y-101318190D01*
X138894380Y-101294380D01*
X138846761Y-101246761D01*
X138822952Y-101199142D01*
X138799142Y-101103904D01*
X138799142Y-101032476D01*
X138822952Y-100937238D01*
X138846761Y-100889619D01*
X138894380Y-100842000D01*
X138965809Y-100818190D01*
X139013428Y-100818190D01*
X139084857Y-100842000D01*
X139108666Y-100865809D01*
X139299142Y-100865809D02*
X139322952Y-100842000D01*
X139370571Y-100818190D01*
X139489619Y-100818190D01*
X139537238Y-100842000D01*
X139561047Y-100865809D01*
X139584857Y-100913428D01*
X139584857Y-100961047D01*
X139561047Y-101032476D01*
X139275333Y-101318190D01*
X139584857Y-101318190D01*
X137862571Y-101580190D02*
X137910190Y-101580190D01*
X137957809Y-101604000D01*
X137981619Y-101627809D01*
X138005428Y-101675428D01*
X138029238Y-101770666D01*
X138029238Y-101889714D01*
X138005428Y-101984952D01*
X137981619Y-102032571D01*
X137957809Y-102056380D01*
X137910190Y-102080190D01*
X137862571Y-102080190D01*
X137814952Y-102056380D01*
X137791142Y-102032571D01*
X137767333Y-101984952D01*
X137743523Y-101889714D01*
X137743523Y-101770666D01*
X137767333Y-101675428D01*
X137791142Y-101627809D01*
X137814952Y-101604000D01*
X137862571Y-101580190D01*
X138243523Y-102032571D02*
X138267333Y-102056380D01*
X138243523Y-102080190D01*
X138219714Y-102056380D01*
X138243523Y-102032571D01*
X138243523Y-102080190D01*
X138743523Y-102080190D02*
X138457809Y-102080190D01*
X138600666Y-102080190D02*
X138600666Y-101580190D01*
X138553047Y-101651619D01*
X138505428Y-101699238D01*
X138457809Y-101723047D01*
X139172095Y-101746857D02*
X139172095Y-102080190D01*
X138957809Y-101746857D02*
X138957809Y-102008761D01*
X138981619Y-102056380D01*
X139029238Y-102080190D01*
X139100666Y-102080190D01*
X139148285Y-102056380D01*
X139172095Y-102032571D01*
X139576857Y-101818285D02*
X139410190Y-101818285D01*
X139410190Y-102080190D02*
X139410190Y-101580190D01*
X139648285Y-101580190D01*
X139235666Y-111049571D02*
X139211857Y-111073380D01*
X139140428Y-111097190D01*
X139092809Y-111097190D01*
X139021380Y-111073380D01*
X138973761Y-111025761D01*
X138949952Y-110978142D01*
X138926142Y-110882904D01*
X138926142Y-110811476D01*
X138949952Y-110716238D01*
X138973761Y-110668619D01*
X139021380Y-110621000D01*
X139092809Y-110597190D01*
X139140428Y-110597190D01*
X139211857Y-110621000D01*
X139235666Y-110644809D01*
X139664238Y-110597190D02*
X139569000Y-110597190D01*
X139521380Y-110621000D01*
X139497571Y-110644809D01*
X139449952Y-110716238D01*
X139426142Y-110811476D01*
X139426142Y-111001952D01*
X139449952Y-111049571D01*
X139473761Y-111073380D01*
X139521380Y-111097190D01*
X139616619Y-111097190D01*
X139664238Y-111073380D01*
X139688047Y-111049571D01*
X139711857Y-111001952D01*
X139711857Y-110882904D01*
X139688047Y-110835285D01*
X139664238Y-110811476D01*
X139616619Y-110787666D01*
X139521380Y-110787666D01*
X139473761Y-110811476D01*
X139449952Y-110835285D01*
X139426142Y-110882904D01*
X137989571Y-111232190D02*
X138037190Y-111232190D01*
X138084809Y-111256000D01*
X138108619Y-111279809D01*
X138132428Y-111327428D01*
X138156238Y-111422666D01*
X138156238Y-111541714D01*
X138132428Y-111636952D01*
X138108619Y-111684571D01*
X138084809Y-111708380D01*
X138037190Y-111732190D01*
X137989571Y-111732190D01*
X137941952Y-111708380D01*
X137918142Y-111684571D01*
X137894333Y-111636952D01*
X137870523Y-111541714D01*
X137870523Y-111422666D01*
X137894333Y-111327428D01*
X137918142Y-111279809D01*
X137941952Y-111256000D01*
X137989571Y-111232190D01*
X138370523Y-111684571D02*
X138394333Y-111708380D01*
X138370523Y-111732190D01*
X138346714Y-111708380D01*
X138370523Y-111684571D01*
X138370523Y-111732190D01*
X138870523Y-111732190D02*
X138584809Y-111732190D01*
X138727666Y-111732190D02*
X138727666Y-111232190D01*
X138680047Y-111303619D01*
X138632428Y-111351238D01*
X138584809Y-111375047D01*
X139299095Y-111398857D02*
X139299095Y-111732190D01*
X139084809Y-111398857D02*
X139084809Y-111660761D01*
X139108619Y-111708380D01*
X139156238Y-111732190D01*
X139227666Y-111732190D01*
X139275285Y-111708380D01*
X139299095Y-111684571D01*
X139703857Y-111470285D02*
X139537190Y-111470285D01*
X139537190Y-111732190D02*
X139537190Y-111232190D01*
X139775285Y-111232190D01*
X146177047Y-102088190D02*
X146177047Y-102492952D01*
X146200857Y-102540571D01*
X146224666Y-102564380D01*
X146272285Y-102588190D01*
X146367523Y-102588190D01*
X146415142Y-102564380D01*
X146438952Y-102540571D01*
X146462761Y-102492952D01*
X146462761Y-102088190D01*
X146962761Y-102588190D02*
X146677047Y-102588190D01*
X146819904Y-102588190D02*
X146819904Y-102088190D01*
X146772285Y-102159619D01*
X146724666Y-102207238D01*
X146677047Y-102231047D01*
X147649571Y-102445333D02*
X147887666Y-102445333D01*
X147601952Y-102588190D02*
X147768619Y-102088190D01*
X147935285Y-102588190D01*
X148101952Y-102588190D02*
X148101952Y-102088190D01*
X148221000Y-102088190D01*
X148292428Y-102112000D01*
X148340047Y-102159619D01*
X148363857Y-102207238D01*
X148387666Y-102302476D01*
X148387666Y-102373904D01*
X148363857Y-102469142D01*
X148340047Y-102516761D01*
X148292428Y-102564380D01*
X148221000Y-102588190D01*
X148101952Y-102588190D01*
X148840047Y-102088190D02*
X148601952Y-102088190D01*
X148578142Y-102326285D01*
X148601952Y-102302476D01*
X148649571Y-102278666D01*
X148768619Y-102278666D01*
X148816238Y-102302476D01*
X148840047Y-102326285D01*
X148863857Y-102373904D01*
X148863857Y-102492952D01*
X148840047Y-102540571D01*
X148816238Y-102564380D01*
X148768619Y-102588190D01*
X148649571Y-102588190D01*
X148601952Y-102564380D01*
X148578142Y-102540571D01*
X149054333Y-102135809D02*
X149078142Y-102112000D01*
X149125761Y-102088190D01*
X149244809Y-102088190D01*
X149292428Y-102112000D01*
X149316238Y-102135809D01*
X149340047Y-102183428D01*
X149340047Y-102231047D01*
X149316238Y-102302476D01*
X149030523Y-102588190D01*
X149340047Y-102588190D01*
X149578142Y-102588190D02*
X149673380Y-102588190D01*
X149721000Y-102564380D01*
X149744809Y-102540571D01*
X149792428Y-102469142D01*
X149816238Y-102373904D01*
X149816238Y-102183428D01*
X149792428Y-102135809D01*
X149768619Y-102112000D01*
X149721000Y-102088190D01*
X149625761Y-102088190D01*
X149578142Y-102112000D01*
X149554333Y-102135809D01*
X149530523Y-102183428D01*
X149530523Y-102302476D01*
X149554333Y-102350095D01*
X149578142Y-102373904D01*
X149625761Y-102397714D01*
X149721000Y-102397714D01*
X149768619Y-102373904D01*
X149792428Y-102350095D01*
X149816238Y-102302476D01*
X149982904Y-102088190D02*
X150292428Y-102088190D01*
X150125761Y-102278666D01*
X150197190Y-102278666D01*
X150244809Y-102302476D01*
X150268619Y-102326285D01*
X150292428Y-102373904D01*
X150292428Y-102492952D01*
X150268619Y-102540571D01*
X150244809Y-102564380D01*
X150197190Y-102588190D01*
X150054333Y-102588190D01*
X150006714Y-102564380D01*
X149982904Y-102540571D01*
X140505666Y-106144190D02*
X140339000Y-105906095D01*
X140219952Y-106144190D02*
X140219952Y-105644190D01*
X140410428Y-105644190D01*
X140458047Y-105668000D01*
X140481857Y-105691809D01*
X140505666Y-105739428D01*
X140505666Y-105810857D01*
X140481857Y-105858476D01*
X140458047Y-105882285D01*
X140410428Y-105906095D01*
X140219952Y-105906095D01*
X140981857Y-106144190D02*
X140696142Y-106144190D01*
X140839000Y-106144190D02*
X140839000Y-105644190D01*
X140791380Y-105715619D01*
X140743761Y-105763238D01*
X140696142Y-105787047D01*
X142275761Y-106144190D02*
X141990047Y-106144190D01*
X142132904Y-106144190D02*
X142132904Y-105644190D01*
X142085285Y-105715619D01*
X142037666Y-105763238D01*
X141990047Y-105787047D01*
X142585285Y-105644190D02*
X142632904Y-105644190D01*
X142680523Y-105668000D01*
X142704333Y-105691809D01*
X142728142Y-105739428D01*
X142751952Y-105834666D01*
X142751952Y-105953714D01*
X142728142Y-106048952D01*
X142704333Y-106096571D01*
X142680523Y-106120380D01*
X142632904Y-106144190D01*
X142585285Y-106144190D01*
X142537666Y-106120380D01*
X142513857Y-106096571D01*
X142490047Y-106048952D01*
X142466238Y-105953714D01*
X142466238Y-105834666D01*
X142490047Y-105739428D01*
X142513857Y-105691809D01*
X142537666Y-105668000D01*
X142585285Y-105644190D01*
X142966238Y-106144190D02*
X142966238Y-105644190D01*
X143251952Y-106144190D02*
X143037666Y-105858476D01*
X143251952Y-105644190D02*
X142966238Y-105929904D01*
X140505666Y-105334571D02*
X140481857Y-105358380D01*
X140410428Y-105382190D01*
X140362809Y-105382190D01*
X140291380Y-105358380D01*
X140243761Y-105310761D01*
X140219952Y-105263142D01*
X140196142Y-105167904D01*
X140196142Y-105096476D01*
X140219952Y-105001238D01*
X140243761Y-104953619D01*
X140291380Y-104906000D01*
X140362809Y-104882190D01*
X140410428Y-104882190D01*
X140481857Y-104906000D01*
X140505666Y-104929809D01*
X140672333Y-104882190D02*
X140981857Y-104882190D01*
X140815190Y-105072666D01*
X140886619Y-105072666D01*
X140934238Y-105096476D01*
X140958047Y-105120285D01*
X140981857Y-105167904D01*
X140981857Y-105286952D01*
X140958047Y-105334571D01*
X140934238Y-105358380D01*
X140886619Y-105382190D01*
X140743761Y-105382190D01*
X140696142Y-105358380D01*
X140672333Y-105334571D01*
X141958285Y-105412190D02*
X141672571Y-105412190D01*
X141815428Y-105412190D02*
X141815428Y-104912190D01*
X141767809Y-104983619D01*
X141720190Y-105031238D01*
X141672571Y-105055047D01*
X142267809Y-104912190D02*
X142315428Y-104912190D01*
X142363047Y-104936000D01*
X142386857Y-104959809D01*
X142410666Y-105007428D01*
X142434476Y-105102666D01*
X142434476Y-105221714D01*
X142410666Y-105316952D01*
X142386857Y-105364571D01*
X142363047Y-105388380D01*
X142315428Y-105412190D01*
X142267809Y-105412190D01*
X142220190Y-105388380D01*
X142196380Y-105364571D01*
X142172571Y-105316952D01*
X142148761Y-105221714D01*
X142148761Y-105102666D01*
X142172571Y-105007428D01*
X142196380Y-104959809D01*
X142220190Y-104936000D01*
X142267809Y-104912190D01*
X142863047Y-105078857D02*
X142863047Y-105412190D01*
X142648761Y-105078857D02*
X142648761Y-105340761D01*
X142672571Y-105388380D01*
X142720190Y-105412190D01*
X142791619Y-105412190D01*
X142839238Y-105388380D01*
X142863047Y-105364571D01*
X143267809Y-105150285D02*
X143101142Y-105150285D01*
X143101142Y-105412190D02*
X143101142Y-104912190D01*
X143339238Y-104912190D01*
X144950666Y-110922571D02*
X144926857Y-110946380D01*
X144855428Y-110970190D01*
X144807809Y-110970190D01*
X144736380Y-110946380D01*
X144688761Y-110898761D01*
X144664952Y-110851142D01*
X144641142Y-110755904D01*
X144641142Y-110684476D01*
X144664952Y-110589238D01*
X144688761Y-110541619D01*
X144736380Y-110494000D01*
X144807809Y-110470190D01*
X144855428Y-110470190D01*
X144926857Y-110494000D01*
X144950666Y-110517809D01*
X145426857Y-110970190D02*
X145141142Y-110970190D01*
X145284000Y-110970190D02*
X145284000Y-110470190D01*
X145236380Y-110541619D01*
X145188761Y-110589238D01*
X145141142Y-110613047D01*
X146641380Y-110970190D02*
X146355666Y-110970190D01*
X146498523Y-110970190D02*
X146498523Y-110470190D01*
X146450904Y-110541619D01*
X146403285Y-110589238D01*
X146355666Y-110613047D01*
X147069952Y-110636857D02*
X147069952Y-110970190D01*
X146855666Y-110636857D02*
X146855666Y-110898761D01*
X146879476Y-110946380D01*
X146927095Y-110970190D01*
X146998523Y-110970190D01*
X147046142Y-110946380D01*
X147069952Y-110922571D01*
X147474714Y-110708285D02*
X147308047Y-110708285D01*
X147308047Y-110970190D02*
X147308047Y-110470190D01*
X147546142Y-110470190D01*
X139235666Y-108763571D02*
X139211857Y-108787380D01*
X139140428Y-108811190D01*
X139092809Y-108811190D01*
X139021380Y-108787380D01*
X138973761Y-108739761D01*
X138949952Y-108692142D01*
X138926142Y-108596904D01*
X138926142Y-108525476D01*
X138949952Y-108430238D01*
X138973761Y-108382619D01*
X139021380Y-108335000D01*
X139092809Y-108311190D01*
X139140428Y-108311190D01*
X139211857Y-108335000D01*
X139235666Y-108358809D01*
X139402333Y-108311190D02*
X139735666Y-108311190D01*
X139521380Y-108811190D01*
X138402285Y-109446190D02*
X138116571Y-109446190D01*
X138259428Y-109446190D02*
X138259428Y-108946190D01*
X138211809Y-109017619D01*
X138164190Y-109065238D01*
X138116571Y-109089047D01*
X138711809Y-108946190D02*
X138759428Y-108946190D01*
X138807047Y-108970000D01*
X138830857Y-108993809D01*
X138854666Y-109041428D01*
X138878476Y-109136666D01*
X138878476Y-109255714D01*
X138854666Y-109350952D01*
X138830857Y-109398571D01*
X138807047Y-109422380D01*
X138759428Y-109446190D01*
X138711809Y-109446190D01*
X138664190Y-109422380D01*
X138640380Y-109398571D01*
X138616571Y-109350952D01*
X138592761Y-109255714D01*
X138592761Y-109136666D01*
X138616571Y-109041428D01*
X138640380Y-108993809D01*
X138664190Y-108970000D01*
X138711809Y-108946190D01*
X139307047Y-109112857D02*
X139307047Y-109446190D01*
X139092761Y-109112857D02*
X139092761Y-109374761D01*
X139116571Y-109422380D01*
X139164190Y-109446190D01*
X139235619Y-109446190D01*
X139283238Y-109422380D01*
X139307047Y-109398571D01*
X139711809Y-109184285D02*
X139545142Y-109184285D01*
X139545142Y-109446190D02*
X139545142Y-108946190D01*
X139783238Y-108946190D01*
X154221666Y-104445571D02*
X154197857Y-104469380D01*
X154126428Y-104493190D01*
X154078809Y-104493190D01*
X154007380Y-104469380D01*
X153959761Y-104421761D01*
X153935952Y-104374142D01*
X153912142Y-104278904D01*
X153912142Y-104207476D01*
X153935952Y-104112238D01*
X153959761Y-104064619D01*
X154007380Y-104017000D01*
X154078809Y-103993190D01*
X154126428Y-103993190D01*
X154197857Y-104017000D01*
X154221666Y-104040809D01*
X154650238Y-104159857D02*
X154650238Y-104493190D01*
X154531190Y-103969380D02*
X154412142Y-104326523D01*
X154721666Y-104326523D01*
X152848571Y-103231190D02*
X152896190Y-103231190D01*
X152943809Y-103255000D01*
X152967619Y-103278809D01*
X152991428Y-103326428D01*
X153015238Y-103421666D01*
X153015238Y-103540714D01*
X152991428Y-103635952D01*
X152967619Y-103683571D01*
X152943809Y-103707380D01*
X152896190Y-103731190D01*
X152848571Y-103731190D01*
X152800952Y-103707380D01*
X152777142Y-103683571D01*
X152753333Y-103635952D01*
X152729523Y-103540714D01*
X152729523Y-103421666D01*
X152753333Y-103326428D01*
X152777142Y-103278809D01*
X152800952Y-103255000D01*
X152848571Y-103231190D01*
X153229523Y-103683571D02*
X153253333Y-103707380D01*
X153229523Y-103731190D01*
X153205714Y-103707380D01*
X153229523Y-103683571D01*
X153229523Y-103731190D01*
X153729523Y-103731190D02*
X153443809Y-103731190D01*
X153586666Y-103731190D02*
X153586666Y-103231190D01*
X153539047Y-103302619D01*
X153491428Y-103350238D01*
X153443809Y-103374047D01*
X154158095Y-103397857D02*
X154158095Y-103731190D01*
X153943809Y-103397857D02*
X153943809Y-103659761D01*
X153967619Y-103707380D01*
X154015238Y-103731190D01*
X154086666Y-103731190D01*
X154134285Y-103707380D01*
X154158095Y-103683571D01*
X154562857Y-103469285D02*
X154396190Y-103469285D01*
X154396190Y-103731190D02*
X154396190Y-103231190D01*
X154634285Y-103231190D01*
D14*
X154899201Y-105452577D02*
X155001073Y-105462931D01*
X155001073Y-105462931D02*
X155029287Y-105467196D01*
X155029287Y-105467196D02*
X155054716Y-105471772D01*
X155054716Y-105471772D02*
X155091911Y-105478975D01*
X155091911Y-105478975D02*
X155138258Y-105488255D01*
X155138258Y-105488255D02*
X155191142Y-105499059D01*
X155191142Y-105499059D02*
X155247949Y-105510834D01*
X155247949Y-105510834D02*
X155306065Y-105523029D01*
X155306065Y-105523029D02*
X155362875Y-105535092D01*
X155362875Y-105535092D02*
X155415765Y-105546471D01*
X155415765Y-105546471D02*
X155462120Y-105556614D01*
X155462120Y-105556614D02*
X155499327Y-105564968D01*
X155499327Y-105564968D02*
X155524769Y-105570981D01*
X155524769Y-105570981D02*
X155535835Y-105574102D01*
X155535835Y-105574102D02*
X155535998Y-105574194D01*
X155535998Y-105574194D02*
X155535057Y-105582882D01*
X155535057Y-105582882D02*
X155529610Y-105603625D01*
X155529610Y-105603625D02*
X155520949Y-105631588D01*
X155520949Y-105631588D02*
X155509440Y-105669037D01*
X155509440Y-105669037D02*
X155498767Y-105707668D01*
X155498767Y-105707668D02*
X155493165Y-105730682D01*
X155493165Y-105730682D02*
X155486264Y-105767363D01*
X155486264Y-105767363D02*
X155479012Y-105814754D01*
X155479012Y-105814754D02*
X155472022Y-105867720D01*
X155472022Y-105867720D02*
X155465906Y-105921127D01*
X155465906Y-105921127D02*
X155461278Y-105969838D01*
X155461278Y-105969838D02*
X155458749Y-106008721D01*
X155458749Y-106008721D02*
X155458460Y-106021573D01*
X155458460Y-106021573D02*
X155458460Y-106067889D01*
X155458460Y-106067889D02*
X155347260Y-106067889D01*
X155347260Y-106067889D02*
X155341549Y-105974561D01*
X155341549Y-105974561D02*
X155339082Y-105929179D01*
X155339082Y-105929179D02*
X155337150Y-105884058D01*
X155337150Y-105884058D02*
X155336021Y-105845924D01*
X155336021Y-105845924D02*
X155335839Y-105830153D01*
X155335839Y-105830153D02*
X155335202Y-105801031D01*
X155335202Y-105801031D02*
X155331437Y-105783408D01*
X155331437Y-105783408D02*
X155321768Y-105771271D01*
X155321768Y-105771271D02*
X155303415Y-105758606D01*
X155303415Y-105758606D02*
X155302527Y-105758045D01*
X155302527Y-105758045D02*
X155210663Y-105707147D01*
X155210663Y-105707147D02*
X155107486Y-105662394D01*
X155107486Y-105662394D02*
X154998775Y-105626084D01*
X154998775Y-105626084D02*
X154922153Y-105606850D01*
X154922153Y-105606850D02*
X154872265Y-105599038D01*
X154872265Y-105599038D02*
X154809751Y-105593666D01*
X154809751Y-105593666D02*
X154739270Y-105590733D01*
X154739270Y-105590733D02*
X154665481Y-105590237D01*
X154665481Y-105590237D02*
X154593045Y-105592176D01*
X154593045Y-105592176D02*
X154526621Y-105596547D01*
X154526621Y-105596547D02*
X154470869Y-105603350D01*
X154470869Y-105603350D02*
X154451218Y-105607047D01*
X154451218Y-105607047D02*
X154331176Y-105639629D01*
X154331176Y-105639629D02*
X154223483Y-105683097D01*
X154223483Y-105683097D02*
X154125859Y-105738702D01*
X154125859Y-105738702D02*
X154036027Y-105807690D01*
X154036027Y-105807690D02*
X153971678Y-105869719D01*
X153971678Y-105869719D02*
X153900645Y-105952667D01*
X153900645Y-105952667D02*
X153842835Y-106039006D01*
X153842835Y-106039006D02*
X153796888Y-106131628D01*
X153796888Y-106131628D02*
X153761446Y-106233425D01*
X153761446Y-106233425D02*
X153735150Y-106347289D01*
X153735150Y-106347289D02*
X153728314Y-106387578D01*
X153728314Y-106387578D02*
X153719903Y-106466025D01*
X153719903Y-106466025D02*
X153716824Y-106554896D01*
X153716824Y-106554896D02*
X153718892Y-106647990D01*
X153718892Y-106647990D02*
X153725923Y-106739107D01*
X153725923Y-106739107D02*
X153737732Y-106822044D01*
X153737732Y-106822044D02*
X153741885Y-106843027D01*
X153741885Y-106843027D02*
X153770849Y-106949266D01*
X153770849Y-106949266D02*
X153811760Y-107055717D01*
X153811760Y-107055717D02*
X153862356Y-107157633D01*
X153862356Y-107157633D02*
X153920378Y-107250267D01*
X153920378Y-107250267D02*
X153961140Y-107303417D01*
X153961140Y-107303417D02*
X153992199Y-107340499D01*
X153992199Y-107340499D02*
X154034689Y-107308066D01*
X154034689Y-107308066D02*
X154079749Y-107276453D01*
X154079749Y-107276453D02*
X154134726Y-107242085D01*
X154134726Y-107242085D02*
X154193773Y-107208299D01*
X154193773Y-107208299D02*
X154251044Y-107178432D01*
X154251044Y-107178432D02*
X154300694Y-107155820D01*
X154300694Y-107155820D02*
X154303204Y-107154807D01*
X154303204Y-107154807D02*
X154419203Y-107113877D01*
X154419203Y-107113877D02*
X154540135Y-107082387D01*
X154540135Y-107082387D02*
X154668562Y-107059911D01*
X154668562Y-107059911D02*
X154807041Y-107046027D01*
X154807041Y-107046027D02*
X154958135Y-107040308D01*
X154958135Y-107040308D02*
X154994921Y-107040103D01*
X154994921Y-107040103D02*
X155103747Y-107041934D01*
X155103747Y-107041934D02*
X155202268Y-107047914D01*
X155202268Y-107047914D02*
X155297357Y-107058759D01*
X155297357Y-107058759D02*
X155395886Y-107075182D01*
X155395886Y-107075182D02*
X155462839Y-107088718D01*
X155462839Y-107088718D02*
X155505435Y-107098239D01*
X155505435Y-107098239D02*
X155555187Y-107110058D01*
X155555187Y-107110058D02*
X155609379Y-107123454D01*
X155609379Y-107123454D02*
X155665293Y-107137707D01*
X155665293Y-107137707D02*
X155720214Y-107152096D01*
X155720214Y-107152096D02*
X155771425Y-107165900D01*
X155771425Y-107165900D02*
X155816210Y-107178399D01*
X155816210Y-107178399D02*
X155851851Y-107188873D01*
X155851851Y-107188873D02*
X155875633Y-107196599D01*
X155875633Y-107196599D02*
X155884657Y-107200615D01*
X155884657Y-107200615D02*
X155884451Y-107210034D01*
X155884451Y-107210034D02*
X155881443Y-107233412D01*
X155881443Y-107233412D02*
X155876113Y-107267506D01*
X155876113Y-107267506D02*
X155868946Y-107309068D01*
X155868946Y-107309068D02*
X155866717Y-107321371D01*
X155866717Y-107321371D02*
X155857423Y-107374946D01*
X155857423Y-107374946D02*
X155848332Y-107432192D01*
X155848332Y-107432192D02*
X155840534Y-107485964D01*
X155840534Y-107485964D02*
X155835444Y-107526199D01*
X155835444Y-107526199D02*
X155830679Y-107568342D01*
X155830679Y-107568342D02*
X155826091Y-107608308D01*
X155826091Y-107608308D02*
X155822380Y-107640021D01*
X155822380Y-107640021D02*
X155821057Y-107651009D01*
X155821057Y-107651009D02*
X155816490Y-107688234D01*
X155816490Y-107688234D02*
X155721218Y-107688234D01*
X155721218Y-107688234D02*
X155720834Y-107611596D01*
X155720834Y-107611596D02*
X155718535Y-107530587D01*
X155718535Y-107530587D02*
X155712538Y-107466665D01*
X155712538Y-107466665D02*
X155702846Y-107419842D01*
X155702846Y-107419842D02*
X155689459Y-107390127D01*
X155689459Y-107390127D02*
X155685783Y-107385634D01*
X155685783Y-107385634D02*
X155663879Y-107368031D01*
X155663879Y-107368031D02*
X155628774Y-107346520D01*
X155628774Y-107346520D02*
X155583867Y-107322800D01*
X155583867Y-107322800D02*
X155532555Y-107298564D01*
X155532555Y-107298564D02*
X155478234Y-107275509D01*
X155478234Y-107275509D02*
X155425750Y-107255833D01*
X155425750Y-107255833D02*
X155322692Y-107224618D01*
X155322692Y-107224618D02*
X155217847Y-107202508D01*
X155217847Y-107202508D02*
X155106068Y-107188601D01*
X155106068Y-107188601D02*
X155007391Y-107182751D01*
X155007391Y-107182751D02*
X154858216Y-107183418D01*
X154858216Y-107183418D02*
X154720970Y-107196468D01*
X154720970Y-107196468D02*
X154594984Y-107222107D01*
X154594984Y-107222107D02*
X154479593Y-107260543D01*
X154479593Y-107260543D02*
X154374129Y-107311984D01*
X154374129Y-107311984D02*
X154277925Y-107376637D01*
X154277925Y-107376637D02*
X154216925Y-107428750D01*
X154216925Y-107428750D02*
X154194268Y-107451386D01*
X154194268Y-107451386D02*
X154177846Y-107470500D01*
X154177846Y-107470500D02*
X154170980Y-107482198D01*
X154170980Y-107482198D02*
X154170942Y-107482672D01*
X154170942Y-107482672D02*
X154178491Y-107493385D01*
X154178491Y-107493385D02*
X154199169Y-107509334D01*
X154199169Y-107509334D02*
X154230024Y-107528807D01*
X154230024Y-107528807D02*
X154268104Y-107550092D01*
X154268104Y-107550092D02*
X154310457Y-107571478D01*
X154310457Y-107571478D02*
X154354131Y-107591253D01*
X154354131Y-107591253D02*
X154368509Y-107597206D01*
X154368509Y-107597206D02*
X154485413Y-107637233D01*
X154485413Y-107637233D02*
X154603643Y-107662994D01*
X154603643Y-107662994D02*
X154726487Y-107674956D01*
X154726487Y-107674956D02*
X154857232Y-107673583D01*
X154857232Y-107673583D02*
X154891458Y-107671218D01*
X154891458Y-107671218D02*
X155013373Y-107658804D01*
X155013373Y-107658804D02*
X155120713Y-107641852D01*
X155120713Y-107641852D02*
X155216002Y-107619621D01*
X155216002Y-107619621D02*
X155301765Y-107591375D01*
X155301765Y-107591375D02*
X155380527Y-107556373D01*
X155380527Y-107556373D02*
X155454813Y-107513878D01*
X155454813Y-107513878D02*
X155475305Y-107500435D01*
X155475305Y-107500435D02*
X155501031Y-107483505D01*
X155501031Y-107483505D02*
X155516746Y-107475423D01*
X155516746Y-107475423D02*
X155526868Y-107475110D01*
X155526868Y-107475110D02*
X155535819Y-107481486D01*
X155535819Y-107481486D02*
X155539224Y-107484829D01*
X155539224Y-107484829D02*
X155546476Y-107493063D01*
X155546476Y-107493063D02*
X155549520Y-107501901D01*
X155549520Y-107501901D02*
X155547696Y-107514960D01*
X155547696Y-107514960D02*
X155540346Y-107535855D01*
X155540346Y-107535855D02*
X155526812Y-107568202D01*
X155526812Y-107568202D02*
X155521992Y-107579413D01*
X155521992Y-107579413D02*
X155488341Y-107657578D01*
X155488341Y-107657578D02*
X155381878Y-107703312D01*
X155381878Y-107703312D02*
X155263421Y-107749055D01*
X155263421Y-107749055D02*
X155138609Y-107787937D01*
X155138609Y-107787937D02*
X155015459Y-107817552D01*
X155015459Y-107817552D02*
X154976736Y-107824850D01*
X154976736Y-107824850D02*
X154920908Y-107832118D01*
X154920908Y-107832118D02*
X154852137Y-107837236D01*
X154852137Y-107837236D02*
X154774866Y-107840204D01*
X154774866Y-107840204D02*
X154693538Y-107841020D01*
X154693538Y-107841020D02*
X154612595Y-107839681D01*
X154612595Y-107839681D02*
X154536479Y-107836186D01*
X154536479Y-107836186D02*
X154469633Y-107830534D01*
X154469633Y-107830534D02*
X154429322Y-107825057D01*
X154429322Y-107825057D02*
X154301387Y-107798585D01*
X154301387Y-107798585D02*
X154179918Y-107763555D01*
X154179918Y-107763555D02*
X154105849Y-107736401D01*
X154105849Y-107736401D02*
X154071865Y-107723491D01*
X154071865Y-107723491D02*
X154043863Y-107714325D01*
X154043863Y-107714325D02*
X154025832Y-107710135D01*
X154025832Y-107710135D02*
X154021652Y-107710373D01*
X154021652Y-107710373D02*
X154014797Y-107721401D01*
X154014797Y-107721401D02*
X154004911Y-107746023D01*
X154004911Y-107746023D02*
X153993051Y-107780803D01*
X153993051Y-107780803D02*
X153980271Y-107822301D01*
X153980271Y-107822301D02*
X153967627Y-107867079D01*
X153967627Y-107867079D02*
X153956173Y-107911698D01*
X153956173Y-107911698D02*
X153946966Y-107952720D01*
X153946966Y-107952720D02*
X153946369Y-107955689D01*
X153946369Y-107955689D02*
X153937448Y-108017114D01*
X153937448Y-108017114D02*
X153932034Y-108090607D01*
X153932034Y-108090607D02*
X153930079Y-108171083D01*
X153930079Y-108171083D02*
X153931530Y-108253456D01*
X153931530Y-108253456D02*
X153936338Y-108332644D01*
X153936338Y-108332644D02*
X153944452Y-108403561D01*
X153944452Y-108403561D02*
X153951191Y-108441475D01*
X153951191Y-108441475D02*
X153983241Y-108568121D01*
X153983241Y-108568121D02*
X154022507Y-108678862D01*
X154022507Y-108678862D02*
X154068207Y-108772366D01*
X154068207Y-108772366D02*
X154143506Y-108889319D01*
X154143506Y-108889319D02*
X154226782Y-108990850D01*
X154226782Y-108990850D02*
X154318761Y-109077482D01*
X154318761Y-109077482D02*
X154420170Y-109149739D01*
X154420170Y-109149739D02*
X154531735Y-109208146D01*
X154531735Y-109208146D02*
X154654181Y-109253225D01*
X154654181Y-109253225D02*
X154776541Y-109283275D01*
X154776541Y-109283275D02*
X154811805Y-109287918D01*
X154811805Y-109287918D02*
X154860276Y-109291236D01*
X154860276Y-109291236D02*
X154917694Y-109293225D01*
X154917694Y-109293225D02*
X154979800Y-109293883D01*
X154979800Y-109293883D02*
X155042332Y-109293205D01*
X155042332Y-109293205D02*
X155101032Y-109291187D01*
X155101032Y-109291187D02*
X155151639Y-109287827D01*
X155151639Y-109287827D02*
X155186943Y-109283620D01*
X155186943Y-109283620D02*
X155249229Y-109271815D01*
X155249229Y-109271815D02*
X155320863Y-109255601D01*
X155320863Y-109255601D02*
X155394793Y-109236730D01*
X155394793Y-109236730D02*
X155463965Y-109216950D01*
X155463965Y-109216950D02*
X155494382Y-109207326D01*
X155494382Y-109207326D02*
X155560959Y-109185387D01*
X155560959Y-109185387D02*
X155566595Y-109100276D01*
X155566595Y-109100276D02*
X155568758Y-109056855D01*
X155568758Y-109056855D02*
X155570286Y-109003992D01*
X155570286Y-109003992D02*
X155571191Y-108945197D01*
X155571191Y-108945197D02*
X155571484Y-108883982D01*
X155571484Y-108883982D02*
X155571178Y-108823857D01*
X155571178Y-108823857D02*
X155570286Y-108768335D01*
X155570286Y-108768335D02*
X155568818Y-108720925D01*
X155568818Y-108720925D02*
X155566788Y-108685141D01*
X155566788Y-108685141D02*
X155565104Y-108669311D01*
X155565104Y-108669311D02*
X155558411Y-108641569D01*
X155558411Y-108641569D02*
X155546815Y-108625462D01*
X155546815Y-108625462D02*
X155536487Y-108619137D01*
X155536487Y-108619137D02*
X155520817Y-108614958D01*
X155520817Y-108614958D02*
X155490851Y-108609862D01*
X155490851Y-108609862D02*
X155449759Y-108604277D01*
X155449759Y-108604277D02*
X155400711Y-108598634D01*
X155400711Y-108598634D02*
X155346876Y-108593364D01*
X155346876Y-108593364D02*
X155345987Y-108593285D01*
X155345987Y-108593285D02*
X155178184Y-108578305D01*
X155178184Y-108578305D02*
X155178184Y-108473842D01*
X155178184Y-108473842D02*
X155333649Y-108479732D01*
X155333649Y-108479732D02*
X155401400Y-108481897D01*
X155401400Y-108481897D02*
X155475322Y-108483559D01*
X155475322Y-108483559D02*
X155552622Y-108484719D01*
X155552622Y-108484719D02*
X155630508Y-108485375D01*
X155630508Y-108485375D02*
X155706186Y-108485526D01*
X155706186Y-108485526D02*
X155776863Y-108485171D01*
X155776863Y-108485171D02*
X155839747Y-108484308D01*
X155839747Y-108484308D02*
X155892045Y-108482938D01*
X155892045Y-108482938D02*
X155930964Y-108481057D01*
X155930964Y-108481057D02*
X155944049Y-108479976D01*
X155944049Y-108479976D02*
X156001494Y-108474090D01*
X156001494Y-108474090D02*
X156001130Y-108559716D01*
X156001130Y-108559716D02*
X155889846Y-108632808D01*
X155889846Y-108632808D02*
X155879496Y-108703591D01*
X155879496Y-108703591D02*
X155875268Y-108744675D01*
X155875268Y-108744675D02*
X155872256Y-108798947D01*
X155872256Y-108798947D02*
X155870469Y-108862122D01*
X155870469Y-108862122D02*
X155869912Y-108929912D01*
X155869912Y-108929912D02*
X155870592Y-108998031D01*
X155870592Y-108998031D02*
X155872518Y-109062192D01*
X155872518Y-109062192D02*
X155875694Y-109118108D01*
X155875694Y-109118108D02*
X155878768Y-109150923D01*
X155878768Y-109150923D02*
X155882787Y-109186754D01*
X155882787Y-109186754D02*
X155885847Y-109216997D01*
X155885847Y-109216997D02*
X155887445Y-109236581D01*
X155887445Y-109236581D02*
X155887566Y-109239810D01*
X155887566Y-109239810D02*
X155879296Y-109250639D01*
X155879296Y-109250639D02*
X155855678Y-109263910D01*
X155855678Y-109263910D02*
X155818632Y-109279114D01*
X155818632Y-109279114D02*
X155770076Y-109295741D01*
X155770076Y-109295741D02*
X155711930Y-109313280D01*
X155711930Y-109313280D02*
X155646111Y-109331220D01*
X155646111Y-109331220D02*
X155574539Y-109349050D01*
X155574539Y-109349050D02*
X155499132Y-109366261D01*
X155499132Y-109366261D02*
X155421810Y-109382342D01*
X155421810Y-109382342D02*
X155344492Y-109396781D01*
X155344492Y-109396781D02*
X155269096Y-109409069D01*
X155269096Y-109409069D02*
X155231183Y-109414453D01*
X155231183Y-109414453D02*
X155168091Y-109421488D01*
X155168091Y-109421488D02*
X155094963Y-109427315D01*
X155094963Y-109427315D02*
X155015967Y-109431801D01*
X155015967Y-109431801D02*
X154935271Y-109434814D01*
X154935271Y-109434814D02*
X154857045Y-109436219D01*
X154857045Y-109436219D02*
X154785456Y-109435886D01*
X154785456Y-109435886D02*
X154724674Y-109433681D01*
X154724674Y-109433681D02*
X154696008Y-109431491D01*
X154696008Y-109431491D02*
X154541275Y-109408696D01*
X154541275Y-109408696D02*
X154395448Y-109371639D01*
X154395448Y-109371639D02*
X154259086Y-109320568D01*
X154259086Y-109320568D02*
X154132753Y-109255734D01*
X154132753Y-109255734D02*
X154017007Y-109177384D01*
X154017007Y-109177384D02*
X153912412Y-109085770D01*
X153912412Y-109085770D02*
X153908021Y-109081384D01*
X153908021Y-109081384D02*
X153816086Y-108977475D01*
X153816086Y-108977475D02*
X153739627Y-108865853D01*
X153739627Y-108865853D02*
X153678533Y-108746240D01*
X153678533Y-108746240D02*
X153632695Y-108618357D01*
X153632695Y-108618357D02*
X153602005Y-108481924D01*
X153602005Y-108481924D02*
X153586353Y-108336663D01*
X153586353Y-108336663D02*
X153584115Y-108253165D01*
X153584115Y-108253165D02*
X153590791Y-108108940D01*
X153590791Y-108108940D02*
X153611149Y-107974336D01*
X153611149Y-107974336D02*
X153645685Y-107847439D01*
X153645685Y-107847439D02*
X153694894Y-107726340D01*
X153694894Y-107726340D02*
X153744910Y-107632768D01*
X153744910Y-107632768D02*
X153762787Y-107602250D01*
X153762787Y-107602250D02*
X153776657Y-107577905D01*
X153776657Y-107577905D02*
X153784515Y-107563285D01*
X153784515Y-107563285D02*
X153785563Y-107560747D01*
X153785563Y-107560747D02*
X153779736Y-107553614D01*
X153779736Y-107553614D02*
X153763833Y-107536632D01*
X153763833Y-107536632D02*
X153740227Y-107512276D01*
X153740227Y-107512276D02*
X153711287Y-107483025D01*
X153711287Y-107483025D02*
X153708718Y-107480453D01*
X153708718Y-107480453D02*
X153631185Y-107396264D01*
X153631185Y-107396264D02*
X153566693Y-107311086D01*
X153566693Y-107311086D02*
X153520787Y-107236951D01*
X153520787Y-107236951D02*
X153460960Y-107113638D01*
X153460960Y-107113638D02*
X153415841Y-106982666D01*
X153415841Y-106982666D02*
X153385625Y-106846185D01*
X153385625Y-106846185D02*
X153370507Y-106706349D01*
X153370507Y-106706349D02*
X153370682Y-106565308D01*
X153370682Y-106565308D02*
X153386345Y-106425212D01*
X153386345Y-106425212D02*
X153417692Y-106288214D01*
X153417692Y-106288214D02*
X153430881Y-106245938D01*
X153430881Y-106245938D02*
X153482843Y-106116654D01*
X153482843Y-106116654D02*
X153549067Y-105997096D01*
X153549067Y-105997096D02*
X153628892Y-105887820D01*
X153628892Y-105887820D02*
X153721657Y-105789381D01*
X153721657Y-105789381D02*
X153826700Y-105702333D01*
X153826700Y-105702333D02*
X153943361Y-105627231D01*
X153943361Y-105627231D02*
X154070977Y-105564629D01*
X154070977Y-105564629D02*
X154208889Y-105515082D01*
X154208889Y-105515082D02*
X154341736Y-105482015D01*
X154341736Y-105482015D02*
X154442761Y-105465663D01*
X154442761Y-105465663D02*
X154554084Y-105454434D01*
X154554084Y-105454434D02*
X154670642Y-105448437D01*
X154670642Y-105448437D02*
X154787369Y-105447782D01*
X154787369Y-105447782D02*
X154899201Y-105452577D01*
X154899201Y-105452577D02*
X154899201Y-105452577D01*
G36*
X154899201Y-105452577D02*
G01*
X155001073Y-105462931D01*
X155029287Y-105467196D01*
X155054716Y-105471772D01*
X155091911Y-105478975D01*
X155138258Y-105488255D01*
X155191142Y-105499059D01*
X155247949Y-105510834D01*
X155306065Y-105523029D01*
X155362875Y-105535092D01*
X155415765Y-105546471D01*
X155462120Y-105556614D01*
X155499327Y-105564968D01*
X155524769Y-105570981D01*
X155535835Y-105574102D01*
X155535998Y-105574194D01*
X155535057Y-105582882D01*
X155529610Y-105603625D01*
X155520949Y-105631588D01*
X155509440Y-105669037D01*
X155498767Y-105707668D01*
X155493165Y-105730682D01*
X155486264Y-105767363D01*
X155479012Y-105814754D01*
X155472022Y-105867720D01*
X155465906Y-105921127D01*
X155461278Y-105969838D01*
X155458749Y-106008721D01*
X155458460Y-106021573D01*
X155458460Y-106067889D01*
X155347260Y-106067889D01*
X155341549Y-105974561D01*
X155339082Y-105929179D01*
X155337150Y-105884058D01*
X155336021Y-105845924D01*
X155335839Y-105830153D01*
X155335202Y-105801031D01*
X155331437Y-105783408D01*
X155321768Y-105771271D01*
X155303415Y-105758606D01*
X155302527Y-105758045D01*
X155210663Y-105707147D01*
X155107486Y-105662394D01*
X154998775Y-105626084D01*
X154922153Y-105606850D01*
X154872265Y-105599038D01*
X154809751Y-105593666D01*
X154739270Y-105590733D01*
X154665481Y-105590237D01*
X154593045Y-105592176D01*
X154526621Y-105596547D01*
X154470869Y-105603350D01*
X154451218Y-105607047D01*
X154331176Y-105639629D01*
X154223483Y-105683097D01*
X154125859Y-105738702D01*
X154036027Y-105807690D01*
X153971678Y-105869719D01*
X153900645Y-105952667D01*
X153842835Y-106039006D01*
X153796888Y-106131628D01*
X153761446Y-106233425D01*
X153735150Y-106347289D01*
X153728314Y-106387578D01*
X153719903Y-106466025D01*
X153716824Y-106554896D01*
X153718892Y-106647990D01*
X153725923Y-106739107D01*
X153737732Y-106822044D01*
X153741885Y-106843027D01*
X153770849Y-106949266D01*
X153811760Y-107055717D01*
X153862356Y-107157633D01*
X153920378Y-107250267D01*
X153961140Y-107303417D01*
X153992199Y-107340499D01*
X154034689Y-107308066D01*
X154079749Y-107276453D01*
X154134726Y-107242085D01*
X154193773Y-107208299D01*
X154251044Y-107178432D01*
X154300694Y-107155820D01*
X154303204Y-107154807D01*
X154419203Y-107113877D01*
X154540135Y-107082387D01*
X154668562Y-107059911D01*
X154807041Y-107046027D01*
X154958135Y-107040308D01*
X154994921Y-107040103D01*
X155103747Y-107041934D01*
X155202268Y-107047914D01*
X155297357Y-107058759D01*
X155395886Y-107075182D01*
X155462839Y-107088718D01*
X155505435Y-107098239D01*
X155555187Y-107110058D01*
X155609379Y-107123454D01*
X155665293Y-107137707D01*
X155720214Y-107152096D01*
X155771425Y-107165900D01*
X155816210Y-107178399D01*
X155851851Y-107188873D01*
X155875633Y-107196599D01*
X155884657Y-107200615D01*
X155884451Y-107210034D01*
X155881443Y-107233412D01*
X155876113Y-107267506D01*
X155868946Y-107309068D01*
X155866717Y-107321371D01*
X155857423Y-107374946D01*
X155848332Y-107432192D01*
X155840534Y-107485964D01*
X155835444Y-107526199D01*
X155830679Y-107568342D01*
X155826091Y-107608308D01*
X155822380Y-107640021D01*
X155821057Y-107651009D01*
X155816490Y-107688234D01*
X155721218Y-107688234D01*
X155720834Y-107611596D01*
X155718535Y-107530587D01*
X155712538Y-107466665D01*
X155702846Y-107419842D01*
X155689459Y-107390127D01*
X155685783Y-107385634D01*
X155663879Y-107368031D01*
X155628774Y-107346520D01*
X155583867Y-107322800D01*
X155532555Y-107298564D01*
X155478234Y-107275509D01*
X155425750Y-107255833D01*
X155322692Y-107224618D01*
X155217847Y-107202508D01*
X155106068Y-107188601D01*
X155007391Y-107182751D01*
X154858216Y-107183418D01*
X154720970Y-107196468D01*
X154594984Y-107222107D01*
X154479593Y-107260543D01*
X154374129Y-107311984D01*
X154277925Y-107376637D01*
X154216925Y-107428750D01*
X154194268Y-107451386D01*
X154177846Y-107470500D01*
X154170980Y-107482198D01*
X154170942Y-107482672D01*
X154178491Y-107493385D01*
X154199169Y-107509334D01*
X154230024Y-107528807D01*
X154268104Y-107550092D01*
X154310457Y-107571478D01*
X154354131Y-107591253D01*
X154368509Y-107597206D01*
X154485413Y-107637233D01*
X154603643Y-107662994D01*
X154726487Y-107674956D01*
X154857232Y-107673583D01*
X154891458Y-107671218D01*
X155013373Y-107658804D01*
X155120713Y-107641852D01*
X155216002Y-107619621D01*
X155301765Y-107591375D01*
X155380527Y-107556373D01*
X155454813Y-107513878D01*
X155475305Y-107500435D01*
X155501031Y-107483505D01*
X155516746Y-107475423D01*
X155526868Y-107475110D01*
X155535819Y-107481486D01*
X155539224Y-107484829D01*
X155546476Y-107493063D01*
X155549520Y-107501901D01*
X155547696Y-107514960D01*
X155540346Y-107535855D01*
X155526812Y-107568202D01*
X155521992Y-107579413D01*
X155488341Y-107657578D01*
X155381878Y-107703312D01*
X155263421Y-107749055D01*
X155138609Y-107787937D01*
X155015459Y-107817552D01*
X154976736Y-107824850D01*
X154920908Y-107832118D01*
X154852137Y-107837236D01*
X154774866Y-107840204D01*
X154693538Y-107841020D01*
X154612595Y-107839681D01*
X154536479Y-107836186D01*
X154469633Y-107830534D01*
X154429322Y-107825057D01*
X154301387Y-107798585D01*
X154179918Y-107763555D01*
X154105849Y-107736401D01*
X154071865Y-107723491D01*
X154043863Y-107714325D01*
X154025832Y-107710135D01*
X154021652Y-107710373D01*
X154014797Y-107721401D01*
X154004911Y-107746023D01*
X153993051Y-107780803D01*
X153980271Y-107822301D01*
X153967627Y-107867079D01*
X153956173Y-107911698D01*
X153946966Y-107952720D01*
X153946369Y-107955689D01*
X153937448Y-108017114D01*
X153932034Y-108090607D01*
X153930079Y-108171083D01*
X153931530Y-108253456D01*
X153936338Y-108332644D01*
X153944452Y-108403561D01*
X153951191Y-108441475D01*
X153983241Y-108568121D01*
X154022507Y-108678862D01*
X154068207Y-108772366D01*
X154143506Y-108889319D01*
X154226782Y-108990850D01*
X154318761Y-109077482D01*
X154420170Y-109149739D01*
X154531735Y-109208146D01*
X154654181Y-109253225D01*
X154776541Y-109283275D01*
X154811805Y-109287918D01*
X154860276Y-109291236D01*
X154917694Y-109293225D01*
X154979800Y-109293883D01*
X155042332Y-109293205D01*
X155101032Y-109291187D01*
X155151639Y-109287827D01*
X155186943Y-109283620D01*
X155249229Y-109271815D01*
X155320863Y-109255601D01*
X155394793Y-109236730D01*
X155463965Y-109216950D01*
X155494382Y-109207326D01*
X155560959Y-109185387D01*
X155566595Y-109100276D01*
X155568758Y-109056855D01*
X155570286Y-109003992D01*
X155571191Y-108945197D01*
X155571484Y-108883982D01*
X155571178Y-108823857D01*
X155570286Y-108768335D01*
X155568818Y-108720925D01*
X155566788Y-108685141D01*
X155565104Y-108669311D01*
X155558411Y-108641569D01*
X155546815Y-108625462D01*
X155536487Y-108619137D01*
X155520817Y-108614958D01*
X155490851Y-108609862D01*
X155449759Y-108604277D01*
X155400711Y-108598634D01*
X155346876Y-108593364D01*
X155345987Y-108593285D01*
X155178184Y-108578305D01*
X155178184Y-108473842D01*
X155333649Y-108479732D01*
X155401400Y-108481897D01*
X155475322Y-108483559D01*
X155552622Y-108484719D01*
X155630508Y-108485375D01*
X155706186Y-108485526D01*
X155776863Y-108485171D01*
X155839747Y-108484308D01*
X155892045Y-108482938D01*
X155930964Y-108481057D01*
X155944049Y-108479976D01*
X156001494Y-108474090D01*
X156001130Y-108559716D01*
X155889846Y-108632808D01*
X155879496Y-108703591D01*
X155875268Y-108744675D01*
X155872256Y-108798947D01*
X155870469Y-108862122D01*
X155869912Y-108929912D01*
X155870592Y-108998031D01*
X155872518Y-109062192D01*
X155875694Y-109118108D01*
X155878768Y-109150923D01*
X155882787Y-109186754D01*
X155885847Y-109216997D01*
X155887445Y-109236581D01*
X155887566Y-109239810D01*
X155879296Y-109250639D01*
X155855678Y-109263910D01*
X155818632Y-109279114D01*
X155770076Y-109295741D01*
X155711930Y-109313280D01*
X155646111Y-109331220D01*
X155574539Y-109349050D01*
X155499132Y-109366261D01*
X155421810Y-109382342D01*
X155344492Y-109396781D01*
X155269096Y-109409069D01*
X155231183Y-109414453D01*
X155168091Y-109421488D01*
X155094963Y-109427315D01*
X155015967Y-109431801D01*
X154935271Y-109434814D01*
X154857045Y-109436219D01*
X154785456Y-109435886D01*
X154724674Y-109433681D01*
X154696008Y-109431491D01*
X154541275Y-109408696D01*
X154395448Y-109371639D01*
X154259086Y-109320568D01*
X154132753Y-109255734D01*
X154017007Y-109177384D01*
X153912412Y-109085770D01*
X153908021Y-109081384D01*
X153816086Y-108977475D01*
X153739627Y-108865853D01*
X153678533Y-108746240D01*
X153632695Y-108618357D01*
X153602005Y-108481924D01*
X153586353Y-108336663D01*
X153584115Y-108253165D01*
X153590791Y-108108940D01*
X153611149Y-107974336D01*
X153645685Y-107847439D01*
X153694894Y-107726340D01*
X153744910Y-107632768D01*
X153762787Y-107602250D01*
X153776657Y-107577905D01*
X153784515Y-107563285D01*
X153785563Y-107560747D01*
X153779736Y-107553614D01*
X153763833Y-107536632D01*
X153740227Y-107512276D01*
X153711287Y-107483025D01*
X153708718Y-107480453D01*
X153631185Y-107396264D01*
X153566693Y-107311086D01*
X153520787Y-107236951D01*
X153460960Y-107113638D01*
X153415841Y-106982666D01*
X153385625Y-106846185D01*
X153370507Y-106706349D01*
X153370682Y-106565308D01*
X153386345Y-106425212D01*
X153417692Y-106288214D01*
X153430881Y-106245938D01*
X153482843Y-106116654D01*
X153549067Y-105997096D01*
X153628892Y-105887820D01*
X153721657Y-105789381D01*
X153826700Y-105702333D01*
X153943361Y-105627231D01*
X154070977Y-105564629D01*
X154208889Y-105515082D01*
X154341736Y-105482015D01*
X154442761Y-105465663D01*
X154554084Y-105454434D01*
X154670642Y-105448437D01*
X154787369Y-105447782D01*
X154899201Y-105452577D01*
G37*
X154899201Y-105452577D02*
X155001073Y-105462931D01*
X155029287Y-105467196D01*
X155054716Y-105471772D01*
X155091911Y-105478975D01*
X155138258Y-105488255D01*
X155191142Y-105499059D01*
X155247949Y-105510834D01*
X155306065Y-105523029D01*
X155362875Y-105535092D01*
X155415765Y-105546471D01*
X155462120Y-105556614D01*
X155499327Y-105564968D01*
X155524769Y-105570981D01*
X155535835Y-105574102D01*
X155535998Y-105574194D01*
X155535057Y-105582882D01*
X155529610Y-105603625D01*
X155520949Y-105631588D01*
X155509440Y-105669037D01*
X155498767Y-105707668D01*
X155493165Y-105730682D01*
X155486264Y-105767363D01*
X155479012Y-105814754D01*
X155472022Y-105867720D01*
X155465906Y-105921127D01*
X155461278Y-105969838D01*
X155458749Y-106008721D01*
X155458460Y-106021573D01*
X155458460Y-106067889D01*
X155347260Y-106067889D01*
X155341549Y-105974561D01*
X155339082Y-105929179D01*
X155337150Y-105884058D01*
X155336021Y-105845924D01*
X155335839Y-105830153D01*
X155335202Y-105801031D01*
X155331437Y-105783408D01*
X155321768Y-105771271D01*
X155303415Y-105758606D01*
X155302527Y-105758045D01*
X155210663Y-105707147D01*
X155107486Y-105662394D01*
X154998775Y-105626084D01*
X154922153Y-105606850D01*
X154872265Y-105599038D01*
X154809751Y-105593666D01*
X154739270Y-105590733D01*
X154665481Y-105590237D01*
X154593045Y-105592176D01*
X154526621Y-105596547D01*
X154470869Y-105603350D01*
X154451218Y-105607047D01*
X154331176Y-105639629D01*
X154223483Y-105683097D01*
X154125859Y-105738702D01*
X154036027Y-105807690D01*
X153971678Y-105869719D01*
X153900645Y-105952667D01*
X153842835Y-106039006D01*
X153796888Y-106131628D01*
X153761446Y-106233425D01*
X153735150Y-106347289D01*
X153728314Y-106387578D01*
X153719903Y-106466025D01*
X153716824Y-106554896D01*
X153718892Y-106647990D01*
X153725923Y-106739107D01*
X153737732Y-106822044D01*
X153741885Y-106843027D01*
X153770849Y-106949266D01*
X153811760Y-107055717D01*
X153862356Y-107157633D01*
X153920378Y-107250267D01*
X153961140Y-107303417D01*
X153992199Y-107340499D01*
X154034689Y-107308066D01*
X154079749Y-107276453D01*
X154134726Y-107242085D01*
X154193773Y-107208299D01*
X154251044Y-107178432D01*
X154300694Y-107155820D01*
X154303204Y-107154807D01*
X154419203Y-107113877D01*
X154540135Y-107082387D01*
X154668562Y-107059911D01*
X154807041Y-107046027D01*
X154958135Y-107040308D01*
X154994921Y-107040103D01*
X155103747Y-107041934D01*
X155202268Y-107047914D01*
X155297357Y-107058759D01*
X155395886Y-107075182D01*
X155462839Y-107088718D01*
X155505435Y-107098239D01*
X155555187Y-107110058D01*
X155609379Y-107123454D01*
X155665293Y-107137707D01*
X155720214Y-107152096D01*
X155771425Y-107165900D01*
X155816210Y-107178399D01*
X155851851Y-107188873D01*
X155875633Y-107196599D01*
X155884657Y-107200615D01*
X155884451Y-107210034D01*
X155881443Y-107233412D01*
X155876113Y-107267506D01*
X155868946Y-107309068D01*
X155866717Y-107321371D01*
X155857423Y-107374946D01*
X155848332Y-107432192D01*
X155840534Y-107485964D01*
X155835444Y-107526199D01*
X155830679Y-107568342D01*
X155826091Y-107608308D01*
X155822380Y-107640021D01*
X155821057Y-107651009D01*
X155816490Y-107688234D01*
X155721218Y-107688234D01*
X155720834Y-107611596D01*
X155718535Y-107530587D01*
X155712538Y-107466665D01*
X155702846Y-107419842D01*
X155689459Y-107390127D01*
X155685783Y-107385634D01*
X155663879Y-107368031D01*
X155628774Y-107346520D01*
X155583867Y-107322800D01*
X155532555Y-107298564D01*
X155478234Y-107275509D01*
X155425750Y-107255833D01*
X155322692Y-107224618D01*
X155217847Y-107202508D01*
X155106068Y-107188601D01*
X155007391Y-107182751D01*
X154858216Y-107183418D01*
X154720970Y-107196468D01*
X154594984Y-107222107D01*
X154479593Y-107260543D01*
X154374129Y-107311984D01*
X154277925Y-107376637D01*
X154216925Y-107428750D01*
X154194268Y-107451386D01*
X154177846Y-107470500D01*
X154170980Y-107482198D01*
X154170942Y-107482672D01*
X154178491Y-107493385D01*
X154199169Y-107509334D01*
X154230024Y-107528807D01*
X154268104Y-107550092D01*
X154310457Y-107571478D01*
X154354131Y-107591253D01*
X154368509Y-107597206D01*
X154485413Y-107637233D01*
X154603643Y-107662994D01*
X154726487Y-107674956D01*
X154857232Y-107673583D01*
X154891458Y-107671218D01*
X155013373Y-107658804D01*
X155120713Y-107641852D01*
X155216002Y-107619621D01*
X155301765Y-107591375D01*
X155380527Y-107556373D01*
X155454813Y-107513878D01*
X155475305Y-107500435D01*
X155501031Y-107483505D01*
X155516746Y-107475423D01*
X155526868Y-107475110D01*
X155535819Y-107481486D01*
X155539224Y-107484829D01*
X155546476Y-107493063D01*
X155549520Y-107501901D01*
X155547696Y-107514960D01*
X155540346Y-107535855D01*
X155526812Y-107568202D01*
X155521992Y-107579413D01*
X155488341Y-107657578D01*
X155381878Y-107703312D01*
X155263421Y-107749055D01*
X155138609Y-107787937D01*
X155015459Y-107817552D01*
X154976736Y-107824850D01*
X154920908Y-107832118D01*
X154852137Y-107837236D01*
X154774866Y-107840204D01*
X154693538Y-107841020D01*
X154612595Y-107839681D01*
X154536479Y-107836186D01*
X154469633Y-107830534D01*
X154429322Y-107825057D01*
X154301387Y-107798585D01*
X154179918Y-107763555D01*
X154105849Y-107736401D01*
X154071865Y-107723491D01*
X154043863Y-107714325D01*
X154025832Y-107710135D01*
X154021652Y-107710373D01*
X154014797Y-107721401D01*
X154004911Y-107746023D01*
X153993051Y-107780803D01*
X153980271Y-107822301D01*
X153967627Y-107867079D01*
X153956173Y-107911698D01*
X153946966Y-107952720D01*
X153946369Y-107955689D01*
X153937448Y-108017114D01*
X153932034Y-108090607D01*
X153930079Y-108171083D01*
X153931530Y-108253456D01*
X153936338Y-108332644D01*
X153944452Y-108403561D01*
X153951191Y-108441475D01*
X153983241Y-108568121D01*
X154022507Y-108678862D01*
X154068207Y-108772366D01*
X154143506Y-108889319D01*
X154226782Y-108990850D01*
X154318761Y-109077482D01*
X154420170Y-109149739D01*
X154531735Y-109208146D01*
X154654181Y-109253225D01*
X154776541Y-109283275D01*
X154811805Y-109287918D01*
X154860276Y-109291236D01*
X154917694Y-109293225D01*
X154979800Y-109293883D01*
X155042332Y-109293205D01*
X155101032Y-109291187D01*
X155151639Y-109287827D01*
X155186943Y-109283620D01*
X155249229Y-109271815D01*
X155320863Y-109255601D01*
X155394793Y-109236730D01*
X155463965Y-109216950D01*
X155494382Y-109207326D01*
X155560959Y-109185387D01*
X155566595Y-109100276D01*
X155568758Y-109056855D01*
X155570286Y-109003992D01*
X155571191Y-108945197D01*
X155571484Y-108883982D01*
X155571178Y-108823857D01*
X155570286Y-108768335D01*
X155568818Y-108720925D01*
X155566788Y-108685141D01*
X155565104Y-108669311D01*
X155558411Y-108641569D01*
X155546815Y-108625462D01*
X155536487Y-108619137D01*
X155520817Y-108614958D01*
X155490851Y-108609862D01*
X155449759Y-108604277D01*
X155400711Y-108598634D01*
X155346876Y-108593364D01*
X155345987Y-108593285D01*
X155178184Y-108578305D01*
X155178184Y-108473842D01*
X155333649Y-108479732D01*
X155401400Y-108481897D01*
X155475322Y-108483559D01*
X155552622Y-108484719D01*
X155630508Y-108485375D01*
X155706186Y-108485526D01*
X155776863Y-108485171D01*
X155839747Y-108484308D01*
X155892045Y-108482938D01*
X155930964Y-108481057D01*
X155944049Y-108479976D01*
X156001494Y-108474090D01*
X156001130Y-108559716D01*
X155889846Y-108632808D01*
X155879496Y-108703591D01*
X155875268Y-108744675D01*
X155872256Y-108798947D01*
X155870469Y-108862122D01*
X155869912Y-108929912D01*
X155870592Y-108998031D01*
X155872518Y-109062192D01*
X155875694Y-109118108D01*
X155878768Y-109150923D01*
X155882787Y-109186754D01*
X155885847Y-109216997D01*
X155887445Y-109236581D01*
X155887566Y-109239810D01*
X155879296Y-109250639D01*
X155855678Y-109263910D01*
X155818632Y-109279114D01*
X155770076Y-109295741D01*
X155711930Y-109313280D01*
X155646111Y-109331220D01*
X155574539Y-109349050D01*
X155499132Y-109366261D01*
X155421810Y-109382342D01*
X155344492Y-109396781D01*
X155269096Y-109409069D01*
X155231183Y-109414453D01*
X155168091Y-109421488D01*
X155094963Y-109427315D01*
X155015967Y-109431801D01*
X154935271Y-109434814D01*
X154857045Y-109436219D01*
X154785456Y-109435886D01*
X154724674Y-109433681D01*
X154696008Y-109431491D01*
X154541275Y-109408696D01*
X154395448Y-109371639D01*
X154259086Y-109320568D01*
X154132753Y-109255734D01*
X154017007Y-109177384D01*
X153912412Y-109085770D01*
X153908021Y-109081384D01*
X153816086Y-108977475D01*
X153739627Y-108865853D01*
X153678533Y-108746240D01*
X153632695Y-108618357D01*
X153602005Y-108481924D01*
X153586353Y-108336663D01*
X153584115Y-108253165D01*
X153590791Y-108108940D01*
X153611149Y-107974336D01*
X153645685Y-107847439D01*
X153694894Y-107726340D01*
X153744910Y-107632768D01*
X153762787Y-107602250D01*
X153776657Y-107577905D01*
X153784515Y-107563285D01*
X153785563Y-107560747D01*
X153779736Y-107553614D01*
X153763833Y-107536632D01*
X153740227Y-107512276D01*
X153711287Y-107483025D01*
X153708718Y-107480453D01*
X153631185Y-107396264D01*
X153566693Y-107311086D01*
X153520787Y-107236951D01*
X153460960Y-107113638D01*
X153415841Y-106982666D01*
X153385625Y-106846185D01*
X153370507Y-106706349D01*
X153370682Y-106565308D01*
X153386345Y-106425212D01*
X153417692Y-106288214D01*
X153430881Y-106245938D01*
X153482843Y-106116654D01*
X153549067Y-105997096D01*
X153628892Y-105887820D01*
X153721657Y-105789381D01*
X153826700Y-105702333D01*
X153943361Y-105627231D01*
X154070977Y-105564629D01*
X154208889Y-105515082D01*
X154341736Y-105482015D01*
X154442761Y-105465663D01*
X154554084Y-105454434D01*
X154670642Y-105448437D01*
X154787369Y-105447782D01*
X154899201Y-105452577D01*
D10*
X137724000Y-105250500D02*
X137724000Y-107935500D01*
X139644000Y-107935500D02*
X139644000Y-105250500D01*
X137724000Y-107935500D02*
X139644000Y-107935500D01*
X156202748Y-101119000D02*
X156725252Y-101119000D01*
X156202748Y-102589000D02*
X156725252Y-102589000D01*
X141866252Y-102589000D02*
X141343748Y-102589000D01*
X141866252Y-101119000D02*
X141343748Y-101119000D01*
X141343748Y-111860000D02*
X141866252Y-111860000D01*
X141343748Y-110390000D02*
X141866252Y-110390000D01*
X148336000Y-102800000D02*
X144736000Y-102800000D01*
X148336000Y-108020000D02*
X150536000Y-108020000D01*
X148336000Y-102800000D02*
X150536000Y-102800000D01*
X148336000Y-108020000D02*
X146136000Y-108020000D01*
X141357936Y-106326000D02*
X141812064Y-106326000D01*
X141357936Y-107796000D02*
X141812064Y-107796000D01*
X141866252Y-103151000D02*
X141343748Y-103151000D01*
X141866252Y-104621000D02*
X141343748Y-104621000D01*
X145788748Y-108739000D02*
X146311252Y-108739000D01*
X145788748Y-110209000D02*
X146311252Y-110209000D01*
X141343748Y-108358000D02*
X141866252Y-108358000D01*
X141343748Y-109828000D02*
X141866252Y-109828000D01*
X156202748Y-103151000D02*
X156725252Y-103151000D01*
X156202748Y-104621000D02*
X156725252Y-104621000D01*
M02*
