G04 #@! TF.GenerationSoftware,KiCad,Pcbnew,(6.0.0-0)*
G04 #@! TF.CreationDate,2023-02-04T21:17:14-08:00*
G04 #@! TF.ProjectId,breakout,62726561-6b6f-4757-942e-6b696361645f,0.0.0*
G04 #@! TF.SameCoordinates,Original*
G04 #@! TF.FileFunction,Copper,L2,Bot*
G04 #@! TF.FilePolarity,Positive*
%FSLAX46Y46*%
G04 Gerber Fmt 4.6, Leading zero omitted, Abs format (unit mm)*
G04 Created by KiCad (PCBNEW (6.0.0-0)) date 2023-02-04 21:17:14*
%MOMM*%
%LPD*%
G01*
G04 APERTURE LIST*
G04 #@! TA.AperFunction,ComponentPad*
%ADD10C,1.700000*%
G04 #@! TD*
G04 #@! TA.AperFunction,ComponentPad*
%ADD11R,1.700000X1.700000*%
G04 #@! TD*
G04 #@! TA.AperFunction,ComponentPad*
%ADD12O,1.700000X1.700000*%
G04 #@! TD*
G04 #@! TA.AperFunction,ViaPad*
%ADD13C,0.685800*%
G04 #@! TD*
G04 #@! TA.AperFunction,Conductor*
%ADD14C,0.152400*%
G04 #@! TD*
G04 APERTURE END LIST*
D10*
X139065000Y-114148000D03*
D11*
X141605000Y-114148000D03*
D12*
X144145000Y-114148000D03*
X146685000Y-114148000D03*
X149225000Y-114148000D03*
X151765000Y-114148000D03*
X154305000Y-114148000D03*
X156845000Y-114148000D03*
D10*
X141635000Y-98908000D03*
D12*
X144175000Y-98908000D03*
X146715000Y-98908000D03*
X149255000Y-98908000D03*
X151795000Y-98908000D03*
D11*
X154335000Y-98908000D03*
D13*
X158242000Y-112522000D03*
X158242000Y-100076000D03*
X145542000Y-100076000D03*
X137668000Y-100076000D03*
X155702000Y-112522000D03*
X150622000Y-112522000D03*
X143002000Y-100076000D03*
X153162000Y-112522000D03*
X148082000Y-100076000D03*
X145542000Y-112522000D03*
X145542000Y-102108000D03*
X143891000Y-105918000D03*
X137668000Y-112522000D03*
X148082000Y-112522000D03*
X147320000Y-103378000D03*
X155702000Y-101727000D03*
X144018000Y-102108000D03*
X153162000Y-104140000D03*
X151130000Y-108966000D03*
D14*
X153212320Y-111048320D02*
X153670000Y-111506000D01*
X153733011Y-102171011D02*
X153733011Y-104376522D01*
X156845000Y-112141000D02*
X156845000Y-114148000D01*
X153670000Y-111506000D02*
X156210000Y-111506000D01*
X147523680Y-101650320D02*
X153212320Y-101650320D01*
X156210000Y-111506000D02*
X156845000Y-112141000D01*
X153733011Y-104376522D02*
X153212320Y-104897213D01*
X153212320Y-101650320D02*
X153733011Y-102171011D01*
X147320000Y-103378000D02*
X147320000Y-101854000D01*
X153212320Y-104897213D02*
X153212320Y-111048320D01*
X147320000Y-101854000D02*
X147523680Y-101650320D01*
X144018000Y-102108000D02*
X144018000Y-101600000D01*
X155321000Y-101346000D02*
X155702000Y-101727000D01*
X144272000Y-101346000D02*
X155321000Y-101346000D01*
X144018000Y-101600000D02*
X144272000Y-101346000D01*
X153162000Y-104140000D02*
X152908000Y-104394000D01*
X152908000Y-110998000D02*
X152400000Y-111506000D01*
X152908000Y-104394000D02*
X152908000Y-110998000D01*
X146685000Y-112141000D02*
X146685000Y-114148000D01*
X152400000Y-111506000D02*
X147320000Y-111506000D01*
X147320000Y-111506000D02*
X146685000Y-112141000D01*
X139065000Y-114148000D02*
X139065000Y-110109000D01*
X139446000Y-108966000D02*
X151130000Y-108966000D01*
X139065000Y-110109000D02*
X139065000Y-109347000D01*
X139065000Y-109347000D02*
X139446000Y-108966000D01*
G04 #@! TA.AperFunction,Conductor*
G36*
X140813251Y-97946027D02*
G01*
X140859744Y-97999683D01*
X140869848Y-98069957D01*
X140836527Y-98138758D01*
X140834735Y-98140646D01*
X140830392Y-98144455D01*
X140826817Y-98148990D01*
X140826816Y-98148991D01*
X140815201Y-98163725D01*
X140704720Y-98303869D01*
X140702031Y-98308980D01*
X140702029Y-98308983D01*
X140689073Y-98333609D01*
X140610203Y-98483515D01*
X140550007Y-98677378D01*
X140526148Y-98878964D01*
X140539424Y-99081522D01*
X140540845Y-99087118D01*
X140540846Y-99087123D01*
X140587971Y-99272674D01*
X140589392Y-99278269D01*
X140591809Y-99283512D01*
X140629010Y-99364208D01*
X140674377Y-99462616D01*
X140791533Y-99628389D01*
X140936938Y-99770035D01*
X140941742Y-99773245D01*
X140995980Y-99809486D01*
X141105720Y-99882812D01*
X141111023Y-99885090D01*
X141111026Y-99885092D01*
X141199707Y-99923192D01*
X141292228Y-99962942D01*
X141365244Y-99979464D01*
X141484579Y-100006467D01*
X141484584Y-100006468D01*
X141490216Y-100007742D01*
X141495987Y-100007969D01*
X141495989Y-100007969D01*
X141555756Y-100010317D01*
X141693053Y-100015712D01*
X141793499Y-100001148D01*
X141888231Y-99987413D01*
X141888236Y-99987412D01*
X141893945Y-99986584D01*
X141899409Y-99984729D01*
X141899414Y-99984728D01*
X142080693Y-99923192D01*
X142080698Y-99923190D01*
X142086165Y-99921334D01*
X142263276Y-99822147D01*
X142278495Y-99809490D01*
X142414913Y-99696031D01*
X142419345Y-99692345D01*
X142549147Y-99536276D01*
X142648334Y-99359165D01*
X142650190Y-99353698D01*
X142650192Y-99353693D01*
X142711728Y-99172414D01*
X142711729Y-99172409D01*
X142713584Y-99166945D01*
X142714412Y-99161236D01*
X142714413Y-99161231D01*
X142740769Y-98979451D01*
X142742712Y-98966053D01*
X142744232Y-98908000D01*
X142727379Y-98724584D01*
X142726187Y-98711613D01*
X142726186Y-98711610D01*
X142725658Y-98705859D01*
X142724090Y-98700299D01*
X142672125Y-98516046D01*
X142672124Y-98516044D01*
X142670557Y-98510487D01*
X142659978Y-98489033D01*
X142583331Y-98333609D01*
X142580776Y-98328428D01*
X142459320Y-98165779D01*
X142436352Y-98144548D01*
X142399909Y-98083620D01*
X142402190Y-98012660D01*
X142442473Y-97954198D01*
X142507968Y-97926796D01*
X142521883Y-97926025D01*
X143285130Y-97926025D01*
X143353251Y-97946027D01*
X143399744Y-97999683D01*
X143409848Y-98069957D01*
X143376527Y-98138758D01*
X143374735Y-98140646D01*
X143370392Y-98144455D01*
X143366817Y-98148990D01*
X143366816Y-98148991D01*
X143355201Y-98163725D01*
X143244720Y-98303869D01*
X143242031Y-98308980D01*
X143242029Y-98308983D01*
X143229073Y-98333609D01*
X143150203Y-98483515D01*
X143090007Y-98677378D01*
X143066148Y-98878964D01*
X143079424Y-99081522D01*
X143080845Y-99087118D01*
X143080846Y-99087123D01*
X143127971Y-99272674D01*
X143129392Y-99278269D01*
X143131809Y-99283512D01*
X143169010Y-99364208D01*
X143214377Y-99462616D01*
X143331533Y-99628389D01*
X143476938Y-99770035D01*
X143481742Y-99773245D01*
X143535980Y-99809486D01*
X143645720Y-99882812D01*
X143651023Y-99885090D01*
X143651026Y-99885092D01*
X143739707Y-99923192D01*
X143832228Y-99962942D01*
X143905244Y-99979464D01*
X144024579Y-100006467D01*
X144024584Y-100006468D01*
X144030216Y-100007742D01*
X144035987Y-100007969D01*
X144035989Y-100007969D01*
X144095756Y-100010317D01*
X144233053Y-100015712D01*
X144333499Y-100001148D01*
X144428231Y-99987413D01*
X144428236Y-99987412D01*
X144433945Y-99986584D01*
X144439409Y-99984729D01*
X144439414Y-99984728D01*
X144620693Y-99923192D01*
X144620698Y-99923190D01*
X144626165Y-99921334D01*
X144803276Y-99822147D01*
X144818495Y-99809490D01*
X144954913Y-99696031D01*
X144959345Y-99692345D01*
X145089147Y-99536276D01*
X145188334Y-99359165D01*
X145190190Y-99353698D01*
X145190192Y-99353693D01*
X145251728Y-99172414D01*
X145251729Y-99172409D01*
X145253584Y-99166945D01*
X145254412Y-99161236D01*
X145254413Y-99161231D01*
X145280769Y-98979451D01*
X145282712Y-98966053D01*
X145284232Y-98908000D01*
X145267379Y-98724584D01*
X145266187Y-98711613D01*
X145266186Y-98711610D01*
X145265658Y-98705859D01*
X145264090Y-98700299D01*
X145212125Y-98516046D01*
X145212124Y-98516044D01*
X145210557Y-98510487D01*
X145199978Y-98489033D01*
X145123331Y-98333609D01*
X145120776Y-98328428D01*
X144999320Y-98165779D01*
X144976352Y-98144548D01*
X144939909Y-98083620D01*
X144942190Y-98012660D01*
X144982473Y-97954198D01*
X145047968Y-97926796D01*
X145061883Y-97926025D01*
X145825130Y-97926025D01*
X145893251Y-97946027D01*
X145939744Y-97999683D01*
X145949848Y-98069957D01*
X145916527Y-98138758D01*
X145914735Y-98140646D01*
X145910392Y-98144455D01*
X145906817Y-98148990D01*
X145906816Y-98148991D01*
X145895201Y-98163725D01*
X145784720Y-98303869D01*
X145782031Y-98308980D01*
X145782029Y-98308983D01*
X145769073Y-98333609D01*
X145690203Y-98483515D01*
X145630007Y-98677378D01*
X145606148Y-98878964D01*
X145619424Y-99081522D01*
X145620845Y-99087118D01*
X145620846Y-99087123D01*
X145667971Y-99272674D01*
X145669392Y-99278269D01*
X145671809Y-99283512D01*
X145709010Y-99364208D01*
X145754377Y-99462616D01*
X145871533Y-99628389D01*
X146016938Y-99770035D01*
X146021742Y-99773245D01*
X146075980Y-99809486D01*
X146185720Y-99882812D01*
X146191023Y-99885090D01*
X146191026Y-99885092D01*
X146279707Y-99923192D01*
X146372228Y-99962942D01*
X146445244Y-99979464D01*
X146564579Y-100006467D01*
X146564584Y-100006468D01*
X146570216Y-100007742D01*
X146575987Y-100007969D01*
X146575989Y-100007969D01*
X146635756Y-100010317D01*
X146773053Y-100015712D01*
X146873499Y-100001148D01*
X146968231Y-99987413D01*
X146968236Y-99987412D01*
X146973945Y-99986584D01*
X146979409Y-99984729D01*
X146979414Y-99984728D01*
X147160693Y-99923192D01*
X147160698Y-99923190D01*
X147166165Y-99921334D01*
X147343276Y-99822147D01*
X147358495Y-99809490D01*
X147494913Y-99696031D01*
X147499345Y-99692345D01*
X147629147Y-99536276D01*
X147728334Y-99359165D01*
X147730190Y-99353698D01*
X147730192Y-99353693D01*
X147791728Y-99172414D01*
X147791729Y-99172409D01*
X147793584Y-99166945D01*
X147794412Y-99161236D01*
X147794413Y-99161231D01*
X147820769Y-98979451D01*
X147822712Y-98966053D01*
X147824232Y-98908000D01*
X147807379Y-98724584D01*
X147806187Y-98711613D01*
X147806186Y-98711610D01*
X147805658Y-98705859D01*
X147804090Y-98700299D01*
X147752125Y-98516046D01*
X147752124Y-98516044D01*
X147750557Y-98510487D01*
X147739978Y-98489033D01*
X147663331Y-98333609D01*
X147660776Y-98328428D01*
X147539320Y-98165779D01*
X147516352Y-98144548D01*
X147479909Y-98083620D01*
X147482190Y-98012660D01*
X147522473Y-97954198D01*
X147587968Y-97926796D01*
X147601879Y-97926025D01*
X147980043Y-97926025D01*
X148365129Y-97926026D01*
X148433250Y-97946028D01*
X148479743Y-97999684D01*
X148489846Y-98069958D01*
X148456526Y-98138759D01*
X148454735Y-98140646D01*
X148450392Y-98144455D01*
X148446817Y-98148990D01*
X148446816Y-98148991D01*
X148435201Y-98163725D01*
X148324720Y-98303869D01*
X148322031Y-98308980D01*
X148322029Y-98308983D01*
X148309073Y-98333609D01*
X148230203Y-98483515D01*
X148170007Y-98677378D01*
X148146148Y-98878964D01*
X148159424Y-99081522D01*
X148160845Y-99087118D01*
X148160846Y-99087123D01*
X148207971Y-99272674D01*
X148209392Y-99278269D01*
X148211809Y-99283512D01*
X148249010Y-99364208D01*
X148294377Y-99462616D01*
X148411533Y-99628389D01*
X148556938Y-99770035D01*
X148561742Y-99773245D01*
X148615980Y-99809486D01*
X148725720Y-99882812D01*
X148731023Y-99885090D01*
X148731026Y-99885092D01*
X148819707Y-99923192D01*
X148912228Y-99962942D01*
X148985244Y-99979464D01*
X149104579Y-100006467D01*
X149104584Y-100006468D01*
X149110216Y-100007742D01*
X149115987Y-100007969D01*
X149115989Y-100007969D01*
X149175756Y-100010317D01*
X149313053Y-100015712D01*
X149413499Y-100001148D01*
X149508231Y-99987413D01*
X149508236Y-99987412D01*
X149513945Y-99986584D01*
X149519409Y-99984729D01*
X149519414Y-99984728D01*
X149700693Y-99923192D01*
X149700698Y-99923190D01*
X149706165Y-99921334D01*
X149883276Y-99822147D01*
X149898495Y-99809490D01*
X150034913Y-99696031D01*
X150039345Y-99692345D01*
X150169147Y-99536276D01*
X150268334Y-99359165D01*
X150270190Y-99353698D01*
X150270192Y-99353693D01*
X150331728Y-99172414D01*
X150331729Y-99172409D01*
X150333584Y-99166945D01*
X150334412Y-99161236D01*
X150334413Y-99161231D01*
X150360769Y-98979451D01*
X150362712Y-98966053D01*
X150364232Y-98908000D01*
X150347379Y-98724584D01*
X150346187Y-98711613D01*
X150346186Y-98711610D01*
X150345658Y-98705859D01*
X150344090Y-98700299D01*
X150292125Y-98516046D01*
X150292124Y-98516044D01*
X150290557Y-98510487D01*
X150279978Y-98489033D01*
X150203331Y-98333609D01*
X150200776Y-98328428D01*
X150079320Y-98165779D01*
X150056353Y-98144549D01*
X150019910Y-98083621D01*
X150022191Y-98012661D01*
X150062474Y-97954199D01*
X150127969Y-97926797D01*
X150141884Y-97926026D01*
X150905129Y-97926026D01*
X150973250Y-97946028D01*
X151019743Y-97999684D01*
X151029847Y-98069958D01*
X150996526Y-98138759D01*
X150994735Y-98140646D01*
X150990392Y-98144455D01*
X150986817Y-98148990D01*
X150986816Y-98148991D01*
X150975201Y-98163725D01*
X150864720Y-98303869D01*
X150862031Y-98308980D01*
X150862029Y-98308983D01*
X150849073Y-98333609D01*
X150770203Y-98483515D01*
X150710007Y-98677378D01*
X150686148Y-98878964D01*
X150699424Y-99081522D01*
X150700845Y-99087118D01*
X150700846Y-99087123D01*
X150747971Y-99272674D01*
X150749392Y-99278269D01*
X150751809Y-99283512D01*
X150789010Y-99364208D01*
X150834377Y-99462616D01*
X150951533Y-99628389D01*
X151096938Y-99770035D01*
X151101742Y-99773245D01*
X151155980Y-99809486D01*
X151265720Y-99882812D01*
X151271023Y-99885090D01*
X151271026Y-99885092D01*
X151359707Y-99923192D01*
X151452228Y-99962942D01*
X151525244Y-99979464D01*
X151644579Y-100006467D01*
X151644584Y-100006468D01*
X151650216Y-100007742D01*
X151655987Y-100007969D01*
X151655989Y-100007969D01*
X151715756Y-100010317D01*
X151853053Y-100015712D01*
X151953499Y-100001148D01*
X152048231Y-99987413D01*
X152048236Y-99987412D01*
X152053945Y-99986584D01*
X152059409Y-99984729D01*
X152059414Y-99984728D01*
X152240693Y-99923192D01*
X152240698Y-99923190D01*
X152246165Y-99921334D01*
X152423276Y-99822147D01*
X152438495Y-99809490D01*
X152574913Y-99696031D01*
X152579345Y-99692345D01*
X152709147Y-99536276D01*
X152711969Y-99531236D01*
X152711973Y-99531231D01*
X152741067Y-99479279D01*
X152791804Y-99429617D01*
X152861335Y-99415270D01*
X152927586Y-99440791D01*
X152969522Y-99498080D01*
X152977001Y-99540845D01*
X152977001Y-99802669D01*
X152977371Y-99809490D01*
X152982895Y-99860352D01*
X152986521Y-99875604D01*
X153031676Y-99996054D01*
X153040214Y-100011649D01*
X153116715Y-100113724D01*
X153129276Y-100126285D01*
X153231351Y-100202786D01*
X153246946Y-100211324D01*
X153367394Y-100256478D01*
X153382649Y-100260105D01*
X153433514Y-100265631D01*
X153440328Y-100266000D01*
X154062885Y-100266000D01*
X154078124Y-100261525D01*
X154079329Y-100260135D01*
X154081000Y-100252452D01*
X154081000Y-100247884D01*
X154589000Y-100247884D01*
X154593475Y-100263123D01*
X154594865Y-100264328D01*
X154602548Y-100265999D01*
X155229669Y-100265999D01*
X155236490Y-100265629D01*
X155287352Y-100260105D01*
X155302604Y-100256479D01*
X155423054Y-100211324D01*
X155438649Y-100202786D01*
X155540724Y-100126285D01*
X155553285Y-100113724D01*
X155629786Y-100011649D01*
X155638324Y-99996054D01*
X155683478Y-99875606D01*
X155687105Y-99860351D01*
X155692631Y-99809486D01*
X155693000Y-99802672D01*
X155693000Y-99180115D01*
X155688525Y-99164876D01*
X155687135Y-99163671D01*
X155679452Y-99162000D01*
X154607115Y-99162000D01*
X154591876Y-99166475D01*
X154590671Y-99167865D01*
X154589000Y-99175548D01*
X154589000Y-100247884D01*
X154081000Y-100247884D01*
X154081000Y-98780000D01*
X154101002Y-98711879D01*
X154154658Y-98665386D01*
X154207000Y-98654000D01*
X155674884Y-98654000D01*
X155690123Y-98649525D01*
X155691328Y-98648135D01*
X155692999Y-98640452D01*
X155692999Y-98052026D01*
X155713001Y-97983905D01*
X155766657Y-97937412D01*
X155818999Y-97926026D01*
X158068550Y-97926026D01*
X158093128Y-97928447D01*
X158105975Y-97931002D01*
X158118147Y-97928581D01*
X158129674Y-97928581D01*
X158140656Y-97929060D01*
X158271424Y-97940501D01*
X158293045Y-97944313D01*
X158442823Y-97984446D01*
X158463459Y-97991957D01*
X158603985Y-98057486D01*
X158623005Y-98068468D01*
X158750021Y-98157405D01*
X158766846Y-98171523D01*
X158876478Y-98281155D01*
X158890596Y-98297980D01*
X158979533Y-98424996D01*
X158990515Y-98444016D01*
X159056044Y-98584542D01*
X159063555Y-98605178D01*
X159103688Y-98754956D01*
X159107501Y-98776580D01*
X159118941Y-98907346D01*
X159119420Y-98918327D01*
X159119420Y-98929854D01*
X159116999Y-98942026D01*
X159119420Y-98954196D01*
X159119554Y-98954870D01*
X159121975Y-98979451D01*
X159121974Y-114126550D01*
X159119553Y-114151128D01*
X159116998Y-114163975D01*
X159119419Y-114176147D01*
X159119419Y-114187674D01*
X159118940Y-114198654D01*
X159108696Y-114315755D01*
X159107500Y-114329421D01*
X159103687Y-114351045D01*
X159063555Y-114500820D01*
X159063555Y-114500821D01*
X159056043Y-114521459D01*
X158990514Y-114661985D01*
X158979532Y-114681005D01*
X158890595Y-114808021D01*
X158876477Y-114824846D01*
X158766845Y-114934478D01*
X158750020Y-114948596D01*
X158623004Y-115037533D01*
X158603984Y-115048515D01*
X158463458Y-115114044D01*
X158442822Y-115121555D01*
X158293044Y-115161688D01*
X158271423Y-115165500D01*
X158162852Y-115174999D01*
X158140654Y-115176941D01*
X158129673Y-115177420D01*
X158118146Y-115177420D01*
X158105974Y-115174999D01*
X158093127Y-115177554D01*
X158068549Y-115179975D01*
X157680149Y-115179975D01*
X157612028Y-115159973D01*
X157565535Y-115106317D01*
X157555431Y-115036043D01*
X157584925Y-114971463D01*
X157599580Y-114957101D01*
X157624908Y-114936036D01*
X157624914Y-114936030D01*
X157629345Y-114932345D01*
X157718752Y-114824846D01*
X157755453Y-114780718D01*
X157755455Y-114780715D01*
X157759147Y-114776276D01*
X157858334Y-114599165D01*
X157860190Y-114593698D01*
X157860192Y-114593693D01*
X157921728Y-114412414D01*
X157921729Y-114412409D01*
X157923584Y-114406945D01*
X157924412Y-114401236D01*
X157924413Y-114401231D01*
X157952179Y-114209727D01*
X157952712Y-114206053D01*
X157954232Y-114148000D01*
X157935658Y-113945859D01*
X157934090Y-113940299D01*
X157882125Y-113756046D01*
X157882124Y-113756044D01*
X157880557Y-113750487D01*
X157869978Y-113729033D01*
X157793331Y-113573609D01*
X157790776Y-113568428D01*
X157669320Y-113405779D01*
X157520258Y-113267987D01*
X157515375Y-113264906D01*
X157515371Y-113264903D01*
X157353464Y-113162748D01*
X157348581Y-113159667D01*
X157343217Y-113157527D01*
X157255009Y-113122335D01*
X157199150Y-113078514D01*
X157175700Y-113005305D01*
X157175700Y-112160949D01*
X157176179Y-112149968D01*
X157178564Y-112122709D01*
X157178564Y-112122708D01*
X157179524Y-112111733D01*
X157169591Y-112074661D01*
X157167215Y-112063943D01*
X157162465Y-112037003D01*
X157162465Y-112037002D01*
X157160551Y-112026149D01*
X157155040Y-112016604D01*
X157153769Y-112013111D01*
X157152194Y-112009733D01*
X157149340Y-111999084D01*
X157143016Y-111990053D01*
X157143015Y-111990050D01*
X157127327Y-111967645D01*
X157121421Y-111958375D01*
X157107750Y-111934696D01*
X157107749Y-111934695D01*
X157102239Y-111925151D01*
X157072847Y-111900488D01*
X157064744Y-111893063D01*
X156457943Y-111286263D01*
X156450517Y-111278159D01*
X156432933Y-111257203D01*
X156432932Y-111257202D01*
X156425849Y-111248761D01*
X156392625Y-111229578D01*
X156383355Y-111223673D01*
X156360950Y-111207985D01*
X156360947Y-111207984D01*
X156351916Y-111201660D01*
X156341267Y-111198806D01*
X156337889Y-111197231D01*
X156334396Y-111195960D01*
X156324851Y-111190449D01*
X156313998Y-111188535D01*
X156313997Y-111188535D01*
X156302900Y-111186578D01*
X156287053Y-111183784D01*
X156276339Y-111181409D01*
X156239267Y-111171476D01*
X156228292Y-111172436D01*
X156228291Y-111172436D01*
X156201032Y-111174821D01*
X156190051Y-111175300D01*
X153859170Y-111175300D01*
X153791049Y-111155298D01*
X153770075Y-111138395D01*
X153579925Y-110948245D01*
X153545899Y-110885933D01*
X153543020Y-110859150D01*
X153543020Y-105086383D01*
X153563022Y-105018262D01*
X153579925Y-104997288D01*
X153952743Y-104624470D01*
X153960847Y-104617044D01*
X153981804Y-104599459D01*
X153981807Y-104599456D01*
X153990250Y-104592371D01*
X154009437Y-104559139D01*
X154015333Y-104549883D01*
X154037351Y-104518439D01*
X154040205Y-104507787D01*
X154041781Y-104504408D01*
X154043051Y-104500919D01*
X154048562Y-104491373D01*
X154055227Y-104453577D01*
X154057602Y-104442861D01*
X154067535Y-104405789D01*
X154064904Y-104375709D01*
X154064190Y-104367554D01*
X154063711Y-104356573D01*
X154063711Y-102190960D01*
X154064190Y-102179979D01*
X154066575Y-102152720D01*
X154066575Y-102152719D01*
X154067535Y-102141744D01*
X154057602Y-102104672D01*
X154055226Y-102093953D01*
X154050476Y-102067015D01*
X154048562Y-102056160D01*
X154043051Y-102046614D01*
X154041781Y-102043125D01*
X154040205Y-102039746D01*
X154037351Y-102029094D01*
X154015333Y-101997650D01*
X154009437Y-101988394D01*
X153995762Y-101964709D01*
X153990250Y-101955162D01*
X153981807Y-101948077D01*
X153981804Y-101948074D01*
X153960847Y-101930489D01*
X153952743Y-101923063D01*
X153921475Y-101891795D01*
X153887449Y-101829483D01*
X153892514Y-101758668D01*
X153935061Y-101701832D01*
X154001581Y-101677021D01*
X154010570Y-101676700D01*
X154982324Y-101676700D01*
X155050445Y-101696702D01*
X155096938Y-101750358D01*
X155107246Y-101786253D01*
X155119977Y-101882953D01*
X155180172Y-102028277D01*
X155275929Y-102153071D01*
X155400722Y-102248828D01*
X155546047Y-102309023D01*
X155702000Y-102329555D01*
X155857953Y-102309023D01*
X156003278Y-102248828D01*
X156128071Y-102153071D01*
X156223828Y-102028277D01*
X156284023Y-101882953D01*
X156304555Y-101727000D01*
X156284023Y-101571047D01*
X156223828Y-101425723D01*
X156128071Y-101300929D01*
X156003278Y-101205172D01*
X155857953Y-101144977D01*
X155702000Y-101124445D01*
X155648399Y-101131502D01*
X155578251Y-101120563D01*
X155550963Y-101103103D01*
X155543935Y-101097206D01*
X155536849Y-101088761D01*
X155527303Y-101083249D01*
X155527300Y-101083247D01*
X155503624Y-101069578D01*
X155494355Y-101063673D01*
X155471950Y-101047985D01*
X155471946Y-101047983D01*
X155462916Y-101041660D01*
X155452267Y-101038806D01*
X155448889Y-101037231D01*
X155445396Y-101035960D01*
X155435851Y-101030449D01*
X155424998Y-101028535D01*
X155424997Y-101028535D01*
X155413900Y-101026578D01*
X155398053Y-101023784D01*
X155387339Y-101021409D01*
X155350267Y-101011476D01*
X155339292Y-101012436D01*
X155339291Y-101012436D01*
X155312032Y-101014821D01*
X155301051Y-101015300D01*
X144291949Y-101015300D01*
X144280968Y-101014821D01*
X144253709Y-101012436D01*
X144253708Y-101012436D01*
X144242733Y-101011476D01*
X144205661Y-101021409D01*
X144194945Y-101023784D01*
X144157149Y-101030449D01*
X144147603Y-101035960D01*
X144144114Y-101037230D01*
X144140735Y-101038806D01*
X144130083Y-101041660D01*
X144098639Y-101063678D01*
X144089383Y-101069574D01*
X144056151Y-101088761D01*
X144049066Y-101097204D01*
X144049063Y-101097207D01*
X144031478Y-101118164D01*
X144024052Y-101126268D01*
X143798268Y-101352052D01*
X143790164Y-101359478D01*
X143769206Y-101377064D01*
X143769204Y-101377067D01*
X143760761Y-101384151D01*
X143742382Y-101415983D01*
X143741578Y-101417376D01*
X143735673Y-101426645D01*
X143719985Y-101449050D01*
X143719984Y-101449053D01*
X143713660Y-101458084D01*
X143710806Y-101468733D01*
X143709231Y-101472111D01*
X143707960Y-101475604D01*
X143702449Y-101485149D01*
X143700535Y-101496002D01*
X143700535Y-101496003D01*
X143695785Y-101522943D01*
X143693409Y-101533661D01*
X143683476Y-101570733D01*
X143683476Y-101570734D01*
X143681664Y-101570249D01*
X143660668Y-101623933D01*
X143637710Y-101646800D01*
X143598477Y-101676904D01*
X143598475Y-101676906D01*
X143591929Y-101681929D01*
X143496172Y-101806723D01*
X143435977Y-101952047D01*
X143415445Y-102108000D01*
X143435977Y-102263953D01*
X143496172Y-102409277D01*
X143591929Y-102534071D01*
X143716722Y-102629828D01*
X143862047Y-102690023D01*
X144018000Y-102710555D01*
X144173953Y-102690023D01*
X144319278Y-102629828D01*
X144444071Y-102534071D01*
X144539828Y-102409277D01*
X144600023Y-102263953D01*
X144620555Y-102108000D01*
X144600023Y-101952047D01*
X144558134Y-101850918D01*
X144550545Y-101780328D01*
X144582324Y-101716841D01*
X144643382Y-101680614D01*
X144674543Y-101676700D01*
X146862844Y-101676700D01*
X146930965Y-101696702D01*
X146977458Y-101750358D01*
X146988364Y-101813684D01*
X146988329Y-101814086D01*
X146985476Y-101824733D01*
X146986436Y-101835709D01*
X146986436Y-101835711D01*
X146988821Y-101862968D01*
X146989300Y-101873949D01*
X146989300Y-102816613D01*
X146969298Y-102884734D01*
X146940004Y-102916574D01*
X146893929Y-102951929D01*
X146798172Y-103076723D01*
X146737977Y-103222047D01*
X146717445Y-103378000D01*
X146737977Y-103533953D01*
X146798172Y-103679277D01*
X146893929Y-103804071D01*
X147018722Y-103899828D01*
X147164047Y-103960023D01*
X147320000Y-103980555D01*
X147475953Y-103960023D01*
X147621278Y-103899828D01*
X147746071Y-103804071D01*
X147841828Y-103679277D01*
X147902023Y-103533953D01*
X147922555Y-103378000D01*
X147902023Y-103222047D01*
X147841828Y-103076723D01*
X147746071Y-102951929D01*
X147739521Y-102946903D01*
X147739518Y-102946900D01*
X147699996Y-102916574D01*
X147658128Y-102859236D01*
X147650700Y-102816612D01*
X147650700Y-102107020D01*
X147670702Y-102038899D01*
X147724358Y-101992406D01*
X147776700Y-101981020D01*
X153023150Y-101981020D01*
X153091271Y-102001022D01*
X153112245Y-102017925D01*
X153365406Y-102271086D01*
X153399432Y-102333398D01*
X153402311Y-102360181D01*
X153402311Y-103425407D01*
X153382309Y-103493528D01*
X153328653Y-103540021D01*
X153259865Y-103550329D01*
X153170189Y-103538523D01*
X153170188Y-103538523D01*
X153162000Y-103537445D01*
X153006047Y-103557977D01*
X152860723Y-103618172D01*
X152735929Y-103713929D01*
X152640172Y-103838723D01*
X152579977Y-103984047D01*
X152559445Y-104140000D01*
X152560523Y-104148188D01*
X152579977Y-104295953D01*
X152577762Y-104296245D01*
X152577762Y-104348736D01*
X152573476Y-104364733D01*
X152574436Y-104375708D01*
X152574436Y-104375709D01*
X152576821Y-104402968D01*
X152577300Y-104413949D01*
X152577300Y-110808830D01*
X152557298Y-110876951D01*
X152540395Y-110897925D01*
X152299925Y-111138395D01*
X152237613Y-111172421D01*
X152210830Y-111175300D01*
X147339949Y-111175300D01*
X147328968Y-111174821D01*
X147301709Y-111172436D01*
X147301708Y-111172436D01*
X147290733Y-111171476D01*
X147253661Y-111181409D01*
X147242947Y-111183784D01*
X147227100Y-111186578D01*
X147216003Y-111188535D01*
X147216002Y-111188535D01*
X147205149Y-111190449D01*
X147195604Y-111195960D01*
X147192111Y-111197231D01*
X147188733Y-111198806D01*
X147178084Y-111201660D01*
X147169053Y-111207984D01*
X147169050Y-111207985D01*
X147146645Y-111223673D01*
X147137377Y-111229578D01*
X147104151Y-111248761D01*
X147097068Y-111257202D01*
X147097067Y-111257203D01*
X147079488Y-111278153D01*
X147072063Y-111286256D01*
X146465263Y-111893057D01*
X146457159Y-111900483D01*
X146427761Y-111925151D01*
X146409382Y-111956983D01*
X146408578Y-111958376D01*
X146402673Y-111967645D01*
X146386985Y-111990050D01*
X146386984Y-111990053D01*
X146380660Y-111999084D01*
X146377806Y-112009733D01*
X146376231Y-112013111D01*
X146374960Y-112016604D01*
X146369449Y-112026149D01*
X146367535Y-112037002D01*
X146367535Y-112037003D01*
X146362785Y-112063943D01*
X146360409Y-112074661D01*
X146350476Y-112111733D01*
X146351436Y-112122708D01*
X146351436Y-112122709D01*
X146353821Y-112149968D01*
X146354300Y-112160949D01*
X146354300Y-113004836D01*
X146334298Y-113072957D01*
X146280642Y-113119450D01*
X146271914Y-113123047D01*
X146207463Y-113146824D01*
X146033010Y-113250612D01*
X146028670Y-113254418D01*
X146028666Y-113254421D01*
X146008723Y-113271911D01*
X145880392Y-113384455D01*
X145754720Y-113543869D01*
X145752031Y-113548980D01*
X145752029Y-113548983D01*
X145740507Y-113570883D01*
X145660203Y-113723515D01*
X145600007Y-113917378D01*
X145576148Y-114118964D01*
X145589424Y-114321522D01*
X145590845Y-114327118D01*
X145590846Y-114327123D01*
X145609863Y-114402000D01*
X145639392Y-114518269D01*
X145641809Y-114523512D01*
X145679010Y-114604208D01*
X145724377Y-114702616D01*
X145841533Y-114868389D01*
X145845675Y-114872424D01*
X145939394Y-114963720D01*
X145974232Y-115025581D01*
X145970095Y-115096457D01*
X145928296Y-115153845D01*
X145862107Y-115179524D01*
X145851473Y-115179974D01*
X144980151Y-115179974D01*
X144912030Y-115159972D01*
X144865537Y-115106316D01*
X144855433Y-115036042D01*
X144884927Y-114971462D01*
X144899581Y-114957101D01*
X144924906Y-114936038D01*
X144924914Y-114936030D01*
X144929345Y-114932345D01*
X145018752Y-114824846D01*
X145055453Y-114780718D01*
X145055455Y-114780715D01*
X145059147Y-114776276D01*
X145158334Y-114599165D01*
X145160190Y-114593698D01*
X145160192Y-114593693D01*
X145221728Y-114412414D01*
X145221729Y-114412409D01*
X145223584Y-114406945D01*
X145224412Y-114401236D01*
X145224413Y-114401231D01*
X145252179Y-114209727D01*
X145252712Y-114206053D01*
X145254232Y-114148000D01*
X145235658Y-113945859D01*
X145234090Y-113940299D01*
X145182125Y-113756046D01*
X145182124Y-113756044D01*
X145180557Y-113750487D01*
X145169978Y-113729033D01*
X145093331Y-113573609D01*
X145090776Y-113568428D01*
X144969320Y-113405779D01*
X144820258Y-113267987D01*
X144815375Y-113264906D01*
X144815371Y-113264903D01*
X144653464Y-113162748D01*
X144648581Y-113159667D01*
X144460039Y-113084446D01*
X144454379Y-113083320D01*
X144454375Y-113083319D01*
X144266613Y-113045971D01*
X144266610Y-113045971D01*
X144260946Y-113044844D01*
X144255171Y-113044768D01*
X144255167Y-113044768D01*
X144153793Y-113043441D01*
X144057971Y-113042187D01*
X144052274Y-113043166D01*
X144052273Y-113043166D01*
X143954620Y-113059946D01*
X143857910Y-113076564D01*
X143667463Y-113146824D01*
X143493010Y-113250612D01*
X143488670Y-113254418D01*
X143488666Y-113254421D01*
X143468723Y-113271911D01*
X143340392Y-113384455D01*
X143214720Y-113543869D01*
X143212031Y-113548980D01*
X143212029Y-113548983D01*
X143200507Y-113570883D01*
X143151087Y-113621856D01*
X143081955Y-113638018D01*
X143015059Y-113614239D01*
X142971638Y-113558068D01*
X142962999Y-113512215D01*
X142962999Y-113253331D01*
X142962629Y-113246510D01*
X142957105Y-113195648D01*
X142953479Y-113180396D01*
X142908324Y-113059946D01*
X142899786Y-113044351D01*
X142823285Y-112942276D01*
X142810724Y-112929715D01*
X142708649Y-112853214D01*
X142693054Y-112844676D01*
X142572606Y-112799522D01*
X142557351Y-112795895D01*
X142506486Y-112790369D01*
X142499672Y-112790000D01*
X141877115Y-112790000D01*
X141861876Y-112794475D01*
X141860671Y-112795865D01*
X141859000Y-112803548D01*
X141859000Y-114276000D01*
X141838998Y-114344121D01*
X141785342Y-114390614D01*
X141733000Y-114402000D01*
X141477000Y-114402000D01*
X141408879Y-114381998D01*
X141362386Y-114328342D01*
X141351000Y-114276000D01*
X141351000Y-112808116D01*
X141346525Y-112792877D01*
X141345135Y-112791672D01*
X141337452Y-112790001D01*
X140710331Y-112790001D01*
X140703510Y-112790371D01*
X140652648Y-112795895D01*
X140637396Y-112799521D01*
X140516946Y-112844676D01*
X140501351Y-112853214D01*
X140399276Y-112929715D01*
X140386715Y-112942276D01*
X140310214Y-113044351D01*
X140301676Y-113059946D01*
X140256522Y-113180394D01*
X140252895Y-113195649D01*
X140247369Y-113246514D01*
X140247000Y-113253328D01*
X140247000Y-113508160D01*
X140226998Y-113576281D01*
X140173342Y-113622774D01*
X140103068Y-113632878D01*
X140038488Y-113603384D01*
X140013567Y-113573994D01*
X140013331Y-113573608D01*
X140010776Y-113568428D01*
X139889320Y-113405779D01*
X139740258Y-113267987D01*
X139735375Y-113264906D01*
X139735371Y-113264903D01*
X139573464Y-113162748D01*
X139568581Y-113159667D01*
X139563217Y-113157527D01*
X139475009Y-113122335D01*
X139419150Y-113078514D01*
X139395700Y-113005305D01*
X139395700Y-109536170D01*
X139415702Y-109468049D01*
X139432605Y-109447075D01*
X139546075Y-109333605D01*
X139608387Y-109299579D01*
X139635170Y-109296700D01*
X150568613Y-109296700D01*
X150636734Y-109316702D01*
X150668574Y-109345996D01*
X150703929Y-109392071D01*
X150828722Y-109487828D01*
X150974047Y-109548023D01*
X151130000Y-109568555D01*
X151285953Y-109548023D01*
X151431278Y-109487828D01*
X151556071Y-109392071D01*
X151651828Y-109267277D01*
X151712023Y-109121953D01*
X151732555Y-108966000D01*
X151712023Y-108810047D01*
X151651828Y-108664723D01*
X151556071Y-108539929D01*
X151431278Y-108444172D01*
X151285953Y-108383977D01*
X151130000Y-108363445D01*
X150974047Y-108383977D01*
X150828723Y-108444172D01*
X150703929Y-108539929D01*
X150698901Y-108546482D01*
X150668576Y-108586003D01*
X150611239Y-108627871D01*
X150568613Y-108635300D01*
X139465940Y-108635300D01*
X139454960Y-108634821D01*
X139427710Y-108632437D01*
X139427709Y-108632437D01*
X139416733Y-108631477D01*
X139406089Y-108634329D01*
X139406088Y-108634329D01*
X139379682Y-108641404D01*
X139368953Y-108643783D01*
X139342003Y-108648535D01*
X139342002Y-108648535D01*
X139331149Y-108650449D01*
X139321604Y-108655960D01*
X139318114Y-108657230D01*
X139314735Y-108658806D01*
X139304083Y-108661660D01*
X139272639Y-108683678D01*
X139263383Y-108689574D01*
X139230151Y-108708761D01*
X139223066Y-108717204D01*
X139223063Y-108717207D01*
X139205478Y-108738164D01*
X139198052Y-108746268D01*
X138845268Y-109099052D01*
X138837164Y-109106478D01*
X138816206Y-109124064D01*
X138816204Y-109124067D01*
X138807761Y-109131151D01*
X138789382Y-109162983D01*
X138788578Y-109164376D01*
X138782673Y-109173645D01*
X138766985Y-109196050D01*
X138766984Y-109196053D01*
X138760660Y-109205084D01*
X138757806Y-109215733D01*
X138756231Y-109219111D01*
X138754960Y-109222604D01*
X138749449Y-109232149D01*
X138747535Y-109243002D01*
X138747535Y-109243003D01*
X138742785Y-109269943D01*
X138740409Y-109280661D01*
X138730476Y-109317733D01*
X138731436Y-109328708D01*
X138731436Y-109328709D01*
X138733821Y-109355968D01*
X138734300Y-109366949D01*
X138734300Y-113004836D01*
X138714298Y-113072957D01*
X138660642Y-113119450D01*
X138651914Y-113123047D01*
X138587463Y-113146824D01*
X138413010Y-113250612D01*
X138408670Y-113254418D01*
X138408666Y-113254421D01*
X138388723Y-113271911D01*
X138260392Y-113384455D01*
X138134720Y-113543869D01*
X138132031Y-113548980D01*
X138132029Y-113548983D01*
X138120507Y-113570883D01*
X138040203Y-113723515D01*
X137980007Y-113917378D01*
X137956148Y-114118964D01*
X137969424Y-114321522D01*
X137970845Y-114327118D01*
X137970846Y-114327123D01*
X137989863Y-114402000D01*
X138019392Y-114518269D01*
X138021809Y-114523512D01*
X138059010Y-114604208D01*
X138104377Y-114702616D01*
X138221533Y-114868389D01*
X138225675Y-114872424D01*
X138319394Y-114963720D01*
X138354232Y-115025581D01*
X138350095Y-115096457D01*
X138308296Y-115153845D01*
X138242107Y-115179524D01*
X138231473Y-115179974D01*
X137841450Y-115179974D01*
X137816872Y-115177553D01*
X137804025Y-115174998D01*
X137791853Y-115177419D01*
X137780326Y-115177419D01*
X137769345Y-115176940D01*
X137747147Y-115174998D01*
X137638576Y-115165499D01*
X137616955Y-115161687D01*
X137467177Y-115121554D01*
X137446541Y-115114043D01*
X137306015Y-115048514D01*
X137286995Y-115037532D01*
X137159979Y-114948595D01*
X137143154Y-114934477D01*
X137033522Y-114824845D01*
X137019404Y-114808020D01*
X136930467Y-114681004D01*
X136919485Y-114661984D01*
X136853956Y-114521458D01*
X136846444Y-114500820D01*
X136806312Y-114351044D01*
X136802499Y-114329420D01*
X136791059Y-114198654D01*
X136790580Y-114187673D01*
X136790580Y-114176146D01*
X136793001Y-114163974D01*
X136790446Y-114151127D01*
X136788025Y-114126549D01*
X136788026Y-98979450D01*
X136790447Y-98954869D01*
X136790581Y-98954195D01*
X136793002Y-98942025D01*
X136790581Y-98929853D01*
X136790581Y-98918326D01*
X136791060Y-98907345D01*
X136802500Y-98776579D01*
X136806314Y-98754949D01*
X136846446Y-98605177D01*
X136853957Y-98584541D01*
X136919486Y-98444015D01*
X136930468Y-98424995D01*
X137019405Y-98297979D01*
X137033523Y-98281154D01*
X137143155Y-98171522D01*
X137159980Y-98157404D01*
X137286996Y-98068467D01*
X137306016Y-98057485D01*
X137446542Y-97991956D01*
X137467178Y-97984445D01*
X137616956Y-97944312D01*
X137638577Y-97940500D01*
X137755659Y-97930256D01*
X137769346Y-97929059D01*
X137780327Y-97928580D01*
X137791854Y-97928580D01*
X137804026Y-97931001D01*
X137816873Y-97928446D01*
X137841451Y-97926025D01*
X140745130Y-97926025D01*
X140813251Y-97946027D01*
G37*
G04 #@! TD.AperFunction*
G04 #@! TA.AperFunction,Conductor*
G36*
X153079032Y-111398814D02*
G01*
X153124095Y-111427775D01*
X153422052Y-111725732D01*
X153429478Y-111733836D01*
X153447063Y-111754793D01*
X153447066Y-111754796D01*
X153454151Y-111763239D01*
X153463698Y-111768751D01*
X153487383Y-111782426D01*
X153496639Y-111788322D01*
X153528083Y-111810340D01*
X153538735Y-111813194D01*
X153542114Y-111814770D01*
X153545603Y-111816040D01*
X153555149Y-111821551D01*
X153592945Y-111828216D01*
X153603661Y-111830591D01*
X153640733Y-111840524D01*
X153651708Y-111839564D01*
X153651709Y-111839564D01*
X153678968Y-111837179D01*
X153689949Y-111836700D01*
X156020829Y-111836700D01*
X156088950Y-111856702D01*
X156109925Y-111873605D01*
X156477396Y-112241077D01*
X156511421Y-112303389D01*
X156514300Y-112330172D01*
X156514300Y-113004836D01*
X156494298Y-113072957D01*
X156440642Y-113119450D01*
X156431914Y-113123047D01*
X156367463Y-113146824D01*
X156193010Y-113250612D01*
X156188670Y-113254418D01*
X156188666Y-113254421D01*
X156168723Y-113271911D01*
X156040392Y-113384455D01*
X155914720Y-113543869D01*
X155912031Y-113548980D01*
X155912029Y-113548983D01*
X155900507Y-113570883D01*
X155820203Y-113723515D01*
X155760007Y-113917378D01*
X155736148Y-114118964D01*
X155749424Y-114321522D01*
X155750845Y-114327118D01*
X155750846Y-114327123D01*
X155769863Y-114402000D01*
X155799392Y-114518269D01*
X155801809Y-114523512D01*
X155839010Y-114604208D01*
X155884377Y-114702616D01*
X156001533Y-114868389D01*
X156005675Y-114872424D01*
X156099395Y-114963721D01*
X156134233Y-115025582D01*
X156130096Y-115096458D01*
X156088297Y-115153846D01*
X156022108Y-115179525D01*
X156011474Y-115179975D01*
X155140149Y-115179975D01*
X155072028Y-115159973D01*
X155025535Y-115106317D01*
X155015431Y-115036043D01*
X155044925Y-114971463D01*
X155059580Y-114957101D01*
X155084908Y-114936036D01*
X155084914Y-114936030D01*
X155089345Y-114932345D01*
X155178752Y-114824846D01*
X155215453Y-114780718D01*
X155215455Y-114780715D01*
X155219147Y-114776276D01*
X155318334Y-114599165D01*
X155320190Y-114593698D01*
X155320192Y-114593693D01*
X155381728Y-114412414D01*
X155381729Y-114412409D01*
X155383584Y-114406945D01*
X155384412Y-114401236D01*
X155384413Y-114401231D01*
X155412179Y-114209727D01*
X155412712Y-114206053D01*
X155414232Y-114148000D01*
X155395658Y-113945859D01*
X155394090Y-113940299D01*
X155342125Y-113756046D01*
X155342124Y-113756044D01*
X155340557Y-113750487D01*
X155329978Y-113729033D01*
X155253331Y-113573609D01*
X155250776Y-113568428D01*
X155129320Y-113405779D01*
X154980258Y-113267987D01*
X154975375Y-113264906D01*
X154975371Y-113264903D01*
X154813464Y-113162748D01*
X154808581Y-113159667D01*
X154620039Y-113084446D01*
X154614379Y-113083320D01*
X154614375Y-113083319D01*
X154426613Y-113045971D01*
X154426610Y-113045971D01*
X154420946Y-113044844D01*
X154415171Y-113044768D01*
X154415167Y-113044768D01*
X154313793Y-113043441D01*
X154217971Y-113042187D01*
X154212274Y-113043166D01*
X154212273Y-113043166D01*
X154114620Y-113059946D01*
X154017910Y-113076564D01*
X153827463Y-113146824D01*
X153653010Y-113250612D01*
X153648670Y-113254418D01*
X153648666Y-113254421D01*
X153628723Y-113271911D01*
X153500392Y-113384455D01*
X153374720Y-113543869D01*
X153372031Y-113548980D01*
X153372029Y-113548983D01*
X153360507Y-113570883D01*
X153280203Y-113723515D01*
X153220007Y-113917378D01*
X153196148Y-114118964D01*
X153209424Y-114321522D01*
X153210845Y-114327118D01*
X153210846Y-114327123D01*
X153229863Y-114402000D01*
X153259392Y-114518269D01*
X153261809Y-114523512D01*
X153299010Y-114604208D01*
X153344377Y-114702616D01*
X153461533Y-114868389D01*
X153465675Y-114872424D01*
X153559395Y-114963721D01*
X153594233Y-115025582D01*
X153590096Y-115096458D01*
X153548297Y-115153846D01*
X153482108Y-115179525D01*
X153471474Y-115179975D01*
X152600149Y-115179975D01*
X152532028Y-115159973D01*
X152485535Y-115106317D01*
X152475431Y-115036043D01*
X152504925Y-114971463D01*
X152519580Y-114957101D01*
X152544908Y-114936036D01*
X152544914Y-114936030D01*
X152549345Y-114932345D01*
X152638752Y-114824846D01*
X152675453Y-114780718D01*
X152675455Y-114780715D01*
X152679147Y-114776276D01*
X152778334Y-114599165D01*
X152780190Y-114593698D01*
X152780192Y-114593693D01*
X152841728Y-114412414D01*
X152841729Y-114412409D01*
X152843584Y-114406945D01*
X152844412Y-114401236D01*
X152844413Y-114401231D01*
X152872179Y-114209727D01*
X152872712Y-114206053D01*
X152874232Y-114148000D01*
X152855658Y-113945859D01*
X152854090Y-113940299D01*
X152802125Y-113756046D01*
X152802124Y-113756044D01*
X152800557Y-113750487D01*
X152789978Y-113729033D01*
X152713331Y-113573609D01*
X152710776Y-113568428D01*
X152589320Y-113405779D01*
X152440258Y-113267987D01*
X152435375Y-113264906D01*
X152435371Y-113264903D01*
X152273464Y-113162748D01*
X152268581Y-113159667D01*
X152080039Y-113084446D01*
X152074379Y-113083320D01*
X152074375Y-113083319D01*
X151886613Y-113045971D01*
X151886610Y-113045971D01*
X151880946Y-113044844D01*
X151875171Y-113044768D01*
X151875167Y-113044768D01*
X151773793Y-113043441D01*
X151677971Y-113042187D01*
X151672274Y-113043166D01*
X151672273Y-113043166D01*
X151574620Y-113059946D01*
X151477910Y-113076564D01*
X151287463Y-113146824D01*
X151113010Y-113250612D01*
X151108670Y-113254418D01*
X151108666Y-113254421D01*
X151088723Y-113271911D01*
X150960392Y-113384455D01*
X150834720Y-113543869D01*
X150832031Y-113548980D01*
X150832029Y-113548983D01*
X150820507Y-113570883D01*
X150740203Y-113723515D01*
X150680007Y-113917378D01*
X150656148Y-114118964D01*
X150669424Y-114321522D01*
X150670845Y-114327118D01*
X150670846Y-114327123D01*
X150689863Y-114402000D01*
X150719392Y-114518269D01*
X150721809Y-114523512D01*
X150759010Y-114604208D01*
X150804377Y-114702616D01*
X150921533Y-114868389D01*
X150925675Y-114872424D01*
X151019395Y-114963721D01*
X151054233Y-115025582D01*
X151050096Y-115096458D01*
X151008297Y-115153846D01*
X150942108Y-115179525D01*
X150931474Y-115179975D01*
X150060149Y-115179975D01*
X149992028Y-115159973D01*
X149945535Y-115106317D01*
X149935431Y-115036043D01*
X149964925Y-114971463D01*
X149979580Y-114957101D01*
X150004908Y-114936036D01*
X150004914Y-114936030D01*
X150009345Y-114932345D01*
X150098752Y-114824846D01*
X150135453Y-114780718D01*
X150135455Y-114780715D01*
X150139147Y-114776276D01*
X150238334Y-114599165D01*
X150240190Y-114593698D01*
X150240192Y-114593693D01*
X150301728Y-114412414D01*
X150301729Y-114412409D01*
X150303584Y-114406945D01*
X150304412Y-114401236D01*
X150304413Y-114401231D01*
X150332179Y-114209727D01*
X150332712Y-114206053D01*
X150334232Y-114148000D01*
X150315658Y-113945859D01*
X150314090Y-113940299D01*
X150262125Y-113756046D01*
X150262124Y-113756044D01*
X150260557Y-113750487D01*
X150249978Y-113729033D01*
X150173331Y-113573609D01*
X150170776Y-113568428D01*
X150049320Y-113405779D01*
X149900258Y-113267987D01*
X149895375Y-113264906D01*
X149895371Y-113264903D01*
X149733464Y-113162748D01*
X149728581Y-113159667D01*
X149540039Y-113084446D01*
X149534379Y-113083320D01*
X149534375Y-113083319D01*
X149346613Y-113045971D01*
X149346610Y-113045971D01*
X149340946Y-113044844D01*
X149335171Y-113044768D01*
X149335167Y-113044768D01*
X149233793Y-113043441D01*
X149137971Y-113042187D01*
X149132274Y-113043166D01*
X149132273Y-113043166D01*
X149034620Y-113059946D01*
X148937910Y-113076564D01*
X148747463Y-113146824D01*
X148573010Y-113250612D01*
X148568670Y-113254418D01*
X148568666Y-113254421D01*
X148548723Y-113271911D01*
X148420392Y-113384455D01*
X148294720Y-113543869D01*
X148292031Y-113548980D01*
X148292029Y-113548983D01*
X148280507Y-113570883D01*
X148200203Y-113723515D01*
X148140007Y-113917378D01*
X148116148Y-114118964D01*
X148129424Y-114321522D01*
X148130845Y-114327118D01*
X148130846Y-114327123D01*
X148149863Y-114402000D01*
X148179392Y-114518269D01*
X148181809Y-114523512D01*
X148219010Y-114604208D01*
X148264377Y-114702616D01*
X148381533Y-114868389D01*
X148385675Y-114872424D01*
X148479395Y-114963721D01*
X148514233Y-115025582D01*
X148510096Y-115096458D01*
X148468297Y-115153846D01*
X148402108Y-115179525D01*
X148391480Y-115179975D01*
X147956609Y-115179975D01*
X147520150Y-115179974D01*
X147452029Y-115159972D01*
X147405536Y-115106316D01*
X147395433Y-115036042D01*
X147424926Y-114971461D01*
X147439579Y-114957101D01*
X147469345Y-114932345D01*
X147558752Y-114824846D01*
X147595453Y-114780718D01*
X147595455Y-114780715D01*
X147599147Y-114776276D01*
X147698334Y-114599165D01*
X147700190Y-114593698D01*
X147700192Y-114593693D01*
X147761728Y-114412414D01*
X147761729Y-114412409D01*
X147763584Y-114406945D01*
X147764412Y-114401236D01*
X147764413Y-114401231D01*
X147792179Y-114209727D01*
X147792712Y-114206053D01*
X147794232Y-114148000D01*
X147775658Y-113945859D01*
X147774090Y-113940299D01*
X147722125Y-113756046D01*
X147722124Y-113756044D01*
X147720557Y-113750487D01*
X147709978Y-113729033D01*
X147633331Y-113573609D01*
X147630776Y-113568428D01*
X147509320Y-113405779D01*
X147360258Y-113267987D01*
X147355375Y-113264906D01*
X147355371Y-113264903D01*
X147193464Y-113162748D01*
X147188581Y-113159667D01*
X147183217Y-113157527D01*
X147095009Y-113122335D01*
X147039150Y-113078514D01*
X147015700Y-113005305D01*
X147015700Y-112330171D01*
X147035702Y-112262050D01*
X147052605Y-112241075D01*
X147420077Y-111873604D01*
X147482389Y-111839579D01*
X147509172Y-111836700D01*
X152380051Y-111836700D01*
X152391032Y-111837179D01*
X152418291Y-111839564D01*
X152418292Y-111839564D01*
X152429267Y-111840524D01*
X152466339Y-111830591D01*
X152477053Y-111828216D01*
X152492900Y-111825422D01*
X152503997Y-111823465D01*
X152503998Y-111823465D01*
X152514851Y-111821551D01*
X152524396Y-111816040D01*
X152527889Y-111814769D01*
X152531267Y-111813194D01*
X152541916Y-111810340D01*
X152550947Y-111804016D01*
X152550950Y-111804015D01*
X152573355Y-111788327D01*
X152582624Y-111782422D01*
X152584017Y-111781618D01*
X152615849Y-111763239D01*
X152622933Y-111754796D01*
X152622936Y-111754794D01*
X152640522Y-111733836D01*
X152647948Y-111725732D01*
X152945905Y-111427775D01*
X153008217Y-111393749D01*
X153079032Y-111398814D01*
G37*
G04 #@! TD.AperFunction*
M02*
