G04 #@! TF.GenerationSoftware,KiCad,Pcbnew,(6.0.0-0)*
G04 #@! TF.CreationDate,2023-02-04T16:45:17-08:00*
G04 #@! TF.ProjectId,breakout,62726561-6b6f-4757-942e-6b696361645f,0.0.0*
G04 #@! TF.SameCoordinates,Original*
G04 #@! TF.FileFunction,Copper,L1,Top*
G04 #@! TF.FilePolarity,Positive*
%FSLAX46Y46*%
G04 Gerber Fmt 4.6, Leading zero omitted, Abs format (unit mm)*
G04 Created by KiCad (PCBNEW (6.0.0-0)) date 2023-02-04 16:45:17*
%MOMM*%
%LPD*%
G01*
G04 APERTURE LIST*
G04 Aperture macros list*
%AMRoundRect*
0 Rectangle with rounded corners*
0 $1 Rounding radius*
0 $2 $3 $4 $5 $6 $7 $8 $9 X,Y pos of 4 corners*
0 Add a 4 corners polygon primitive as box body*
4,1,4,$2,$3,$4,$5,$6,$7,$8,$9,$2,$3,0*
0 Add four circle primitives for the rounded corners*
1,1,$1+$1,$2,$3*
1,1,$1+$1,$4,$5*
1,1,$1+$1,$6,$7*
1,1,$1+$1,$8,$9*
0 Add four rect primitives between the rounded corners*
20,1,$1+$1,$2,$3,$4,$5,0*
20,1,$1+$1,$4,$5,$6,$7,0*
20,1,$1+$1,$6,$7,$8,$9,0*
20,1,$1+$1,$8,$9,$2,$3,0*%
G04 Aperture macros list end*
G04 #@! TA.AperFunction,ComponentPad*
%ADD10C,1.700000*%
G04 #@! TD*
G04 #@! TA.AperFunction,ComponentPad*
%ADD11R,1.700000X1.700000*%
G04 #@! TD*
G04 #@! TA.AperFunction,ComponentPad*
%ADD12O,1.700000X1.700000*%
G04 #@! TD*
G04 #@! TA.AperFunction,SMDPad,CuDef*
%ADD13RoundRect,0.243750X0.456250X-0.243750X0.456250X0.243750X-0.456250X0.243750X-0.456250X-0.243750X0*%
G04 #@! TD*
G04 #@! TA.AperFunction,SMDPad,CuDef*
%ADD14RoundRect,0.250000X-0.250000X-0.475000X0.250000X-0.475000X0.250000X0.475000X-0.250000X0.475000X0*%
G04 #@! TD*
G04 #@! TA.AperFunction,SMDPad,CuDef*
%ADD15RoundRect,0.250000X0.250000X0.475000X-0.250000X0.475000X-0.250000X-0.475000X0.250000X-0.475000X0*%
G04 #@! TD*
G04 #@! TA.AperFunction,SMDPad,CuDef*
%ADD16RoundRect,0.100000X-0.637500X-0.100000X0.637500X-0.100000X0.637500X0.100000X-0.637500X0.100000X0*%
G04 #@! TD*
G04 #@! TA.AperFunction,SMDPad,CuDef*
%ADD17RoundRect,0.250000X-0.262500X-0.450000X0.262500X-0.450000X0.262500X0.450000X-0.262500X0.450000X0*%
G04 #@! TD*
G04 #@! TA.AperFunction,ViaPad*
%ADD18C,0.685800*%
G04 #@! TD*
G04 #@! TA.AperFunction,Conductor*
%ADD19C,0.152400*%
G04 #@! TD*
G04 APERTURE END LIST*
D10*
X139065000Y-114148000D03*
D11*
X141605000Y-114148000D03*
D12*
X144145000Y-114148000D03*
X146685000Y-114148000D03*
X149225000Y-114148000D03*
X151765000Y-114148000D03*
X154305000Y-114148000D03*
X156845000Y-114148000D03*
D10*
X141635000Y-98908000D03*
D12*
X144175000Y-98908000D03*
X146715000Y-98908000D03*
X149255000Y-98908000D03*
X151795000Y-98908000D03*
D11*
X154335000Y-98908000D03*
D13*
X138684000Y-107188000D03*
X138684000Y-105313000D03*
D14*
X155514000Y-101854000D03*
X157414000Y-101854000D03*
D15*
X140655000Y-101854000D03*
X142555000Y-101854000D03*
D14*
X142555000Y-111125000D03*
X140655000Y-111125000D03*
D16*
X145473500Y-103460000D03*
X145473500Y-104110000D03*
X145473500Y-104760000D03*
X145473500Y-105410000D03*
X145473500Y-106060000D03*
X145473500Y-106710000D03*
X145473500Y-107360000D03*
X151198500Y-107360000D03*
X151198500Y-106710000D03*
X151198500Y-106060000D03*
X151198500Y-105410000D03*
X151198500Y-104760000D03*
X151198500Y-104110000D03*
X151198500Y-103460000D03*
D17*
X142497500Y-107061000D03*
X140672500Y-107061000D03*
D15*
X140655000Y-103886000D03*
X142555000Y-103886000D03*
D14*
X145100000Y-109474000D03*
X147000000Y-109474000D03*
X142555000Y-109093000D03*
X140655000Y-109093000D03*
X155514000Y-103886000D03*
X157414000Y-103886000D03*
D18*
X145542000Y-102108000D03*
X148082000Y-100076000D03*
X145542000Y-100076000D03*
X143002000Y-100076000D03*
X145542000Y-112522000D03*
X148082000Y-112522000D03*
X151130000Y-108966000D03*
X139065000Y-110109000D03*
X153162000Y-112522000D03*
X155702000Y-112522000D03*
X150622000Y-112522000D03*
X153162000Y-104140000D03*
X147320000Y-103378000D03*
X144018000Y-102108000D03*
X158242000Y-112522000D03*
X158242000Y-100076000D03*
X137668000Y-100076000D03*
X137668000Y-112522000D03*
D19*
X140655000Y-110048000D02*
X140655000Y-109093000D01*
X139126000Y-110048000D02*
X139065000Y-110109000D01*
X140655000Y-111125000D02*
X140655000Y-110048000D01*
X140655000Y-110048000D02*
X139126000Y-110048000D01*
X145473500Y-106710000D02*
X144556000Y-106710000D01*
X144556000Y-106710000D02*
X144272000Y-106426000D01*
X144272000Y-104316374D02*
X143841626Y-103886000D01*
X144272000Y-106426000D02*
X144272000Y-104316374D01*
X143841626Y-103886000D02*
X142555000Y-103886000D01*
X155514000Y-101854000D02*
X154752000Y-101092000D01*
X151795000Y-100487000D02*
X152400000Y-101092000D01*
X154752000Y-101092000D02*
X152400000Y-101092000D01*
X151795000Y-98908000D02*
X151795000Y-100487000D01*
X153528000Y-104760000D02*
X151198500Y-104760000D01*
X153416000Y-111506000D02*
X154000680Y-110921320D01*
X151765000Y-112141000D02*
X152400000Y-111506000D01*
X154000680Y-110921320D02*
X154000680Y-105232680D01*
X151765000Y-114148000D02*
X151765000Y-112141000D01*
X154000680Y-105232680D02*
X153528000Y-104760000D01*
X152400000Y-111506000D02*
X153416000Y-111506000D01*
X151198500Y-105410000D02*
X150445626Y-105410000D01*
X150445626Y-105410000D02*
X148920680Y-106934946D01*
X148920680Y-106934946D02*
X148920680Y-110921320D01*
X148336000Y-111506000D02*
X144780000Y-111506000D01*
X144145000Y-112141000D02*
X144145000Y-114148000D01*
X144780000Y-111506000D02*
X144145000Y-112141000D01*
X148920680Y-110921320D02*
X148336000Y-111506000D01*
X145473500Y-103460000D02*
X147238000Y-103460000D01*
X147238000Y-103460000D02*
X147320000Y-103378000D01*
X144496000Y-104110000D02*
X144018000Y-103632000D01*
X145473500Y-104110000D02*
X144496000Y-104110000D01*
X144018000Y-103632000D02*
X144018000Y-102108000D01*
X145473500Y-107360000D02*
X145473500Y-109100500D01*
X145473500Y-109100500D02*
X145100000Y-109474000D01*
X151198500Y-107360000D02*
X151198500Y-108897500D01*
X151198500Y-108897500D02*
X151130000Y-108966000D01*
X155514000Y-103886000D02*
X155514000Y-101854000D01*
X151198500Y-103460000D02*
X153752000Y-103460000D01*
X153752000Y-103460000D02*
X154305000Y-104013000D01*
X154305000Y-104013000D02*
X154305000Y-114148000D01*
X151198500Y-104110000D02*
X153132000Y-104110000D01*
X153132000Y-104110000D02*
X153162000Y-104140000D01*
X149225000Y-107061000D02*
X149225000Y-114148000D01*
X151198500Y-106060000D02*
X150226000Y-106060000D01*
X150226000Y-106060000D02*
X149225000Y-107061000D01*
X145473500Y-104760000D02*
X146416000Y-104760000D01*
X146416000Y-104760000D02*
X146761680Y-105105680D01*
X148386320Y-105105680D02*
X148646360Y-104845640D01*
X148646360Y-101578734D02*
X148209946Y-101142320D01*
X146761680Y-105105680D02*
X148386320Y-105105680D01*
X144175000Y-100741000D02*
X144175000Y-98908000D01*
X148646360Y-104845640D02*
X148646360Y-101578734D01*
X144576320Y-101142320D02*
X144175000Y-100741000D01*
X148209946Y-101142320D02*
X144576320Y-101142320D01*
X146761680Y-105714320D02*
X148751147Y-105714320D01*
X145473500Y-106060000D02*
X146416000Y-106060000D01*
X146416000Y-106060000D02*
X146761680Y-105714320D01*
X148751147Y-105714320D02*
X149255000Y-105210467D01*
X149255000Y-105210467D02*
X149255000Y-98908000D01*
X145473500Y-105410000D02*
X148625093Y-105410000D01*
X148625093Y-105410000D02*
X148950680Y-105084413D01*
X148950680Y-105084413D02*
X148950680Y-101452680D01*
X148950680Y-101452680D02*
X148336000Y-100838000D01*
X148336000Y-100838000D02*
X147320000Y-100838000D01*
X147320000Y-100838000D02*
X146715000Y-100233000D01*
X146715000Y-100233000D02*
X146715000Y-98908000D01*
X142497500Y-107061000D02*
X142497500Y-105667500D01*
X142497500Y-105667500D02*
X142143000Y-105313000D01*
X142143000Y-105313000D02*
X138684000Y-105313000D01*
X140655000Y-109093000D02*
X140672500Y-109075500D01*
X140672500Y-109075500D02*
X140672500Y-107061000D01*
X142555000Y-101854000D02*
X142555000Y-101407000D01*
X142555000Y-101407000D02*
X141635000Y-100487000D01*
X141635000Y-100487000D02*
X141635000Y-98908000D01*
X142555000Y-103886000D02*
X142555000Y-101854000D01*
G04 #@! TA.AperFunction,Conductor*
G36*
X153406951Y-105110702D02*
G01*
X153427925Y-105127605D01*
X153633075Y-105332755D01*
X153667101Y-105395067D01*
X153669980Y-105421850D01*
X153669980Y-110732150D01*
X153649978Y-110800271D01*
X153633075Y-110821245D01*
X153315925Y-111138395D01*
X153253613Y-111172421D01*
X153226830Y-111175300D01*
X152419949Y-111175300D01*
X152408968Y-111174821D01*
X152381709Y-111172436D01*
X152381708Y-111172436D01*
X152370733Y-111171476D01*
X152333661Y-111181409D01*
X152322947Y-111183784D01*
X152307100Y-111186578D01*
X152296003Y-111188535D01*
X152296002Y-111188535D01*
X152285149Y-111190449D01*
X152275604Y-111195960D01*
X152272111Y-111197231D01*
X152268733Y-111198806D01*
X152258084Y-111201660D01*
X152249053Y-111207984D01*
X152249050Y-111207985D01*
X152226645Y-111223673D01*
X152217375Y-111229579D01*
X152184151Y-111248761D01*
X152177068Y-111257202D01*
X152177067Y-111257203D01*
X152159488Y-111278153D01*
X152152063Y-111286256D01*
X151545263Y-111893057D01*
X151537159Y-111900483D01*
X151507761Y-111925151D01*
X151491553Y-111953224D01*
X151488578Y-111958376D01*
X151482673Y-111967645D01*
X151466985Y-111990050D01*
X151466984Y-111990053D01*
X151460660Y-111999084D01*
X151457806Y-112009733D01*
X151456231Y-112013111D01*
X151454960Y-112016604D01*
X151449449Y-112026149D01*
X151447535Y-112037002D01*
X151447535Y-112037003D01*
X151442785Y-112063943D01*
X151440409Y-112074661D01*
X151430476Y-112111733D01*
X151431436Y-112122708D01*
X151431436Y-112122709D01*
X151433821Y-112149968D01*
X151434300Y-112160949D01*
X151434300Y-113004836D01*
X151414298Y-113072957D01*
X151360642Y-113119450D01*
X151351914Y-113123047D01*
X151287463Y-113146824D01*
X151113010Y-113250612D01*
X151108670Y-113254418D01*
X151108666Y-113254421D01*
X151088723Y-113271911D01*
X150960392Y-113384455D01*
X150834720Y-113543869D01*
X150832031Y-113548980D01*
X150832029Y-113548983D01*
X150820507Y-113570883D01*
X150740203Y-113723515D01*
X150680007Y-113917378D01*
X150656148Y-114118964D01*
X150669424Y-114321522D01*
X150670845Y-114327118D01*
X150670846Y-114327123D01*
X150689863Y-114402000D01*
X150719392Y-114518269D01*
X150721809Y-114523512D01*
X150759010Y-114604208D01*
X150804377Y-114702616D01*
X150921533Y-114868389D01*
X150925675Y-114872424D01*
X151019395Y-114963721D01*
X151054233Y-115025582D01*
X151050096Y-115096458D01*
X151008297Y-115153846D01*
X150942108Y-115179525D01*
X150931474Y-115179975D01*
X150060149Y-115179975D01*
X149992028Y-115159973D01*
X149945535Y-115106317D01*
X149935431Y-115036043D01*
X149964925Y-114971463D01*
X149979580Y-114957101D01*
X150004908Y-114936036D01*
X150004914Y-114936030D01*
X150009345Y-114932345D01*
X150098752Y-114824846D01*
X150135453Y-114780718D01*
X150135455Y-114780715D01*
X150139147Y-114776276D01*
X150238334Y-114599165D01*
X150240190Y-114593698D01*
X150240192Y-114593693D01*
X150301728Y-114412414D01*
X150301729Y-114412409D01*
X150303584Y-114406945D01*
X150304412Y-114401236D01*
X150304413Y-114401231D01*
X150332179Y-114209727D01*
X150332712Y-114206053D01*
X150334232Y-114148000D01*
X150315658Y-113945859D01*
X150314090Y-113940299D01*
X150262125Y-113756046D01*
X150262124Y-113756044D01*
X150260557Y-113750487D01*
X150249978Y-113729033D01*
X150173331Y-113573609D01*
X150170776Y-113568428D01*
X150049320Y-113405779D01*
X149900258Y-113267987D01*
X149895375Y-113264906D01*
X149895371Y-113264903D01*
X149733464Y-113162748D01*
X149728581Y-113159667D01*
X149723217Y-113157527D01*
X149635009Y-113122335D01*
X149579150Y-113078514D01*
X149555700Y-113005305D01*
X149555700Y-107250171D01*
X149575702Y-107182050D01*
X149592605Y-107161076D01*
X149781508Y-106972173D01*
X149843820Y-106938147D01*
X149914635Y-106943212D01*
X149971471Y-106985759D01*
X149987012Y-107013050D01*
X150026753Y-107108993D01*
X150034941Y-107123176D01*
X150122344Y-107237080D01*
X150133917Y-107248653D01*
X150157205Y-107266523D01*
X150199072Y-107323862D01*
X150206500Y-107366485D01*
X150206500Y-107493602D01*
X150207170Y-107498152D01*
X150207170Y-107498155D01*
X150215331Y-107553592D01*
X150216757Y-107563278D01*
X150221073Y-107572068D01*
X150263926Y-107659349D01*
X150268770Y-107669216D01*
X150352294Y-107752595D01*
X150361650Y-107757168D01*
X150361651Y-107757169D01*
X150373470Y-107762946D01*
X150458323Y-107804423D01*
X150488645Y-107808847D01*
X150522872Y-107813840D01*
X150522876Y-107813840D01*
X150527398Y-107814500D01*
X150741800Y-107814500D01*
X150809921Y-107834502D01*
X150856414Y-107888158D01*
X150867800Y-107940500D01*
X150867800Y-108352050D01*
X150847798Y-108420171D01*
X150818504Y-108452013D01*
X150710475Y-108534906D01*
X150703929Y-108539929D01*
X150608172Y-108664723D01*
X150547977Y-108810047D01*
X150527445Y-108966000D01*
X150547977Y-109121953D01*
X150608172Y-109267277D01*
X150703929Y-109392071D01*
X150828722Y-109487828D01*
X150974047Y-109548023D01*
X151130000Y-109568555D01*
X151285953Y-109548023D01*
X151431278Y-109487828D01*
X151556071Y-109392071D01*
X151651828Y-109267277D01*
X151712023Y-109121953D01*
X151732555Y-108966000D01*
X151712023Y-108810047D01*
X151651828Y-108664723D01*
X151556071Y-108539929D01*
X151558695Y-108537916D01*
X151532079Y-108489174D01*
X151529200Y-108462391D01*
X151529200Y-107940500D01*
X151549202Y-107872379D01*
X151602858Y-107825886D01*
X151655200Y-107814500D01*
X151869602Y-107814500D01*
X151874152Y-107813830D01*
X151874155Y-107813830D01*
X151929592Y-107805669D01*
X151929593Y-107805669D01*
X151939278Y-107804243D01*
X152021588Y-107763831D01*
X152035868Y-107756820D01*
X152035870Y-107756819D01*
X152045216Y-107752230D01*
X152128595Y-107668706D01*
X152180423Y-107562677D01*
X152190500Y-107493602D01*
X152190500Y-107366485D01*
X152210502Y-107298364D01*
X152239795Y-107266523D01*
X152263083Y-107248653D01*
X152274656Y-107237080D01*
X152362059Y-107123176D01*
X152370247Y-107108993D01*
X152425189Y-106976351D01*
X152429428Y-106960531D01*
X152433716Y-106927960D01*
X152431505Y-106913778D01*
X152418348Y-106910000D01*
X151909589Y-106910000D01*
X151891400Y-106908680D01*
X151874128Y-106906160D01*
X151874124Y-106906160D01*
X151869602Y-106905500D01*
X151124500Y-106905500D01*
X151056379Y-106885498D01*
X151009886Y-106831842D01*
X150998500Y-106779500D01*
X150998500Y-106640500D01*
X151018502Y-106572379D01*
X151072158Y-106525886D01*
X151124500Y-106514500D01*
X151869602Y-106514500D01*
X151874151Y-106513830D01*
X151874156Y-106513830D01*
X151891048Y-106511343D01*
X151909398Y-106510000D01*
X152417965Y-106510000D01*
X152431736Y-106505956D01*
X152433765Y-106492417D01*
X152429428Y-106459467D01*
X152425190Y-106443652D01*
X152370247Y-106311007D01*
X152362059Y-106296824D01*
X152274656Y-106182920D01*
X152263083Y-106171347D01*
X152239795Y-106153477D01*
X152197928Y-106096138D01*
X152190500Y-106053515D01*
X152190500Y-105926398D01*
X152180243Y-105856722D01*
X152155176Y-105805666D01*
X152147760Y-105790560D01*
X152135692Y-105720597D01*
X152147663Y-105679697D01*
X152165109Y-105644006D01*
X152180423Y-105612677D01*
X152190500Y-105543602D01*
X152190500Y-105276398D01*
X152189830Y-105271847D01*
X152189829Y-105271833D01*
X152184414Y-105235052D01*
X152194281Y-105164744D01*
X152240593Y-105110932D01*
X152309070Y-105090700D01*
X153338830Y-105090700D01*
X153406951Y-105110702D01*
G37*
G04 #@! TD.AperFunction*
G04 #@! TA.AperFunction,Conductor*
G36*
X153892332Y-111601514D02*
G01*
X153949168Y-111644061D01*
X153973979Y-111710581D01*
X153974300Y-111719570D01*
X153974300Y-113004836D01*
X153954298Y-113072957D01*
X153900642Y-113119450D01*
X153891914Y-113123047D01*
X153827463Y-113146824D01*
X153653010Y-113250612D01*
X153648670Y-113254418D01*
X153648666Y-113254421D01*
X153628723Y-113271911D01*
X153500392Y-113384455D01*
X153374720Y-113543869D01*
X153372031Y-113548980D01*
X153372029Y-113548983D01*
X153360507Y-113570883D01*
X153280203Y-113723515D01*
X153220007Y-113917378D01*
X153196148Y-114118964D01*
X153209424Y-114321522D01*
X153210845Y-114327118D01*
X153210846Y-114327123D01*
X153229863Y-114402000D01*
X153259392Y-114518269D01*
X153261809Y-114523512D01*
X153299010Y-114604208D01*
X153344377Y-114702616D01*
X153461533Y-114868389D01*
X153465675Y-114872424D01*
X153559395Y-114963721D01*
X153594233Y-115025582D01*
X153590096Y-115096458D01*
X153548297Y-115153846D01*
X153482108Y-115179525D01*
X153471474Y-115179975D01*
X152600149Y-115179975D01*
X152532028Y-115159973D01*
X152485535Y-115106317D01*
X152475431Y-115036043D01*
X152504925Y-114971463D01*
X152519580Y-114957101D01*
X152544908Y-114936036D01*
X152544914Y-114936030D01*
X152549345Y-114932345D01*
X152638752Y-114824846D01*
X152675453Y-114780718D01*
X152675455Y-114780715D01*
X152679147Y-114776276D01*
X152778334Y-114599165D01*
X152780190Y-114593698D01*
X152780192Y-114593693D01*
X152841728Y-114412414D01*
X152841729Y-114412409D01*
X152843584Y-114406945D01*
X152844412Y-114401236D01*
X152844413Y-114401231D01*
X152872179Y-114209727D01*
X152872712Y-114206053D01*
X152874232Y-114148000D01*
X152855658Y-113945859D01*
X152854090Y-113940299D01*
X152802125Y-113756046D01*
X152802124Y-113756044D01*
X152800557Y-113750487D01*
X152789978Y-113729033D01*
X152713331Y-113573609D01*
X152710776Y-113568428D01*
X152589320Y-113405779D01*
X152440258Y-113267987D01*
X152435375Y-113264906D01*
X152435371Y-113264903D01*
X152273464Y-113162748D01*
X152268581Y-113159667D01*
X152263217Y-113157527D01*
X152175009Y-113122335D01*
X152119150Y-113078514D01*
X152095700Y-113005305D01*
X152095700Y-112330171D01*
X152115702Y-112262050D01*
X152132605Y-112241075D01*
X152500077Y-111873604D01*
X152562389Y-111839579D01*
X152589172Y-111836700D01*
X153396051Y-111836700D01*
X153407032Y-111837179D01*
X153434291Y-111839564D01*
X153434292Y-111839564D01*
X153445267Y-111840524D01*
X153482339Y-111830591D01*
X153493053Y-111828216D01*
X153508900Y-111825422D01*
X153519997Y-111823465D01*
X153519998Y-111823465D01*
X153530851Y-111821551D01*
X153540396Y-111816040D01*
X153543889Y-111814769D01*
X153547267Y-111813194D01*
X153557916Y-111810340D01*
X153566947Y-111804016D01*
X153566950Y-111804015D01*
X153589355Y-111788327D01*
X153598624Y-111782422D01*
X153604587Y-111778979D01*
X153631849Y-111763239D01*
X153638933Y-111754796D01*
X153638936Y-111754794D01*
X153656522Y-111733836D01*
X153663948Y-111725732D01*
X153759205Y-111630475D01*
X153821517Y-111596449D01*
X153892332Y-111601514D01*
G37*
G04 #@! TD.AperFunction*
G04 #@! TA.AperFunction,Conductor*
G36*
X158093128Y-97928447D02*
G01*
X158105975Y-97931002D01*
X158118147Y-97928581D01*
X158129674Y-97928581D01*
X158140656Y-97929060D01*
X158271424Y-97940501D01*
X158293045Y-97944313D01*
X158442823Y-97984446D01*
X158463459Y-97991957D01*
X158603985Y-98057486D01*
X158623005Y-98068468D01*
X158750021Y-98157405D01*
X158766846Y-98171523D01*
X158876478Y-98281155D01*
X158890596Y-98297980D01*
X158979533Y-98424996D01*
X158990515Y-98444016D01*
X159056044Y-98584542D01*
X159063555Y-98605178D01*
X159103688Y-98754956D01*
X159107501Y-98776580D01*
X159118941Y-98907346D01*
X159119420Y-98918327D01*
X159119420Y-98929854D01*
X159116999Y-98942026D01*
X159119420Y-98954196D01*
X159119554Y-98954870D01*
X159121975Y-98979451D01*
X159121974Y-114126550D01*
X159119553Y-114151128D01*
X159116998Y-114163975D01*
X159119419Y-114176147D01*
X159119419Y-114187674D01*
X159118940Y-114198654D01*
X159108696Y-114315755D01*
X159107500Y-114329421D01*
X159103687Y-114351045D01*
X159063555Y-114500820D01*
X159063555Y-114500821D01*
X159056043Y-114521459D01*
X158990514Y-114661985D01*
X158979532Y-114681005D01*
X158890595Y-114808021D01*
X158876477Y-114824846D01*
X158766845Y-114934478D01*
X158750020Y-114948596D01*
X158623004Y-115037533D01*
X158603984Y-115048515D01*
X158463458Y-115114044D01*
X158442822Y-115121555D01*
X158293044Y-115161688D01*
X158271423Y-115165500D01*
X158162852Y-115174999D01*
X158140654Y-115176941D01*
X158129673Y-115177420D01*
X158118146Y-115177420D01*
X158105974Y-115174999D01*
X158093127Y-115177554D01*
X158068549Y-115179975D01*
X157680149Y-115179975D01*
X157612028Y-115159973D01*
X157565535Y-115106317D01*
X157555431Y-115036043D01*
X157584925Y-114971463D01*
X157599580Y-114957101D01*
X157624908Y-114936036D01*
X157624914Y-114936030D01*
X157629345Y-114932345D01*
X157718752Y-114824846D01*
X157755453Y-114780718D01*
X157755455Y-114780715D01*
X157759147Y-114776276D01*
X157858334Y-114599165D01*
X157860190Y-114593698D01*
X157860192Y-114593693D01*
X157921728Y-114412414D01*
X157921729Y-114412409D01*
X157923584Y-114406945D01*
X157924412Y-114401236D01*
X157924413Y-114401231D01*
X157952179Y-114209727D01*
X157952712Y-114206053D01*
X157954232Y-114148000D01*
X157935658Y-113945859D01*
X157934090Y-113940299D01*
X157882125Y-113756046D01*
X157882124Y-113756044D01*
X157880557Y-113750487D01*
X157869978Y-113729033D01*
X157793331Y-113573609D01*
X157790776Y-113568428D01*
X157669320Y-113405779D01*
X157520258Y-113267987D01*
X157515375Y-113264906D01*
X157515371Y-113264903D01*
X157353464Y-113162748D01*
X157348581Y-113159667D01*
X157160039Y-113084446D01*
X157154379Y-113083320D01*
X157154375Y-113083319D01*
X156966613Y-113045971D01*
X156966610Y-113045971D01*
X156960946Y-113044844D01*
X156955171Y-113044768D01*
X156955167Y-113044768D01*
X156853793Y-113043441D01*
X156757971Y-113042187D01*
X156752274Y-113043166D01*
X156752273Y-113043166D01*
X156654620Y-113059946D01*
X156557910Y-113076564D01*
X156367463Y-113146824D01*
X156193010Y-113250612D01*
X156188670Y-113254418D01*
X156188666Y-113254421D01*
X156168723Y-113271911D01*
X156040392Y-113384455D01*
X155914720Y-113543869D01*
X155912031Y-113548980D01*
X155912029Y-113548983D01*
X155900507Y-113570883D01*
X155820203Y-113723515D01*
X155760007Y-113917378D01*
X155736148Y-114118964D01*
X155749424Y-114321522D01*
X155750845Y-114327118D01*
X155750846Y-114327123D01*
X155769863Y-114402000D01*
X155799392Y-114518269D01*
X155801809Y-114523512D01*
X155839010Y-114604208D01*
X155884377Y-114702616D01*
X156001533Y-114868389D01*
X156005675Y-114872424D01*
X156099395Y-114963721D01*
X156134233Y-115025582D01*
X156130096Y-115096458D01*
X156088297Y-115153846D01*
X156022108Y-115179525D01*
X156011474Y-115179975D01*
X155140149Y-115179975D01*
X155072028Y-115159973D01*
X155025535Y-115106317D01*
X155015431Y-115036043D01*
X155044925Y-114971463D01*
X155059580Y-114957101D01*
X155084908Y-114936036D01*
X155084914Y-114936030D01*
X155089345Y-114932345D01*
X155178752Y-114824846D01*
X155215453Y-114780718D01*
X155215455Y-114780715D01*
X155219147Y-114776276D01*
X155318334Y-114599165D01*
X155320190Y-114593698D01*
X155320192Y-114593693D01*
X155381728Y-114412414D01*
X155381729Y-114412409D01*
X155383584Y-114406945D01*
X155384412Y-114401236D01*
X155384413Y-114401231D01*
X155412179Y-114209727D01*
X155412712Y-114206053D01*
X155414232Y-114148000D01*
X155395658Y-113945859D01*
X155394090Y-113940299D01*
X155342125Y-113756046D01*
X155342124Y-113756044D01*
X155340557Y-113750487D01*
X155329978Y-113729033D01*
X155253331Y-113573609D01*
X155250776Y-113568428D01*
X155129320Y-113405779D01*
X154980258Y-113267987D01*
X154975375Y-113264906D01*
X154975371Y-113264903D01*
X154813464Y-113162748D01*
X154808581Y-113159667D01*
X154803217Y-113157527D01*
X154715009Y-113122335D01*
X154659150Y-113078514D01*
X154635700Y-113005305D01*
X154635700Y-104742169D01*
X154655702Y-104674048D01*
X154709358Y-104627555D01*
X154779632Y-104617451D01*
X154844212Y-104646945D01*
X154862525Y-104666603D01*
X154903596Y-104721404D01*
X154910776Y-104726785D01*
X155012054Y-104802689D01*
X155012057Y-104802691D01*
X155019236Y-104808071D01*
X155093540Y-104835926D01*
X155147157Y-104856026D01*
X155147159Y-104856026D01*
X155154552Y-104858798D01*
X155162402Y-104859651D01*
X155162403Y-104859651D01*
X155212847Y-104865131D01*
X155216244Y-104865500D01*
X155811756Y-104865500D01*
X155815153Y-104865131D01*
X155865597Y-104859651D01*
X155865598Y-104859651D01*
X155873448Y-104858798D01*
X155880841Y-104856026D01*
X155880843Y-104856026D01*
X155934460Y-104835926D01*
X156008764Y-104808071D01*
X156015943Y-104802691D01*
X156015946Y-104802689D01*
X156117224Y-104726785D01*
X156124404Y-104721404D01*
X156211071Y-104605764D01*
X156214223Y-104597355D01*
X156218181Y-104590126D01*
X156268438Y-104539979D01*
X156337829Y-104524964D01*
X156404322Y-104549848D01*
X156448226Y-104610757D01*
X156470588Y-104677784D01*
X156476761Y-104690962D01*
X156562063Y-104828807D01*
X156571099Y-104840208D01*
X156685829Y-104954739D01*
X156697240Y-104963751D01*
X156835243Y-105048816D01*
X156848424Y-105054963D01*
X157002710Y-105106138D01*
X157016086Y-105109005D01*
X157110438Y-105118672D01*
X157116854Y-105119000D01*
X157141885Y-105119000D01*
X157157124Y-105114525D01*
X157158329Y-105113135D01*
X157160000Y-105105452D01*
X157160000Y-105100884D01*
X157668000Y-105100884D01*
X157672475Y-105116123D01*
X157673865Y-105117328D01*
X157681548Y-105118999D01*
X157711095Y-105118999D01*
X157717614Y-105118662D01*
X157813206Y-105108743D01*
X157826600Y-105105851D01*
X157980784Y-105054412D01*
X157993962Y-105048239D01*
X158131807Y-104962937D01*
X158143208Y-104953901D01*
X158257739Y-104839171D01*
X158266751Y-104827760D01*
X158351816Y-104689757D01*
X158357963Y-104676576D01*
X158409138Y-104522290D01*
X158412005Y-104508914D01*
X158421672Y-104414562D01*
X158422000Y-104408146D01*
X158422000Y-104158115D01*
X158417525Y-104142876D01*
X158416135Y-104141671D01*
X158408452Y-104140000D01*
X157686115Y-104140000D01*
X157670876Y-104144475D01*
X157669671Y-104145865D01*
X157668000Y-104153548D01*
X157668000Y-105100884D01*
X157160000Y-105100884D01*
X157160000Y-103613885D01*
X157668000Y-103613885D01*
X157672475Y-103629124D01*
X157673865Y-103630329D01*
X157681548Y-103632000D01*
X158403884Y-103632000D01*
X158419123Y-103627525D01*
X158420328Y-103626135D01*
X158421999Y-103618452D01*
X158421999Y-103363905D01*
X158421662Y-103357386D01*
X158411743Y-103261794D01*
X158408851Y-103248400D01*
X158357412Y-103094216D01*
X158351239Y-103081038D01*
X158262083Y-102936965D01*
X158264714Y-102935337D01*
X158243304Y-102882418D01*
X158256485Y-102812656D01*
X158263208Y-102802175D01*
X158262910Y-102801991D01*
X158351816Y-102657757D01*
X158357963Y-102644576D01*
X158409138Y-102490290D01*
X158412005Y-102476914D01*
X158421672Y-102382562D01*
X158422000Y-102376146D01*
X158422000Y-102126115D01*
X158417525Y-102110876D01*
X158416135Y-102109671D01*
X158408452Y-102108000D01*
X157686115Y-102108000D01*
X157670876Y-102112475D01*
X157669671Y-102113865D01*
X157668000Y-102121548D01*
X157668000Y-103613885D01*
X157160000Y-103613885D01*
X157160000Y-101581885D01*
X157668000Y-101581885D01*
X157672475Y-101597124D01*
X157673865Y-101598329D01*
X157681548Y-101600000D01*
X158403884Y-101600000D01*
X158419123Y-101595525D01*
X158420328Y-101594135D01*
X158421999Y-101586452D01*
X158421999Y-101331905D01*
X158421662Y-101325386D01*
X158411743Y-101229794D01*
X158408851Y-101216400D01*
X158357412Y-101062216D01*
X158351239Y-101049038D01*
X158265937Y-100911193D01*
X158256901Y-100899792D01*
X158142171Y-100785261D01*
X158130760Y-100776249D01*
X157992757Y-100691184D01*
X157979576Y-100685037D01*
X157825290Y-100633862D01*
X157811914Y-100630995D01*
X157717562Y-100621328D01*
X157711145Y-100621000D01*
X157686115Y-100621000D01*
X157670876Y-100625475D01*
X157669671Y-100626865D01*
X157668000Y-100634548D01*
X157668000Y-101581885D01*
X157160000Y-101581885D01*
X157160000Y-100639116D01*
X157155525Y-100623877D01*
X157154135Y-100622672D01*
X157146452Y-100621001D01*
X157116905Y-100621001D01*
X157110386Y-100621338D01*
X157014794Y-100631257D01*
X157001400Y-100634149D01*
X156847216Y-100685588D01*
X156834038Y-100691761D01*
X156696193Y-100777063D01*
X156684792Y-100786099D01*
X156570261Y-100900829D01*
X156561249Y-100912240D01*
X156476184Y-101050243D01*
X156470036Y-101063426D01*
X156448283Y-101129010D01*
X156407853Y-101187370D01*
X156342288Y-101214607D01*
X156272407Y-101202074D01*
X156218170Y-101149853D01*
X156214221Y-101142640D01*
X156211071Y-101134236D01*
X156124404Y-101018596D01*
X156084845Y-100988948D01*
X156015946Y-100937311D01*
X156015943Y-100937309D01*
X156008764Y-100931929D01*
X155902119Y-100891950D01*
X155880843Y-100883974D01*
X155880841Y-100883974D01*
X155873448Y-100881202D01*
X155865598Y-100880349D01*
X155865597Y-100880349D01*
X155815153Y-100874869D01*
X155815152Y-100874869D01*
X155811756Y-100874500D01*
X155216244Y-100874500D01*
X155212848Y-100874869D01*
X155212847Y-100874869D01*
X155162403Y-100880349D01*
X155162402Y-100880349D01*
X155154552Y-100881202D01*
X155147159Y-100883974D01*
X155147157Y-100883974D01*
X155125628Y-100892045D01*
X155054821Y-100897228D01*
X154992452Y-100863307D01*
X154984878Y-100855055D01*
X154974933Y-100843203D01*
X154974932Y-100843202D01*
X154967849Y-100834761D01*
X154934625Y-100815578D01*
X154925355Y-100809673D01*
X154902950Y-100793985D01*
X154902947Y-100793984D01*
X154893916Y-100787660D01*
X154883267Y-100784806D01*
X154879889Y-100783231D01*
X154876396Y-100781960D01*
X154866851Y-100776449D01*
X154855998Y-100774535D01*
X154855997Y-100774535D01*
X154844900Y-100772578D01*
X154829053Y-100769784D01*
X154818339Y-100767409D01*
X154781267Y-100757476D01*
X154770292Y-100758436D01*
X154770291Y-100758436D01*
X154743032Y-100760821D01*
X154732051Y-100761300D01*
X152589170Y-100761300D01*
X152521049Y-100741298D01*
X152500075Y-100724395D01*
X152162605Y-100386925D01*
X152128579Y-100324613D01*
X152125700Y-100297830D01*
X152125700Y-100052516D01*
X152145702Y-99984395D01*
X152199358Y-99937902D01*
X152211184Y-99933208D01*
X152246165Y-99921334D01*
X152423276Y-99822147D01*
X152438495Y-99809490D01*
X152574913Y-99696031D01*
X152579345Y-99692345D01*
X152709147Y-99536276D01*
X152711969Y-99531236D01*
X152711973Y-99531231D01*
X152741067Y-99479279D01*
X152791804Y-99429617D01*
X152861335Y-99415270D01*
X152927586Y-99440791D01*
X152969522Y-99498080D01*
X152977001Y-99540845D01*
X152977001Y-99802669D01*
X152977371Y-99809490D01*
X152982895Y-99860352D01*
X152986521Y-99875604D01*
X153031676Y-99996054D01*
X153040214Y-100011649D01*
X153116715Y-100113724D01*
X153129276Y-100126285D01*
X153231351Y-100202786D01*
X153246946Y-100211324D01*
X153367394Y-100256478D01*
X153382649Y-100260105D01*
X153433514Y-100265631D01*
X153440328Y-100266000D01*
X154062885Y-100266000D01*
X154078124Y-100261525D01*
X154079329Y-100260135D01*
X154081000Y-100252452D01*
X154081000Y-100247884D01*
X154589000Y-100247884D01*
X154593475Y-100263123D01*
X154594865Y-100264328D01*
X154602548Y-100265999D01*
X155229669Y-100265999D01*
X155236490Y-100265629D01*
X155287352Y-100260105D01*
X155302604Y-100256479D01*
X155423054Y-100211324D01*
X155438649Y-100202786D01*
X155540724Y-100126285D01*
X155553285Y-100113724D01*
X155629786Y-100011649D01*
X155638324Y-99996054D01*
X155683478Y-99875606D01*
X155687105Y-99860351D01*
X155692631Y-99809486D01*
X155693000Y-99802672D01*
X155693000Y-99180115D01*
X155688525Y-99164876D01*
X155687135Y-99163671D01*
X155679452Y-99162000D01*
X154607115Y-99162000D01*
X154591876Y-99166475D01*
X154590671Y-99167865D01*
X154589000Y-99175548D01*
X154589000Y-100247884D01*
X154081000Y-100247884D01*
X154081000Y-98780000D01*
X154101002Y-98711879D01*
X154154658Y-98665386D01*
X154207000Y-98654000D01*
X155674884Y-98654000D01*
X155690123Y-98649525D01*
X155691328Y-98648135D01*
X155692999Y-98640452D01*
X155692999Y-98052026D01*
X155713001Y-97983905D01*
X155766657Y-97937412D01*
X155818999Y-97926026D01*
X158068550Y-97926026D01*
X158093128Y-97928447D01*
G37*
G04 #@! TD.AperFunction*
G04 #@! TA.AperFunction,Conductor*
G36*
X148812332Y-111601514D02*
G01*
X148869168Y-111644061D01*
X148893979Y-111710581D01*
X148894300Y-111719570D01*
X148894300Y-113004836D01*
X148874298Y-113072957D01*
X148820642Y-113119450D01*
X148811914Y-113123047D01*
X148747463Y-113146824D01*
X148573010Y-113250612D01*
X148568670Y-113254418D01*
X148568666Y-113254421D01*
X148548723Y-113271911D01*
X148420392Y-113384455D01*
X148294720Y-113543869D01*
X148292031Y-113548980D01*
X148292029Y-113548983D01*
X148280507Y-113570883D01*
X148200203Y-113723515D01*
X148140007Y-113917378D01*
X148116148Y-114118964D01*
X148129424Y-114321522D01*
X148130845Y-114327118D01*
X148130846Y-114327123D01*
X148149863Y-114402000D01*
X148179392Y-114518269D01*
X148181809Y-114523512D01*
X148219010Y-114604208D01*
X148264377Y-114702616D01*
X148381533Y-114868389D01*
X148385675Y-114872424D01*
X148479395Y-114963721D01*
X148514233Y-115025582D01*
X148510096Y-115096458D01*
X148468297Y-115153846D01*
X148402108Y-115179525D01*
X148391480Y-115179975D01*
X147956609Y-115179975D01*
X147520150Y-115179974D01*
X147452029Y-115159972D01*
X147405536Y-115106316D01*
X147395433Y-115036042D01*
X147424926Y-114971461D01*
X147439579Y-114957101D01*
X147469345Y-114932345D01*
X147558752Y-114824846D01*
X147595453Y-114780718D01*
X147595455Y-114780715D01*
X147599147Y-114776276D01*
X147698334Y-114599165D01*
X147700190Y-114593698D01*
X147700192Y-114593693D01*
X147761728Y-114412414D01*
X147761729Y-114412409D01*
X147763584Y-114406945D01*
X147764412Y-114401236D01*
X147764413Y-114401231D01*
X147792179Y-114209727D01*
X147792712Y-114206053D01*
X147794232Y-114148000D01*
X147775658Y-113945859D01*
X147774090Y-113940299D01*
X147722125Y-113756046D01*
X147722124Y-113756044D01*
X147720557Y-113750487D01*
X147709978Y-113729033D01*
X147633331Y-113573609D01*
X147630776Y-113568428D01*
X147509320Y-113405779D01*
X147360258Y-113267987D01*
X147355375Y-113264906D01*
X147355371Y-113264903D01*
X147193464Y-113162748D01*
X147188581Y-113159667D01*
X147000039Y-113084446D01*
X146994379Y-113083320D01*
X146994375Y-113083319D01*
X146806613Y-113045971D01*
X146806610Y-113045971D01*
X146800946Y-113044844D01*
X146795171Y-113044768D01*
X146795167Y-113044768D01*
X146693793Y-113043441D01*
X146597971Y-113042187D01*
X146592274Y-113043166D01*
X146592273Y-113043166D01*
X146494620Y-113059946D01*
X146397910Y-113076564D01*
X146207463Y-113146824D01*
X146033010Y-113250612D01*
X146028670Y-113254418D01*
X146028666Y-113254421D01*
X146008723Y-113271911D01*
X145880392Y-113384455D01*
X145754720Y-113543869D01*
X145752031Y-113548980D01*
X145752029Y-113548983D01*
X145740507Y-113570883D01*
X145660203Y-113723515D01*
X145600007Y-113917378D01*
X145576148Y-114118964D01*
X145589424Y-114321522D01*
X145590845Y-114327118D01*
X145590846Y-114327123D01*
X145609863Y-114402000D01*
X145639392Y-114518269D01*
X145641809Y-114523512D01*
X145679010Y-114604208D01*
X145724377Y-114702616D01*
X145841533Y-114868389D01*
X145845675Y-114872424D01*
X145939394Y-114963720D01*
X145974232Y-115025581D01*
X145970095Y-115096457D01*
X145928296Y-115153845D01*
X145862107Y-115179524D01*
X145851473Y-115179974D01*
X144980151Y-115179974D01*
X144912030Y-115159972D01*
X144865537Y-115106316D01*
X144855433Y-115036042D01*
X144884927Y-114971462D01*
X144899581Y-114957101D01*
X144924906Y-114936038D01*
X144924914Y-114936030D01*
X144929345Y-114932345D01*
X145018752Y-114824846D01*
X145055453Y-114780718D01*
X145055455Y-114780715D01*
X145059147Y-114776276D01*
X145158334Y-114599165D01*
X145160190Y-114593698D01*
X145160192Y-114593693D01*
X145221728Y-114412414D01*
X145221729Y-114412409D01*
X145223584Y-114406945D01*
X145224412Y-114401236D01*
X145224413Y-114401231D01*
X145252179Y-114209727D01*
X145252712Y-114206053D01*
X145254232Y-114148000D01*
X145235658Y-113945859D01*
X145234090Y-113940299D01*
X145182125Y-113756046D01*
X145182124Y-113756044D01*
X145180557Y-113750487D01*
X145169978Y-113729033D01*
X145093331Y-113573609D01*
X145090776Y-113568428D01*
X144969320Y-113405779D01*
X144820258Y-113267987D01*
X144815375Y-113264906D01*
X144815371Y-113264903D01*
X144653464Y-113162748D01*
X144648581Y-113159667D01*
X144643217Y-113157527D01*
X144555009Y-113122335D01*
X144499150Y-113078514D01*
X144475700Y-113005305D01*
X144475700Y-112330171D01*
X144495702Y-112262050D01*
X144512605Y-112241075D01*
X144880077Y-111873604D01*
X144942389Y-111839579D01*
X144969172Y-111836700D01*
X148316051Y-111836700D01*
X148327032Y-111837179D01*
X148354291Y-111839564D01*
X148354292Y-111839564D01*
X148365267Y-111840524D01*
X148402339Y-111830591D01*
X148413053Y-111828216D01*
X148428900Y-111825422D01*
X148439997Y-111823465D01*
X148439998Y-111823465D01*
X148450851Y-111821551D01*
X148460396Y-111816040D01*
X148463889Y-111814769D01*
X148467267Y-111813194D01*
X148477916Y-111810340D01*
X148486947Y-111804016D01*
X148486950Y-111804015D01*
X148509355Y-111788327D01*
X148518624Y-111782422D01*
X148524587Y-111778979D01*
X148551849Y-111763239D01*
X148558933Y-111754796D01*
X148558936Y-111754794D01*
X148576522Y-111733836D01*
X148583948Y-111725732D01*
X148679205Y-111630475D01*
X148741517Y-111596449D01*
X148812332Y-111601514D01*
G37*
G04 #@! TD.AperFunction*
G04 #@! TA.AperFunction,Conductor*
G36*
X140813251Y-97946027D02*
G01*
X140859744Y-97999683D01*
X140869848Y-98069957D01*
X140836527Y-98138758D01*
X140834735Y-98140646D01*
X140830392Y-98144455D01*
X140826817Y-98148990D01*
X140826816Y-98148991D01*
X140815201Y-98163725D01*
X140704720Y-98303869D01*
X140702031Y-98308980D01*
X140702029Y-98308983D01*
X140689073Y-98333609D01*
X140610203Y-98483515D01*
X140550007Y-98677378D01*
X140526148Y-98878964D01*
X140539424Y-99081522D01*
X140540845Y-99087118D01*
X140540846Y-99087123D01*
X140587971Y-99272674D01*
X140589392Y-99278269D01*
X140591809Y-99283512D01*
X140629010Y-99364208D01*
X140674377Y-99462616D01*
X140791533Y-99628389D01*
X140936938Y-99770035D01*
X140941742Y-99773245D01*
X140995980Y-99809486D01*
X141105720Y-99882812D01*
X141111023Y-99885090D01*
X141111026Y-99885092D01*
X141228038Y-99935364D01*
X141282731Y-99980632D01*
X141304300Y-100051132D01*
X141304300Y-100467051D01*
X141303821Y-100478032D01*
X141300476Y-100516267D01*
X141303329Y-100526914D01*
X141303347Y-100527123D01*
X141289360Y-100596728D01*
X141239961Y-100647722D01*
X141170835Y-100663913D01*
X141138160Y-100657700D01*
X141066293Y-100633863D01*
X141052914Y-100630995D01*
X140958562Y-100621328D01*
X140952145Y-100621000D01*
X140927115Y-100621000D01*
X140911876Y-100625475D01*
X140910671Y-100626865D01*
X140909000Y-100634548D01*
X140909000Y-104014000D01*
X140888998Y-104082121D01*
X140835342Y-104128614D01*
X140783000Y-104140000D01*
X139665116Y-104140000D01*
X139649877Y-104144475D01*
X139648672Y-104145865D01*
X139647001Y-104153548D01*
X139647001Y-104408095D01*
X139647338Y-104414614D01*
X139657257Y-104510206D01*
X139660150Y-104523603D01*
X139671572Y-104557841D01*
X139674156Y-104628790D01*
X139637972Y-104689874D01*
X139574508Y-104721698D01*
X139503912Y-104714159D01*
X139476483Y-104698542D01*
X139389166Y-104633101D01*
X139389165Y-104633101D01*
X139381982Y-104627717D01*
X139342593Y-104612951D01*
X139255740Y-104580392D01*
X139255738Y-104580391D01*
X139248342Y-104577619D01*
X139187415Y-104571000D01*
X138684074Y-104571000D01*
X138180586Y-104571001D01*
X138177192Y-104571370D01*
X138177186Y-104571370D01*
X138127517Y-104576765D01*
X138127514Y-104576766D01*
X138119658Y-104577619D01*
X138112256Y-104580394D01*
X138112255Y-104580394D01*
X138025407Y-104612951D01*
X137986018Y-104627717D01*
X137978835Y-104633101D01*
X137978834Y-104633101D01*
X137924199Y-104674048D01*
X137871811Y-104713311D01*
X137866429Y-104720492D01*
X137797598Y-104812333D01*
X137786217Y-104827518D01*
X137783065Y-104835926D01*
X137742010Y-104945444D01*
X137736119Y-104961158D01*
X137729500Y-105022085D01*
X137729501Y-105603914D01*
X137729870Y-105607308D01*
X137729870Y-105607314D01*
X137733856Y-105644006D01*
X137736119Y-105664842D01*
X137738894Y-105672244D01*
X137738894Y-105672245D01*
X137783065Y-105790074D01*
X137786217Y-105798482D01*
X137871811Y-105912689D01*
X137986018Y-105998283D01*
X137994428Y-106001436D01*
X138000082Y-106004531D01*
X138050230Y-106054788D01*
X138065246Y-106124178D01*
X138040363Y-106190672D01*
X137979454Y-106234576D01*
X137913640Y-106256534D01*
X137900457Y-106262710D01*
X137763851Y-106347244D01*
X137752450Y-106356280D01*
X137638949Y-106469979D01*
X137629937Y-106481390D01*
X137545635Y-106618154D01*
X137539491Y-106631332D01*
X137488773Y-106784240D01*
X137485907Y-106797606D01*
X137476328Y-106891101D01*
X137476000Y-106897516D01*
X137476000Y-106915885D01*
X137480475Y-106931124D01*
X137481865Y-106932329D01*
X137489548Y-106934000D01*
X138812000Y-106934000D01*
X138880121Y-106954002D01*
X138926614Y-107007658D01*
X138938000Y-107060000D01*
X138938000Y-108165384D01*
X138942474Y-108180622D01*
X138943865Y-108181828D01*
X138951548Y-108183499D01*
X139186933Y-108183499D01*
X139193452Y-108183162D01*
X139288170Y-108173334D01*
X139301564Y-108170442D01*
X139454365Y-108119464D01*
X139467543Y-108113290D01*
X139604149Y-108028756D01*
X139615550Y-108019720D01*
X139729051Y-107906021D01*
X139738063Y-107894610D01*
X139789401Y-107811324D01*
X139842173Y-107763831D01*
X139912245Y-107752407D01*
X139977369Y-107780681D01*
X139997487Y-107801875D01*
X140000455Y-107805835D01*
X140049596Y-107871404D01*
X140056776Y-107876785D01*
X140165236Y-107958071D01*
X140164432Y-107959144D01*
X140208058Y-108002866D01*
X140223074Y-108072256D01*
X140198191Y-108138750D01*
X140161680Y-108170388D01*
X140160236Y-108170929D01*
X140044596Y-108257596D01*
X140039215Y-108264776D01*
X139963311Y-108366054D01*
X139963309Y-108366057D01*
X139957929Y-108373236D01*
X139907202Y-108508552D01*
X139900500Y-108570244D01*
X139900500Y-109591300D01*
X139880498Y-109659421D01*
X139826842Y-109705914D01*
X139774500Y-109717300D01*
X139576109Y-109717300D01*
X139507988Y-109697298D01*
X139492550Y-109684857D01*
X139491071Y-109682929D01*
X139366278Y-109587172D01*
X139220953Y-109526977D01*
X139065000Y-109506445D01*
X138909047Y-109526977D01*
X138763723Y-109587172D01*
X138638929Y-109682929D01*
X138543172Y-109807723D01*
X138482977Y-109953047D01*
X138462445Y-110109000D01*
X138482977Y-110264953D01*
X138543172Y-110410277D01*
X138638929Y-110535071D01*
X138763722Y-110630828D01*
X138909047Y-110691023D01*
X139065000Y-110711555D01*
X139220953Y-110691023D01*
X139366278Y-110630828D01*
X139491071Y-110535071D01*
X139500616Y-110522632D01*
X139573232Y-110427996D01*
X139630570Y-110386129D01*
X139673195Y-110378700D01*
X139787228Y-110378700D01*
X139855349Y-110398702D01*
X139901842Y-110452358D01*
X139911946Y-110522632D01*
X139909909Y-110533330D01*
X139907202Y-110540552D01*
X139906349Y-110548407D01*
X139906348Y-110548410D01*
X139905985Y-110551751D01*
X139900500Y-110602244D01*
X139900500Y-111647756D01*
X139907202Y-111709448D01*
X139909974Y-111716841D01*
X139909974Y-111716843D01*
X139921622Y-111747914D01*
X139957929Y-111844764D01*
X139963309Y-111851943D01*
X139963311Y-111851946D01*
X139979543Y-111873604D01*
X140044596Y-111960404D01*
X140051776Y-111965785D01*
X140153054Y-112041689D01*
X140153057Y-112041691D01*
X140160236Y-112047071D01*
X140233871Y-112074675D01*
X140288157Y-112095026D01*
X140288159Y-112095026D01*
X140295552Y-112097798D01*
X140303402Y-112098651D01*
X140303403Y-112098651D01*
X140353847Y-112104131D01*
X140357244Y-112104500D01*
X140952756Y-112104500D01*
X140956153Y-112104131D01*
X141006597Y-112098651D01*
X141006598Y-112098651D01*
X141014448Y-112097798D01*
X141021841Y-112095026D01*
X141021843Y-112095026D01*
X141076129Y-112074675D01*
X141149764Y-112047071D01*
X141156943Y-112041691D01*
X141156946Y-112041689D01*
X141258224Y-111965785D01*
X141265404Y-111960404D01*
X141352071Y-111844764D01*
X141355223Y-111836355D01*
X141359181Y-111829126D01*
X141409438Y-111778979D01*
X141478829Y-111763964D01*
X141545322Y-111788848D01*
X141589226Y-111849757D01*
X141611588Y-111916784D01*
X141617761Y-111929962D01*
X141703063Y-112067807D01*
X141712099Y-112079208D01*
X141826829Y-112193739D01*
X141838240Y-112202751D01*
X141976243Y-112287816D01*
X141989424Y-112293963D01*
X142143710Y-112345138D01*
X142157086Y-112348005D01*
X142251438Y-112357672D01*
X142257854Y-112358000D01*
X142282885Y-112358000D01*
X142298124Y-112353525D01*
X142299329Y-112352135D01*
X142301000Y-112344452D01*
X142301000Y-112339884D01*
X142809000Y-112339884D01*
X142813475Y-112355123D01*
X142814865Y-112356328D01*
X142822548Y-112357999D01*
X142852095Y-112357999D01*
X142858614Y-112357662D01*
X142954206Y-112347743D01*
X142967600Y-112344851D01*
X143121784Y-112293412D01*
X143134962Y-112287239D01*
X143272807Y-112201937D01*
X143284208Y-112192901D01*
X143398739Y-112078171D01*
X143407751Y-112066760D01*
X143492816Y-111928757D01*
X143498963Y-111915576D01*
X143550138Y-111761290D01*
X143553005Y-111747914D01*
X143562672Y-111653562D01*
X143563000Y-111647146D01*
X143563000Y-111397115D01*
X143558525Y-111381876D01*
X143557135Y-111380671D01*
X143549452Y-111379000D01*
X142827115Y-111379000D01*
X142811876Y-111383475D01*
X142810671Y-111384865D01*
X142809000Y-111392548D01*
X142809000Y-112339884D01*
X142301000Y-112339884D01*
X142301000Y-110852885D01*
X142809000Y-110852885D01*
X142813475Y-110868124D01*
X142814865Y-110869329D01*
X142822548Y-110871000D01*
X143544884Y-110871000D01*
X143560123Y-110866525D01*
X143561328Y-110865135D01*
X143562999Y-110857452D01*
X143562999Y-110602905D01*
X143562662Y-110596386D01*
X143552743Y-110500794D01*
X143549851Y-110487400D01*
X143498412Y-110333216D01*
X143492239Y-110320038D01*
X143403083Y-110175965D01*
X143405714Y-110174337D01*
X143384304Y-110121418D01*
X143397485Y-110051656D01*
X143404208Y-110041175D01*
X143403910Y-110040991D01*
X143492816Y-109896757D01*
X143498963Y-109883576D01*
X143550138Y-109729290D01*
X143553005Y-109715914D01*
X143562672Y-109621562D01*
X143563000Y-109615146D01*
X143563000Y-109365115D01*
X143558525Y-109349876D01*
X143557135Y-109348671D01*
X143549452Y-109347000D01*
X142827115Y-109347000D01*
X142811876Y-109351475D01*
X142810671Y-109352865D01*
X142809000Y-109360548D01*
X142809000Y-110852885D01*
X142301000Y-110852885D01*
X142301000Y-108965000D01*
X142321002Y-108896879D01*
X142374658Y-108850386D01*
X142427000Y-108839000D01*
X143544884Y-108839000D01*
X143560123Y-108834525D01*
X143561328Y-108833135D01*
X143562999Y-108825452D01*
X143562999Y-108570905D01*
X143562662Y-108564386D01*
X143552743Y-108468794D01*
X143549851Y-108455400D01*
X143498412Y-108301216D01*
X143492239Y-108288038D01*
X143406937Y-108150193D01*
X143397901Y-108138792D01*
X143283171Y-108024261D01*
X143271760Y-108015249D01*
X143211955Y-107978385D01*
X143164462Y-107925613D01*
X143153038Y-107855541D01*
X143177243Y-107795563D01*
X143207071Y-107755764D01*
X143257798Y-107620448D01*
X143264500Y-107558756D01*
X143264500Y-106563244D01*
X143257798Y-106501552D01*
X143254374Y-106492417D01*
X143236332Y-106444291D01*
X143207071Y-106366236D01*
X143201691Y-106359057D01*
X143201689Y-106359054D01*
X143125785Y-106257776D01*
X143120404Y-106250596D01*
X143044357Y-106193602D01*
X143011946Y-106169311D01*
X143011943Y-106169309D01*
X143004764Y-106163929D01*
X142934060Y-106137424D01*
X142909971Y-106128393D01*
X142853206Y-106085752D01*
X142828506Y-106019190D01*
X142828200Y-106010411D01*
X142828200Y-105687449D01*
X142828679Y-105676468D01*
X142831064Y-105649209D01*
X142831064Y-105649208D01*
X142832024Y-105638233D01*
X142822091Y-105601161D01*
X142819715Y-105590443D01*
X142814965Y-105563503D01*
X142814965Y-105563502D01*
X142813051Y-105552649D01*
X142807540Y-105543104D01*
X142806269Y-105539611D01*
X142804694Y-105536233D01*
X142801840Y-105525584D01*
X142795516Y-105516553D01*
X142795515Y-105516550D01*
X142779827Y-105494145D01*
X142773921Y-105484875D01*
X142760250Y-105461196D01*
X142760249Y-105461195D01*
X142754739Y-105451651D01*
X142732989Y-105433400D01*
X142725347Y-105426988D01*
X142717244Y-105419563D01*
X142390943Y-105093263D01*
X142383517Y-105085159D01*
X142372888Y-105072492D01*
X142344423Y-105007451D01*
X142355640Y-104937346D01*
X142402978Y-104884435D01*
X142469409Y-104865500D01*
X142852756Y-104865500D01*
X142856153Y-104865131D01*
X142906597Y-104859651D01*
X142906598Y-104859651D01*
X142914448Y-104858798D01*
X142921841Y-104856026D01*
X142921843Y-104856026D01*
X142975460Y-104835926D01*
X143049764Y-104808071D01*
X143056943Y-104802691D01*
X143056946Y-104802689D01*
X143158224Y-104726785D01*
X143165404Y-104721404D01*
X143221208Y-104646945D01*
X143246689Y-104612946D01*
X143246691Y-104612943D01*
X143252071Y-104605764D01*
X143302798Y-104470448D01*
X143305623Y-104444449D01*
X143309131Y-104412153D01*
X143309131Y-104412152D01*
X143309500Y-104408756D01*
X143309500Y-104342700D01*
X143329502Y-104274579D01*
X143383158Y-104228086D01*
X143435500Y-104216700D01*
X143652455Y-104216700D01*
X143720576Y-104236702D01*
X143741551Y-104253605D01*
X143904396Y-104416451D01*
X143938421Y-104478763D01*
X143941300Y-104505546D01*
X143941300Y-106406051D01*
X143940821Y-106417032D01*
X143937476Y-106455267D01*
X143947409Y-106492339D01*
X143949784Y-106503053D01*
X143956449Y-106540851D01*
X143961960Y-106550396D01*
X143963231Y-106553889D01*
X143964806Y-106557267D01*
X143967660Y-106567916D01*
X143973984Y-106576947D01*
X143973985Y-106576950D01*
X143989673Y-106599355D01*
X143995578Y-106608624D01*
X144014761Y-106641849D01*
X144023207Y-106648936D01*
X144044164Y-106666522D01*
X144052266Y-106673947D01*
X144308057Y-106929738D01*
X144315483Y-106937840D01*
X144340151Y-106967239D01*
X144349695Y-106972749D01*
X144349696Y-106972750D01*
X144373375Y-106986421D01*
X144382645Y-106992327D01*
X144405050Y-107008015D01*
X144405053Y-107008016D01*
X144414084Y-107014340D01*
X144423438Y-107016847D01*
X144476102Y-107063218D01*
X144495563Y-107131495D01*
X144491559Y-107157320D01*
X144491577Y-107157323D01*
X144481500Y-107226398D01*
X144481500Y-107493602D01*
X144482170Y-107498152D01*
X144482170Y-107498155D01*
X144490331Y-107553592D01*
X144491757Y-107563278D01*
X144496073Y-107572068D01*
X144538926Y-107659349D01*
X144543770Y-107669216D01*
X144627294Y-107752595D01*
X144636650Y-107757168D01*
X144636651Y-107757169D01*
X144648470Y-107762946D01*
X144733323Y-107804423D01*
X144763645Y-107808847D01*
X144797872Y-107813840D01*
X144797876Y-107813840D01*
X144802398Y-107814500D01*
X145016800Y-107814500D01*
X145084921Y-107834502D01*
X145131414Y-107888158D01*
X145142800Y-107940500D01*
X145142800Y-108368500D01*
X145122798Y-108436621D01*
X145069142Y-108483114D01*
X145016800Y-108494500D01*
X144802244Y-108494500D01*
X144798848Y-108494869D01*
X144798847Y-108494869D01*
X144748403Y-108500349D01*
X144748402Y-108500349D01*
X144740552Y-108501202D01*
X144733159Y-108503974D01*
X144733157Y-108503974D01*
X144700003Y-108516403D01*
X144605236Y-108551929D01*
X144598057Y-108557309D01*
X144598054Y-108557311D01*
X144510023Y-108623287D01*
X144489596Y-108638596D01*
X144484215Y-108645776D01*
X144408311Y-108747054D01*
X144408309Y-108747057D01*
X144402929Y-108754236D01*
X144352202Y-108889552D01*
X144345500Y-108951244D01*
X144345500Y-109996756D01*
X144345869Y-110000152D01*
X144345869Y-110000153D01*
X144350326Y-110041175D01*
X144352202Y-110058448D01*
X144354974Y-110065841D01*
X144354974Y-110065843D01*
X144366498Y-110096582D01*
X144402929Y-110193764D01*
X144408309Y-110200943D01*
X144408311Y-110200946D01*
X144455999Y-110264576D01*
X144489596Y-110309404D01*
X144496776Y-110314785D01*
X144598054Y-110390689D01*
X144598057Y-110390691D01*
X144605236Y-110396071D01*
X144671343Y-110420853D01*
X144733157Y-110444026D01*
X144733159Y-110444026D01*
X144740552Y-110446798D01*
X144748402Y-110447651D01*
X144748403Y-110447651D01*
X144798847Y-110453131D01*
X144802244Y-110453500D01*
X145397756Y-110453500D01*
X145401153Y-110453131D01*
X145451597Y-110447651D01*
X145451598Y-110447651D01*
X145459448Y-110446798D01*
X145466841Y-110444026D01*
X145466843Y-110444026D01*
X145528657Y-110420853D01*
X145594764Y-110396071D01*
X145601943Y-110390691D01*
X145601946Y-110390689D01*
X145703224Y-110314785D01*
X145710404Y-110309404D01*
X145797071Y-110193764D01*
X145800223Y-110185355D01*
X145804181Y-110178126D01*
X145854438Y-110127979D01*
X145923829Y-110112964D01*
X145990322Y-110137848D01*
X146034226Y-110198757D01*
X146056588Y-110265784D01*
X146062761Y-110278962D01*
X146148063Y-110416807D01*
X146157099Y-110428208D01*
X146271829Y-110542739D01*
X146283240Y-110551751D01*
X146421243Y-110636816D01*
X146434424Y-110642963D01*
X146588710Y-110694138D01*
X146602086Y-110697005D01*
X146696438Y-110706672D01*
X146702854Y-110707000D01*
X146727885Y-110707000D01*
X146743124Y-110702525D01*
X146744329Y-110701135D01*
X146746000Y-110693452D01*
X146746000Y-110688884D01*
X147254000Y-110688884D01*
X147258475Y-110704123D01*
X147259865Y-110705328D01*
X147267548Y-110706999D01*
X147297095Y-110706999D01*
X147303614Y-110706662D01*
X147399206Y-110696743D01*
X147412600Y-110693851D01*
X147566784Y-110642412D01*
X147579962Y-110636239D01*
X147717807Y-110550937D01*
X147729208Y-110541901D01*
X147843739Y-110427171D01*
X147852751Y-110415760D01*
X147937816Y-110277757D01*
X147943963Y-110264576D01*
X147995138Y-110110290D01*
X147998005Y-110096914D01*
X148007672Y-110002562D01*
X148008000Y-109996146D01*
X148008000Y-109746115D01*
X148003525Y-109730876D01*
X148002135Y-109729671D01*
X147994452Y-109728000D01*
X147272115Y-109728000D01*
X147256876Y-109732475D01*
X147255671Y-109733865D01*
X147254000Y-109741548D01*
X147254000Y-110688884D01*
X146746000Y-110688884D01*
X146746000Y-109201885D01*
X147254000Y-109201885D01*
X147258475Y-109217124D01*
X147259865Y-109218329D01*
X147267548Y-109220000D01*
X147989884Y-109220000D01*
X148005123Y-109215525D01*
X148006328Y-109214135D01*
X148007999Y-109206452D01*
X148007999Y-108951905D01*
X148007662Y-108945386D01*
X147997743Y-108849794D01*
X147994851Y-108836400D01*
X147943412Y-108682216D01*
X147937239Y-108669038D01*
X147851937Y-108531193D01*
X147842901Y-108519792D01*
X147728171Y-108405261D01*
X147716760Y-108396249D01*
X147578757Y-108311184D01*
X147565576Y-108305037D01*
X147411290Y-108253862D01*
X147397914Y-108250995D01*
X147303562Y-108241328D01*
X147297145Y-108241000D01*
X147272115Y-108241000D01*
X147256876Y-108245475D01*
X147255671Y-108246865D01*
X147254000Y-108254548D01*
X147254000Y-109201885D01*
X146746000Y-109201885D01*
X146746000Y-108259116D01*
X146741525Y-108243877D01*
X146740135Y-108242672D01*
X146732452Y-108241001D01*
X146702905Y-108241001D01*
X146696386Y-108241338D01*
X146600794Y-108251257D01*
X146587400Y-108254149D01*
X146433216Y-108305588D01*
X146420038Y-108311761D01*
X146282193Y-108397063D01*
X146270792Y-108406099D01*
X146156261Y-108520829D01*
X146147249Y-108532240D01*
X146062184Y-108670243D01*
X146056037Y-108683424D01*
X146049793Y-108702249D01*
X146009362Y-108760609D01*
X145943798Y-108787845D01*
X145873916Y-108775311D01*
X145821904Y-108726986D01*
X145804200Y-108662581D01*
X145804200Y-107940500D01*
X145824202Y-107872379D01*
X145877858Y-107825886D01*
X145930200Y-107814500D01*
X146144602Y-107814500D01*
X146149152Y-107813830D01*
X146149155Y-107813830D01*
X146204592Y-107805669D01*
X146204593Y-107805669D01*
X146214278Y-107804243D01*
X146296588Y-107763831D01*
X146310868Y-107756820D01*
X146310870Y-107756819D01*
X146320216Y-107752230D01*
X146403595Y-107668706D01*
X146455423Y-107562677D01*
X146465500Y-107493602D01*
X146465500Y-107226398D01*
X146455243Y-107156722D01*
X146450926Y-107147929D01*
X146422760Y-107090560D01*
X146410692Y-107020597D01*
X146422663Y-106979697D01*
X146428753Y-106967239D01*
X146455423Y-106912677D01*
X146465500Y-106843602D01*
X146465500Y-106576398D01*
X146464830Y-106571849D01*
X146464829Y-106571831D01*
X146455436Y-106508029D01*
X146465303Y-106437722D01*
X146511615Y-106383910D01*
X146527072Y-106376217D01*
X146530851Y-106375551D01*
X146540395Y-106370041D01*
X146543885Y-106368771D01*
X146547268Y-106367193D01*
X146557916Y-106364340D01*
X146566947Y-106358016D01*
X146566950Y-106358015D01*
X146589355Y-106342327D01*
X146598624Y-106336422D01*
X146600017Y-106335618D01*
X146631849Y-106317239D01*
X146638933Y-106308796D01*
X146638936Y-106308794D01*
X146656522Y-106287836D01*
X146663948Y-106279732D01*
X146861755Y-106081925D01*
X146924067Y-106047899D01*
X146950850Y-106045020D01*
X148731198Y-106045020D01*
X148742179Y-106045499D01*
X148769438Y-106047884D01*
X148769439Y-106047884D01*
X148780414Y-106048844D01*
X148817486Y-106038911D01*
X148828200Y-106036536D01*
X148844047Y-106033742D01*
X148855144Y-106031785D01*
X148855145Y-106031785D01*
X148865998Y-106029871D01*
X148875543Y-106024360D01*
X148879036Y-106023089D01*
X148882414Y-106021514D01*
X148893063Y-106018660D01*
X148902094Y-106012336D01*
X148902097Y-106012335D01*
X148924502Y-105996647D01*
X148933771Y-105990742D01*
X148935164Y-105989938D01*
X148966996Y-105971559D01*
X148991664Y-105942161D01*
X148999090Y-105934057D01*
X149474744Y-105458404D01*
X149482847Y-105450979D01*
X149503797Y-105433400D01*
X149503798Y-105433399D01*
X149512239Y-105426316D01*
X149531421Y-105393092D01*
X149537327Y-105383822D01*
X149553015Y-105361417D01*
X149553016Y-105361414D01*
X149559340Y-105352383D01*
X149562194Y-105341734D01*
X149563769Y-105338356D01*
X149565040Y-105334863D01*
X149570551Y-105325318D01*
X149577216Y-105287520D01*
X149579591Y-105276806D01*
X149589524Y-105239734D01*
X149586179Y-105201499D01*
X149585700Y-105190518D01*
X149585700Y-100052516D01*
X149605702Y-99984395D01*
X149659358Y-99937902D01*
X149671184Y-99933208D01*
X149706165Y-99921334D01*
X149883276Y-99822147D01*
X149898495Y-99809490D01*
X150034913Y-99696031D01*
X150039345Y-99692345D01*
X150169147Y-99536276D01*
X150268334Y-99359165D01*
X150270190Y-99353698D01*
X150270192Y-99353693D01*
X150331728Y-99172414D01*
X150331729Y-99172409D01*
X150333584Y-99166945D01*
X150334412Y-99161236D01*
X150334413Y-99161231D01*
X150360769Y-98979451D01*
X150362712Y-98966053D01*
X150364232Y-98908000D01*
X150347379Y-98724584D01*
X150346187Y-98711613D01*
X150346186Y-98711610D01*
X150345658Y-98705859D01*
X150344090Y-98700299D01*
X150292125Y-98516046D01*
X150292124Y-98516044D01*
X150290557Y-98510487D01*
X150279978Y-98489033D01*
X150203331Y-98333609D01*
X150200776Y-98328428D01*
X150079320Y-98165779D01*
X150056353Y-98144549D01*
X150019910Y-98083621D01*
X150022191Y-98012661D01*
X150062474Y-97954199D01*
X150127969Y-97926797D01*
X150141884Y-97926026D01*
X150905129Y-97926026D01*
X150973250Y-97946028D01*
X151019743Y-97999684D01*
X151029847Y-98069958D01*
X150996526Y-98138759D01*
X150994735Y-98140646D01*
X150990392Y-98144455D01*
X150986817Y-98148990D01*
X150986816Y-98148991D01*
X150975201Y-98163725D01*
X150864720Y-98303869D01*
X150862031Y-98308980D01*
X150862029Y-98308983D01*
X150849073Y-98333609D01*
X150770203Y-98483515D01*
X150710007Y-98677378D01*
X150686148Y-98878964D01*
X150699424Y-99081522D01*
X150700845Y-99087118D01*
X150700846Y-99087123D01*
X150747971Y-99272674D01*
X150749392Y-99278269D01*
X150751809Y-99283512D01*
X150789010Y-99364208D01*
X150834377Y-99462616D01*
X150951533Y-99628389D01*
X151096938Y-99770035D01*
X151101742Y-99773245D01*
X151155980Y-99809486D01*
X151265720Y-99882812D01*
X151271023Y-99885090D01*
X151271026Y-99885092D01*
X151388038Y-99935364D01*
X151442731Y-99980632D01*
X151464300Y-100051132D01*
X151464300Y-100467051D01*
X151463821Y-100478032D01*
X151460476Y-100516267D01*
X151470409Y-100553339D01*
X151472784Y-100564053D01*
X151479449Y-100601851D01*
X151484960Y-100611396D01*
X151486231Y-100614889D01*
X151487806Y-100618267D01*
X151490660Y-100628916D01*
X151496984Y-100637947D01*
X151496985Y-100637950D01*
X151512673Y-100660355D01*
X151518578Y-100669624D01*
X151537761Y-100702849D01*
X151546204Y-100709933D01*
X151546206Y-100709936D01*
X151567164Y-100727522D01*
X151575268Y-100734948D01*
X152152052Y-101311732D01*
X152159478Y-101319836D01*
X152177064Y-101340794D01*
X152177067Y-101340796D01*
X152184151Y-101349239D01*
X152213089Y-101365947D01*
X152217376Y-101368422D01*
X152226645Y-101374327D01*
X152249050Y-101390015D01*
X152249053Y-101390016D01*
X152258084Y-101396340D01*
X152268733Y-101399194D01*
X152272111Y-101400769D01*
X152275604Y-101402040D01*
X152285149Y-101407551D01*
X152296002Y-101409465D01*
X152296003Y-101409465D01*
X152307100Y-101411422D01*
X152322947Y-101414216D01*
X152333661Y-101416591D01*
X152370733Y-101426524D01*
X152381708Y-101425564D01*
X152381709Y-101425564D01*
X152408968Y-101423179D01*
X152419949Y-101422700D01*
X154562830Y-101422700D01*
X154630951Y-101442702D01*
X154651925Y-101459605D01*
X154722595Y-101530275D01*
X154756621Y-101592587D01*
X154759500Y-101619370D01*
X154759500Y-102376756D01*
X154766202Y-102438448D01*
X154816929Y-102573764D01*
X154822309Y-102580943D01*
X154822311Y-102580946D01*
X154856650Y-102626764D01*
X154903596Y-102689404D01*
X154910776Y-102694785D01*
X155010033Y-102769174D01*
X155052548Y-102826033D01*
X155057574Y-102896852D01*
X155023514Y-102959145D01*
X155010033Y-102970826D01*
X154903596Y-103050596D01*
X154898215Y-103057776D01*
X154822311Y-103159054D01*
X154822309Y-103159057D01*
X154816929Y-103166236D01*
X154766202Y-103301552D01*
X154765349Y-103309402D01*
X154765349Y-103309403D01*
X154763503Y-103326398D01*
X154759500Y-103363244D01*
X154759500Y-103692465D01*
X154739498Y-103760586D01*
X154685842Y-103807079D01*
X154615568Y-103817183D01*
X154552508Y-103788986D01*
X154547812Y-103785045D01*
X154532834Y-103772477D01*
X154524732Y-103765052D01*
X153999948Y-103240268D01*
X153992522Y-103232164D01*
X153974936Y-103211206D01*
X153974933Y-103211204D01*
X153967849Y-103202761D01*
X153934625Y-103183578D01*
X153925355Y-103177673D01*
X153902950Y-103161985D01*
X153902947Y-103161984D01*
X153893916Y-103155660D01*
X153883267Y-103152806D01*
X153879889Y-103151231D01*
X153876396Y-103149960D01*
X153866851Y-103144449D01*
X153855998Y-103142535D01*
X153855997Y-103142535D01*
X153844900Y-103140578D01*
X153829053Y-103137784D01*
X153818339Y-103135409D01*
X153781267Y-103125476D01*
X153770292Y-103126436D01*
X153770291Y-103126436D01*
X153743032Y-103128821D01*
X153732051Y-103129300D01*
X152158836Y-103129300D01*
X152090715Y-103109298D01*
X152069819Y-103092474D01*
X152052077Y-103074763D01*
X152052076Y-103074763D01*
X152044706Y-103067405D01*
X151938677Y-103015577D01*
X151908355Y-103011153D01*
X151874128Y-103006160D01*
X151874124Y-103006160D01*
X151869602Y-103005500D01*
X150527398Y-103005500D01*
X150522848Y-103006170D01*
X150522845Y-103006170D01*
X150467408Y-103014331D01*
X150467407Y-103014331D01*
X150457722Y-103015757D01*
X150407322Y-103040502D01*
X150361132Y-103063180D01*
X150361130Y-103063181D01*
X150351784Y-103067770D01*
X150268405Y-103151294D01*
X150216577Y-103257323D01*
X150206500Y-103326398D01*
X150206500Y-103593602D01*
X150207170Y-103598152D01*
X150207170Y-103598155D01*
X150212407Y-103633727D01*
X150216757Y-103663278D01*
X150221074Y-103672070D01*
X150221074Y-103672071D01*
X150249240Y-103729440D01*
X150261308Y-103799403D01*
X150249337Y-103840303D01*
X150216577Y-103907323D01*
X150215165Y-103917003D01*
X150208732Y-103961101D01*
X150206500Y-103976398D01*
X150206500Y-104243602D01*
X150207170Y-104248152D01*
X150207170Y-104248155D01*
X150215331Y-104303592D01*
X150216757Y-104313278D01*
X150221074Y-104322070D01*
X150221074Y-104322071D01*
X150249240Y-104379440D01*
X150261308Y-104449403D01*
X150249337Y-104490303D01*
X150216577Y-104557323D01*
X150206500Y-104626398D01*
X150206500Y-104893602D01*
X150207170Y-104898152D01*
X150207170Y-104898155D01*
X150214132Y-104945444D01*
X150216757Y-104963278D01*
X150233534Y-104997449D01*
X150244088Y-105018945D01*
X150256156Y-105088909D01*
X150227506Y-105155468D01*
X150205104Y-105182165D01*
X150197678Y-105190268D01*
X148700948Y-106686998D01*
X148692844Y-106694424D01*
X148671886Y-106712010D01*
X148671884Y-106712013D01*
X148663441Y-106719097D01*
X148645062Y-106750929D01*
X148644258Y-106752322D01*
X148638353Y-106761591D01*
X148622665Y-106783996D01*
X148622664Y-106783999D01*
X148616340Y-106793030D01*
X148613486Y-106803679D01*
X148611911Y-106807057D01*
X148610640Y-106810550D01*
X148605129Y-106820095D01*
X148603215Y-106830948D01*
X148603215Y-106830949D01*
X148598465Y-106857889D01*
X148596089Y-106868607D01*
X148586156Y-106905679D01*
X148587116Y-106916654D01*
X148587116Y-106916655D01*
X148589501Y-106943914D01*
X148589980Y-106954895D01*
X148589980Y-110732150D01*
X148569978Y-110800271D01*
X148553075Y-110821245D01*
X148235925Y-111138395D01*
X148173613Y-111172421D01*
X148146830Y-111175300D01*
X144799949Y-111175300D01*
X144788968Y-111174821D01*
X144761709Y-111172436D01*
X144761708Y-111172436D01*
X144750733Y-111171476D01*
X144713661Y-111181409D01*
X144702947Y-111183784D01*
X144687100Y-111186578D01*
X144676003Y-111188535D01*
X144676002Y-111188535D01*
X144665149Y-111190449D01*
X144655604Y-111195960D01*
X144652111Y-111197231D01*
X144648733Y-111198806D01*
X144638084Y-111201660D01*
X144629053Y-111207984D01*
X144629050Y-111207985D01*
X144606645Y-111223673D01*
X144597375Y-111229579D01*
X144564151Y-111248761D01*
X144557068Y-111257202D01*
X144557067Y-111257203D01*
X144539488Y-111278153D01*
X144532063Y-111286256D01*
X143925263Y-111893057D01*
X143917159Y-111900483D01*
X143887761Y-111925151D01*
X143871553Y-111953224D01*
X143868578Y-111958376D01*
X143862673Y-111967645D01*
X143846985Y-111990050D01*
X143846984Y-111990053D01*
X143840660Y-111999084D01*
X143837806Y-112009733D01*
X143836231Y-112013111D01*
X143834960Y-112016604D01*
X143829449Y-112026149D01*
X143827535Y-112037002D01*
X143827535Y-112037003D01*
X143822785Y-112063943D01*
X143820409Y-112074661D01*
X143810476Y-112111733D01*
X143811436Y-112122708D01*
X143811436Y-112122709D01*
X143813821Y-112149968D01*
X143814300Y-112160949D01*
X143814300Y-113004836D01*
X143794298Y-113072957D01*
X143740642Y-113119450D01*
X143731914Y-113123047D01*
X143667463Y-113146824D01*
X143493010Y-113250612D01*
X143488670Y-113254418D01*
X143488666Y-113254421D01*
X143468723Y-113271911D01*
X143340392Y-113384455D01*
X143214720Y-113543869D01*
X143212031Y-113548980D01*
X143212029Y-113548983D01*
X143200507Y-113570883D01*
X143151087Y-113621856D01*
X143081955Y-113638018D01*
X143015059Y-113614239D01*
X142971638Y-113558068D01*
X142962999Y-113512215D01*
X142962999Y-113253331D01*
X142962629Y-113246510D01*
X142957105Y-113195648D01*
X142953479Y-113180396D01*
X142908324Y-113059946D01*
X142899786Y-113044351D01*
X142823285Y-112942276D01*
X142810724Y-112929715D01*
X142708649Y-112853214D01*
X142693054Y-112844676D01*
X142572606Y-112799522D01*
X142557351Y-112795895D01*
X142506486Y-112790369D01*
X142499672Y-112790000D01*
X141877115Y-112790000D01*
X141861876Y-112794475D01*
X141860671Y-112795865D01*
X141859000Y-112803548D01*
X141859000Y-114276000D01*
X141838998Y-114344121D01*
X141785342Y-114390614D01*
X141733000Y-114402000D01*
X141477000Y-114402000D01*
X141408879Y-114381998D01*
X141362386Y-114328342D01*
X141351000Y-114276000D01*
X141351000Y-112808116D01*
X141346525Y-112792877D01*
X141345135Y-112791672D01*
X141337452Y-112790001D01*
X140710331Y-112790001D01*
X140703510Y-112790371D01*
X140652648Y-112795895D01*
X140637396Y-112799521D01*
X140516946Y-112844676D01*
X140501351Y-112853214D01*
X140399276Y-112929715D01*
X140386715Y-112942276D01*
X140310214Y-113044351D01*
X140301676Y-113059946D01*
X140256522Y-113180394D01*
X140252895Y-113195649D01*
X140247369Y-113246514D01*
X140247000Y-113253328D01*
X140247000Y-113508160D01*
X140226998Y-113576281D01*
X140173342Y-113622774D01*
X140103068Y-113632878D01*
X140038488Y-113603384D01*
X140013567Y-113573994D01*
X140013331Y-113573608D01*
X140010776Y-113568428D01*
X139889320Y-113405779D01*
X139740258Y-113267987D01*
X139735375Y-113264906D01*
X139735371Y-113264903D01*
X139573464Y-113162748D01*
X139568581Y-113159667D01*
X139380039Y-113084446D01*
X139374379Y-113083320D01*
X139374375Y-113083319D01*
X139186613Y-113045971D01*
X139186610Y-113045971D01*
X139180946Y-113044844D01*
X139175171Y-113044768D01*
X139175167Y-113044768D01*
X139073793Y-113043441D01*
X138977971Y-113042187D01*
X138972274Y-113043166D01*
X138972273Y-113043166D01*
X138874620Y-113059946D01*
X138777910Y-113076564D01*
X138587463Y-113146824D01*
X138413010Y-113250612D01*
X138408670Y-113254418D01*
X138408666Y-113254421D01*
X138388723Y-113271911D01*
X138260392Y-113384455D01*
X138134720Y-113543869D01*
X138132031Y-113548980D01*
X138132029Y-113548983D01*
X138120507Y-113570883D01*
X138040203Y-113723515D01*
X137980007Y-113917378D01*
X137956148Y-114118964D01*
X137969424Y-114321522D01*
X137970845Y-114327118D01*
X137970846Y-114327123D01*
X137989863Y-114402000D01*
X138019392Y-114518269D01*
X138021809Y-114523512D01*
X138059010Y-114604208D01*
X138104377Y-114702616D01*
X138221533Y-114868389D01*
X138225675Y-114872424D01*
X138319394Y-114963720D01*
X138354232Y-115025581D01*
X138350095Y-115096457D01*
X138308296Y-115153845D01*
X138242107Y-115179524D01*
X138231473Y-115179974D01*
X137841450Y-115179974D01*
X137816872Y-115177553D01*
X137804025Y-115174998D01*
X137791853Y-115177419D01*
X137780326Y-115177419D01*
X137769345Y-115176940D01*
X137747147Y-115174998D01*
X137638576Y-115165499D01*
X137616955Y-115161687D01*
X137467177Y-115121554D01*
X137446541Y-115114043D01*
X137306015Y-115048514D01*
X137286995Y-115037532D01*
X137159979Y-114948595D01*
X137143154Y-114934477D01*
X137033522Y-114824845D01*
X137019404Y-114808020D01*
X136930467Y-114681004D01*
X136919485Y-114661984D01*
X136853956Y-114521458D01*
X136846444Y-114500820D01*
X136806312Y-114351044D01*
X136802499Y-114329420D01*
X136791059Y-114198654D01*
X136790580Y-114187673D01*
X136790580Y-114176146D01*
X136793001Y-114163974D01*
X136790446Y-114151127D01*
X136788025Y-114126549D01*
X136788025Y-107478433D01*
X137476001Y-107478433D01*
X137476338Y-107484952D01*
X137486166Y-107579670D01*
X137489058Y-107593064D01*
X137540036Y-107745865D01*
X137546210Y-107759043D01*
X137630744Y-107895649D01*
X137639780Y-107907050D01*
X137753479Y-108020551D01*
X137764890Y-108029563D01*
X137901654Y-108113865D01*
X137914832Y-108120009D01*
X138067740Y-108170727D01*
X138081106Y-108173593D01*
X138174601Y-108183172D01*
X138181016Y-108183500D01*
X138411885Y-108183500D01*
X138427124Y-108179025D01*
X138428329Y-108177635D01*
X138430000Y-108169952D01*
X138430000Y-107460115D01*
X138425525Y-107444876D01*
X138424135Y-107443671D01*
X138416452Y-107442000D01*
X137494116Y-107442000D01*
X137478877Y-107446475D01*
X137477672Y-107447865D01*
X137476001Y-107455548D01*
X137476001Y-107478433D01*
X136788025Y-107478433D01*
X136788026Y-103613885D01*
X139647000Y-103613885D01*
X139651475Y-103629124D01*
X139652865Y-103630329D01*
X139660548Y-103632000D01*
X140382885Y-103632000D01*
X140398124Y-103627525D01*
X140399329Y-103626135D01*
X140401000Y-103618452D01*
X140401000Y-102126115D01*
X140396525Y-102110876D01*
X140395135Y-102109671D01*
X140387452Y-102108000D01*
X139665116Y-102108000D01*
X139649877Y-102112475D01*
X139648672Y-102113865D01*
X139647001Y-102121548D01*
X139647001Y-102376095D01*
X139647338Y-102382614D01*
X139657257Y-102478206D01*
X139660149Y-102491600D01*
X139711588Y-102645784D01*
X139717761Y-102658962D01*
X139806917Y-102803035D01*
X139804286Y-102804663D01*
X139825696Y-102857582D01*
X139812515Y-102927344D01*
X139805792Y-102937825D01*
X139806090Y-102938009D01*
X139717184Y-103082243D01*
X139711037Y-103095424D01*
X139659862Y-103249710D01*
X139656995Y-103263086D01*
X139647328Y-103357438D01*
X139647000Y-103363855D01*
X139647000Y-103613885D01*
X136788026Y-103613885D01*
X136788026Y-101581885D01*
X139647000Y-101581885D01*
X139651475Y-101597124D01*
X139652865Y-101598329D01*
X139660548Y-101600000D01*
X140382885Y-101600000D01*
X140398124Y-101595525D01*
X140399329Y-101594135D01*
X140401000Y-101586452D01*
X140401000Y-100639116D01*
X140396525Y-100623877D01*
X140395135Y-100622672D01*
X140387452Y-100621001D01*
X140357905Y-100621001D01*
X140351386Y-100621338D01*
X140255794Y-100631257D01*
X140242400Y-100634149D01*
X140088216Y-100685588D01*
X140075038Y-100691761D01*
X139937193Y-100777063D01*
X139925792Y-100786099D01*
X139811261Y-100900829D01*
X139802249Y-100912240D01*
X139717184Y-101050243D01*
X139711037Y-101063424D01*
X139659862Y-101217710D01*
X139656995Y-101231086D01*
X139647328Y-101325438D01*
X139647000Y-101331855D01*
X139647000Y-101581885D01*
X136788026Y-101581885D01*
X136788026Y-98979450D01*
X136790447Y-98954869D01*
X136790581Y-98954195D01*
X136793002Y-98942025D01*
X136790581Y-98929853D01*
X136790581Y-98918326D01*
X136791060Y-98907345D01*
X136802500Y-98776579D01*
X136806314Y-98754949D01*
X136846446Y-98605177D01*
X136853957Y-98584541D01*
X136919486Y-98444015D01*
X136930468Y-98424995D01*
X137019405Y-98297979D01*
X137033523Y-98281154D01*
X137143155Y-98171522D01*
X137159980Y-98157404D01*
X137286996Y-98068467D01*
X137306016Y-98057485D01*
X137446542Y-97991956D01*
X137467178Y-97984445D01*
X137616956Y-97944312D01*
X137638577Y-97940500D01*
X137755659Y-97930256D01*
X137769346Y-97929059D01*
X137780327Y-97928580D01*
X137791854Y-97928580D01*
X137804026Y-97931001D01*
X137816873Y-97928446D01*
X137841451Y-97926025D01*
X140745130Y-97926025D01*
X140813251Y-97946027D01*
G37*
G04 #@! TD.AperFunction*
G04 #@! TA.AperFunction,Conductor*
G36*
X148088896Y-101493022D02*
G01*
X148109871Y-101509925D01*
X148278756Y-101678811D01*
X148312781Y-101741123D01*
X148315660Y-101767906D01*
X148315660Y-104648980D01*
X148295658Y-104717101D01*
X148242002Y-104763594D01*
X148189660Y-104774980D01*
X146950850Y-104774980D01*
X146882729Y-104754978D01*
X146861755Y-104738075D01*
X146663948Y-104540268D01*
X146656522Y-104532164D01*
X146638936Y-104511206D01*
X146638933Y-104511204D01*
X146631849Y-104502761D01*
X146598625Y-104483578D01*
X146589355Y-104477673D01*
X146566950Y-104461985D01*
X146566947Y-104461984D01*
X146557916Y-104455660D01*
X146547267Y-104452806D01*
X146543889Y-104451231D01*
X146540396Y-104449960D01*
X146532636Y-104445479D01*
X146532570Y-104445431D01*
X146532393Y-104445339D01*
X146530833Y-104444438D01*
X146530949Y-104444237D01*
X146479912Y-104406659D01*
X146454574Y-104340338D01*
X146455498Y-104312164D01*
X146464840Y-104248129D01*
X146464840Y-104248123D01*
X146465500Y-104243602D01*
X146465500Y-103976398D01*
X146464830Y-103971847D01*
X146464829Y-103971833D01*
X146459414Y-103935052D01*
X146469281Y-103864744D01*
X146515593Y-103810932D01*
X146584070Y-103790700D01*
X146833732Y-103790700D01*
X146901853Y-103810702D01*
X146910436Y-103816738D01*
X147012166Y-103894798D01*
X147012169Y-103894800D01*
X147018722Y-103899828D01*
X147164047Y-103960023D01*
X147320000Y-103980555D01*
X147475953Y-103960023D01*
X147621278Y-103899828D01*
X147746071Y-103804071D01*
X147841828Y-103679277D01*
X147902023Y-103533953D01*
X147922555Y-103378000D01*
X147902023Y-103222047D01*
X147841828Y-103076723D01*
X147746071Y-102951929D01*
X147621278Y-102856172D01*
X147475953Y-102795977D01*
X147320000Y-102775445D01*
X147164047Y-102795977D01*
X147018723Y-102856172D01*
X146893929Y-102951929D01*
X146798172Y-103076723D01*
X146796138Y-103075162D01*
X146754059Y-103115289D01*
X146696315Y-103129300D01*
X146433836Y-103129300D01*
X146365715Y-103109298D01*
X146344819Y-103092474D01*
X146327077Y-103074763D01*
X146327076Y-103074763D01*
X146319706Y-103067405D01*
X146213677Y-103015577D01*
X146183355Y-103011153D01*
X146149128Y-103006160D01*
X146149124Y-103006160D01*
X146144602Y-103005500D01*
X144802398Y-103005500D01*
X144797848Y-103006170D01*
X144797845Y-103006170D01*
X144742408Y-103014331D01*
X144742407Y-103014331D01*
X144732722Y-103015757D01*
X144682322Y-103040502D01*
X144636132Y-103063180D01*
X144636130Y-103063181D01*
X144626784Y-103067770D01*
X144619427Y-103075140D01*
X144563873Y-103130790D01*
X144501590Y-103164869D01*
X144430770Y-103159866D01*
X144373897Y-103117368D01*
X144349029Y-103050870D01*
X144348700Y-103041772D01*
X144348700Y-102669388D01*
X144368702Y-102601267D01*
X144397996Y-102569426D01*
X144437518Y-102539100D01*
X144437521Y-102539097D01*
X144444071Y-102534071D01*
X144539828Y-102409277D01*
X144600023Y-102263953D01*
X144620555Y-102108000D01*
X144600023Y-101952047D01*
X144539828Y-101806723D01*
X144444071Y-101681929D01*
X144445529Y-101680810D01*
X144416436Y-101627531D01*
X144421501Y-101556716D01*
X144464048Y-101499880D01*
X144530568Y-101475069D01*
X144540730Y-101475150D01*
X144547053Y-101476844D01*
X144585288Y-101473499D01*
X144596269Y-101473020D01*
X148020775Y-101473020D01*
X148088896Y-101493022D01*
G37*
G04 #@! TD.AperFunction*
G04 #@! TA.AperFunction,Conductor*
G36*
X143353251Y-97946027D02*
G01*
X143399744Y-97999683D01*
X143409848Y-98069957D01*
X143376527Y-98138758D01*
X143374735Y-98140646D01*
X143370392Y-98144455D01*
X143366817Y-98148990D01*
X143366816Y-98148991D01*
X143355201Y-98163725D01*
X143244720Y-98303869D01*
X143242031Y-98308980D01*
X143242029Y-98308983D01*
X143229073Y-98333609D01*
X143150203Y-98483515D01*
X143090007Y-98677378D01*
X143066148Y-98878964D01*
X143079424Y-99081522D01*
X143080845Y-99087118D01*
X143080846Y-99087123D01*
X143127971Y-99272674D01*
X143129392Y-99278269D01*
X143131809Y-99283512D01*
X143169010Y-99364208D01*
X143214377Y-99462616D01*
X143331533Y-99628389D01*
X143476938Y-99770035D01*
X143481742Y-99773245D01*
X143535980Y-99809486D01*
X143645720Y-99882812D01*
X143651023Y-99885090D01*
X143651026Y-99885092D01*
X143768038Y-99935364D01*
X143822731Y-99980632D01*
X143844300Y-100051132D01*
X143844300Y-100721051D01*
X143843821Y-100732032D01*
X143842816Y-100743525D01*
X143840476Y-100770267D01*
X143850409Y-100807339D01*
X143852784Y-100818053D01*
X143859449Y-100855851D01*
X143864960Y-100865396D01*
X143866231Y-100868889D01*
X143867806Y-100872267D01*
X143870660Y-100882916D01*
X143876984Y-100891947D01*
X143876985Y-100891950D01*
X143892673Y-100914355D01*
X143898578Y-100923624D01*
X143917761Y-100956849D01*
X143926204Y-100963933D01*
X143926206Y-100963936D01*
X143947164Y-100981522D01*
X143955268Y-100988948D01*
X144278096Y-101311776D01*
X144312122Y-101374088D01*
X144307057Y-101444903D01*
X144264510Y-101501739D01*
X144197990Y-101526550D01*
X144172556Y-101525793D01*
X144018000Y-101505445D01*
X143862047Y-101525977D01*
X143716723Y-101586172D01*
X143591929Y-101681929D01*
X143586907Y-101688474D01*
X143586903Y-101688478D01*
X143535463Y-101755517D01*
X143478125Y-101797385D01*
X143407254Y-101801607D01*
X143345351Y-101766844D01*
X143312070Y-101704131D01*
X143309500Y-101678814D01*
X143309500Y-101331244D01*
X143302798Y-101269552D01*
X143252071Y-101134236D01*
X143246691Y-101127057D01*
X143246689Y-101127054D01*
X143170785Y-101025776D01*
X143165404Y-101018596D01*
X143125845Y-100988948D01*
X143056946Y-100937311D01*
X143056943Y-100937309D01*
X143049764Y-100931929D01*
X142943119Y-100891950D01*
X142921843Y-100883974D01*
X142921841Y-100883974D01*
X142914448Y-100881202D01*
X142906598Y-100880349D01*
X142906597Y-100880349D01*
X142856153Y-100874869D01*
X142856152Y-100874869D01*
X142852756Y-100874500D01*
X142542370Y-100874500D01*
X142474249Y-100854498D01*
X142453275Y-100837595D01*
X142002605Y-100386925D01*
X141968579Y-100324613D01*
X141965700Y-100297830D01*
X141965700Y-100052516D01*
X141985702Y-99984395D01*
X142039358Y-99937902D01*
X142051184Y-99933208D01*
X142086165Y-99921334D01*
X142263276Y-99822147D01*
X142278495Y-99809490D01*
X142414913Y-99696031D01*
X142419345Y-99692345D01*
X142549147Y-99536276D01*
X142648334Y-99359165D01*
X142650190Y-99353698D01*
X142650192Y-99353693D01*
X142711728Y-99172414D01*
X142711729Y-99172409D01*
X142713584Y-99166945D01*
X142714412Y-99161236D01*
X142714413Y-99161231D01*
X142740769Y-98979451D01*
X142742712Y-98966053D01*
X142744232Y-98908000D01*
X142727379Y-98724584D01*
X142726187Y-98711613D01*
X142726186Y-98711610D01*
X142725658Y-98705859D01*
X142724090Y-98700299D01*
X142672125Y-98516046D01*
X142672124Y-98516044D01*
X142670557Y-98510487D01*
X142659978Y-98489033D01*
X142583331Y-98333609D01*
X142580776Y-98328428D01*
X142459320Y-98165779D01*
X142436352Y-98144548D01*
X142399909Y-98083620D01*
X142402190Y-98012660D01*
X142442473Y-97954198D01*
X142507968Y-97926796D01*
X142521883Y-97926025D01*
X143285130Y-97926025D01*
X143353251Y-97946027D01*
G37*
G04 #@! TD.AperFunction*
G04 #@! TA.AperFunction,Conductor*
G36*
X145893251Y-97946027D02*
G01*
X145939744Y-97999683D01*
X145949848Y-98069957D01*
X145916527Y-98138758D01*
X145914735Y-98140646D01*
X145910392Y-98144455D01*
X145906817Y-98148990D01*
X145906816Y-98148991D01*
X145895201Y-98163725D01*
X145784720Y-98303869D01*
X145782031Y-98308980D01*
X145782029Y-98308983D01*
X145769073Y-98333609D01*
X145690203Y-98483515D01*
X145630007Y-98677378D01*
X145606148Y-98878964D01*
X145619424Y-99081522D01*
X145620845Y-99087118D01*
X145620846Y-99087123D01*
X145667971Y-99272674D01*
X145669392Y-99278269D01*
X145671809Y-99283512D01*
X145709010Y-99364208D01*
X145754377Y-99462616D01*
X145871533Y-99628389D01*
X146016938Y-99770035D01*
X146021742Y-99773245D01*
X146075980Y-99809486D01*
X146185720Y-99882812D01*
X146191023Y-99885090D01*
X146191026Y-99885092D01*
X146308038Y-99935364D01*
X146362731Y-99980632D01*
X146384300Y-100051132D01*
X146384300Y-100213051D01*
X146383821Y-100224032D01*
X146380476Y-100262267D01*
X146390409Y-100299339D01*
X146392784Y-100310053D01*
X146399449Y-100347851D01*
X146404960Y-100357396D01*
X146406231Y-100360889D01*
X146407806Y-100364267D01*
X146410660Y-100374916D01*
X146416984Y-100383947D01*
X146416985Y-100383950D01*
X146432673Y-100406355D01*
X146438578Y-100415624D01*
X146457761Y-100448849D01*
X146466204Y-100455933D01*
X146466206Y-100455936D01*
X146487164Y-100473522D01*
X146495268Y-100480948D01*
X146610845Y-100596525D01*
X146644871Y-100658837D01*
X146639806Y-100729652D01*
X146597259Y-100786488D01*
X146530739Y-100811299D01*
X146521750Y-100811620D01*
X144765490Y-100811620D01*
X144697369Y-100791618D01*
X144676395Y-100774715D01*
X144542605Y-100640925D01*
X144508579Y-100578613D01*
X144505700Y-100551830D01*
X144505700Y-100052516D01*
X144525702Y-99984395D01*
X144579358Y-99937902D01*
X144591184Y-99933208D01*
X144626165Y-99921334D01*
X144803276Y-99822147D01*
X144818495Y-99809490D01*
X144954913Y-99696031D01*
X144959345Y-99692345D01*
X145089147Y-99536276D01*
X145188334Y-99359165D01*
X145190190Y-99353698D01*
X145190192Y-99353693D01*
X145251728Y-99172414D01*
X145251729Y-99172409D01*
X145253584Y-99166945D01*
X145254412Y-99161236D01*
X145254413Y-99161231D01*
X145280769Y-98979451D01*
X145282712Y-98966053D01*
X145284232Y-98908000D01*
X145267379Y-98724584D01*
X145266187Y-98711613D01*
X145266186Y-98711610D01*
X145265658Y-98705859D01*
X145264090Y-98700299D01*
X145212125Y-98516046D01*
X145212124Y-98516044D01*
X145210557Y-98510487D01*
X145199978Y-98489033D01*
X145123331Y-98333609D01*
X145120776Y-98328428D01*
X144999320Y-98165779D01*
X144976352Y-98144548D01*
X144939909Y-98083620D01*
X144942190Y-98012660D01*
X144982473Y-97954198D01*
X145047968Y-97926796D01*
X145061883Y-97926025D01*
X145825130Y-97926025D01*
X145893251Y-97946027D01*
G37*
G04 #@! TD.AperFunction*
G04 #@! TA.AperFunction,Conductor*
G36*
X148365129Y-97926026D02*
G01*
X148433250Y-97946028D01*
X148479743Y-97999684D01*
X148489846Y-98069958D01*
X148456526Y-98138759D01*
X148454735Y-98140646D01*
X148450392Y-98144455D01*
X148446817Y-98148990D01*
X148446816Y-98148991D01*
X148435201Y-98163725D01*
X148324720Y-98303869D01*
X148322031Y-98308980D01*
X148322029Y-98308983D01*
X148309073Y-98333609D01*
X148230203Y-98483515D01*
X148170007Y-98677378D01*
X148146148Y-98878964D01*
X148159424Y-99081522D01*
X148160845Y-99087118D01*
X148160846Y-99087123D01*
X148207971Y-99272674D01*
X148209392Y-99278269D01*
X148211809Y-99283512D01*
X148249010Y-99364208D01*
X148294377Y-99462616D01*
X148411533Y-99628389D01*
X148556938Y-99770035D01*
X148561742Y-99773245D01*
X148615980Y-99809486D01*
X148725720Y-99882812D01*
X148731023Y-99885090D01*
X148731026Y-99885092D01*
X148848038Y-99935364D01*
X148902731Y-99980632D01*
X148924300Y-100051132D01*
X148924300Y-100654430D01*
X148904298Y-100722551D01*
X148850642Y-100769044D01*
X148780368Y-100779148D01*
X148715788Y-100749654D01*
X148709205Y-100743525D01*
X148583948Y-100618268D01*
X148576522Y-100610164D01*
X148558936Y-100589206D01*
X148558933Y-100589204D01*
X148551849Y-100580761D01*
X148518625Y-100561578D01*
X148509355Y-100555673D01*
X148486950Y-100539985D01*
X148486947Y-100539984D01*
X148477916Y-100533660D01*
X148467267Y-100530806D01*
X148463889Y-100529231D01*
X148460396Y-100527960D01*
X148450851Y-100522449D01*
X148439998Y-100520535D01*
X148439997Y-100520535D01*
X148428900Y-100518578D01*
X148413053Y-100515784D01*
X148402339Y-100513409D01*
X148365267Y-100503476D01*
X148354292Y-100504436D01*
X148354291Y-100504436D01*
X148327032Y-100506821D01*
X148316051Y-100507300D01*
X147509170Y-100507300D01*
X147441049Y-100487298D01*
X147420075Y-100470395D01*
X147089090Y-100139410D01*
X147055064Y-100077098D01*
X147060129Y-100006283D01*
X147102676Y-99949447D01*
X147137684Y-99931002D01*
X147160693Y-99923192D01*
X147160700Y-99923189D01*
X147166165Y-99921334D01*
X147343276Y-99822147D01*
X147358495Y-99809490D01*
X147494913Y-99696031D01*
X147499345Y-99692345D01*
X147629147Y-99536276D01*
X147728334Y-99359165D01*
X147730190Y-99353698D01*
X147730192Y-99353693D01*
X147791728Y-99172414D01*
X147791729Y-99172409D01*
X147793584Y-99166945D01*
X147794412Y-99161236D01*
X147794413Y-99161231D01*
X147820769Y-98979451D01*
X147822712Y-98966053D01*
X147824232Y-98908000D01*
X147807379Y-98724584D01*
X147806187Y-98711613D01*
X147806186Y-98711610D01*
X147805658Y-98705859D01*
X147804090Y-98700299D01*
X147752125Y-98516046D01*
X147752124Y-98516044D01*
X147750557Y-98510487D01*
X147739978Y-98489033D01*
X147663331Y-98333609D01*
X147660776Y-98328428D01*
X147539320Y-98165779D01*
X147516352Y-98144548D01*
X147479909Y-98083620D01*
X147482190Y-98012660D01*
X147522473Y-97954198D01*
X147587968Y-97926796D01*
X147601879Y-97926025D01*
X147980043Y-97926025D01*
X148365129Y-97926026D01*
G37*
G04 #@! TD.AperFunction*
M02*
