G04 #@! TF.GenerationSoftware,KiCad,Pcbnew,(6.0.0-0)*
G04 #@! TF.CreationDate,2023-02-05T22:05:23-08:00*
G04 #@! TF.ProjectId,breakout,62726561-6b6f-4757-942e-6b696361645f,1.0.0*
G04 #@! TF.SameCoordinates,Original*
G04 #@! TF.FileFunction,Copper,L2,Bot*
G04 #@! TF.FilePolarity,Positive*
%FSLAX46Y46*%
G04 Gerber Fmt 4.6, Leading zero omitted, Abs format (unit mm)*
G04 Created by KiCad (PCBNEW (6.0.0-0)) date 2023-02-05 22:05:23*
%MOMM*%
%LPD*%
G01*
G04 APERTURE LIST*
G04 #@! TA.AperFunction,ComponentPad*
%ADD10C,1.700000*%
G04 #@! TD*
G04 #@! TA.AperFunction,ComponentPad*
%ADD11R,1.700000X1.700000*%
G04 #@! TD*
G04 #@! TA.AperFunction,ComponentPad*
%ADD12O,1.700000X1.700000*%
G04 #@! TD*
G04 #@! TA.AperFunction,ViaPad*
%ADD13C,0.685800*%
G04 #@! TD*
G04 #@! TA.AperFunction,Conductor*
%ADD14C,0.152400*%
G04 #@! TD*
G04 APERTURE END LIST*
D10*
X139669800Y-114325800D03*
D11*
X142209800Y-114325800D03*
D12*
X144749800Y-114325800D03*
X147289800Y-114325800D03*
X149829800Y-114325800D03*
X152369800Y-114325800D03*
X154909800Y-114325800D03*
X157449800Y-114325800D03*
D10*
X142239800Y-99085800D03*
D12*
X144779800Y-99085800D03*
X147319800Y-99085800D03*
X149859800Y-99085800D03*
X152399800Y-99085800D03*
D11*
X154939800Y-99085800D03*
D13*
X158846800Y-112699800D03*
X160100000Y-102300000D03*
X146146800Y-100253800D03*
X137000000Y-102300000D03*
X156306800Y-112699800D03*
X151226800Y-112699800D03*
X143606800Y-100253800D03*
X153766800Y-112699800D03*
X148686800Y-100253800D03*
X146146800Y-112699800D03*
X146146800Y-102285800D03*
X144500000Y-105600000D03*
X138272800Y-112699800D03*
X148686800Y-112699800D03*
X147924800Y-103555800D03*
X157000000Y-103400000D03*
X144622800Y-102285800D03*
X153766800Y-104317800D03*
X151734800Y-109143800D03*
D14*
X153817120Y-111226120D02*
X154274800Y-111683800D01*
X154337811Y-102348811D02*
X154337811Y-104554322D01*
X157449800Y-112318800D02*
X157449800Y-114325800D01*
X154274800Y-111683800D02*
X156814800Y-111683800D01*
X148128480Y-101828120D02*
X153817120Y-101828120D01*
X156814800Y-111683800D02*
X157449800Y-112318800D01*
X154337811Y-104554322D02*
X153817120Y-105075013D01*
X153817120Y-101828120D02*
X154337811Y-102348811D01*
X147924800Y-103555800D02*
X147924800Y-102031800D01*
X153817120Y-105075013D02*
X153817120Y-111226120D01*
X147924800Y-102031800D02*
X148128480Y-101828120D01*
X144876800Y-101523800D02*
X144622800Y-101777800D01*
X144622800Y-101777800D02*
X144622800Y-102285800D01*
X157000000Y-102598000D02*
X155925800Y-101523800D01*
X155925800Y-101523800D02*
X144876800Y-101523800D01*
X157000000Y-103400000D02*
X157000000Y-102598000D01*
X153766800Y-104317800D02*
X153512800Y-104571800D01*
X153512800Y-111175800D02*
X153004800Y-111683800D01*
X153512800Y-104571800D02*
X153512800Y-111175800D01*
X147289800Y-112318800D02*
X147289800Y-114325800D01*
X153004800Y-111683800D02*
X147924800Y-111683800D01*
X147924800Y-111683800D02*
X147289800Y-112318800D01*
X139669800Y-114325800D02*
X139669800Y-110286800D01*
X140050800Y-109143800D02*
X151734800Y-109143800D01*
X139669800Y-110286800D02*
X139669800Y-109524800D01*
X139669800Y-109524800D02*
X140050800Y-109143800D01*
G04 #@! TA.AperFunction,Conductor*
G36*
X141485827Y-98064002D02*
G01*
X141532320Y-98117658D01*
X141542424Y-98187932D01*
X141512930Y-98252512D01*
X141500784Y-98264732D01*
X141481437Y-98281699D01*
X141435192Y-98322255D01*
X141309520Y-98481669D01*
X141306831Y-98486780D01*
X141306829Y-98486783D01*
X141293873Y-98511409D01*
X141215003Y-98661315D01*
X141154807Y-98855178D01*
X141130948Y-99056764D01*
X141144224Y-99259322D01*
X141145645Y-99264918D01*
X141145646Y-99264923D01*
X141174928Y-99380218D01*
X141194192Y-99456069D01*
X141196609Y-99461312D01*
X141262340Y-99603894D01*
X141279177Y-99640416D01*
X141396333Y-99806189D01*
X141541738Y-99947835D01*
X141546542Y-99951045D01*
X141600780Y-99987286D01*
X141710520Y-100060612D01*
X141715823Y-100062890D01*
X141715826Y-100062892D01*
X141804507Y-100100992D01*
X141897028Y-100140742D01*
X141970044Y-100157264D01*
X142089379Y-100184267D01*
X142089384Y-100184268D01*
X142095016Y-100185542D01*
X142100787Y-100185769D01*
X142100789Y-100185769D01*
X142160556Y-100188117D01*
X142297853Y-100193512D01*
X142398299Y-100178948D01*
X142493031Y-100165213D01*
X142493036Y-100165212D01*
X142498745Y-100164384D01*
X142504209Y-100162529D01*
X142504214Y-100162528D01*
X142685493Y-100100992D01*
X142685498Y-100100990D01*
X142690965Y-100099134D01*
X142719491Y-100083159D01*
X142799858Y-100038151D01*
X142868076Y-99999947D01*
X142883295Y-99987290D01*
X143019713Y-99873831D01*
X143024145Y-99870145D01*
X143153947Y-99714076D01*
X143215652Y-99603894D01*
X143250310Y-99542008D01*
X143250311Y-99542006D01*
X143253134Y-99536965D01*
X143254990Y-99531498D01*
X143254992Y-99531493D01*
X143316528Y-99350214D01*
X143316529Y-99350209D01*
X143318384Y-99344745D01*
X143319212Y-99339036D01*
X143319213Y-99339031D01*
X143346979Y-99147527D01*
X143347512Y-99143853D01*
X143349032Y-99085800D01*
X143331826Y-98898546D01*
X143330987Y-98889413D01*
X143330986Y-98889410D01*
X143330458Y-98883659D01*
X143327430Y-98872923D01*
X143276925Y-98693846D01*
X143276924Y-98693844D01*
X143275357Y-98688287D01*
X143264778Y-98666833D01*
X143188131Y-98511409D01*
X143185576Y-98506228D01*
X143064120Y-98343579D01*
X142990342Y-98275379D01*
X142976436Y-98262524D01*
X142939991Y-98201596D01*
X142942272Y-98130636D01*
X142982555Y-98072174D01*
X143048050Y-98044771D01*
X143061965Y-98044000D01*
X143957706Y-98044000D01*
X144025827Y-98064002D01*
X144072320Y-98117658D01*
X144082424Y-98187932D01*
X144052930Y-98252512D01*
X144040784Y-98264732D01*
X144021437Y-98281699D01*
X143975192Y-98322255D01*
X143849520Y-98481669D01*
X143846831Y-98486780D01*
X143846829Y-98486783D01*
X143833873Y-98511409D01*
X143755003Y-98661315D01*
X143694807Y-98855178D01*
X143670948Y-99056764D01*
X143684224Y-99259322D01*
X143685645Y-99264918D01*
X143685646Y-99264923D01*
X143714928Y-99380218D01*
X143734192Y-99456069D01*
X143736609Y-99461312D01*
X143802340Y-99603894D01*
X143819177Y-99640416D01*
X143936333Y-99806189D01*
X144081738Y-99947835D01*
X144086542Y-99951045D01*
X144140780Y-99987286D01*
X144250520Y-100060612D01*
X144255823Y-100062890D01*
X144255826Y-100062892D01*
X144344507Y-100100992D01*
X144437028Y-100140742D01*
X144510044Y-100157264D01*
X144629379Y-100184267D01*
X144629384Y-100184268D01*
X144635016Y-100185542D01*
X144640787Y-100185769D01*
X144640789Y-100185769D01*
X144700556Y-100188117D01*
X144837853Y-100193512D01*
X144938299Y-100178948D01*
X145033031Y-100165213D01*
X145033036Y-100165212D01*
X145038745Y-100164384D01*
X145044209Y-100162529D01*
X145044214Y-100162528D01*
X145225493Y-100100992D01*
X145225498Y-100100990D01*
X145230965Y-100099134D01*
X145259491Y-100083159D01*
X145339858Y-100038151D01*
X145408076Y-99999947D01*
X145423295Y-99987290D01*
X145559713Y-99873831D01*
X145564145Y-99870145D01*
X145693947Y-99714076D01*
X145755652Y-99603894D01*
X145790310Y-99542008D01*
X145790311Y-99542006D01*
X145793134Y-99536965D01*
X145794990Y-99531498D01*
X145794992Y-99531493D01*
X145856528Y-99350214D01*
X145856529Y-99350209D01*
X145858384Y-99344745D01*
X145859212Y-99339036D01*
X145859213Y-99339031D01*
X145886979Y-99147527D01*
X145887512Y-99143853D01*
X145889032Y-99085800D01*
X145871826Y-98898546D01*
X145870987Y-98889413D01*
X145870986Y-98889410D01*
X145870458Y-98883659D01*
X145867430Y-98872923D01*
X145816925Y-98693846D01*
X145816924Y-98693844D01*
X145815357Y-98688287D01*
X145804778Y-98666833D01*
X145728131Y-98511409D01*
X145725576Y-98506228D01*
X145604120Y-98343579D01*
X145530342Y-98275379D01*
X145516436Y-98262524D01*
X145479991Y-98201596D01*
X145482272Y-98130636D01*
X145522555Y-98072174D01*
X145588050Y-98044771D01*
X145601965Y-98044000D01*
X146497706Y-98044000D01*
X146565827Y-98064002D01*
X146612320Y-98117658D01*
X146622424Y-98187932D01*
X146592930Y-98252512D01*
X146580784Y-98264732D01*
X146561437Y-98281699D01*
X146515192Y-98322255D01*
X146389520Y-98481669D01*
X146386831Y-98486780D01*
X146386829Y-98486783D01*
X146373873Y-98511409D01*
X146295003Y-98661315D01*
X146234807Y-98855178D01*
X146210948Y-99056764D01*
X146224224Y-99259322D01*
X146225645Y-99264918D01*
X146225646Y-99264923D01*
X146254928Y-99380218D01*
X146274192Y-99456069D01*
X146276609Y-99461312D01*
X146342340Y-99603894D01*
X146359177Y-99640416D01*
X146476333Y-99806189D01*
X146621738Y-99947835D01*
X146626542Y-99951045D01*
X146680780Y-99987286D01*
X146790520Y-100060612D01*
X146795823Y-100062890D01*
X146795826Y-100062892D01*
X146884507Y-100100992D01*
X146977028Y-100140742D01*
X147050044Y-100157264D01*
X147169379Y-100184267D01*
X147169384Y-100184268D01*
X147175016Y-100185542D01*
X147180787Y-100185769D01*
X147180789Y-100185769D01*
X147240556Y-100188117D01*
X147377853Y-100193512D01*
X147478299Y-100178948D01*
X147573031Y-100165213D01*
X147573036Y-100165212D01*
X147578745Y-100164384D01*
X147584209Y-100162529D01*
X147584214Y-100162528D01*
X147765493Y-100100992D01*
X147765498Y-100100990D01*
X147770965Y-100099134D01*
X147799491Y-100083159D01*
X147879858Y-100038151D01*
X147948076Y-99999947D01*
X147963295Y-99987290D01*
X148099713Y-99873831D01*
X148104145Y-99870145D01*
X148233947Y-99714076D01*
X148295652Y-99603894D01*
X148330310Y-99542008D01*
X148330311Y-99542006D01*
X148333134Y-99536965D01*
X148334990Y-99531498D01*
X148334992Y-99531493D01*
X148396528Y-99350214D01*
X148396529Y-99350209D01*
X148398384Y-99344745D01*
X148399212Y-99339036D01*
X148399213Y-99339031D01*
X148426979Y-99147527D01*
X148427512Y-99143853D01*
X148429032Y-99085800D01*
X148411826Y-98898546D01*
X148410987Y-98889413D01*
X148410986Y-98889410D01*
X148410458Y-98883659D01*
X148407430Y-98872923D01*
X148356925Y-98693846D01*
X148356924Y-98693844D01*
X148355357Y-98688287D01*
X148344778Y-98666833D01*
X148268131Y-98511409D01*
X148265576Y-98506228D01*
X148144120Y-98343579D01*
X148070342Y-98275379D01*
X148056436Y-98262524D01*
X148019991Y-98201596D01*
X148022272Y-98130636D01*
X148062555Y-98072174D01*
X148128050Y-98044771D01*
X148141965Y-98044000D01*
X149037706Y-98044000D01*
X149105827Y-98064002D01*
X149152320Y-98117658D01*
X149162424Y-98187932D01*
X149132930Y-98252512D01*
X149120784Y-98264732D01*
X149101437Y-98281699D01*
X149055192Y-98322255D01*
X148929520Y-98481669D01*
X148926831Y-98486780D01*
X148926829Y-98486783D01*
X148913873Y-98511409D01*
X148835003Y-98661315D01*
X148774807Y-98855178D01*
X148750948Y-99056764D01*
X148764224Y-99259322D01*
X148765645Y-99264918D01*
X148765646Y-99264923D01*
X148794928Y-99380218D01*
X148814192Y-99456069D01*
X148816609Y-99461312D01*
X148882340Y-99603894D01*
X148899177Y-99640416D01*
X149016333Y-99806189D01*
X149161738Y-99947835D01*
X149166542Y-99951045D01*
X149220780Y-99987286D01*
X149330520Y-100060612D01*
X149335823Y-100062890D01*
X149335826Y-100062892D01*
X149424507Y-100100992D01*
X149517028Y-100140742D01*
X149590044Y-100157264D01*
X149709379Y-100184267D01*
X149709384Y-100184268D01*
X149715016Y-100185542D01*
X149720787Y-100185769D01*
X149720789Y-100185769D01*
X149780556Y-100188117D01*
X149917853Y-100193512D01*
X150018299Y-100178948D01*
X150113031Y-100165213D01*
X150113036Y-100165212D01*
X150118745Y-100164384D01*
X150124209Y-100162529D01*
X150124214Y-100162528D01*
X150305493Y-100100992D01*
X150305498Y-100100990D01*
X150310965Y-100099134D01*
X150339491Y-100083159D01*
X150419858Y-100038151D01*
X150488076Y-99999947D01*
X150503295Y-99987290D01*
X150639713Y-99873831D01*
X150644145Y-99870145D01*
X150773947Y-99714076D01*
X150835652Y-99603894D01*
X150870310Y-99542008D01*
X150870311Y-99542006D01*
X150873134Y-99536965D01*
X150874990Y-99531498D01*
X150874992Y-99531493D01*
X150936528Y-99350214D01*
X150936529Y-99350209D01*
X150938384Y-99344745D01*
X150939212Y-99339036D01*
X150939213Y-99339031D01*
X150966979Y-99147527D01*
X150967512Y-99143853D01*
X150969032Y-99085800D01*
X150951826Y-98898546D01*
X150950987Y-98889413D01*
X150950986Y-98889410D01*
X150950458Y-98883659D01*
X150947430Y-98872923D01*
X150896925Y-98693846D01*
X150896924Y-98693844D01*
X150895357Y-98688287D01*
X150884778Y-98666833D01*
X150808131Y-98511409D01*
X150805576Y-98506228D01*
X150684120Y-98343579D01*
X150610342Y-98275379D01*
X150596436Y-98262524D01*
X150559991Y-98201596D01*
X150562272Y-98130636D01*
X150602555Y-98072174D01*
X150668050Y-98044771D01*
X150681965Y-98044000D01*
X151577706Y-98044000D01*
X151645827Y-98064002D01*
X151692320Y-98117658D01*
X151702424Y-98187932D01*
X151672930Y-98252512D01*
X151660784Y-98264732D01*
X151641437Y-98281699D01*
X151595192Y-98322255D01*
X151469520Y-98481669D01*
X151466831Y-98486780D01*
X151466829Y-98486783D01*
X151453873Y-98511409D01*
X151375003Y-98661315D01*
X151314807Y-98855178D01*
X151290948Y-99056764D01*
X151304224Y-99259322D01*
X151305645Y-99264918D01*
X151305646Y-99264923D01*
X151334928Y-99380218D01*
X151354192Y-99456069D01*
X151356609Y-99461312D01*
X151422340Y-99603894D01*
X151439177Y-99640416D01*
X151556333Y-99806189D01*
X151701738Y-99947835D01*
X151706542Y-99951045D01*
X151760780Y-99987286D01*
X151870520Y-100060612D01*
X151875823Y-100062890D01*
X151875826Y-100062892D01*
X151964507Y-100100992D01*
X152057028Y-100140742D01*
X152130044Y-100157264D01*
X152249379Y-100184267D01*
X152249384Y-100184268D01*
X152255016Y-100185542D01*
X152260787Y-100185769D01*
X152260789Y-100185769D01*
X152320556Y-100188117D01*
X152457853Y-100193512D01*
X152558299Y-100178948D01*
X152653031Y-100165213D01*
X152653036Y-100165212D01*
X152658745Y-100164384D01*
X152664209Y-100162529D01*
X152664214Y-100162528D01*
X152845493Y-100100992D01*
X152845498Y-100100990D01*
X152850965Y-100099134D01*
X152879491Y-100083159D01*
X152959858Y-100038151D01*
X153028076Y-99999947D01*
X153043295Y-99987290D01*
X153179713Y-99873831D01*
X153184145Y-99870145D01*
X153313947Y-99714076D01*
X153316769Y-99709036D01*
X153316773Y-99709031D01*
X153345867Y-99657079D01*
X153396604Y-99607417D01*
X153466135Y-99593070D01*
X153532386Y-99618591D01*
X153574322Y-99675880D01*
X153581801Y-99718645D01*
X153581801Y-99980469D01*
X153582171Y-99987290D01*
X153587695Y-100038152D01*
X153591321Y-100053404D01*
X153636476Y-100173854D01*
X153645014Y-100189449D01*
X153721515Y-100291524D01*
X153734076Y-100304085D01*
X153836151Y-100380586D01*
X153851746Y-100389124D01*
X153972194Y-100434278D01*
X153987449Y-100437905D01*
X154038314Y-100443431D01*
X154045128Y-100443800D01*
X154667685Y-100443800D01*
X154682924Y-100439325D01*
X154684129Y-100437935D01*
X154685800Y-100430252D01*
X154685800Y-100425684D01*
X155193800Y-100425684D01*
X155198275Y-100440923D01*
X155199665Y-100442128D01*
X155207348Y-100443799D01*
X155834469Y-100443799D01*
X155841290Y-100443429D01*
X155892152Y-100437905D01*
X155907404Y-100434279D01*
X156027854Y-100389124D01*
X156043449Y-100380586D01*
X156110946Y-100330000D01*
X157140539Y-100330000D01*
X157160354Y-100581775D01*
X157161508Y-100586582D01*
X157161509Y-100586588D01*
X157198613Y-100741135D01*
X157219312Y-100827351D01*
X157315960Y-101060680D01*
X157447919Y-101276017D01*
X157611939Y-101468061D01*
X157803983Y-101632081D01*
X158019320Y-101764040D01*
X158023890Y-101765933D01*
X158023894Y-101765935D01*
X158247159Y-101858414D01*
X158252649Y-101860688D01*
X158310188Y-101874502D01*
X158493412Y-101918491D01*
X158493418Y-101918492D01*
X158498225Y-101919646D01*
X158586253Y-101926574D01*
X158684507Y-101934307D01*
X158684516Y-101934307D01*
X158686964Y-101934500D01*
X158813036Y-101934500D01*
X158815484Y-101934307D01*
X158815493Y-101934307D01*
X158913747Y-101926574D01*
X159001775Y-101919646D01*
X159006582Y-101918492D01*
X159006588Y-101918491D01*
X159189812Y-101874502D01*
X159247351Y-101860688D01*
X159252841Y-101858414D01*
X159476106Y-101765935D01*
X159476110Y-101765933D01*
X159480680Y-101764040D01*
X159696017Y-101632081D01*
X159888061Y-101468061D01*
X160052081Y-101276017D01*
X160184040Y-101060680D01*
X160280688Y-100827351D01*
X160301387Y-100741135D01*
X160338491Y-100586588D01*
X160338492Y-100586582D01*
X160339646Y-100581775D01*
X160359461Y-100330000D01*
X160339646Y-100078225D01*
X160338492Y-100073418D01*
X160338491Y-100073412D01*
X160281843Y-99837461D01*
X160280688Y-99832649D01*
X160233466Y-99718645D01*
X160185935Y-99603894D01*
X160185933Y-99603890D01*
X160184040Y-99599320D01*
X160052081Y-99383983D01*
X159888061Y-99191939D01*
X159696017Y-99027919D01*
X159480680Y-98895960D01*
X159476110Y-98894067D01*
X159476106Y-98894065D01*
X159251924Y-98801206D01*
X159251922Y-98801205D01*
X159247351Y-98799312D01*
X159161135Y-98778613D01*
X159006588Y-98741509D01*
X159006582Y-98741508D01*
X159001775Y-98740354D01*
X158913747Y-98733426D01*
X158815493Y-98725693D01*
X158815484Y-98725693D01*
X158813036Y-98725500D01*
X158686964Y-98725500D01*
X158684516Y-98725693D01*
X158684507Y-98725693D01*
X158586253Y-98733426D01*
X158498225Y-98740354D01*
X158493418Y-98741508D01*
X158493412Y-98741509D01*
X158338865Y-98778613D01*
X158252649Y-98799312D01*
X158248078Y-98801205D01*
X158248076Y-98801206D01*
X158023894Y-98894065D01*
X158023890Y-98894067D01*
X158019320Y-98895960D01*
X157803983Y-99027919D01*
X157611939Y-99191939D01*
X157447919Y-99383983D01*
X157315960Y-99599320D01*
X157314067Y-99603890D01*
X157314065Y-99603894D01*
X157266534Y-99718645D01*
X157219312Y-99832649D01*
X157218157Y-99837461D01*
X157161509Y-100073412D01*
X157161508Y-100073418D01*
X157160354Y-100078225D01*
X157140539Y-100330000D01*
X156110946Y-100330000D01*
X156145524Y-100304085D01*
X156158085Y-100291524D01*
X156234586Y-100189449D01*
X156243124Y-100173854D01*
X156288278Y-100053406D01*
X156291905Y-100038151D01*
X156297431Y-99987286D01*
X156297800Y-99980472D01*
X156297800Y-99357915D01*
X156293325Y-99342676D01*
X156291935Y-99341471D01*
X156284252Y-99339800D01*
X155211915Y-99339800D01*
X155196676Y-99344275D01*
X155195471Y-99345665D01*
X155193800Y-99353348D01*
X155193800Y-100425684D01*
X154685800Y-100425684D01*
X154685800Y-98957800D01*
X154705802Y-98889679D01*
X154759458Y-98843186D01*
X154811800Y-98831800D01*
X156279684Y-98831800D01*
X156294923Y-98827325D01*
X156296128Y-98825935D01*
X156297799Y-98818252D01*
X156297799Y-98191131D01*
X156297430Y-98184323D01*
X156297352Y-98183603D01*
X156297382Y-98183435D01*
X156297246Y-98180923D01*
X156297838Y-98180891D01*
X156309883Y-98113721D01*
X156358206Y-98061707D01*
X156422616Y-98044000D01*
X159982575Y-98044000D01*
X160007153Y-98046421D01*
X160020000Y-98048976D01*
X160032172Y-98046555D01*
X160043699Y-98046555D01*
X160054681Y-98047034D01*
X160185449Y-98058475D01*
X160207070Y-98062287D01*
X160356848Y-98102420D01*
X160377484Y-98109931D01*
X160518010Y-98175460D01*
X160537030Y-98186442D01*
X160664046Y-98275379D01*
X160680871Y-98289497D01*
X160790503Y-98399129D01*
X160804621Y-98415954D01*
X160893558Y-98542970D01*
X160904540Y-98561990D01*
X160970069Y-98702516D01*
X160977580Y-98723152D01*
X161017713Y-98872930D01*
X161021526Y-98894554D01*
X161032966Y-99025320D01*
X161033445Y-99036301D01*
X161033445Y-99047828D01*
X161031024Y-99060000D01*
X161033445Y-99072170D01*
X161033579Y-99072844D01*
X161036000Y-99097425D01*
X161036000Y-114262575D01*
X161033579Y-114287153D01*
X161031024Y-114300000D01*
X161033445Y-114312172D01*
X161033445Y-114323699D01*
X161032966Y-114334680D01*
X161021526Y-114465446D01*
X161017713Y-114487070D01*
X160990076Y-114590214D01*
X160977581Y-114636846D01*
X160970069Y-114657484D01*
X160904540Y-114798010D01*
X160893558Y-114817030D01*
X160804621Y-114944046D01*
X160790503Y-114960871D01*
X160680871Y-115070503D01*
X160664046Y-115084621D01*
X160537030Y-115173558D01*
X160518010Y-115184540D01*
X160377484Y-115250069D01*
X160356848Y-115257580D01*
X160207070Y-115297713D01*
X160185449Y-115301525D01*
X160076878Y-115311024D01*
X160054680Y-115312966D01*
X160043699Y-115313445D01*
X160032172Y-115313445D01*
X160020000Y-115311024D01*
X160007153Y-115313579D01*
X159982575Y-115316000D01*
X158331614Y-115316000D01*
X158263493Y-115295998D01*
X158217000Y-115242342D01*
X158206896Y-115172068D01*
X158234740Y-115109431D01*
X158360249Y-114958524D01*
X158360256Y-114958514D01*
X158363947Y-114954076D01*
X158463134Y-114776965D01*
X158464990Y-114771498D01*
X158464992Y-114771493D01*
X158526528Y-114590214D01*
X158526529Y-114590209D01*
X158528384Y-114584745D01*
X158529212Y-114579036D01*
X158529213Y-114579031D01*
X158556979Y-114387527D01*
X158557512Y-114383853D01*
X158559032Y-114325800D01*
X158540458Y-114123659D01*
X158538890Y-114118099D01*
X158486925Y-113933846D01*
X158486924Y-113933844D01*
X158485357Y-113928287D01*
X158474778Y-113906833D01*
X158398131Y-113751409D01*
X158395576Y-113746228D01*
X158274120Y-113583579D01*
X158125058Y-113445787D01*
X158120175Y-113442706D01*
X158120171Y-113442703D01*
X157958264Y-113340548D01*
X157953381Y-113337467D01*
X157948017Y-113335327D01*
X157859809Y-113300135D01*
X157803950Y-113256314D01*
X157780500Y-113183105D01*
X157780500Y-112338749D01*
X157780979Y-112327768D01*
X157783364Y-112300509D01*
X157783364Y-112300508D01*
X157784324Y-112289533D01*
X157774391Y-112252461D01*
X157772015Y-112241743D01*
X157767265Y-112214803D01*
X157767265Y-112214802D01*
X157765351Y-112203949D01*
X157759840Y-112194404D01*
X157758569Y-112190911D01*
X157756994Y-112187533D01*
X157754140Y-112176884D01*
X157747816Y-112167853D01*
X157747815Y-112167850D01*
X157732127Y-112145445D01*
X157726221Y-112136175D01*
X157712550Y-112112496D01*
X157712549Y-112112495D01*
X157707039Y-112102951D01*
X157677647Y-112078288D01*
X157669544Y-112070863D01*
X157062743Y-111464063D01*
X157055317Y-111455959D01*
X157037733Y-111435003D01*
X157037732Y-111435002D01*
X157030649Y-111426561D01*
X156997425Y-111407378D01*
X156988155Y-111401473D01*
X156965750Y-111385785D01*
X156965747Y-111385784D01*
X156956716Y-111379460D01*
X156946067Y-111376606D01*
X156942689Y-111375031D01*
X156939196Y-111373760D01*
X156929651Y-111368249D01*
X156918798Y-111366335D01*
X156918797Y-111366335D01*
X156907700Y-111364378D01*
X156891853Y-111361584D01*
X156881139Y-111359209D01*
X156844067Y-111349276D01*
X156833092Y-111350236D01*
X156833091Y-111350236D01*
X156805832Y-111352621D01*
X156794851Y-111353100D01*
X154463970Y-111353100D01*
X154395849Y-111333098D01*
X154374875Y-111316195D01*
X154184725Y-111126045D01*
X154150699Y-111063733D01*
X154147820Y-111036950D01*
X154147820Y-105264183D01*
X154167822Y-105196062D01*
X154184725Y-105175088D01*
X154557543Y-104802270D01*
X154565647Y-104794844D01*
X154586604Y-104777259D01*
X154586607Y-104777256D01*
X154595050Y-104770171D01*
X154614237Y-104736939D01*
X154620133Y-104727683D01*
X154642151Y-104696239D01*
X154645005Y-104685587D01*
X154646581Y-104682208D01*
X154647851Y-104678719D01*
X154653362Y-104669173D01*
X154660027Y-104631377D01*
X154662402Y-104620661D01*
X154672335Y-104583589D01*
X154669704Y-104553509D01*
X154668990Y-104545354D01*
X154668511Y-104534373D01*
X154668511Y-102368760D01*
X154668990Y-102357779D01*
X154671375Y-102330520D01*
X154671375Y-102330519D01*
X154672335Y-102319544D01*
X154662402Y-102282472D01*
X154660026Y-102271753D01*
X154655276Y-102244815D01*
X154653362Y-102233960D01*
X154647851Y-102224414D01*
X154646581Y-102220925D01*
X154645005Y-102217546D01*
X154642151Y-102206894D01*
X154620133Y-102175450D01*
X154614237Y-102166194D01*
X154600562Y-102142509D01*
X154595050Y-102132962D01*
X154586607Y-102125877D01*
X154586604Y-102125874D01*
X154565647Y-102108289D01*
X154557543Y-102100863D01*
X154526275Y-102069595D01*
X154492249Y-102007283D01*
X154497314Y-101936468D01*
X154539861Y-101879632D01*
X154606381Y-101854821D01*
X154615370Y-101854500D01*
X155736630Y-101854500D01*
X155804751Y-101874502D01*
X155825725Y-101891405D01*
X156632395Y-102698075D01*
X156666421Y-102760387D01*
X156669300Y-102787170D01*
X156669300Y-102838613D01*
X156649298Y-102906734D01*
X156620004Y-102938574D01*
X156573929Y-102973929D01*
X156478172Y-103098723D01*
X156417977Y-103244047D01*
X156397445Y-103400000D01*
X156417977Y-103555953D01*
X156478172Y-103701277D01*
X156573929Y-103826071D01*
X156698722Y-103921828D01*
X156844047Y-103982023D01*
X157000000Y-104002555D01*
X157155953Y-103982023D01*
X157301278Y-103921828D01*
X157426071Y-103826071D01*
X157521828Y-103701277D01*
X157582023Y-103555953D01*
X157602555Y-103400000D01*
X157582023Y-103244047D01*
X157521828Y-103098723D01*
X157426071Y-102973929D01*
X157419521Y-102968903D01*
X157419518Y-102968900D01*
X157379996Y-102938574D01*
X157338128Y-102881236D01*
X157330700Y-102838612D01*
X157330700Y-102617949D01*
X157331179Y-102606968D01*
X157333564Y-102579709D01*
X157333564Y-102579708D01*
X157334524Y-102568733D01*
X157324591Y-102531661D01*
X157322215Y-102520943D01*
X157317465Y-102494003D01*
X157317465Y-102494002D01*
X157315551Y-102483149D01*
X157310040Y-102473604D01*
X157308769Y-102470111D01*
X157307194Y-102466733D01*
X157304340Y-102456084D01*
X157298016Y-102447053D01*
X157298015Y-102447050D01*
X157282327Y-102424645D01*
X157276422Y-102415376D01*
X157275618Y-102413983D01*
X157257239Y-102382151D01*
X157248796Y-102375067D01*
X157248794Y-102375064D01*
X157227836Y-102357478D01*
X157219732Y-102350052D01*
X156173748Y-101304068D01*
X156166322Y-101295964D01*
X156148736Y-101275006D01*
X156148733Y-101275004D01*
X156141649Y-101266561D01*
X156108425Y-101247378D01*
X156099155Y-101241473D01*
X156076750Y-101225785D01*
X156076746Y-101225783D01*
X156067716Y-101219460D01*
X156057067Y-101216606D01*
X156053689Y-101215031D01*
X156050196Y-101213760D01*
X156040651Y-101208249D01*
X156029798Y-101206335D01*
X156029797Y-101206335D01*
X156018700Y-101204378D01*
X156002853Y-101201584D01*
X155992139Y-101199209D01*
X155955067Y-101189276D01*
X155944092Y-101190236D01*
X155944091Y-101190236D01*
X155916832Y-101192621D01*
X155905851Y-101193100D01*
X144896749Y-101193100D01*
X144885768Y-101192621D01*
X144858509Y-101190236D01*
X144858508Y-101190236D01*
X144847533Y-101189276D01*
X144810461Y-101199209D01*
X144799745Y-101201584D01*
X144761949Y-101208249D01*
X144752403Y-101213760D01*
X144748914Y-101215030D01*
X144745535Y-101216606D01*
X144734883Y-101219460D01*
X144703439Y-101241478D01*
X144694183Y-101247374D01*
X144660951Y-101266561D01*
X144653866Y-101275004D01*
X144653863Y-101275007D01*
X144636278Y-101295964D01*
X144628852Y-101304068D01*
X144403068Y-101529852D01*
X144394964Y-101537278D01*
X144374006Y-101554864D01*
X144374004Y-101554867D01*
X144365561Y-101561951D01*
X144347182Y-101593783D01*
X144346378Y-101595176D01*
X144340473Y-101604445D01*
X144324785Y-101626850D01*
X144324784Y-101626853D01*
X144318460Y-101635884D01*
X144315606Y-101646533D01*
X144314031Y-101649911D01*
X144312760Y-101653404D01*
X144307249Y-101662949D01*
X144305335Y-101673802D01*
X144305335Y-101673803D01*
X144300585Y-101700743D01*
X144298209Y-101711461D01*
X144288276Y-101748533D01*
X144288276Y-101748534D01*
X144286464Y-101748049D01*
X144265468Y-101801733D01*
X144242510Y-101824600D01*
X144203277Y-101854704D01*
X144203275Y-101854706D01*
X144196729Y-101859729D01*
X144100972Y-101984523D01*
X144040777Y-102129847D01*
X144020245Y-102285800D01*
X144040777Y-102441753D01*
X144100972Y-102587077D01*
X144196729Y-102711871D01*
X144321522Y-102807628D01*
X144466847Y-102867823D01*
X144622800Y-102888355D01*
X144778753Y-102867823D01*
X144924078Y-102807628D01*
X145048871Y-102711871D01*
X145144628Y-102587077D01*
X145204823Y-102441753D01*
X145225355Y-102285800D01*
X145204823Y-102129847D01*
X145162934Y-102028718D01*
X145155345Y-101958128D01*
X145187124Y-101894641D01*
X145248182Y-101858414D01*
X145279343Y-101854500D01*
X147467644Y-101854500D01*
X147535765Y-101874502D01*
X147582258Y-101928158D01*
X147593164Y-101991484D01*
X147593129Y-101991886D01*
X147590276Y-102002533D01*
X147591236Y-102013509D01*
X147591236Y-102013511D01*
X147593621Y-102040768D01*
X147594100Y-102051749D01*
X147594100Y-102994413D01*
X147574098Y-103062534D01*
X147544804Y-103094374D01*
X147498729Y-103129729D01*
X147402972Y-103254523D01*
X147342777Y-103399847D01*
X147322245Y-103555800D01*
X147342777Y-103711753D01*
X147402972Y-103857077D01*
X147498729Y-103981871D01*
X147623522Y-104077628D01*
X147768847Y-104137823D01*
X147924800Y-104158355D01*
X148080753Y-104137823D01*
X148226078Y-104077628D01*
X148350871Y-103981871D01*
X148446628Y-103857077D01*
X148506823Y-103711753D01*
X148527355Y-103555800D01*
X148506823Y-103399847D01*
X148446628Y-103254523D01*
X148350871Y-103129729D01*
X148344321Y-103124703D01*
X148344318Y-103124700D01*
X148304796Y-103094374D01*
X148262928Y-103037036D01*
X148255500Y-102994412D01*
X148255500Y-102284820D01*
X148275502Y-102216699D01*
X148329158Y-102170206D01*
X148381500Y-102158820D01*
X153627950Y-102158820D01*
X153696071Y-102178822D01*
X153717045Y-102195725D01*
X153970206Y-102448886D01*
X154004232Y-102511198D01*
X154007111Y-102537981D01*
X154007111Y-103603207D01*
X153987109Y-103671328D01*
X153933453Y-103717821D01*
X153864665Y-103728129D01*
X153774989Y-103716323D01*
X153774988Y-103716323D01*
X153766800Y-103715245D01*
X153610847Y-103735777D01*
X153465523Y-103795972D01*
X153340729Y-103891729D01*
X153244972Y-104016523D01*
X153184777Y-104161847D01*
X153164245Y-104317800D01*
X153165323Y-104325988D01*
X153184777Y-104473753D01*
X153182562Y-104474045D01*
X153182562Y-104526536D01*
X153178276Y-104542533D01*
X153179236Y-104553508D01*
X153179236Y-104553509D01*
X153181621Y-104580768D01*
X153182100Y-104591749D01*
X153182100Y-110986630D01*
X153162098Y-111054751D01*
X153145195Y-111075725D01*
X152904725Y-111316195D01*
X152842413Y-111350221D01*
X152815630Y-111353100D01*
X147944749Y-111353100D01*
X147933768Y-111352621D01*
X147906509Y-111350236D01*
X147906508Y-111350236D01*
X147895533Y-111349276D01*
X147858461Y-111359209D01*
X147847747Y-111361584D01*
X147831900Y-111364378D01*
X147820803Y-111366335D01*
X147820802Y-111366335D01*
X147809949Y-111368249D01*
X147800404Y-111373760D01*
X147796911Y-111375031D01*
X147793533Y-111376606D01*
X147782884Y-111379460D01*
X147773853Y-111385784D01*
X147773850Y-111385785D01*
X147751445Y-111401473D01*
X147742177Y-111407378D01*
X147708951Y-111426561D01*
X147701868Y-111435002D01*
X147701867Y-111435003D01*
X147684288Y-111455953D01*
X147676863Y-111464056D01*
X147070063Y-112070857D01*
X147061959Y-112078283D01*
X147032561Y-112102951D01*
X147014182Y-112134783D01*
X147013378Y-112136176D01*
X147007473Y-112145445D01*
X146991785Y-112167850D01*
X146991784Y-112167853D01*
X146985460Y-112176884D01*
X146982606Y-112187533D01*
X146981031Y-112190911D01*
X146979760Y-112194404D01*
X146974249Y-112203949D01*
X146972335Y-112214802D01*
X146972335Y-112214803D01*
X146967585Y-112241743D01*
X146965209Y-112252461D01*
X146955276Y-112289533D01*
X146956236Y-112300508D01*
X146956236Y-112300509D01*
X146958621Y-112327768D01*
X146959100Y-112338749D01*
X146959100Y-113182636D01*
X146939098Y-113250757D01*
X146885442Y-113297250D01*
X146876714Y-113300847D01*
X146812263Y-113324624D01*
X146637810Y-113428412D01*
X146633470Y-113432218D01*
X146633466Y-113432221D01*
X146613523Y-113449711D01*
X146485192Y-113562255D01*
X146359520Y-113721669D01*
X146356831Y-113726780D01*
X146356829Y-113726783D01*
X146345307Y-113748683D01*
X146265003Y-113901315D01*
X146204807Y-114095178D01*
X146180948Y-114296764D01*
X146194224Y-114499322D01*
X146195645Y-114504918D01*
X146195646Y-114504923D01*
X146242771Y-114690474D01*
X146244192Y-114696069D01*
X146246609Y-114701312D01*
X146283810Y-114782008D01*
X146329177Y-114880416D01*
X146332510Y-114885132D01*
X146380526Y-114953073D01*
X146446333Y-115046189D01*
X146450475Y-115050224D01*
X146501311Y-115099746D01*
X146536149Y-115161607D01*
X146532012Y-115232483D01*
X146490213Y-115289871D01*
X146424023Y-115315551D01*
X146413390Y-115316000D01*
X145631614Y-115316000D01*
X145563493Y-115295998D01*
X145517000Y-115242342D01*
X145506896Y-115172068D01*
X145534740Y-115109431D01*
X145660249Y-114958524D01*
X145660256Y-114958514D01*
X145663947Y-114954076D01*
X145763134Y-114776965D01*
X145764990Y-114771498D01*
X145764992Y-114771493D01*
X145826528Y-114590214D01*
X145826529Y-114590209D01*
X145828384Y-114584745D01*
X145829212Y-114579036D01*
X145829213Y-114579031D01*
X145856979Y-114387527D01*
X145857512Y-114383853D01*
X145859032Y-114325800D01*
X145840458Y-114123659D01*
X145838890Y-114118099D01*
X145786925Y-113933846D01*
X145786924Y-113933844D01*
X145785357Y-113928287D01*
X145774778Y-113906833D01*
X145698131Y-113751409D01*
X145695576Y-113746228D01*
X145574120Y-113583579D01*
X145425058Y-113445787D01*
X145420175Y-113442706D01*
X145420171Y-113442703D01*
X145258264Y-113340548D01*
X145253381Y-113337467D01*
X145064839Y-113262246D01*
X145059179Y-113261120D01*
X145059175Y-113261119D01*
X144871413Y-113223771D01*
X144871410Y-113223771D01*
X144865746Y-113222644D01*
X144859971Y-113222568D01*
X144859967Y-113222568D01*
X144758593Y-113221241D01*
X144662771Y-113219987D01*
X144657074Y-113220966D01*
X144657073Y-113220966D01*
X144559420Y-113237746D01*
X144462710Y-113254364D01*
X144272263Y-113324624D01*
X144097810Y-113428412D01*
X144093470Y-113432218D01*
X144093466Y-113432221D01*
X144073523Y-113449711D01*
X143945192Y-113562255D01*
X143819520Y-113721669D01*
X143816831Y-113726780D01*
X143816829Y-113726783D01*
X143805307Y-113748683D01*
X143755887Y-113799656D01*
X143686755Y-113815818D01*
X143619859Y-113792039D01*
X143576438Y-113735868D01*
X143567799Y-113690015D01*
X143567799Y-113431131D01*
X143567429Y-113424310D01*
X143561905Y-113373448D01*
X143558279Y-113358196D01*
X143513124Y-113237746D01*
X143504586Y-113222151D01*
X143428085Y-113120076D01*
X143415524Y-113107515D01*
X143313449Y-113031014D01*
X143297854Y-113022476D01*
X143177406Y-112977322D01*
X143162151Y-112973695D01*
X143111286Y-112968169D01*
X143104472Y-112967800D01*
X142481915Y-112967800D01*
X142466676Y-112972275D01*
X142465471Y-112973665D01*
X142463800Y-112981348D01*
X142463800Y-114453800D01*
X142443798Y-114521921D01*
X142390142Y-114568414D01*
X142337800Y-114579800D01*
X142081800Y-114579800D01*
X142013679Y-114559798D01*
X141967186Y-114506142D01*
X141955800Y-114453800D01*
X141955800Y-112985916D01*
X141951325Y-112970677D01*
X141949935Y-112969472D01*
X141942252Y-112967801D01*
X141315131Y-112967801D01*
X141308310Y-112968171D01*
X141257448Y-112973695D01*
X141242196Y-112977321D01*
X141121746Y-113022476D01*
X141106151Y-113031014D01*
X141004076Y-113107515D01*
X140991515Y-113120076D01*
X140915014Y-113222151D01*
X140906476Y-113237746D01*
X140861322Y-113358194D01*
X140857695Y-113373449D01*
X140852169Y-113424314D01*
X140851800Y-113431128D01*
X140851800Y-113685960D01*
X140831798Y-113754081D01*
X140778142Y-113800574D01*
X140707868Y-113810678D01*
X140643288Y-113781184D01*
X140618367Y-113751794D01*
X140618131Y-113751408D01*
X140615576Y-113746228D01*
X140494120Y-113583579D01*
X140345058Y-113445787D01*
X140340175Y-113442706D01*
X140340171Y-113442703D01*
X140178264Y-113340548D01*
X140173381Y-113337467D01*
X140168017Y-113335327D01*
X140079809Y-113300135D01*
X140023950Y-113256314D01*
X140000500Y-113183105D01*
X140000500Y-109713970D01*
X140020502Y-109645849D01*
X140037405Y-109624875D01*
X140150875Y-109511405D01*
X140213187Y-109477379D01*
X140239970Y-109474500D01*
X151173413Y-109474500D01*
X151241534Y-109494502D01*
X151273374Y-109523796D01*
X151308729Y-109569871D01*
X151433522Y-109665628D01*
X151578847Y-109725823D01*
X151734800Y-109746355D01*
X151890753Y-109725823D01*
X152036078Y-109665628D01*
X152160871Y-109569871D01*
X152256628Y-109445077D01*
X152316823Y-109299753D01*
X152337355Y-109143800D01*
X152316823Y-108987847D01*
X152256628Y-108842523D01*
X152160871Y-108717729D01*
X152036078Y-108621972D01*
X151890753Y-108561777D01*
X151734800Y-108541245D01*
X151578847Y-108561777D01*
X151433523Y-108621972D01*
X151308729Y-108717729D01*
X151303701Y-108724282D01*
X151273376Y-108763803D01*
X151216039Y-108805671D01*
X151173413Y-108813100D01*
X140070740Y-108813100D01*
X140059760Y-108812621D01*
X140032510Y-108810237D01*
X140032509Y-108810237D01*
X140021533Y-108809277D01*
X140010889Y-108812129D01*
X140010888Y-108812129D01*
X139984482Y-108819204D01*
X139973753Y-108821583D01*
X139946803Y-108826335D01*
X139946802Y-108826335D01*
X139935949Y-108828249D01*
X139926404Y-108833760D01*
X139922914Y-108835030D01*
X139919535Y-108836606D01*
X139908883Y-108839460D01*
X139877439Y-108861478D01*
X139868183Y-108867374D01*
X139834951Y-108886561D01*
X139827866Y-108895004D01*
X139827863Y-108895007D01*
X139810278Y-108915964D01*
X139802852Y-108924068D01*
X139450068Y-109276852D01*
X139441964Y-109284278D01*
X139421006Y-109301864D01*
X139421004Y-109301867D01*
X139412561Y-109308951D01*
X139394182Y-109340783D01*
X139393378Y-109342176D01*
X139387473Y-109351445D01*
X139371785Y-109373850D01*
X139371784Y-109373853D01*
X139365460Y-109382884D01*
X139362606Y-109393533D01*
X139361031Y-109396911D01*
X139359760Y-109400404D01*
X139354249Y-109409949D01*
X139352335Y-109420802D01*
X139352335Y-109420803D01*
X139347585Y-109447743D01*
X139345209Y-109458461D01*
X139335276Y-109495533D01*
X139336236Y-109506508D01*
X139336236Y-109506509D01*
X139338621Y-109533768D01*
X139339100Y-109544749D01*
X139339100Y-113182636D01*
X139319098Y-113250757D01*
X139265442Y-113297250D01*
X139256714Y-113300847D01*
X139192263Y-113324624D01*
X139017810Y-113428412D01*
X139013470Y-113432218D01*
X139013466Y-113432221D01*
X138993523Y-113449711D01*
X138865192Y-113562255D01*
X138739520Y-113721669D01*
X138736831Y-113726780D01*
X138736829Y-113726783D01*
X138725307Y-113748683D01*
X138645003Y-113901315D01*
X138584807Y-114095178D01*
X138560948Y-114296764D01*
X138574224Y-114499322D01*
X138575645Y-114504918D01*
X138575646Y-114504923D01*
X138622771Y-114690474D01*
X138624192Y-114696069D01*
X138626609Y-114701312D01*
X138663810Y-114782008D01*
X138709177Y-114880416D01*
X138712510Y-114885132D01*
X138760526Y-114953073D01*
X138826333Y-115046189D01*
X138830475Y-115050224D01*
X138881311Y-115099746D01*
X138916149Y-115161607D01*
X138912012Y-115232483D01*
X138870213Y-115289871D01*
X138804023Y-115315551D01*
X138793390Y-115316000D01*
X137197425Y-115316000D01*
X137172847Y-115313579D01*
X137160000Y-115311024D01*
X137147828Y-115313445D01*
X137136301Y-115313445D01*
X137125320Y-115312966D01*
X137103122Y-115311024D01*
X136994551Y-115301525D01*
X136972930Y-115297713D01*
X136823152Y-115257580D01*
X136802516Y-115250069D01*
X136661990Y-115184540D01*
X136642970Y-115173558D01*
X136515954Y-115084621D01*
X136499129Y-115070503D01*
X136389497Y-114960871D01*
X136375379Y-114944046D01*
X136286442Y-114817030D01*
X136275460Y-114798010D01*
X136209931Y-114657484D01*
X136202419Y-114636846D01*
X136189924Y-114590214D01*
X136162287Y-114487070D01*
X136158474Y-114465446D01*
X136147034Y-114334680D01*
X136146555Y-114323699D01*
X136146555Y-114312172D01*
X136148976Y-114300000D01*
X136146421Y-114287153D01*
X136144000Y-114262575D01*
X136144000Y-100330000D01*
X136820539Y-100330000D01*
X136840354Y-100581775D01*
X136841508Y-100586582D01*
X136841509Y-100586588D01*
X136878613Y-100741135D01*
X136899312Y-100827351D01*
X136995960Y-101060680D01*
X137127919Y-101276017D01*
X137291939Y-101468061D01*
X137483983Y-101632081D01*
X137699320Y-101764040D01*
X137703890Y-101765933D01*
X137703894Y-101765935D01*
X137927159Y-101858414D01*
X137932649Y-101860688D01*
X137990188Y-101874502D01*
X138173412Y-101918491D01*
X138173418Y-101918492D01*
X138178225Y-101919646D01*
X138266253Y-101926574D01*
X138364507Y-101934307D01*
X138364516Y-101934307D01*
X138366964Y-101934500D01*
X138493036Y-101934500D01*
X138495484Y-101934307D01*
X138495493Y-101934307D01*
X138593747Y-101926574D01*
X138681775Y-101919646D01*
X138686582Y-101918492D01*
X138686588Y-101918491D01*
X138869812Y-101874502D01*
X138927351Y-101860688D01*
X138932841Y-101858414D01*
X139156106Y-101765935D01*
X139156110Y-101765933D01*
X139160680Y-101764040D01*
X139376017Y-101632081D01*
X139568061Y-101468061D01*
X139732081Y-101276017D01*
X139864040Y-101060680D01*
X139960688Y-100827351D01*
X139981387Y-100741135D01*
X140018491Y-100586588D01*
X140018492Y-100586582D01*
X140019646Y-100581775D01*
X140039461Y-100330000D01*
X140019646Y-100078225D01*
X140018492Y-100073418D01*
X140018491Y-100073412D01*
X139961843Y-99837461D01*
X139960688Y-99832649D01*
X139913466Y-99718645D01*
X139865935Y-99603894D01*
X139865933Y-99603890D01*
X139864040Y-99599320D01*
X139732081Y-99383983D01*
X139568061Y-99191939D01*
X139376017Y-99027919D01*
X139160680Y-98895960D01*
X139156110Y-98894067D01*
X139156106Y-98894065D01*
X138931924Y-98801206D01*
X138931922Y-98801205D01*
X138927351Y-98799312D01*
X138841135Y-98778613D01*
X138686588Y-98741509D01*
X138686582Y-98741508D01*
X138681775Y-98740354D01*
X138593747Y-98733426D01*
X138495493Y-98725693D01*
X138495484Y-98725693D01*
X138493036Y-98725500D01*
X138366964Y-98725500D01*
X138364516Y-98725693D01*
X138364507Y-98725693D01*
X138266253Y-98733426D01*
X138178225Y-98740354D01*
X138173418Y-98741508D01*
X138173412Y-98741509D01*
X138018865Y-98778613D01*
X137932649Y-98799312D01*
X137928078Y-98801205D01*
X137928076Y-98801206D01*
X137703894Y-98894065D01*
X137703890Y-98894067D01*
X137699320Y-98895960D01*
X137483983Y-99027919D01*
X137291939Y-99191939D01*
X137127919Y-99383983D01*
X136995960Y-99599320D01*
X136994067Y-99603890D01*
X136994065Y-99603894D01*
X136946534Y-99718645D01*
X136899312Y-99832649D01*
X136898157Y-99837461D01*
X136841509Y-100073412D01*
X136841508Y-100073418D01*
X136840354Y-100078225D01*
X136820539Y-100330000D01*
X136144000Y-100330000D01*
X136144000Y-99097425D01*
X136146421Y-99072844D01*
X136146555Y-99072170D01*
X136148976Y-99060000D01*
X136146555Y-99047828D01*
X136146555Y-99036301D01*
X136147034Y-99025320D01*
X136158474Y-98894554D01*
X136162287Y-98872930D01*
X136202420Y-98723152D01*
X136209931Y-98702516D01*
X136275460Y-98561990D01*
X136286442Y-98542970D01*
X136375379Y-98415954D01*
X136389497Y-98399129D01*
X136499129Y-98289497D01*
X136515954Y-98275379D01*
X136642970Y-98186442D01*
X136661990Y-98175460D01*
X136802516Y-98109931D01*
X136823152Y-98102420D01*
X136972930Y-98062287D01*
X136994551Y-98058475D01*
X137125319Y-98047034D01*
X137136301Y-98046555D01*
X137147828Y-98046555D01*
X137160000Y-98048976D01*
X137172847Y-98046421D01*
X137197425Y-98044000D01*
X141417706Y-98044000D01*
X141485827Y-98064002D01*
G37*
G04 #@! TD.AperFunction*
G04 #@! TA.AperFunction,Conductor*
G36*
X153683832Y-111576614D02*
G01*
X153728895Y-111605575D01*
X154026852Y-111903532D01*
X154034278Y-111911636D01*
X154051863Y-111932593D01*
X154051866Y-111932596D01*
X154058951Y-111941039D01*
X154068498Y-111946551D01*
X154092183Y-111960226D01*
X154101439Y-111966122D01*
X154132883Y-111988140D01*
X154143535Y-111990994D01*
X154146914Y-111992570D01*
X154150403Y-111993840D01*
X154159949Y-111999351D01*
X154197745Y-112006016D01*
X154208461Y-112008391D01*
X154245533Y-112018324D01*
X154256508Y-112017364D01*
X154256509Y-112017364D01*
X154283768Y-112014979D01*
X154294749Y-112014500D01*
X156625629Y-112014500D01*
X156693750Y-112034502D01*
X156714725Y-112051405D01*
X157082196Y-112418877D01*
X157116221Y-112481189D01*
X157119100Y-112507972D01*
X157119100Y-113182636D01*
X157099098Y-113250757D01*
X157045442Y-113297250D01*
X157036714Y-113300847D01*
X156972263Y-113324624D01*
X156797810Y-113428412D01*
X156793470Y-113432218D01*
X156793466Y-113432221D01*
X156773523Y-113449711D01*
X156645192Y-113562255D01*
X156519520Y-113721669D01*
X156516831Y-113726780D01*
X156516829Y-113726783D01*
X156505307Y-113748683D01*
X156425003Y-113901315D01*
X156364807Y-114095178D01*
X156340948Y-114296764D01*
X156354224Y-114499322D01*
X156355645Y-114504918D01*
X156355646Y-114504923D01*
X156402771Y-114690474D01*
X156404192Y-114696069D01*
X156406609Y-114701312D01*
X156443810Y-114782008D01*
X156489177Y-114880416D01*
X156492510Y-114885132D01*
X156540526Y-114953073D01*
X156606333Y-115046189D01*
X156610475Y-115050224D01*
X156661311Y-115099746D01*
X156696149Y-115161607D01*
X156692012Y-115232483D01*
X156650213Y-115289871D01*
X156584023Y-115315551D01*
X156573390Y-115316000D01*
X155791614Y-115316000D01*
X155723493Y-115295998D01*
X155677000Y-115242342D01*
X155666896Y-115172068D01*
X155694740Y-115109431D01*
X155820249Y-114958524D01*
X155820256Y-114958514D01*
X155823947Y-114954076D01*
X155923134Y-114776965D01*
X155924990Y-114771498D01*
X155924992Y-114771493D01*
X155986528Y-114590214D01*
X155986529Y-114590209D01*
X155988384Y-114584745D01*
X155989212Y-114579036D01*
X155989213Y-114579031D01*
X156016979Y-114387527D01*
X156017512Y-114383853D01*
X156019032Y-114325800D01*
X156000458Y-114123659D01*
X155998890Y-114118099D01*
X155946925Y-113933846D01*
X155946924Y-113933844D01*
X155945357Y-113928287D01*
X155934778Y-113906833D01*
X155858131Y-113751409D01*
X155855576Y-113746228D01*
X155734120Y-113583579D01*
X155585058Y-113445787D01*
X155580175Y-113442706D01*
X155580171Y-113442703D01*
X155418264Y-113340548D01*
X155413381Y-113337467D01*
X155224839Y-113262246D01*
X155219179Y-113261120D01*
X155219175Y-113261119D01*
X155031413Y-113223771D01*
X155031410Y-113223771D01*
X155025746Y-113222644D01*
X155019971Y-113222568D01*
X155019967Y-113222568D01*
X154918593Y-113221241D01*
X154822771Y-113219987D01*
X154817074Y-113220966D01*
X154817073Y-113220966D01*
X154719420Y-113237746D01*
X154622710Y-113254364D01*
X154432263Y-113324624D01*
X154257810Y-113428412D01*
X154253470Y-113432218D01*
X154253466Y-113432221D01*
X154233523Y-113449711D01*
X154105192Y-113562255D01*
X153979520Y-113721669D01*
X153976831Y-113726780D01*
X153976829Y-113726783D01*
X153965307Y-113748683D01*
X153885003Y-113901315D01*
X153824807Y-114095178D01*
X153800948Y-114296764D01*
X153814224Y-114499322D01*
X153815645Y-114504918D01*
X153815646Y-114504923D01*
X153862771Y-114690474D01*
X153864192Y-114696069D01*
X153866609Y-114701312D01*
X153903810Y-114782008D01*
X153949177Y-114880416D01*
X153952510Y-114885132D01*
X154000526Y-114953073D01*
X154066333Y-115046189D01*
X154070475Y-115050224D01*
X154121311Y-115099746D01*
X154156149Y-115161607D01*
X154152012Y-115232483D01*
X154110213Y-115289871D01*
X154044023Y-115315551D01*
X154033390Y-115316000D01*
X153251614Y-115316000D01*
X153183493Y-115295998D01*
X153137000Y-115242342D01*
X153126896Y-115172068D01*
X153154740Y-115109431D01*
X153280249Y-114958524D01*
X153280256Y-114958514D01*
X153283947Y-114954076D01*
X153383134Y-114776965D01*
X153384990Y-114771498D01*
X153384992Y-114771493D01*
X153446528Y-114590214D01*
X153446529Y-114590209D01*
X153448384Y-114584745D01*
X153449212Y-114579036D01*
X153449213Y-114579031D01*
X153476979Y-114387527D01*
X153477512Y-114383853D01*
X153479032Y-114325800D01*
X153460458Y-114123659D01*
X153458890Y-114118099D01*
X153406925Y-113933846D01*
X153406924Y-113933844D01*
X153405357Y-113928287D01*
X153394778Y-113906833D01*
X153318131Y-113751409D01*
X153315576Y-113746228D01*
X153194120Y-113583579D01*
X153045058Y-113445787D01*
X153040175Y-113442706D01*
X153040171Y-113442703D01*
X152878264Y-113340548D01*
X152873381Y-113337467D01*
X152684839Y-113262246D01*
X152679179Y-113261120D01*
X152679175Y-113261119D01*
X152491413Y-113223771D01*
X152491410Y-113223771D01*
X152485746Y-113222644D01*
X152479971Y-113222568D01*
X152479967Y-113222568D01*
X152378593Y-113221241D01*
X152282771Y-113219987D01*
X152277074Y-113220966D01*
X152277073Y-113220966D01*
X152179420Y-113237746D01*
X152082710Y-113254364D01*
X151892263Y-113324624D01*
X151717810Y-113428412D01*
X151713470Y-113432218D01*
X151713466Y-113432221D01*
X151693523Y-113449711D01*
X151565192Y-113562255D01*
X151439520Y-113721669D01*
X151436831Y-113726780D01*
X151436829Y-113726783D01*
X151425307Y-113748683D01*
X151345003Y-113901315D01*
X151284807Y-114095178D01*
X151260948Y-114296764D01*
X151274224Y-114499322D01*
X151275645Y-114504918D01*
X151275646Y-114504923D01*
X151322771Y-114690474D01*
X151324192Y-114696069D01*
X151326609Y-114701312D01*
X151363810Y-114782008D01*
X151409177Y-114880416D01*
X151412510Y-114885132D01*
X151460526Y-114953073D01*
X151526333Y-115046189D01*
X151530475Y-115050224D01*
X151581311Y-115099746D01*
X151616149Y-115161607D01*
X151612012Y-115232483D01*
X151570213Y-115289871D01*
X151504023Y-115315551D01*
X151493390Y-115316000D01*
X150711614Y-115316000D01*
X150643493Y-115295998D01*
X150597000Y-115242342D01*
X150586896Y-115172068D01*
X150614740Y-115109431D01*
X150740249Y-114958524D01*
X150740256Y-114958514D01*
X150743947Y-114954076D01*
X150843134Y-114776965D01*
X150844990Y-114771498D01*
X150844992Y-114771493D01*
X150906528Y-114590214D01*
X150906529Y-114590209D01*
X150908384Y-114584745D01*
X150909212Y-114579036D01*
X150909213Y-114579031D01*
X150936979Y-114387527D01*
X150937512Y-114383853D01*
X150939032Y-114325800D01*
X150920458Y-114123659D01*
X150918890Y-114118099D01*
X150866925Y-113933846D01*
X150866924Y-113933844D01*
X150865357Y-113928287D01*
X150854778Y-113906833D01*
X150778131Y-113751409D01*
X150775576Y-113746228D01*
X150654120Y-113583579D01*
X150505058Y-113445787D01*
X150500175Y-113442706D01*
X150500171Y-113442703D01*
X150338264Y-113340548D01*
X150333381Y-113337467D01*
X150144839Y-113262246D01*
X150139179Y-113261120D01*
X150139175Y-113261119D01*
X149951413Y-113223771D01*
X149951410Y-113223771D01*
X149945746Y-113222644D01*
X149939971Y-113222568D01*
X149939967Y-113222568D01*
X149838593Y-113221241D01*
X149742771Y-113219987D01*
X149737074Y-113220966D01*
X149737073Y-113220966D01*
X149639420Y-113237746D01*
X149542710Y-113254364D01*
X149352263Y-113324624D01*
X149177810Y-113428412D01*
X149173470Y-113432218D01*
X149173466Y-113432221D01*
X149153523Y-113449711D01*
X149025192Y-113562255D01*
X148899520Y-113721669D01*
X148896831Y-113726780D01*
X148896829Y-113726783D01*
X148885307Y-113748683D01*
X148805003Y-113901315D01*
X148744807Y-114095178D01*
X148720948Y-114296764D01*
X148734224Y-114499322D01*
X148735645Y-114504918D01*
X148735646Y-114504923D01*
X148782771Y-114690474D01*
X148784192Y-114696069D01*
X148786609Y-114701312D01*
X148823810Y-114782008D01*
X148869177Y-114880416D01*
X148872510Y-114885132D01*
X148920526Y-114953073D01*
X148986333Y-115046189D01*
X148990475Y-115050224D01*
X149041311Y-115099746D01*
X149076149Y-115161607D01*
X149072012Y-115232483D01*
X149030213Y-115289871D01*
X148964023Y-115315551D01*
X148953390Y-115316000D01*
X148171614Y-115316000D01*
X148103493Y-115295998D01*
X148057000Y-115242342D01*
X148046896Y-115172068D01*
X148074740Y-115109431D01*
X148200249Y-114958524D01*
X148200256Y-114958514D01*
X148203947Y-114954076D01*
X148303134Y-114776965D01*
X148304990Y-114771498D01*
X148304992Y-114771493D01*
X148366528Y-114590214D01*
X148366529Y-114590209D01*
X148368384Y-114584745D01*
X148369212Y-114579036D01*
X148369213Y-114579031D01*
X148396979Y-114387527D01*
X148397512Y-114383853D01*
X148399032Y-114325800D01*
X148380458Y-114123659D01*
X148378890Y-114118099D01*
X148326925Y-113933846D01*
X148326924Y-113933844D01*
X148325357Y-113928287D01*
X148314778Y-113906833D01*
X148238131Y-113751409D01*
X148235576Y-113746228D01*
X148114120Y-113583579D01*
X147965058Y-113445787D01*
X147960175Y-113442706D01*
X147960171Y-113442703D01*
X147798264Y-113340548D01*
X147793381Y-113337467D01*
X147788017Y-113335327D01*
X147699809Y-113300135D01*
X147643950Y-113256314D01*
X147620500Y-113183105D01*
X147620500Y-112507971D01*
X147640502Y-112439850D01*
X147657405Y-112418875D01*
X148024877Y-112051404D01*
X148087189Y-112017379D01*
X148113972Y-112014500D01*
X152984851Y-112014500D01*
X152995832Y-112014979D01*
X153023091Y-112017364D01*
X153023092Y-112017364D01*
X153034067Y-112018324D01*
X153071139Y-112008391D01*
X153081853Y-112006016D01*
X153097700Y-112003222D01*
X153108797Y-112001265D01*
X153108798Y-112001265D01*
X153119651Y-111999351D01*
X153129196Y-111993840D01*
X153132689Y-111992569D01*
X153136067Y-111990994D01*
X153146716Y-111988140D01*
X153155747Y-111981816D01*
X153155750Y-111981815D01*
X153178155Y-111966127D01*
X153187424Y-111960222D01*
X153188817Y-111959418D01*
X153220649Y-111941039D01*
X153227733Y-111932596D01*
X153227736Y-111932594D01*
X153245322Y-111911636D01*
X153252748Y-111903532D01*
X153550705Y-111605575D01*
X153613017Y-111571549D01*
X153683832Y-111576614D01*
G37*
G04 #@! TD.AperFunction*
M02*
