G04 #@! TF.GenerationSoftware,KiCad,Pcbnew,(6.0.0-0)*
G04 #@! TF.CreationDate,2023-03-17T12:47:20-07:00*
G04 #@! TF.ProjectId,breakout,62726561-6b6f-4757-942e-6b696361645f,2.0.0*
G04 #@! TF.SameCoordinates,Original*
G04 #@! TF.FileFunction,Copper,L2,Bot*
G04 #@! TF.FilePolarity,Positive*
%FSLAX46Y46*%
G04 Gerber Fmt 4.6, Leading zero omitted, Abs format (unit mm)*
G04 Created by KiCad (PCBNEW (6.0.0-0)) date 2023-03-17 12:47:20*
%MOMM*%
%LPD*%
G01*
G04 APERTURE LIST*
G04 #@! TA.AperFunction,ComponentPad*
%ADD10C,1.700000*%
G04 #@! TD*
G04 #@! TA.AperFunction,ComponentPad*
%ADD11R,1.700000X1.700000*%
G04 #@! TD*
G04 #@! TA.AperFunction,ComponentPad*
%ADD12O,1.700000X1.700000*%
G04 #@! TD*
G04 #@! TA.AperFunction,ViaPad*
%ADD13C,0.685800*%
G04 #@! TD*
G04 #@! TA.AperFunction,Conductor*
%ADD14C,0.152400*%
G04 #@! TD*
G04 APERTURE END LIST*
D10*
X139669800Y-114325800D03*
D11*
X142209800Y-114325800D03*
D12*
X144749800Y-114325800D03*
X147289800Y-114325800D03*
X149829800Y-114325800D03*
X152369800Y-114325800D03*
X154909800Y-114325800D03*
X157449800Y-114325800D03*
D10*
X142240000Y-99085800D03*
D12*
X144780000Y-99085800D03*
X147320000Y-99085800D03*
X149860000Y-99085800D03*
X152400000Y-99085800D03*
D11*
X154940000Y-99085800D03*
D13*
X160000000Y-114000000D03*
X160000000Y-102400000D03*
X145900000Y-100500000D03*
X137300000Y-102400000D03*
X152400000Y-106000000D03*
X150300000Y-112300000D03*
X146400000Y-112300000D03*
X149100000Y-100500000D03*
X156100000Y-112300000D03*
X153500000Y-100500000D03*
X153600000Y-112300000D03*
X137300000Y-114000000D03*
X151400000Y-100500000D03*
X149600000Y-107300000D03*
X147700000Y-106500000D03*
X151600000Y-107300000D03*
D14*
X149829800Y-114325800D02*
X148700000Y-113196000D01*
X148700000Y-107600000D02*
X149000000Y-107300000D01*
X149000000Y-107300000D02*
X149600000Y-107300000D01*
X148700000Y-113196000D02*
X148700000Y-107600000D01*
X147289800Y-114325800D02*
X148395680Y-113219920D01*
X148404320Y-107195680D02*
X149100000Y-106500000D01*
X149100000Y-106500000D02*
X149500000Y-106500000D01*
X148395680Y-113219920D02*
X148395680Y-107795680D01*
X148395680Y-107195680D02*
X148404320Y-107195680D01*
X151600000Y-107000000D02*
X151100000Y-106500000D01*
X148395680Y-107795680D02*
X148395680Y-107473946D01*
X149369626Y-106500000D02*
X149500000Y-106500000D01*
X148395680Y-107473946D02*
X148395680Y-107195680D01*
X148395680Y-107195680D02*
X147700000Y-106500000D01*
X149500000Y-106500000D02*
X151100000Y-106500000D01*
X151600000Y-107300000D02*
X151600000Y-107000000D01*
G04 #@! TA.AperFunction,Conductor*
G36*
X141136355Y-98064002D02*
G01*
X141182848Y-98117658D01*
X141192952Y-98187932D01*
X141172322Y-98241005D01*
X141058095Y-98408455D01*
X141053000Y-98417423D01*
X140963338Y-98610583D01*
X140959775Y-98620270D01*
X140902864Y-98825481D01*
X140900933Y-98835600D01*
X140878302Y-99047374D01*
X140878050Y-99057663D01*
X140890309Y-99270277D01*
X140891745Y-99280497D01*
X140938565Y-99488246D01*
X140941645Y-99498075D01*
X141021770Y-99695403D01*
X141026413Y-99704594D01*
X141106460Y-99835220D01*
X141116916Y-99844680D01*
X141125694Y-99840896D01*
X142150905Y-98815685D01*
X142213217Y-98781659D01*
X142284032Y-98786724D01*
X142329095Y-98815685D01*
X143350474Y-99837064D01*
X143362484Y-99843623D01*
X143374223Y-99834655D01*
X143405004Y-99791819D01*
X143410315Y-99782980D01*
X143504670Y-99592067D01*
X143508469Y-99582472D01*
X143525066Y-99527847D01*
X143564007Y-99468483D01*
X143628862Y-99439596D01*
X143699038Y-99450358D01*
X143752256Y-99497351D01*
X143760048Y-99511722D01*
X143819377Y-99640416D01*
X143822710Y-99645132D01*
X143920131Y-99782980D01*
X143936533Y-99806189D01*
X144081938Y-99947835D01*
X144250720Y-100060612D01*
X144256023Y-100062890D01*
X144256026Y-100062892D01*
X144387283Y-100119284D01*
X144437228Y-100140742D01*
X144510244Y-100157264D01*
X144629579Y-100184267D01*
X144629584Y-100184268D01*
X144635216Y-100185542D01*
X144640987Y-100185769D01*
X144640989Y-100185769D01*
X144700756Y-100188117D01*
X144838053Y-100193512D01*
X144945348Y-100177955D01*
X145033231Y-100165213D01*
X145033236Y-100165212D01*
X145038945Y-100164384D01*
X145044409Y-100162529D01*
X145044414Y-100162528D01*
X145225693Y-100100992D01*
X145225698Y-100100990D01*
X145231165Y-100099134D01*
X145259691Y-100083159D01*
X145305683Y-100057402D01*
X145408276Y-99999947D01*
X145447969Y-99966935D01*
X145559913Y-99873831D01*
X145564345Y-99870145D01*
X145621463Y-99801469D01*
X145690453Y-99718518D01*
X145690455Y-99718515D01*
X145694147Y-99714076D01*
X145755852Y-99603894D01*
X145790510Y-99542008D01*
X145790511Y-99542006D01*
X145793334Y-99536965D01*
X145795190Y-99531498D01*
X145795192Y-99531493D01*
X145856728Y-99350214D01*
X145856729Y-99350209D01*
X145858584Y-99344745D01*
X145859412Y-99339036D01*
X145859413Y-99339031D01*
X145887179Y-99147527D01*
X145887712Y-99143853D01*
X145889232Y-99085800D01*
X145872026Y-98898546D01*
X145871187Y-98889413D01*
X145871186Y-98889410D01*
X145870658Y-98883659D01*
X145867630Y-98872923D01*
X145817125Y-98693846D01*
X145817124Y-98693844D01*
X145815557Y-98688287D01*
X145804978Y-98666833D01*
X145728331Y-98511409D01*
X145725776Y-98506228D01*
X145604320Y-98343579D01*
X145530542Y-98275379D01*
X145516636Y-98262524D01*
X145480191Y-98201596D01*
X145482472Y-98130636D01*
X145522755Y-98072174D01*
X145588250Y-98044771D01*
X145602165Y-98044000D01*
X146497906Y-98044000D01*
X146566027Y-98064002D01*
X146612520Y-98117658D01*
X146622624Y-98187932D01*
X146593130Y-98252512D01*
X146580984Y-98264732D01*
X146561637Y-98281699D01*
X146515392Y-98322255D01*
X146389720Y-98481669D01*
X146387031Y-98486780D01*
X146387029Y-98486783D01*
X146374073Y-98511409D01*
X146295203Y-98661315D01*
X146235007Y-98855178D01*
X146211148Y-99056764D01*
X146224424Y-99259322D01*
X146225845Y-99264918D01*
X146225846Y-99264923D01*
X146246119Y-99344745D01*
X146274392Y-99456069D01*
X146276809Y-99461312D01*
X146342540Y-99603894D01*
X146359377Y-99640416D01*
X146362710Y-99645132D01*
X146460131Y-99782980D01*
X146476533Y-99806189D01*
X146621938Y-99947835D01*
X146790720Y-100060612D01*
X146796023Y-100062890D01*
X146796026Y-100062892D01*
X146927283Y-100119284D01*
X146977228Y-100140742D01*
X147050244Y-100157264D01*
X147169579Y-100184267D01*
X147169584Y-100184268D01*
X147175216Y-100185542D01*
X147180987Y-100185769D01*
X147180989Y-100185769D01*
X147240756Y-100188117D01*
X147378053Y-100193512D01*
X147485348Y-100177955D01*
X147573231Y-100165213D01*
X147573236Y-100165212D01*
X147578945Y-100164384D01*
X147584409Y-100162529D01*
X147584414Y-100162528D01*
X147765693Y-100100992D01*
X147765698Y-100100990D01*
X147771165Y-100099134D01*
X147799691Y-100083159D01*
X147845683Y-100057402D01*
X147948276Y-99999947D01*
X147987969Y-99966935D01*
X148099913Y-99873831D01*
X148104345Y-99870145D01*
X148161463Y-99801469D01*
X148230453Y-99718518D01*
X148230455Y-99718515D01*
X148234147Y-99714076D01*
X148295852Y-99603894D01*
X148330510Y-99542008D01*
X148330511Y-99542006D01*
X148333334Y-99536965D01*
X148335190Y-99531498D01*
X148335192Y-99531493D01*
X148396728Y-99350214D01*
X148396729Y-99350209D01*
X148398584Y-99344745D01*
X148399412Y-99339036D01*
X148399413Y-99339031D01*
X148427179Y-99147527D01*
X148427712Y-99143853D01*
X148429232Y-99085800D01*
X148412026Y-98898546D01*
X148411187Y-98889413D01*
X148411186Y-98889410D01*
X148410658Y-98883659D01*
X148407630Y-98872923D01*
X148357125Y-98693846D01*
X148357124Y-98693844D01*
X148355557Y-98688287D01*
X148344978Y-98666833D01*
X148268331Y-98511409D01*
X148265776Y-98506228D01*
X148144320Y-98343579D01*
X148070542Y-98275379D01*
X148056636Y-98262524D01*
X148020191Y-98201596D01*
X148022472Y-98130636D01*
X148062755Y-98072174D01*
X148128250Y-98044771D01*
X148142165Y-98044000D01*
X149037906Y-98044000D01*
X149106027Y-98064002D01*
X149152520Y-98117658D01*
X149162624Y-98187932D01*
X149133130Y-98252512D01*
X149120984Y-98264732D01*
X149101637Y-98281699D01*
X149055392Y-98322255D01*
X148929720Y-98481669D01*
X148927031Y-98486780D01*
X148927029Y-98486783D01*
X148914073Y-98511409D01*
X148835203Y-98661315D01*
X148775007Y-98855178D01*
X148751148Y-99056764D01*
X148764424Y-99259322D01*
X148765845Y-99264918D01*
X148765846Y-99264923D01*
X148786119Y-99344745D01*
X148814392Y-99456069D01*
X148816809Y-99461312D01*
X148882540Y-99603894D01*
X148899377Y-99640416D01*
X148902710Y-99645132D01*
X149000131Y-99782980D01*
X149016533Y-99806189D01*
X149161938Y-99947835D01*
X149330720Y-100060612D01*
X149336023Y-100062890D01*
X149336026Y-100062892D01*
X149467283Y-100119284D01*
X149517228Y-100140742D01*
X149590244Y-100157264D01*
X149709579Y-100184267D01*
X149709584Y-100184268D01*
X149715216Y-100185542D01*
X149720987Y-100185769D01*
X149720989Y-100185769D01*
X149780756Y-100188117D01*
X149918053Y-100193512D01*
X150025348Y-100177955D01*
X150113231Y-100165213D01*
X150113236Y-100165212D01*
X150118945Y-100164384D01*
X150124409Y-100162529D01*
X150124414Y-100162528D01*
X150305693Y-100100992D01*
X150305698Y-100100990D01*
X150311165Y-100099134D01*
X150339691Y-100083159D01*
X150385683Y-100057402D01*
X150488276Y-99999947D01*
X150527969Y-99966935D01*
X150639913Y-99873831D01*
X150644345Y-99870145D01*
X150701463Y-99801469D01*
X150770453Y-99718518D01*
X150770455Y-99718515D01*
X150774147Y-99714076D01*
X150835852Y-99603894D01*
X150870510Y-99542008D01*
X150870511Y-99542006D01*
X150873334Y-99536965D01*
X150875190Y-99531498D01*
X150875192Y-99531493D01*
X150936728Y-99350214D01*
X150936729Y-99350209D01*
X150938584Y-99344745D01*
X150939412Y-99339036D01*
X150939413Y-99339031D01*
X150967179Y-99147527D01*
X150967712Y-99143853D01*
X150969232Y-99085800D01*
X150952026Y-98898546D01*
X150951187Y-98889413D01*
X150951186Y-98889410D01*
X150950658Y-98883659D01*
X150947630Y-98872923D01*
X150897125Y-98693846D01*
X150897124Y-98693844D01*
X150895557Y-98688287D01*
X150884978Y-98666833D01*
X150808331Y-98511409D01*
X150805776Y-98506228D01*
X150684320Y-98343579D01*
X150610542Y-98275379D01*
X150596636Y-98262524D01*
X150560191Y-98201596D01*
X150562472Y-98130636D01*
X150602755Y-98072174D01*
X150668250Y-98044771D01*
X150682165Y-98044000D01*
X151577906Y-98044000D01*
X151646027Y-98064002D01*
X151692520Y-98117658D01*
X151702624Y-98187932D01*
X151673130Y-98252512D01*
X151660984Y-98264732D01*
X151641637Y-98281699D01*
X151595392Y-98322255D01*
X151469720Y-98481669D01*
X151467031Y-98486780D01*
X151467029Y-98486783D01*
X151454073Y-98511409D01*
X151375203Y-98661315D01*
X151315007Y-98855178D01*
X151291148Y-99056764D01*
X151304424Y-99259322D01*
X151305845Y-99264918D01*
X151305846Y-99264923D01*
X151326119Y-99344745D01*
X151354392Y-99456069D01*
X151356809Y-99461312D01*
X151422540Y-99603894D01*
X151439377Y-99640416D01*
X151442710Y-99645132D01*
X151540131Y-99782980D01*
X151556533Y-99806189D01*
X151701938Y-99947835D01*
X151870720Y-100060612D01*
X151876023Y-100062890D01*
X151876026Y-100062892D01*
X152007283Y-100119284D01*
X152057228Y-100140742D01*
X152130244Y-100157264D01*
X152249579Y-100184267D01*
X152249584Y-100184268D01*
X152255216Y-100185542D01*
X152260987Y-100185769D01*
X152260989Y-100185769D01*
X152320756Y-100188117D01*
X152458053Y-100193512D01*
X152565348Y-100177955D01*
X152653231Y-100165213D01*
X152653236Y-100165212D01*
X152658945Y-100164384D01*
X152664409Y-100162529D01*
X152664414Y-100162528D01*
X152845693Y-100100992D01*
X152845698Y-100100990D01*
X152851165Y-100099134D01*
X152879691Y-100083159D01*
X152925683Y-100057402D01*
X153028276Y-99999947D01*
X153067969Y-99966935D01*
X153179913Y-99873831D01*
X153184345Y-99870145D01*
X153241463Y-99801469D01*
X153310453Y-99718518D01*
X153310455Y-99718515D01*
X153314147Y-99714076D01*
X153375852Y-99603894D01*
X153410510Y-99542008D01*
X153410511Y-99542006D01*
X153413334Y-99536965D01*
X153415190Y-99531498D01*
X153415192Y-99531493D01*
X153476728Y-99350214D01*
X153476729Y-99350209D01*
X153478584Y-99344745D01*
X153479412Y-99339036D01*
X153479413Y-99339031D01*
X153507179Y-99147527D01*
X153507712Y-99143853D01*
X153509232Y-99085800D01*
X153492026Y-98898546D01*
X153491187Y-98889413D01*
X153491186Y-98889410D01*
X153490658Y-98883659D01*
X153487630Y-98872923D01*
X153437125Y-98693846D01*
X153437124Y-98693844D01*
X153435557Y-98688287D01*
X153424978Y-98666833D01*
X153348331Y-98511409D01*
X153345776Y-98506228D01*
X153224320Y-98343579D01*
X153150542Y-98275379D01*
X153136636Y-98262524D01*
X153100191Y-98201596D01*
X153102472Y-98130636D01*
X153142755Y-98072174D01*
X153208250Y-98044771D01*
X153222165Y-98044000D01*
X153715134Y-98044000D01*
X153783255Y-98064002D01*
X153829748Y-98117658D01*
X153838713Y-98194581D01*
X153835500Y-98210733D01*
X153835501Y-99960866D01*
X153850266Y-100035101D01*
X153857161Y-100045420D01*
X153857162Y-100045422D01*
X153897516Y-100105815D01*
X153906516Y-100119284D01*
X153990699Y-100175534D01*
X154064933Y-100190300D01*
X154939858Y-100190300D01*
X155815066Y-100190299D01*
X155850818Y-100183188D01*
X155877126Y-100177956D01*
X155877128Y-100177955D01*
X155889301Y-100175534D01*
X155899621Y-100168639D01*
X155899622Y-100168638D01*
X155963168Y-100126177D01*
X155973484Y-100119284D01*
X156029734Y-100035101D01*
X156044500Y-99960867D01*
X156044499Y-98210734D01*
X156041285Y-98194576D01*
X156047615Y-98123864D01*
X156091171Y-98067798D01*
X156164865Y-98044000D01*
X159982575Y-98044000D01*
X160007153Y-98046421D01*
X160020000Y-98048976D01*
X160032172Y-98046555D01*
X160043699Y-98046555D01*
X160054681Y-98047034D01*
X160185449Y-98058475D01*
X160207070Y-98062287D01*
X160356848Y-98102420D01*
X160377484Y-98109931D01*
X160518010Y-98175460D01*
X160537030Y-98186442D01*
X160664046Y-98275379D01*
X160680871Y-98289497D01*
X160790503Y-98399129D01*
X160804621Y-98415954D01*
X160893558Y-98542970D01*
X160904540Y-98561990D01*
X160970069Y-98702516D01*
X160977580Y-98723152D01*
X161017713Y-98872930D01*
X161021526Y-98894554D01*
X161032966Y-99025320D01*
X161033445Y-99036301D01*
X161033445Y-99047828D01*
X161031024Y-99060000D01*
X161033445Y-99072170D01*
X161033579Y-99072844D01*
X161036000Y-99097425D01*
X161036000Y-114262575D01*
X161033579Y-114287153D01*
X161031024Y-114300000D01*
X161033445Y-114312172D01*
X161033445Y-114323699D01*
X161032966Y-114334680D01*
X161021526Y-114465446D01*
X161017713Y-114487070D01*
X160990076Y-114590214D01*
X160977581Y-114636846D01*
X160970069Y-114657484D01*
X160904540Y-114798010D01*
X160893558Y-114817030D01*
X160804621Y-114944046D01*
X160790503Y-114960871D01*
X160680871Y-115070503D01*
X160664046Y-115084621D01*
X160537030Y-115173558D01*
X160518010Y-115184540D01*
X160377484Y-115250069D01*
X160356848Y-115257580D01*
X160207070Y-115297713D01*
X160185449Y-115301525D01*
X160076878Y-115311024D01*
X160054680Y-115312966D01*
X160043699Y-115313445D01*
X160032172Y-115313445D01*
X160020000Y-115311024D01*
X160007153Y-115313579D01*
X159982575Y-115316000D01*
X158331614Y-115316000D01*
X158263493Y-115295998D01*
X158217000Y-115242342D01*
X158206896Y-115172068D01*
X158234740Y-115109431D01*
X158360249Y-114958524D01*
X158360256Y-114958514D01*
X158363947Y-114954076D01*
X158463134Y-114776965D01*
X158464990Y-114771498D01*
X158464992Y-114771493D01*
X158526528Y-114590214D01*
X158526529Y-114590209D01*
X158528384Y-114584745D01*
X158529212Y-114579036D01*
X158529213Y-114579031D01*
X158556979Y-114387527D01*
X158557512Y-114383853D01*
X158559032Y-114325800D01*
X158540458Y-114123659D01*
X158538890Y-114118099D01*
X158486925Y-113933846D01*
X158486924Y-113933844D01*
X158485357Y-113928287D01*
X158482803Y-113923106D01*
X158398131Y-113751409D01*
X158395576Y-113746228D01*
X158274120Y-113583579D01*
X158125058Y-113445787D01*
X158120175Y-113442706D01*
X158120171Y-113442703D01*
X157958264Y-113340548D01*
X157953381Y-113337467D01*
X157764839Y-113262246D01*
X157759179Y-113261120D01*
X157759175Y-113261119D01*
X157571413Y-113223771D01*
X157571410Y-113223771D01*
X157565746Y-113222644D01*
X157559971Y-113222568D01*
X157559967Y-113222568D01*
X157458593Y-113221241D01*
X157362771Y-113219987D01*
X157357074Y-113220966D01*
X157357073Y-113220966D01*
X157259420Y-113237746D01*
X157162710Y-113254364D01*
X156972263Y-113324624D01*
X156797810Y-113428412D01*
X156793470Y-113432218D01*
X156793466Y-113432221D01*
X156773523Y-113449711D01*
X156645192Y-113562255D01*
X156519520Y-113721669D01*
X156516831Y-113726780D01*
X156516829Y-113726783D01*
X156505307Y-113748683D01*
X156425003Y-113901315D01*
X156364807Y-114095178D01*
X156340948Y-114296764D01*
X156354224Y-114499322D01*
X156355645Y-114504918D01*
X156355646Y-114504923D01*
X156402771Y-114690474D01*
X156404192Y-114696069D01*
X156406609Y-114701312D01*
X156443810Y-114782008D01*
X156489177Y-114880416D01*
X156492510Y-114885132D01*
X156540526Y-114953073D01*
X156606333Y-115046189D01*
X156610475Y-115050224D01*
X156661311Y-115099746D01*
X156696149Y-115161607D01*
X156692012Y-115232483D01*
X156650213Y-115289871D01*
X156584023Y-115315551D01*
X156573390Y-115316000D01*
X155791614Y-115316000D01*
X155723493Y-115295998D01*
X155677000Y-115242342D01*
X155666896Y-115172068D01*
X155694740Y-115109431D01*
X155820249Y-114958524D01*
X155820256Y-114958514D01*
X155823947Y-114954076D01*
X155923134Y-114776965D01*
X155924990Y-114771498D01*
X155924992Y-114771493D01*
X155986528Y-114590214D01*
X155986529Y-114590209D01*
X155988384Y-114584745D01*
X155989212Y-114579036D01*
X155989213Y-114579031D01*
X156016979Y-114387527D01*
X156017512Y-114383853D01*
X156019032Y-114325800D01*
X156000458Y-114123659D01*
X155998890Y-114118099D01*
X155946925Y-113933846D01*
X155946924Y-113933844D01*
X155945357Y-113928287D01*
X155942803Y-113923106D01*
X155858131Y-113751409D01*
X155855576Y-113746228D01*
X155734120Y-113583579D01*
X155585058Y-113445787D01*
X155580175Y-113442706D01*
X155580171Y-113442703D01*
X155418264Y-113340548D01*
X155413381Y-113337467D01*
X155224839Y-113262246D01*
X155219179Y-113261120D01*
X155219175Y-113261119D01*
X155031413Y-113223771D01*
X155031410Y-113223771D01*
X155025746Y-113222644D01*
X155019971Y-113222568D01*
X155019967Y-113222568D01*
X154918593Y-113221241D01*
X154822771Y-113219987D01*
X154817074Y-113220966D01*
X154817073Y-113220966D01*
X154719420Y-113237746D01*
X154622710Y-113254364D01*
X154432263Y-113324624D01*
X154257810Y-113428412D01*
X154253470Y-113432218D01*
X154253466Y-113432221D01*
X154233523Y-113449711D01*
X154105192Y-113562255D01*
X153979520Y-113721669D01*
X153976831Y-113726780D01*
X153976829Y-113726783D01*
X153965307Y-113748683D01*
X153885003Y-113901315D01*
X153824807Y-114095178D01*
X153800948Y-114296764D01*
X153814224Y-114499322D01*
X153815645Y-114504918D01*
X153815646Y-114504923D01*
X153862771Y-114690474D01*
X153864192Y-114696069D01*
X153866609Y-114701312D01*
X153903810Y-114782008D01*
X153949177Y-114880416D01*
X153952510Y-114885132D01*
X154000526Y-114953073D01*
X154066333Y-115046189D01*
X154070475Y-115050224D01*
X154121311Y-115099746D01*
X154156149Y-115161607D01*
X154152012Y-115232483D01*
X154110213Y-115289871D01*
X154044023Y-115315551D01*
X154033390Y-115316000D01*
X153251614Y-115316000D01*
X153183493Y-115295998D01*
X153137000Y-115242342D01*
X153126896Y-115172068D01*
X153154740Y-115109431D01*
X153280249Y-114958524D01*
X153280256Y-114958514D01*
X153283947Y-114954076D01*
X153383134Y-114776965D01*
X153384990Y-114771498D01*
X153384992Y-114771493D01*
X153446528Y-114590214D01*
X153446529Y-114590209D01*
X153448384Y-114584745D01*
X153449212Y-114579036D01*
X153449213Y-114579031D01*
X153476979Y-114387527D01*
X153477512Y-114383853D01*
X153479032Y-114325800D01*
X153460458Y-114123659D01*
X153458890Y-114118099D01*
X153406925Y-113933846D01*
X153406924Y-113933844D01*
X153405357Y-113928287D01*
X153402803Y-113923106D01*
X153318131Y-113751409D01*
X153315576Y-113746228D01*
X153194120Y-113583579D01*
X153045058Y-113445787D01*
X153040175Y-113442706D01*
X153040171Y-113442703D01*
X152878264Y-113340548D01*
X152873381Y-113337467D01*
X152684839Y-113262246D01*
X152679179Y-113261120D01*
X152679175Y-113261119D01*
X152491413Y-113223771D01*
X152491410Y-113223771D01*
X152485746Y-113222644D01*
X152479971Y-113222568D01*
X152479967Y-113222568D01*
X152378593Y-113221241D01*
X152282771Y-113219987D01*
X152277074Y-113220966D01*
X152277073Y-113220966D01*
X152179420Y-113237746D01*
X152082710Y-113254364D01*
X151892263Y-113324624D01*
X151717810Y-113428412D01*
X151713470Y-113432218D01*
X151713466Y-113432221D01*
X151693523Y-113449711D01*
X151565192Y-113562255D01*
X151439520Y-113721669D01*
X151436831Y-113726780D01*
X151436829Y-113726783D01*
X151425307Y-113748683D01*
X151345003Y-113901315D01*
X151284807Y-114095178D01*
X151260948Y-114296764D01*
X151274224Y-114499322D01*
X151275645Y-114504918D01*
X151275646Y-114504923D01*
X151322771Y-114690474D01*
X151324192Y-114696069D01*
X151326609Y-114701312D01*
X151363810Y-114782008D01*
X151409177Y-114880416D01*
X151412510Y-114885132D01*
X151460526Y-114953073D01*
X151526333Y-115046189D01*
X151530475Y-115050224D01*
X151581311Y-115099746D01*
X151616149Y-115161607D01*
X151612012Y-115232483D01*
X151570213Y-115289871D01*
X151504023Y-115315551D01*
X151493390Y-115316000D01*
X150711614Y-115316000D01*
X150643493Y-115295998D01*
X150597000Y-115242342D01*
X150586896Y-115172068D01*
X150614740Y-115109431D01*
X150740249Y-114958524D01*
X150740256Y-114958514D01*
X150743947Y-114954076D01*
X150843134Y-114776965D01*
X150844990Y-114771498D01*
X150844992Y-114771493D01*
X150906528Y-114590214D01*
X150906529Y-114590209D01*
X150908384Y-114584745D01*
X150909212Y-114579036D01*
X150909213Y-114579031D01*
X150936979Y-114387527D01*
X150937512Y-114383853D01*
X150939032Y-114325800D01*
X150920458Y-114123659D01*
X150918890Y-114118099D01*
X150866925Y-113933846D01*
X150866924Y-113933844D01*
X150865357Y-113928287D01*
X150862803Y-113923106D01*
X150778131Y-113751409D01*
X150775576Y-113746228D01*
X150654120Y-113583579D01*
X150505058Y-113445787D01*
X150500175Y-113442706D01*
X150500171Y-113442703D01*
X150338264Y-113340548D01*
X150333381Y-113337467D01*
X150144839Y-113262246D01*
X150139179Y-113261120D01*
X150139175Y-113261119D01*
X149951413Y-113223771D01*
X149951410Y-113223771D01*
X149945746Y-113222644D01*
X149939971Y-113222568D01*
X149939967Y-113222568D01*
X149838593Y-113221241D01*
X149742771Y-113219987D01*
X149737074Y-113220966D01*
X149737073Y-113220966D01*
X149639420Y-113237746D01*
X149542710Y-113254364D01*
X149387056Y-113311788D01*
X149316224Y-113316600D01*
X149254351Y-113282671D01*
X149067605Y-113095925D01*
X149033579Y-113033613D01*
X149030700Y-113006830D01*
X149030700Y-107871671D01*
X149050702Y-107803550D01*
X149104358Y-107757057D01*
X149174632Y-107746953D01*
X149233405Y-107771708D01*
X149298722Y-107821828D01*
X149444047Y-107882023D01*
X149600000Y-107902555D01*
X149755953Y-107882023D01*
X149901278Y-107821828D01*
X150026071Y-107726071D01*
X150121828Y-107601277D01*
X150182023Y-107455953D01*
X150202555Y-107300000D01*
X150182023Y-107144047D01*
X150124394Y-107004918D01*
X150116805Y-106934328D01*
X150148584Y-106870841D01*
X150209642Y-106834614D01*
X150240803Y-106830700D01*
X150910830Y-106830700D01*
X150978951Y-106850702D01*
X150999925Y-106867605D01*
X151034126Y-106901806D01*
X151068152Y-106964118D01*
X151061440Y-107039117D01*
X151017977Y-107144047D01*
X150997445Y-107300000D01*
X151017977Y-107455953D01*
X151078172Y-107601277D01*
X151173929Y-107726071D01*
X151298722Y-107821828D01*
X151444047Y-107882023D01*
X151600000Y-107902555D01*
X151755953Y-107882023D01*
X151901278Y-107821828D01*
X152026071Y-107726071D01*
X152121828Y-107601277D01*
X152182023Y-107455953D01*
X152202555Y-107300000D01*
X152182023Y-107144047D01*
X152121828Y-106998723D01*
X152026071Y-106873929D01*
X151901278Y-106778172D01*
X151829817Y-106748572D01*
X151788940Y-106721259D01*
X151347943Y-106280263D01*
X151340517Y-106272159D01*
X151322933Y-106251203D01*
X151322932Y-106251202D01*
X151315849Y-106242761D01*
X151282625Y-106223578D01*
X151273355Y-106217673D01*
X151250950Y-106201985D01*
X151250947Y-106201984D01*
X151241916Y-106195660D01*
X151231267Y-106192806D01*
X151227889Y-106191231D01*
X151224396Y-106189960D01*
X151214851Y-106184449D01*
X151203998Y-106182535D01*
X151203997Y-106182535D01*
X151192900Y-106180578D01*
X151177053Y-106177784D01*
X151166339Y-106175409D01*
X151129267Y-106165476D01*
X151118292Y-106166436D01*
X151118291Y-106166436D01*
X151091032Y-106168821D01*
X151080051Y-106169300D01*
X149119949Y-106169300D01*
X149108968Y-106168821D01*
X149081709Y-106166436D01*
X149081708Y-106166436D01*
X149070733Y-106165476D01*
X149033661Y-106175409D01*
X149022947Y-106177784D01*
X149007100Y-106180578D01*
X148996003Y-106182535D01*
X148996002Y-106182535D01*
X148985149Y-106184449D01*
X148975604Y-106189960D01*
X148972111Y-106191231D01*
X148968733Y-106192806D01*
X148958084Y-106195660D01*
X148949053Y-106201984D01*
X148949050Y-106201985D01*
X148926645Y-106217673D01*
X148917375Y-106223578D01*
X148884151Y-106242761D01*
X148877067Y-106251204D01*
X148877064Y-106251206D01*
X148859478Y-106272164D01*
X148852052Y-106280268D01*
X148515024Y-106617296D01*
X148452712Y-106651322D01*
X148381897Y-106646257D01*
X148325061Y-106603710D01*
X148300250Y-106537190D01*
X148301008Y-106511750D01*
X148301477Y-106508189D01*
X148301477Y-106508188D01*
X148302555Y-106500000D01*
X148282023Y-106344047D01*
X148221828Y-106198723D01*
X148126071Y-106073929D01*
X148001278Y-105978172D01*
X147855953Y-105917977D01*
X147700000Y-105897445D01*
X147544047Y-105917977D01*
X147398723Y-105978172D01*
X147273929Y-106073929D01*
X147178172Y-106198723D01*
X147117977Y-106344047D01*
X147097445Y-106500000D01*
X147117977Y-106655953D01*
X147178172Y-106801277D01*
X147273929Y-106926071D01*
X147398722Y-107021828D01*
X147544047Y-107082023D01*
X147700000Y-107102555D01*
X147757581Y-107094974D01*
X147827728Y-107105913D01*
X147863121Y-107130801D01*
X148028075Y-107295755D01*
X148062101Y-107358067D01*
X148064980Y-107384850D01*
X148064980Y-113030750D01*
X148044978Y-113098871D01*
X148028075Y-113119845D01*
X147864276Y-113283644D01*
X147801964Y-113317670D01*
X147728493Y-113311579D01*
X147604839Y-113262246D01*
X147599179Y-113261120D01*
X147599175Y-113261119D01*
X147411413Y-113223771D01*
X147411410Y-113223771D01*
X147405746Y-113222644D01*
X147399971Y-113222568D01*
X147399967Y-113222568D01*
X147298593Y-113221241D01*
X147202771Y-113219987D01*
X147197074Y-113220966D01*
X147197073Y-113220966D01*
X147099420Y-113237746D01*
X147002710Y-113254364D01*
X146812263Y-113324624D01*
X146637810Y-113428412D01*
X146633470Y-113432218D01*
X146633466Y-113432221D01*
X146613523Y-113449711D01*
X146485192Y-113562255D01*
X146359520Y-113721669D01*
X146356831Y-113726780D01*
X146356829Y-113726783D01*
X146345307Y-113748683D01*
X146265003Y-113901315D01*
X146204807Y-114095178D01*
X146180948Y-114296764D01*
X146194224Y-114499322D01*
X146195645Y-114504918D01*
X146195646Y-114504923D01*
X146242771Y-114690474D01*
X146244192Y-114696069D01*
X146246609Y-114701312D01*
X146283810Y-114782008D01*
X146329177Y-114880416D01*
X146332510Y-114885132D01*
X146380526Y-114953073D01*
X146446333Y-115046189D01*
X146450475Y-115050224D01*
X146501311Y-115099746D01*
X146536149Y-115161607D01*
X146532012Y-115232483D01*
X146490213Y-115289871D01*
X146424023Y-115315551D01*
X146413390Y-115316000D01*
X145631614Y-115316000D01*
X145563493Y-115295998D01*
X145517000Y-115242342D01*
X145506896Y-115172068D01*
X145534740Y-115109431D01*
X145660249Y-114958524D01*
X145660256Y-114958514D01*
X145663947Y-114954076D01*
X145763134Y-114776965D01*
X145764990Y-114771498D01*
X145764992Y-114771493D01*
X145826528Y-114590214D01*
X145826529Y-114590209D01*
X145828384Y-114584745D01*
X145829212Y-114579036D01*
X145829213Y-114579031D01*
X145856979Y-114387527D01*
X145857512Y-114383853D01*
X145859032Y-114325800D01*
X145840458Y-114123659D01*
X145838890Y-114118099D01*
X145786925Y-113933846D01*
X145786924Y-113933844D01*
X145785357Y-113928287D01*
X145782803Y-113923106D01*
X145698131Y-113751409D01*
X145695576Y-113746228D01*
X145574120Y-113583579D01*
X145425058Y-113445787D01*
X145420175Y-113442706D01*
X145420171Y-113442703D01*
X145258264Y-113340548D01*
X145253381Y-113337467D01*
X145064839Y-113262246D01*
X145059179Y-113261120D01*
X145059175Y-113261119D01*
X144871413Y-113223771D01*
X144871410Y-113223771D01*
X144865746Y-113222644D01*
X144859971Y-113222568D01*
X144859967Y-113222568D01*
X144758593Y-113221241D01*
X144662771Y-113219987D01*
X144657074Y-113220966D01*
X144657073Y-113220966D01*
X144559420Y-113237746D01*
X144462710Y-113254364D01*
X144272263Y-113324624D01*
X144097810Y-113428412D01*
X144093470Y-113432218D01*
X144093466Y-113432221D01*
X144073523Y-113449711D01*
X143945192Y-113562255D01*
X143819520Y-113721669D01*
X143816831Y-113726780D01*
X143816829Y-113726783D01*
X143805307Y-113748683D01*
X143755887Y-113799656D01*
X143686755Y-113815818D01*
X143619859Y-113792039D01*
X143576438Y-113735868D01*
X143567799Y-113690015D01*
X143567799Y-113431131D01*
X143567429Y-113424310D01*
X143561905Y-113373448D01*
X143558279Y-113358196D01*
X143513124Y-113237746D01*
X143504586Y-113222151D01*
X143428085Y-113120076D01*
X143415524Y-113107515D01*
X143313449Y-113031014D01*
X143297854Y-113022476D01*
X143177406Y-112977322D01*
X143162151Y-112973695D01*
X143111286Y-112968169D01*
X143104472Y-112967800D01*
X142481915Y-112967800D01*
X142466676Y-112972275D01*
X142465471Y-112973665D01*
X142463800Y-112981348D01*
X142463800Y-114453800D01*
X142443798Y-114521921D01*
X142390142Y-114568414D01*
X142337800Y-114579800D01*
X142081800Y-114579800D01*
X142013679Y-114559798D01*
X141967186Y-114506142D01*
X141955800Y-114453800D01*
X141955800Y-112985916D01*
X141951325Y-112970677D01*
X141949935Y-112969472D01*
X141942252Y-112967801D01*
X141315131Y-112967801D01*
X141308310Y-112968171D01*
X141257448Y-112973695D01*
X141242196Y-112977321D01*
X141121746Y-113022476D01*
X141106151Y-113031014D01*
X141004076Y-113107515D01*
X140991515Y-113120076D01*
X140915014Y-113222151D01*
X140906476Y-113237746D01*
X140861322Y-113358194D01*
X140857695Y-113373449D01*
X140852169Y-113424314D01*
X140851800Y-113431128D01*
X140851800Y-113685960D01*
X140831798Y-113754081D01*
X140778142Y-113800574D01*
X140707868Y-113810678D01*
X140643288Y-113781184D01*
X140618367Y-113751794D01*
X140618131Y-113751408D01*
X140615576Y-113746228D01*
X140494120Y-113583579D01*
X140345058Y-113445787D01*
X140340175Y-113442706D01*
X140340171Y-113442703D01*
X140178264Y-113340548D01*
X140173381Y-113337467D01*
X139984839Y-113262246D01*
X139979179Y-113261120D01*
X139979175Y-113261119D01*
X139791413Y-113223771D01*
X139791410Y-113223771D01*
X139785746Y-113222644D01*
X139779971Y-113222568D01*
X139779967Y-113222568D01*
X139678593Y-113221241D01*
X139582771Y-113219987D01*
X139577074Y-113220966D01*
X139577073Y-113220966D01*
X139479420Y-113237746D01*
X139382710Y-113254364D01*
X139192263Y-113324624D01*
X139017810Y-113428412D01*
X139013470Y-113432218D01*
X139013466Y-113432221D01*
X138993523Y-113449711D01*
X138865192Y-113562255D01*
X138739520Y-113721669D01*
X138736831Y-113726780D01*
X138736829Y-113726783D01*
X138725307Y-113748683D01*
X138645003Y-113901315D01*
X138584807Y-114095178D01*
X138560948Y-114296764D01*
X138574224Y-114499322D01*
X138575645Y-114504918D01*
X138575646Y-114504923D01*
X138622771Y-114690474D01*
X138624192Y-114696069D01*
X138626609Y-114701312D01*
X138663810Y-114782008D01*
X138709177Y-114880416D01*
X138712510Y-114885132D01*
X138760526Y-114953073D01*
X138826333Y-115046189D01*
X138830475Y-115050224D01*
X138881311Y-115099746D01*
X138916149Y-115161607D01*
X138912012Y-115232483D01*
X138870213Y-115289871D01*
X138804023Y-115315551D01*
X138793390Y-115316000D01*
X137197425Y-115316000D01*
X137172847Y-115313579D01*
X137160000Y-115311024D01*
X137147828Y-115313445D01*
X137136301Y-115313445D01*
X137125320Y-115312966D01*
X137103122Y-115311024D01*
X136994551Y-115301525D01*
X136972930Y-115297713D01*
X136823152Y-115257580D01*
X136802516Y-115250069D01*
X136661990Y-115184540D01*
X136642970Y-115173558D01*
X136515954Y-115084621D01*
X136499129Y-115070503D01*
X136389497Y-114960871D01*
X136375379Y-114944046D01*
X136286442Y-114817030D01*
X136275460Y-114798010D01*
X136209931Y-114657484D01*
X136202419Y-114636846D01*
X136189924Y-114590214D01*
X136162287Y-114487070D01*
X136158474Y-114465446D01*
X136147034Y-114334680D01*
X136146555Y-114323699D01*
X136146555Y-114312172D01*
X136148976Y-114300000D01*
X136146421Y-114287153D01*
X136144000Y-114262575D01*
X136144000Y-100330000D01*
X136820539Y-100330000D01*
X136840354Y-100581775D01*
X136841508Y-100586582D01*
X136841509Y-100586588D01*
X136878613Y-100741135D01*
X136899312Y-100827351D01*
X136995960Y-101060680D01*
X137127919Y-101276017D01*
X137291939Y-101468061D01*
X137483983Y-101632081D01*
X137699320Y-101764040D01*
X137703890Y-101765933D01*
X137703894Y-101765935D01*
X137928076Y-101858794D01*
X137932649Y-101860688D01*
X138018865Y-101881387D01*
X138173412Y-101918491D01*
X138173418Y-101918492D01*
X138178225Y-101919646D01*
X138266253Y-101926574D01*
X138364507Y-101934307D01*
X138364516Y-101934307D01*
X138366964Y-101934500D01*
X138493036Y-101934500D01*
X138495484Y-101934307D01*
X138495493Y-101934307D01*
X138593747Y-101926574D01*
X138681775Y-101919646D01*
X138686582Y-101918492D01*
X138686588Y-101918491D01*
X138841135Y-101881387D01*
X138927351Y-101860688D01*
X138931924Y-101858794D01*
X139156106Y-101765935D01*
X139156110Y-101765933D01*
X139160680Y-101764040D01*
X139376017Y-101632081D01*
X139568061Y-101468061D01*
X139732081Y-101276017D01*
X139864040Y-101060680D01*
X139960688Y-100827351D01*
X139981387Y-100741135D01*
X140018491Y-100586588D01*
X140018492Y-100586582D01*
X140019646Y-100581775D01*
X140039461Y-100330000D01*
X140030068Y-100210653D01*
X141479977Y-100210653D01*
X141485258Y-100217707D01*
X141646756Y-100312079D01*
X141656042Y-100316529D01*
X141855001Y-100392503D01*
X141864899Y-100395379D01*
X142073595Y-100437838D01*
X142083823Y-100439057D01*
X142296650Y-100446862D01*
X142306936Y-100446395D01*
X142518185Y-100419334D01*
X142528262Y-100417192D01*
X142732255Y-100355991D01*
X142741842Y-100352233D01*
X142787225Y-100330000D01*
X157140539Y-100330000D01*
X157160354Y-100581775D01*
X157161508Y-100586582D01*
X157161509Y-100586588D01*
X157198613Y-100741135D01*
X157219312Y-100827351D01*
X157315960Y-101060680D01*
X157447919Y-101276017D01*
X157611939Y-101468061D01*
X157803983Y-101632081D01*
X158019320Y-101764040D01*
X158023890Y-101765933D01*
X158023894Y-101765935D01*
X158248076Y-101858794D01*
X158252649Y-101860688D01*
X158338865Y-101881387D01*
X158493412Y-101918491D01*
X158493418Y-101918492D01*
X158498225Y-101919646D01*
X158586253Y-101926574D01*
X158684507Y-101934307D01*
X158684516Y-101934307D01*
X158686964Y-101934500D01*
X158813036Y-101934500D01*
X158815484Y-101934307D01*
X158815493Y-101934307D01*
X158913747Y-101926574D01*
X159001775Y-101919646D01*
X159006582Y-101918492D01*
X159006588Y-101918491D01*
X159161135Y-101881387D01*
X159247351Y-101860688D01*
X159251924Y-101858794D01*
X159476106Y-101765935D01*
X159476110Y-101765933D01*
X159480680Y-101764040D01*
X159696017Y-101632081D01*
X159888061Y-101468061D01*
X160052081Y-101276017D01*
X160184040Y-101060680D01*
X160280688Y-100827351D01*
X160301387Y-100741135D01*
X160338491Y-100586588D01*
X160338492Y-100586582D01*
X160339646Y-100581775D01*
X160359461Y-100330000D01*
X160339646Y-100078225D01*
X160338492Y-100073418D01*
X160338491Y-100073412D01*
X160283576Y-99844680D01*
X160280688Y-99832649D01*
X160263776Y-99791819D01*
X160185935Y-99603894D01*
X160185933Y-99603890D01*
X160184040Y-99599320D01*
X160052081Y-99383983D01*
X159888061Y-99191939D01*
X159696017Y-99027919D01*
X159480680Y-98895960D01*
X159476110Y-98894067D01*
X159476106Y-98894065D01*
X159251924Y-98801206D01*
X159251922Y-98801205D01*
X159247351Y-98799312D01*
X159161135Y-98778613D01*
X159006588Y-98741509D01*
X159006582Y-98741508D01*
X159001775Y-98740354D01*
X158913747Y-98733426D01*
X158815493Y-98725693D01*
X158815484Y-98725693D01*
X158813036Y-98725500D01*
X158686964Y-98725500D01*
X158684516Y-98725693D01*
X158684507Y-98725693D01*
X158586253Y-98733426D01*
X158498225Y-98740354D01*
X158493418Y-98741508D01*
X158493412Y-98741509D01*
X158338865Y-98778613D01*
X158252649Y-98799312D01*
X158248078Y-98801205D01*
X158248076Y-98801206D01*
X158023894Y-98894065D01*
X158023890Y-98894067D01*
X158019320Y-98895960D01*
X157803983Y-99027919D01*
X157611939Y-99191939D01*
X157447919Y-99383983D01*
X157315960Y-99599320D01*
X157314067Y-99603890D01*
X157314065Y-99603894D01*
X157236224Y-99791819D01*
X157219312Y-99832649D01*
X157216424Y-99844680D01*
X157161509Y-100073412D01*
X157161508Y-100073418D01*
X157160354Y-100078225D01*
X157140539Y-100330000D01*
X142787225Y-100330000D01*
X142933098Y-100258538D01*
X142941944Y-100253265D01*
X142989247Y-100219523D01*
X142997648Y-100208823D01*
X142990660Y-100195670D01*
X142252812Y-99457822D01*
X142238868Y-99450208D01*
X142237035Y-99450339D01*
X142230420Y-99454590D01*
X141486737Y-100198273D01*
X141479977Y-100210653D01*
X140030068Y-100210653D01*
X140019646Y-100078225D01*
X140018492Y-100073418D01*
X140018491Y-100073412D01*
X139963576Y-99844680D01*
X139960688Y-99832649D01*
X139943776Y-99791819D01*
X139865935Y-99603894D01*
X139865933Y-99603890D01*
X139864040Y-99599320D01*
X139732081Y-99383983D01*
X139568061Y-99191939D01*
X139376017Y-99027919D01*
X139160680Y-98895960D01*
X139156110Y-98894067D01*
X139156106Y-98894065D01*
X138931924Y-98801206D01*
X138931922Y-98801205D01*
X138927351Y-98799312D01*
X138841135Y-98778613D01*
X138686588Y-98741509D01*
X138686582Y-98741508D01*
X138681775Y-98740354D01*
X138593747Y-98733426D01*
X138495493Y-98725693D01*
X138495484Y-98725693D01*
X138493036Y-98725500D01*
X138366964Y-98725500D01*
X138364516Y-98725693D01*
X138364507Y-98725693D01*
X138266253Y-98733426D01*
X138178225Y-98740354D01*
X138173418Y-98741508D01*
X138173412Y-98741509D01*
X138018865Y-98778613D01*
X137932649Y-98799312D01*
X137928078Y-98801205D01*
X137928076Y-98801206D01*
X137703894Y-98894065D01*
X137703890Y-98894067D01*
X137699320Y-98895960D01*
X137483983Y-99027919D01*
X137291939Y-99191939D01*
X137127919Y-99383983D01*
X136995960Y-99599320D01*
X136994067Y-99603890D01*
X136994065Y-99603894D01*
X136916224Y-99791819D01*
X136899312Y-99832649D01*
X136896424Y-99844680D01*
X136841509Y-100073412D01*
X136841508Y-100073418D01*
X136840354Y-100078225D01*
X136820539Y-100330000D01*
X136144000Y-100330000D01*
X136144000Y-99097425D01*
X136146421Y-99072844D01*
X136146555Y-99072170D01*
X136148976Y-99060000D01*
X136146555Y-99047828D01*
X136146555Y-99036301D01*
X136147034Y-99025320D01*
X136158474Y-98894554D01*
X136162287Y-98872930D01*
X136202420Y-98723152D01*
X136209931Y-98702516D01*
X136275460Y-98561990D01*
X136286442Y-98542970D01*
X136375379Y-98415954D01*
X136389497Y-98399129D01*
X136499129Y-98289497D01*
X136515954Y-98275379D01*
X136642970Y-98186442D01*
X136661990Y-98175460D01*
X136802516Y-98109931D01*
X136823152Y-98102420D01*
X136972930Y-98062287D01*
X136994551Y-98058475D01*
X137125319Y-98047034D01*
X137136301Y-98046555D01*
X137147828Y-98046555D01*
X137160000Y-98048976D01*
X137172847Y-98046421D01*
X137197425Y-98044000D01*
X141068234Y-98044000D01*
X141136355Y-98064002D01*
G37*
G04 #@! TD.AperFunction*
M02*
