G04 #@! TF.GenerationSoftware,KiCad,Pcbnew,(6.0.0-0)*
G04 #@! TF.CreationDate,2023-03-25T21:38:46-07:00*
G04 #@! TF.ProjectId,breakout,62726561-6b6f-4757-942e-6b696361645f,2.0.1*
G04 #@! TF.SameCoordinates,Original*
G04 #@! TF.FileFunction,Paste,Top*
G04 #@! TF.FilePolarity,Positive*
%FSLAX46Y46*%
G04 Gerber Fmt 4.6, Leading zero omitted, Abs format (unit mm)*
G04 Created by KiCad (PCBNEW (6.0.0-0)) date 2023-03-25 21:38:46*
%MOMM*%
%LPD*%
G01*
G04 APERTURE LIST*
G04 Aperture macros list*
%AMRoundRect*
0 Rectangle with rounded corners*
0 $1 Rounding radius*
0 $2 $3 $4 $5 $6 $7 $8 $9 X,Y pos of 4 corners*
0 Add a 4 corners polygon primitive as box body*
4,1,4,$2,$3,$4,$5,$6,$7,$8,$9,$2,$3,0*
0 Add four circle primitives for the rounded corners*
1,1,$1+$1,$2,$3*
1,1,$1+$1,$4,$5*
1,1,$1+$1,$6,$7*
1,1,$1+$1,$8,$9*
0 Add four rect primitives between the rounded corners*
20,1,$1+$1,$2,$3,$4,$5,0*
20,1,$1+$1,$4,$5,$6,$7,0*
20,1,$1+$1,$6,$7,$8,$9,0*
20,1,$1+$1,$8,$9,$2,$3,0*%
G04 Aperture macros list end*
%ADD10RoundRect,0.243750X-0.456250X0.243750X-0.456250X-0.243750X0.456250X-0.243750X0.456250X0.243750X0*%
%ADD11RoundRect,0.250000X-0.250000X-0.475000X0.250000X-0.475000X0.250000X0.475000X-0.250000X0.475000X0*%
%ADD12RoundRect,0.250000X0.250000X0.475000X-0.250000X0.475000X-0.250000X-0.475000X0.250000X-0.475000X0*%
%ADD13RoundRect,0.243750X0.243750X0.456250X-0.243750X0.456250X-0.243750X-0.456250X0.243750X-0.456250X0*%
%ADD14RoundRect,0.250000X-0.475000X0.250000X-0.475000X-0.250000X0.475000X-0.250000X0.475000X0.250000X0*%
%ADD15RoundRect,0.100000X-0.100000X0.637500X-0.100000X-0.637500X0.100000X-0.637500X0.100000X0.637500X0*%
%ADD16RoundRect,0.250000X0.450000X-0.262500X0.450000X0.262500X-0.450000X0.262500X-0.450000X-0.262500X0*%
%ADD17RoundRect,0.250000X-0.450000X0.262500X-0.450000X-0.262500X0.450000X-0.262500X0.450000X0.262500X0*%
G04 APERTURE END LIST*
D10*
X138400000Y-104225000D03*
X138400000Y-106100000D03*
D11*
X157550000Y-107200000D03*
X159450000Y-107200000D03*
D12*
X143179800Y-104063800D03*
X141279800Y-104063800D03*
D13*
X159437500Y-105041000D03*
X157562500Y-105041000D03*
D14*
X141500000Y-108550000D03*
X141500000Y-110450000D03*
D15*
X152250000Y-103137500D03*
X151600000Y-103137500D03*
X150950000Y-103137500D03*
X150300000Y-103137500D03*
X149650000Y-103137500D03*
X149000000Y-103137500D03*
X148350000Y-103137500D03*
X148350000Y-108862500D03*
X149000000Y-108862500D03*
X149650000Y-108862500D03*
X150300000Y-108862500D03*
X150950000Y-108862500D03*
X151600000Y-108862500D03*
X152250000Y-108862500D03*
D13*
X143147300Y-102031800D03*
X141272300Y-102031800D03*
D16*
X139300000Y-110412500D03*
X139300000Y-108587500D03*
D12*
X143179800Y-106095800D03*
X141279800Y-106095800D03*
D16*
X146300000Y-109512500D03*
X146300000Y-107687500D03*
D14*
X146300000Y-103150000D03*
X146300000Y-105050000D03*
D16*
X154500000Y-105112500D03*
X154500000Y-103287500D03*
D14*
X143700000Y-108550000D03*
X143700000Y-110450000D03*
D11*
X157550000Y-109232000D03*
X159450000Y-109232000D03*
D17*
X154500000Y-107687500D03*
X154500000Y-109512500D03*
M02*
