G04 #@! TF.GenerationSoftware,KiCad,Pcbnew,(6.0.0-0)*
G04 #@! TF.CreationDate,2023-03-17T12:47:20-07:00*
G04 #@! TF.ProjectId,breakout,62726561-6b6f-4757-942e-6b696361645f,2.0.0*
G04 #@! TF.SameCoordinates,Original*
G04 #@! TF.FileFunction,Legend,Top*
G04 #@! TF.FilePolarity,Positive*
%FSLAX46Y46*%
G04 Gerber Fmt 4.6, Leading zero omitted, Abs format (unit mm)*
G04 Created by KiCad (PCBNEW (6.0.0-0)) date 2023-03-17 12:47:20*
%MOMM*%
%LPD*%
G01*
G04 APERTURE LIST*
%ADD10C,0.140000*%
%ADD11C,0.120000*%
%ADD12C,0.100000*%
%ADD13C,0.080000*%
G04 APERTURE END LIST*
D10*
X145550000Y-111616666D02*
X145883333Y-111616666D01*
X145483333Y-111816666D02*
X145716666Y-111116666D01*
X145950000Y-111816666D01*
X146183333Y-111816666D02*
X146183333Y-111116666D01*
X146350000Y-111116666D01*
X146450000Y-111150000D01*
X146516666Y-111216666D01*
X146550000Y-111283333D01*
X146583333Y-111416666D01*
X146583333Y-111516666D01*
X146550000Y-111650000D01*
X146516666Y-111716666D01*
X146450000Y-111783333D01*
X146350000Y-111816666D01*
X146183333Y-111816666D01*
X147216666Y-111116666D02*
X146883333Y-111116666D01*
X146850000Y-111450000D01*
X146883333Y-111416666D01*
X146950000Y-111383333D01*
X147116666Y-111383333D01*
X147183333Y-111416666D01*
X147216666Y-111450000D01*
X147250000Y-111516666D01*
X147250000Y-111683333D01*
X147216666Y-111750000D01*
X147183333Y-111783333D01*
X147116666Y-111816666D01*
X146950000Y-111816666D01*
X146883333Y-111783333D01*
X146850000Y-111750000D01*
X147516666Y-111183333D02*
X147550000Y-111150000D01*
X147616666Y-111116666D01*
X147783333Y-111116666D01*
X147850000Y-111150000D01*
X147883333Y-111183333D01*
X147916666Y-111250000D01*
X147916666Y-111316666D01*
X147883333Y-111416666D01*
X147483333Y-111816666D01*
X147916666Y-111816666D01*
X148250000Y-111816666D02*
X148383333Y-111816666D01*
X148450000Y-111783333D01*
X148483333Y-111750000D01*
X148550000Y-111650000D01*
X148583333Y-111516666D01*
X148583333Y-111250000D01*
X148550000Y-111183333D01*
X148516666Y-111150000D01*
X148450000Y-111116666D01*
X148316666Y-111116666D01*
X148250000Y-111150000D01*
X148216666Y-111183333D01*
X148183333Y-111250000D01*
X148183333Y-111416666D01*
X148216666Y-111483333D01*
X148250000Y-111516666D01*
X148316666Y-111550000D01*
X148450000Y-111550000D01*
X148516666Y-111516666D01*
X148550000Y-111483333D01*
X148583333Y-111416666D01*
X148816666Y-111116666D02*
X149250000Y-111116666D01*
X149016666Y-111383333D01*
X149116666Y-111383333D01*
X149183333Y-111416666D01*
X149216666Y-111450000D01*
X149250000Y-111516666D01*
X149250000Y-111683333D01*
X149216666Y-111750000D01*
X149183333Y-111783333D01*
X149116666Y-111816666D01*
X148916666Y-111816666D01*
X148850000Y-111783333D01*
X148816666Y-111750000D01*
X149550000Y-111550000D02*
X150083333Y-111550000D01*
X150783333Y-111816666D02*
X150383333Y-111816666D01*
X150583333Y-111816666D02*
X150583333Y-111116666D01*
X150516666Y-111216666D01*
X150450000Y-111283333D01*
X150383333Y-111316666D01*
X151216666Y-111116666D02*
X151283333Y-111116666D01*
X151350000Y-111150000D01*
X151383333Y-111183333D01*
X151416666Y-111250000D01*
X151450000Y-111383333D01*
X151450000Y-111550000D01*
X151416666Y-111683333D01*
X151383333Y-111750000D01*
X151350000Y-111783333D01*
X151283333Y-111816666D01*
X151216666Y-111816666D01*
X151150000Y-111783333D01*
X151116666Y-111750000D01*
X151083333Y-111683333D01*
X151050000Y-111550000D01*
X151050000Y-111383333D01*
X151083333Y-111250000D01*
X151116666Y-111183333D01*
X151150000Y-111150000D01*
X151216666Y-111116666D01*
X151883333Y-111116666D02*
X151950000Y-111116666D01*
X152016666Y-111150000D01*
X152050000Y-111183333D01*
X152083333Y-111250000D01*
X152116666Y-111383333D01*
X152116666Y-111550000D01*
X152083333Y-111683333D01*
X152050000Y-111750000D01*
X152016666Y-111783333D01*
X151950000Y-111816666D01*
X151883333Y-111816666D01*
X151816666Y-111783333D01*
X151783333Y-111750000D01*
X151750000Y-111683333D01*
X151716666Y-111550000D01*
X151716666Y-111383333D01*
X151750000Y-111250000D01*
X151783333Y-111183333D01*
X151816666Y-111150000D01*
X151883333Y-111116666D01*
X152416666Y-111816666D02*
X152416666Y-111116666D01*
X152816666Y-111816666D02*
X152516666Y-111416666D01*
X152816666Y-111116666D02*
X152416666Y-111516666D01*
X153650000Y-111816666D02*
X153650000Y-111116666D01*
X153816666Y-111116666D01*
X153916666Y-111150000D01*
X153983333Y-111216666D01*
X154016666Y-111283333D01*
X154050000Y-111416666D01*
X154050000Y-111516666D01*
X154016666Y-111650000D01*
X153983333Y-111716666D01*
X153916666Y-111783333D01*
X153816666Y-111816666D01*
X153650000Y-111816666D01*
X154350000Y-111816666D02*
X154350000Y-111116666D01*
X155050000Y-111150000D02*
X154983333Y-111116666D01*
X154883333Y-111116666D01*
X154783333Y-111150000D01*
X154716666Y-111216666D01*
X154683333Y-111283333D01*
X154650000Y-111416666D01*
X154650000Y-111516666D01*
X154683333Y-111650000D01*
X154716666Y-111716666D01*
X154783333Y-111783333D01*
X154883333Y-111816666D01*
X154950000Y-111816666D01*
X155050000Y-111783333D01*
X155083333Y-111750000D01*
X155083333Y-111516666D01*
X154950000Y-111516666D01*
X155383333Y-111816666D02*
X155383333Y-111116666D01*
X155716666Y-111550000D02*
X156250000Y-111550000D01*
X156583333Y-111816666D02*
X156583333Y-111116666D01*
X156850000Y-111116666D01*
X156916666Y-111150000D01*
X156950000Y-111183333D01*
X156983333Y-111250000D01*
X156983333Y-111350000D01*
X156950000Y-111416666D01*
X156916666Y-111450000D01*
X156850000Y-111483333D01*
X156583333Y-111483333D01*
X157416666Y-111116666D02*
X157550000Y-111116666D01*
X157616666Y-111150000D01*
X157683333Y-111216666D01*
X157716666Y-111350000D01*
X157716666Y-111583333D01*
X157683333Y-111716666D01*
X157616666Y-111783333D01*
X157550000Y-111816666D01*
X157416666Y-111816666D01*
X157350000Y-111783333D01*
X157283333Y-111716666D01*
X157250000Y-111583333D01*
X157250000Y-111350000D01*
X157283333Y-111216666D01*
X157350000Y-111150000D01*
X157416666Y-111116666D01*
X157916666Y-111116666D02*
X158316666Y-111116666D01*
X158116666Y-111816666D02*
X158116666Y-111116666D01*
D11*
X143935142Y-100171428D02*
X144135142Y-100771428D01*
X144335142Y-100171428D01*
X144792285Y-100771428D02*
X144792285Y-100171428D01*
X144792285Y-100742857D02*
X144735142Y-100771428D01*
X144620857Y-100771428D01*
X144563714Y-100742857D01*
X144535142Y-100714285D01*
X144506571Y-100657142D01*
X144506571Y-100485714D01*
X144535142Y-100428571D01*
X144563714Y-100400000D01*
X144620857Y-100371428D01*
X144735142Y-100371428D01*
X144792285Y-100400000D01*
X145335142Y-100771428D02*
X145335142Y-100171428D01*
X145335142Y-100742857D02*
X145278000Y-100771428D01*
X145163714Y-100771428D01*
X145106571Y-100742857D01*
X145078000Y-100714285D01*
X145049428Y-100657142D01*
X145049428Y-100485714D01*
X145078000Y-100428571D01*
X145106571Y-100400000D01*
X145163714Y-100371428D01*
X145278000Y-100371428D01*
X145335142Y-100400000D01*
X145620857Y-100542857D02*
X146078000Y-100542857D01*
X145849428Y-100771428D02*
X145849428Y-100314285D01*
X144053085Y-113196657D02*
X144138800Y-113225228D01*
X144281657Y-113225228D01*
X144338800Y-113196657D01*
X144367371Y-113168085D01*
X144395942Y-113110942D01*
X144395942Y-113053800D01*
X144367371Y-112996657D01*
X144338800Y-112968085D01*
X144281657Y-112939514D01*
X144167371Y-112910942D01*
X144110228Y-112882371D01*
X144081657Y-112853800D01*
X144053085Y-112796657D01*
X144053085Y-112739514D01*
X144081657Y-112682371D01*
X144110228Y-112653800D01*
X144167371Y-112625228D01*
X144310228Y-112625228D01*
X144395942Y-112653800D01*
X144938800Y-113225228D02*
X144653085Y-113225228D01*
X144653085Y-112625228D01*
X145138800Y-113225228D02*
X145138800Y-112625228D01*
X145481657Y-113225228D02*
X145224514Y-112882371D01*
X145481657Y-112625228D02*
X145138800Y-112968085D01*
X141728942Y-112653800D02*
X141671800Y-112625228D01*
X141586085Y-112625228D01*
X141500371Y-112653800D01*
X141443228Y-112710942D01*
X141414657Y-112768085D01*
X141386085Y-112882371D01*
X141386085Y-112968085D01*
X141414657Y-113082371D01*
X141443228Y-113139514D01*
X141500371Y-113196657D01*
X141586085Y-113225228D01*
X141643228Y-113225228D01*
X141728942Y-113196657D01*
X141757514Y-113168085D01*
X141757514Y-112968085D01*
X141643228Y-112968085D01*
X142014657Y-113225228D02*
X142014657Y-112625228D01*
X142357514Y-113225228D01*
X142357514Y-112625228D01*
X142643228Y-113225228D02*
X142643228Y-112625228D01*
X142786085Y-112625228D01*
X142871800Y-112653800D01*
X142928942Y-112710942D01*
X142957514Y-112768085D01*
X142986085Y-112882371D01*
X142986085Y-112968085D01*
X142957514Y-113082371D01*
X142928942Y-113139514D01*
X142871800Y-113196657D01*
X142786085Y-113225228D01*
X142643228Y-113225228D01*
X156765800Y-112455800D02*
X157365800Y-112455800D01*
X157251514Y-113225228D02*
X157051514Y-112939514D01*
X156908657Y-113225228D02*
X156908657Y-112625228D01*
X157137228Y-112625228D01*
X157194371Y-112653800D01*
X157222942Y-112682371D01*
X157251514Y-112739514D01*
X157251514Y-112825228D01*
X157222942Y-112882371D01*
X157194371Y-112910942D01*
X157137228Y-112939514D01*
X156908657Y-112939514D01*
X157365800Y-112455800D02*
X157937228Y-112455800D01*
X157480085Y-113196657D02*
X157565800Y-113225228D01*
X157708657Y-113225228D01*
X157765800Y-113196657D01*
X157794371Y-113168085D01*
X157822942Y-113110942D01*
X157822942Y-113053800D01*
X157794371Y-112996657D01*
X157765800Y-112968085D01*
X157708657Y-112939514D01*
X157594371Y-112910942D01*
X157537228Y-112882371D01*
X157508657Y-112853800D01*
X157480085Y-112796657D01*
X157480085Y-112739514D01*
X157508657Y-112682371D01*
X157537228Y-112653800D01*
X157594371Y-112625228D01*
X157737228Y-112625228D01*
X157822942Y-112653800D01*
X157937228Y-112455800D02*
X158394371Y-112455800D01*
X157994371Y-112625228D02*
X158337228Y-112625228D01*
X158165800Y-113225228D02*
X158165800Y-112625228D01*
X154135142Y-100171428D02*
X154335142Y-100771428D01*
X154535142Y-100171428D01*
X154706571Y-100742857D02*
X154763714Y-100771428D01*
X154878000Y-100771428D01*
X154935142Y-100742857D01*
X154963714Y-100685714D01*
X154963714Y-100657142D01*
X154935142Y-100600000D01*
X154878000Y-100571428D01*
X154792285Y-100571428D01*
X154735142Y-100542857D01*
X154706571Y-100485714D01*
X154706571Y-100457142D01*
X154735142Y-100400000D01*
X154792285Y-100371428D01*
X154878000Y-100371428D01*
X154935142Y-100400000D01*
X155192285Y-100742857D02*
X155249428Y-100771428D01*
X155363714Y-100771428D01*
X155420857Y-100742857D01*
X155449428Y-100685714D01*
X155449428Y-100657142D01*
X155420857Y-100600000D01*
X155363714Y-100571428D01*
X155278000Y-100571428D01*
X155220857Y-100542857D01*
X155192285Y-100485714D01*
X155192285Y-100457142D01*
X155220857Y-100400000D01*
X155278000Y-100371428D01*
X155363714Y-100371428D01*
X155420857Y-100400000D01*
X155706571Y-100542857D02*
X156163714Y-100542857D01*
X139042942Y-112625228D02*
X139242942Y-113225228D01*
X139442942Y-112625228D01*
X139900085Y-113196657D02*
X139842942Y-113225228D01*
X139728657Y-113225228D01*
X139671514Y-113196657D01*
X139642942Y-113168085D01*
X139614371Y-113110942D01*
X139614371Y-112939514D01*
X139642942Y-112882371D01*
X139671514Y-112853800D01*
X139728657Y-112825228D01*
X139842942Y-112825228D01*
X139900085Y-112853800D01*
X140414371Y-113196657D02*
X140357228Y-113225228D01*
X140242942Y-113225228D01*
X140185800Y-113196657D01*
X140157228Y-113168085D01*
X140128657Y-113110942D01*
X140128657Y-112939514D01*
X140157228Y-112882371D01*
X140185800Y-112853800D01*
X140242942Y-112825228D01*
X140357228Y-112825228D01*
X140414371Y-112853800D01*
X141835142Y-100200000D02*
X141778000Y-100171428D01*
X141692285Y-100171428D01*
X141606571Y-100200000D01*
X141549428Y-100257142D01*
X141520857Y-100314285D01*
X141492285Y-100428571D01*
X141492285Y-100514285D01*
X141520857Y-100628571D01*
X141549428Y-100685714D01*
X141606571Y-100742857D01*
X141692285Y-100771428D01*
X141749428Y-100771428D01*
X141835142Y-100742857D01*
X141863714Y-100714285D01*
X141863714Y-100514285D01*
X141749428Y-100514285D01*
X142120857Y-100771428D02*
X142120857Y-100171428D01*
X142463714Y-100771428D01*
X142463714Y-100171428D01*
X142749428Y-100771428D02*
X142749428Y-100171428D01*
X142892285Y-100171428D01*
X142978000Y-100200000D01*
X143035142Y-100257142D01*
X143063714Y-100314285D01*
X143092285Y-100428571D01*
X143092285Y-100514285D01*
X143063714Y-100628571D01*
X143035142Y-100685714D01*
X142978000Y-100742857D01*
X142892285Y-100771428D01*
X142749428Y-100771428D01*
D10*
X149591000Y-100116666D02*
X149757666Y-100816666D01*
X149891000Y-100316666D01*
X150024333Y-100816666D01*
X150191000Y-100116666D01*
X147691000Y-100816666D02*
X147357666Y-100816666D01*
X147357666Y-100116666D01*
D12*
X149131990Y-113179990D02*
X149131990Y-112679990D01*
X149131990Y-112918085D02*
X149434847Y-112918085D01*
X149434847Y-113179990D02*
X149434847Y-112679990D01*
X149788180Y-112679990D02*
X149889133Y-112679990D01*
X149939609Y-112703800D01*
X149990085Y-112751419D01*
X150015323Y-112846657D01*
X150015323Y-113013323D01*
X149990085Y-113108561D01*
X149939609Y-113156180D01*
X149889133Y-113179990D01*
X149788180Y-113179990D01*
X149737704Y-113156180D01*
X149687228Y-113108561D01*
X149661990Y-113013323D01*
X149661990Y-112846657D01*
X149687228Y-112751419D01*
X149737704Y-112703800D01*
X149788180Y-112679990D01*
X150242466Y-113179990D02*
X150242466Y-112679990D01*
X150444371Y-112679990D01*
X150494847Y-112703800D01*
X150520085Y-112727609D01*
X150545323Y-112775228D01*
X150545323Y-112846657D01*
X150520085Y-112894276D01*
X150494847Y-112918085D01*
X150444371Y-112941895D01*
X150242466Y-112941895D01*
X150772466Y-113179990D02*
X150772466Y-112679990D01*
X146591990Y-113179990D02*
X146591990Y-112679990D01*
X146591990Y-112918085D02*
X146894847Y-112918085D01*
X146894847Y-113179990D02*
X146894847Y-112679990D01*
X147147228Y-113179990D02*
X147147228Y-112679990D01*
X147399609Y-113179990D02*
X147399609Y-112679990D01*
X147601514Y-112679990D01*
X147651990Y-112703800D01*
X147677228Y-112727609D01*
X147702466Y-112775228D01*
X147702466Y-112846657D01*
X147677228Y-112894276D01*
X147651990Y-112918085D01*
X147601514Y-112941895D01*
X147399609Y-112941895D01*
X148030561Y-112679990D02*
X148131514Y-112679990D01*
X148181990Y-112703800D01*
X148232466Y-112751419D01*
X148257704Y-112846657D01*
X148257704Y-113013323D01*
X148232466Y-113108561D01*
X148181990Y-113156180D01*
X148131514Y-113179990D01*
X148030561Y-113179990D01*
X147980085Y-113156180D01*
X147929609Y-113108561D01*
X147904371Y-113013323D01*
X147904371Y-112846657D01*
X147929609Y-112751419D01*
X147980085Y-112703800D01*
X148030561Y-112679990D01*
D11*
X154584514Y-113225228D02*
X154384514Y-112939514D01*
X154241657Y-113225228D02*
X154241657Y-112625228D01*
X154470228Y-112625228D01*
X154527371Y-112653800D01*
X154555942Y-112682371D01*
X154584514Y-112739514D01*
X154584514Y-112825228D01*
X154555942Y-112882371D01*
X154527371Y-112910942D01*
X154470228Y-112939514D01*
X154241657Y-112939514D01*
X154841657Y-113225228D02*
X154841657Y-112625228D01*
X154984514Y-112625228D01*
X155070228Y-112653800D01*
X155127371Y-112710942D01*
X155155942Y-112768085D01*
X155184514Y-112882371D01*
X155184514Y-112968085D01*
X155155942Y-113082371D01*
X155127371Y-113139514D01*
X155070228Y-113196657D01*
X154984514Y-113225228D01*
X154841657Y-113225228D01*
X155555942Y-112939514D02*
X155555942Y-113225228D01*
X155355942Y-112625228D02*
X155555942Y-112939514D01*
X155755942Y-112625228D01*
X151812800Y-112455800D02*
X152412800Y-112455800D01*
X152298514Y-113168085D02*
X152269942Y-113196657D01*
X152184228Y-113225228D01*
X152127085Y-113225228D01*
X152041371Y-113196657D01*
X151984228Y-113139514D01*
X151955657Y-113082371D01*
X151927085Y-112968085D01*
X151927085Y-112882371D01*
X151955657Y-112768085D01*
X151984228Y-112710942D01*
X152041371Y-112653800D01*
X152127085Y-112625228D01*
X152184228Y-112625228D01*
X152269942Y-112653800D01*
X152298514Y-112682371D01*
X152412800Y-112455800D02*
X152984228Y-112455800D01*
X152527085Y-113196657D02*
X152612800Y-113225228D01*
X152755657Y-113225228D01*
X152812800Y-113196657D01*
X152841371Y-113168085D01*
X152869942Y-113110942D01*
X152869942Y-113053800D01*
X152841371Y-112996657D01*
X152812800Y-112968085D01*
X152755657Y-112939514D01*
X152641371Y-112910942D01*
X152584228Y-112882371D01*
X152555657Y-112853800D01*
X152527085Y-112796657D01*
X152527085Y-112739514D01*
X152555657Y-112682371D01*
X152584228Y-112653800D01*
X152641371Y-112625228D01*
X152784228Y-112625228D01*
X152869942Y-112653800D01*
D10*
X152257666Y-100816666D02*
X152257666Y-100116666D01*
X152257666Y-100450000D02*
X152657666Y-100450000D01*
X152657666Y-100816666D02*
X152657666Y-100116666D01*
D13*
X138104761Y-103280952D02*
X138104761Y-102880952D01*
X138200000Y-102880952D01*
X138257142Y-102900000D01*
X138295238Y-102938095D01*
X138314285Y-102976190D01*
X138333333Y-103052380D01*
X138333333Y-103109523D01*
X138314285Y-103185714D01*
X138295238Y-103223809D01*
X138257142Y-103261904D01*
X138200000Y-103280952D01*
X138104761Y-103280952D01*
X138714285Y-103280952D02*
X138485714Y-103280952D01*
X138600000Y-103280952D02*
X138600000Y-102880952D01*
X138561904Y-102938095D01*
X138523809Y-102976190D01*
X138485714Y-102995238D01*
X137866666Y-107380952D02*
X137866666Y-106980952D01*
X138019047Y-106980952D01*
X138057142Y-107000000D01*
X138076190Y-107019047D01*
X138095238Y-107057142D01*
X138095238Y-107114285D01*
X138076190Y-107152380D01*
X138057142Y-107171428D01*
X138019047Y-107190476D01*
X137866666Y-107190476D01*
X138228571Y-106980952D02*
X138323809Y-107380952D01*
X138400000Y-107095238D01*
X138476190Y-107380952D01*
X138571428Y-106980952D01*
X138952380Y-107380952D02*
X138819047Y-107190476D01*
X138723809Y-107380952D02*
X138723809Y-106980952D01*
X138876190Y-106980952D01*
X138914285Y-107000000D01*
X138933333Y-107019047D01*
X138952380Y-107057142D01*
X138952380Y-107114285D01*
X138933333Y-107152380D01*
X138914285Y-107171428D01*
X138876190Y-107190476D01*
X138723809Y-107190476D01*
X156433333Y-106442857D02*
X156414285Y-106461904D01*
X156357142Y-106480952D01*
X156319047Y-106480952D01*
X156261904Y-106461904D01*
X156223809Y-106423809D01*
X156204761Y-106385714D01*
X156185714Y-106309523D01*
X156185714Y-106252380D01*
X156204761Y-106176190D01*
X156223809Y-106138095D01*
X156261904Y-106100000D01*
X156319047Y-106080952D01*
X156357142Y-106080952D01*
X156414285Y-106100000D01*
X156433333Y-106119047D01*
X156795238Y-106080952D02*
X156604761Y-106080952D01*
X156585714Y-106271428D01*
X156604761Y-106252380D01*
X156642857Y-106233333D01*
X156738095Y-106233333D01*
X156776190Y-106252380D01*
X156795238Y-106271428D01*
X156814285Y-106309523D01*
X156814285Y-106404761D01*
X156795238Y-106442857D01*
X156776190Y-106461904D01*
X156738095Y-106480952D01*
X156642857Y-106480952D01*
X156604761Y-106461904D01*
X156585714Y-106442857D01*
X155671428Y-107080952D02*
X155442857Y-107080952D01*
X155557142Y-107080952D02*
X155557142Y-106680952D01*
X155519047Y-106738095D01*
X155480952Y-106776190D01*
X155442857Y-106795238D01*
X155919047Y-106680952D02*
X155957142Y-106680952D01*
X155995238Y-106700000D01*
X156014285Y-106719047D01*
X156033333Y-106757142D01*
X156052380Y-106833333D01*
X156052380Y-106928571D01*
X156033333Y-107004761D01*
X156014285Y-107042857D01*
X155995238Y-107061904D01*
X155957142Y-107080952D01*
X155919047Y-107080952D01*
X155880952Y-107061904D01*
X155861904Y-107042857D01*
X155842857Y-107004761D01*
X155823809Y-106928571D01*
X155823809Y-106833333D01*
X155842857Y-106757142D01*
X155861904Y-106719047D01*
X155880952Y-106700000D01*
X155919047Y-106680952D01*
X156395238Y-106814285D02*
X156395238Y-107080952D01*
X156223809Y-106814285D02*
X156223809Y-107023809D01*
X156242857Y-107061904D01*
X156280952Y-107080952D01*
X156338095Y-107080952D01*
X156376190Y-107061904D01*
X156395238Y-107042857D01*
X156719047Y-106871428D02*
X156585714Y-106871428D01*
X156585714Y-107080952D02*
X156585714Y-106680952D01*
X156776190Y-106680952D01*
X144133333Y-104542857D02*
X144114285Y-104561904D01*
X144057142Y-104580952D01*
X144019047Y-104580952D01*
X143961904Y-104561904D01*
X143923809Y-104523809D01*
X143904761Y-104485714D01*
X143885714Y-104409523D01*
X143885714Y-104352380D01*
X143904761Y-104276190D01*
X143923809Y-104238095D01*
X143961904Y-104200000D01*
X144019047Y-104180952D01*
X144057142Y-104180952D01*
X144114285Y-104200000D01*
X144133333Y-104219047D01*
X144285714Y-104219047D02*
X144304761Y-104200000D01*
X144342857Y-104180952D01*
X144438095Y-104180952D01*
X144476190Y-104200000D01*
X144495238Y-104219047D01*
X144514285Y-104257142D01*
X144514285Y-104295238D01*
X144495238Y-104352380D01*
X144266666Y-104580952D01*
X144514285Y-104580952D01*
X143842857Y-104780952D02*
X143880952Y-104780952D01*
X143919047Y-104800000D01*
X143938095Y-104819047D01*
X143957142Y-104857142D01*
X143976190Y-104933333D01*
X143976190Y-105028571D01*
X143957142Y-105104761D01*
X143938095Y-105142857D01*
X143919047Y-105161904D01*
X143880952Y-105180952D01*
X143842857Y-105180952D01*
X143804761Y-105161904D01*
X143785714Y-105142857D01*
X143766666Y-105104761D01*
X143747619Y-105028571D01*
X143747619Y-104933333D01*
X143766666Y-104857142D01*
X143785714Y-104819047D01*
X143804761Y-104800000D01*
X143842857Y-104780952D01*
X144147619Y-105142857D02*
X144166666Y-105161904D01*
X144147619Y-105180952D01*
X144128571Y-105161904D01*
X144147619Y-105142857D01*
X144147619Y-105180952D01*
X144547619Y-105180952D02*
X144319047Y-105180952D01*
X144433333Y-105180952D02*
X144433333Y-104780952D01*
X144395238Y-104838095D01*
X144357142Y-104876190D01*
X144319047Y-104895238D01*
X144890476Y-104914285D02*
X144890476Y-105180952D01*
X144719047Y-104914285D02*
X144719047Y-105123809D01*
X144738095Y-105161904D01*
X144776190Y-105180952D01*
X144833333Y-105180952D01*
X144871428Y-105161904D01*
X144890476Y-105142857D01*
X145214285Y-104971428D02*
X145080952Y-104971428D01*
X145080952Y-105180952D02*
X145080952Y-104780952D01*
X145271428Y-104780952D01*
X157004761Y-103880952D02*
X157004761Y-103480952D01*
X157100000Y-103480952D01*
X157157142Y-103500000D01*
X157195238Y-103538095D01*
X157214285Y-103576190D01*
X157233333Y-103652380D01*
X157233333Y-103709523D01*
X157214285Y-103785714D01*
X157195238Y-103823809D01*
X157157142Y-103861904D01*
X157100000Y-103880952D01*
X157004761Y-103880952D01*
X157366666Y-103480952D02*
X157614285Y-103480952D01*
X157480952Y-103633333D01*
X157538095Y-103633333D01*
X157576190Y-103652380D01*
X157595238Y-103671428D01*
X157614285Y-103709523D01*
X157614285Y-103804761D01*
X157595238Y-103842857D01*
X157576190Y-103861904D01*
X157538095Y-103880952D01*
X157423809Y-103880952D01*
X157385714Y-103861904D01*
X157366666Y-103842857D01*
X158023809Y-103861904D02*
X158080952Y-103880952D01*
X158176190Y-103880952D01*
X158214285Y-103861904D01*
X158233333Y-103842857D01*
X158252380Y-103804761D01*
X158252380Y-103766666D01*
X158233333Y-103728571D01*
X158214285Y-103709523D01*
X158176190Y-103690476D01*
X158100000Y-103671428D01*
X158061904Y-103652380D01*
X158042857Y-103633333D01*
X158023809Y-103595238D01*
X158023809Y-103557142D01*
X158042857Y-103519047D01*
X158061904Y-103500000D01*
X158100000Y-103480952D01*
X158195238Y-103480952D01*
X158252380Y-103500000D01*
X158423809Y-103880952D02*
X158423809Y-103480952D01*
X158519047Y-103480952D01*
X158576190Y-103500000D01*
X158614285Y-103538095D01*
X158633333Y-103576190D01*
X158652380Y-103652380D01*
X158652380Y-103709523D01*
X158633333Y-103785714D01*
X158614285Y-103823809D01*
X158576190Y-103861904D01*
X158519047Y-103880952D01*
X158423809Y-103880952D01*
X158900000Y-103480952D02*
X158938095Y-103480952D01*
X158976190Y-103500000D01*
X158995238Y-103519047D01*
X159014285Y-103557142D01*
X159033333Y-103633333D01*
X159033333Y-103728571D01*
X159014285Y-103804761D01*
X158995238Y-103842857D01*
X158976190Y-103861904D01*
X158938095Y-103880952D01*
X158900000Y-103880952D01*
X158861904Y-103861904D01*
X158842857Y-103842857D01*
X158823809Y-103804761D01*
X158804761Y-103728571D01*
X158804761Y-103633333D01*
X158823809Y-103557142D01*
X158842857Y-103519047D01*
X158861904Y-103500000D01*
X158900000Y-103480952D01*
X159261904Y-103652380D02*
X159223809Y-103633333D01*
X159204761Y-103614285D01*
X159185714Y-103576190D01*
X159185714Y-103557142D01*
X159204761Y-103519047D01*
X159223809Y-103500000D01*
X159261904Y-103480952D01*
X159338095Y-103480952D01*
X159376190Y-103500000D01*
X159395238Y-103519047D01*
X159414285Y-103557142D01*
X159414285Y-103576190D01*
X159395238Y-103614285D01*
X159376190Y-103633333D01*
X159338095Y-103652380D01*
X159261904Y-103652380D01*
X159223809Y-103671428D01*
X159204761Y-103690476D01*
X159185714Y-103728571D01*
X159185714Y-103804761D01*
X159204761Y-103842857D01*
X159223809Y-103861904D01*
X159261904Y-103880952D01*
X159338095Y-103880952D01*
X159376190Y-103861904D01*
X159395238Y-103842857D01*
X159414285Y-103804761D01*
X159414285Y-103728571D01*
X159395238Y-103690476D01*
X159376190Y-103671428D01*
X159338095Y-103652380D01*
X159661904Y-103480952D02*
X159700000Y-103480952D01*
X159738095Y-103500000D01*
X159757142Y-103519047D01*
X159776190Y-103557142D01*
X159795238Y-103633333D01*
X159795238Y-103728571D01*
X159776190Y-103804761D01*
X159757142Y-103842857D01*
X159738095Y-103861904D01*
X159700000Y-103880952D01*
X159661904Y-103880952D01*
X159623809Y-103861904D01*
X159604761Y-103842857D01*
X159585714Y-103804761D01*
X159566666Y-103728571D01*
X159566666Y-103633333D01*
X159585714Y-103557142D01*
X159604761Y-103519047D01*
X159623809Y-103500000D01*
X159661904Y-103480952D01*
X160157142Y-103480952D02*
X159966666Y-103480952D01*
X159947619Y-103671428D01*
X159966666Y-103652380D01*
X160004761Y-103633333D01*
X160100000Y-103633333D01*
X160138095Y-103652380D01*
X160157142Y-103671428D01*
X160176190Y-103709523D01*
X160176190Y-103804761D01*
X160157142Y-103842857D01*
X160138095Y-103861904D01*
X160100000Y-103880952D01*
X160004761Y-103880952D01*
X159966666Y-103861904D01*
X159947619Y-103842857D01*
X141933333Y-112142857D02*
X141914285Y-112161904D01*
X141857142Y-112180952D01*
X141819047Y-112180952D01*
X141761904Y-112161904D01*
X141723809Y-112123809D01*
X141704761Y-112085714D01*
X141685714Y-112009523D01*
X141685714Y-111952380D01*
X141704761Y-111876190D01*
X141723809Y-111838095D01*
X141761904Y-111800000D01*
X141819047Y-111780952D01*
X141857142Y-111780952D01*
X141914285Y-111800000D01*
X141933333Y-111819047D01*
X142276190Y-111780952D02*
X142200000Y-111780952D01*
X142161904Y-111800000D01*
X142142857Y-111819047D01*
X142104761Y-111876190D01*
X142085714Y-111952380D01*
X142085714Y-112104761D01*
X142104761Y-112142857D01*
X142123809Y-112161904D01*
X142161904Y-112180952D01*
X142238095Y-112180952D01*
X142276190Y-112161904D01*
X142295238Y-112142857D01*
X142314285Y-112104761D01*
X142314285Y-112009523D01*
X142295238Y-111971428D01*
X142276190Y-111952380D01*
X142238095Y-111933333D01*
X142161904Y-111933333D01*
X142123809Y-111952380D01*
X142104761Y-111971428D01*
X142085714Y-112009523D01*
X140942857Y-111180952D02*
X140980952Y-111180952D01*
X141019047Y-111200000D01*
X141038095Y-111219047D01*
X141057142Y-111257142D01*
X141076190Y-111333333D01*
X141076190Y-111428571D01*
X141057142Y-111504761D01*
X141038095Y-111542857D01*
X141019047Y-111561904D01*
X140980952Y-111580952D01*
X140942857Y-111580952D01*
X140904761Y-111561904D01*
X140885714Y-111542857D01*
X140866666Y-111504761D01*
X140847619Y-111428571D01*
X140847619Y-111333333D01*
X140866666Y-111257142D01*
X140885714Y-111219047D01*
X140904761Y-111200000D01*
X140942857Y-111180952D01*
X141247619Y-111542857D02*
X141266666Y-111561904D01*
X141247619Y-111580952D01*
X141228571Y-111561904D01*
X141247619Y-111542857D01*
X141247619Y-111580952D01*
X141647619Y-111580952D02*
X141419047Y-111580952D01*
X141533333Y-111580952D02*
X141533333Y-111180952D01*
X141495238Y-111238095D01*
X141457142Y-111276190D01*
X141419047Y-111295238D01*
X141990476Y-111314285D02*
X141990476Y-111580952D01*
X141819047Y-111314285D02*
X141819047Y-111523809D01*
X141838095Y-111561904D01*
X141876190Y-111580952D01*
X141933333Y-111580952D01*
X141971428Y-111561904D01*
X141990476Y-111542857D01*
X142314285Y-111371428D02*
X142180952Y-111371428D01*
X142180952Y-111580952D02*
X142180952Y-111180952D01*
X142371428Y-111180952D01*
X149895238Y-101580952D02*
X149895238Y-101904761D01*
X149914285Y-101942857D01*
X149933333Y-101961904D01*
X149971428Y-101980952D01*
X150047619Y-101980952D01*
X150085714Y-101961904D01*
X150104761Y-101942857D01*
X150123809Y-101904761D01*
X150123809Y-101580952D01*
X150523809Y-101980952D02*
X150295238Y-101980952D01*
X150409523Y-101980952D02*
X150409523Y-101580952D01*
X150371428Y-101638095D01*
X150333333Y-101676190D01*
X150295238Y-101695238D01*
X150942857Y-101866666D02*
X151133333Y-101866666D01*
X150904761Y-101980952D02*
X151038095Y-101580952D01*
X151171428Y-101980952D01*
X151304761Y-101980952D02*
X151304761Y-101580952D01*
X151400000Y-101580952D01*
X151457142Y-101600000D01*
X151495238Y-101638095D01*
X151514285Y-101676190D01*
X151533333Y-101752380D01*
X151533333Y-101809523D01*
X151514285Y-101885714D01*
X151495238Y-101923809D01*
X151457142Y-101961904D01*
X151400000Y-101980952D01*
X151304761Y-101980952D01*
X151895238Y-101580952D02*
X151704761Y-101580952D01*
X151685714Y-101771428D01*
X151704761Y-101752380D01*
X151742857Y-101733333D01*
X151838095Y-101733333D01*
X151876190Y-101752380D01*
X151895238Y-101771428D01*
X151914285Y-101809523D01*
X151914285Y-101904761D01*
X151895238Y-101942857D01*
X151876190Y-101961904D01*
X151838095Y-101980952D01*
X151742857Y-101980952D01*
X151704761Y-101961904D01*
X151685714Y-101942857D01*
X152066666Y-101619047D02*
X152085714Y-101600000D01*
X152123809Y-101580952D01*
X152219047Y-101580952D01*
X152257142Y-101600000D01*
X152276190Y-101619047D01*
X152295238Y-101657142D01*
X152295238Y-101695238D01*
X152276190Y-101752380D01*
X152047619Y-101980952D01*
X152295238Y-101980952D01*
X152485714Y-101980952D02*
X152561904Y-101980952D01*
X152600000Y-101961904D01*
X152619047Y-101942857D01*
X152657142Y-101885714D01*
X152676190Y-101809523D01*
X152676190Y-101657142D01*
X152657142Y-101619047D01*
X152638095Y-101600000D01*
X152600000Y-101580952D01*
X152523809Y-101580952D01*
X152485714Y-101600000D01*
X152466666Y-101619047D01*
X152447619Y-101657142D01*
X152447619Y-101752380D01*
X152466666Y-101790476D01*
X152485714Y-101809523D01*
X152523809Y-101828571D01*
X152600000Y-101828571D01*
X152638095Y-101809523D01*
X152657142Y-101790476D01*
X152676190Y-101752380D01*
X152809523Y-101580952D02*
X153057142Y-101580952D01*
X152923809Y-101733333D01*
X152980952Y-101733333D01*
X153019047Y-101752380D01*
X153038095Y-101771428D01*
X153057142Y-101809523D01*
X153057142Y-101904761D01*
X153038095Y-101942857D01*
X153019047Y-101961904D01*
X152980952Y-101980952D01*
X152866666Y-101980952D01*
X152828571Y-101961904D01*
X152809523Y-101942857D01*
X144104761Y-101580952D02*
X144104761Y-101180952D01*
X144200000Y-101180952D01*
X144257142Y-101200000D01*
X144295238Y-101238095D01*
X144314285Y-101276190D01*
X144333333Y-101352380D01*
X144333333Y-101409523D01*
X144314285Y-101485714D01*
X144295238Y-101523809D01*
X144257142Y-101561904D01*
X144200000Y-101580952D01*
X144104761Y-101580952D01*
X144676190Y-101314285D02*
X144676190Y-101580952D01*
X144580952Y-101161904D02*
X144485714Y-101447619D01*
X144733333Y-101447619D01*
X144023809Y-102161904D02*
X144080952Y-102180952D01*
X144176190Y-102180952D01*
X144214285Y-102161904D01*
X144233333Y-102142857D01*
X144252380Y-102104761D01*
X144252380Y-102066666D01*
X144233333Y-102028571D01*
X144214285Y-102009523D01*
X144176190Y-101990476D01*
X144100000Y-101971428D01*
X144061904Y-101952380D01*
X144042857Y-101933333D01*
X144023809Y-101895238D01*
X144023809Y-101857142D01*
X144042857Y-101819047D01*
X144061904Y-101800000D01*
X144100000Y-101780952D01*
X144195238Y-101780952D01*
X144252380Y-101800000D01*
X144423809Y-102180952D02*
X144423809Y-101780952D01*
X144519047Y-101780952D01*
X144576190Y-101800000D01*
X144614285Y-101838095D01*
X144633333Y-101876190D01*
X144652380Y-101952380D01*
X144652380Y-102009523D01*
X144633333Y-102085714D01*
X144614285Y-102123809D01*
X144576190Y-102161904D01*
X144519047Y-102180952D01*
X144423809Y-102180952D01*
X144900000Y-101780952D02*
X144938095Y-101780952D01*
X144976190Y-101800000D01*
X144995238Y-101819047D01*
X145014285Y-101857142D01*
X145033333Y-101933333D01*
X145033333Y-102028571D01*
X145014285Y-102104761D01*
X144995238Y-102142857D01*
X144976190Y-102161904D01*
X144938095Y-102180952D01*
X144900000Y-102180952D01*
X144861904Y-102161904D01*
X144842857Y-102142857D01*
X144823809Y-102104761D01*
X144804761Y-102028571D01*
X144804761Y-101933333D01*
X144823809Y-101857142D01*
X144842857Y-101819047D01*
X144861904Y-101800000D01*
X144900000Y-101780952D01*
X145261904Y-101952380D02*
X145223809Y-101933333D01*
X145204761Y-101914285D01*
X145185714Y-101876190D01*
X145185714Y-101857142D01*
X145204761Y-101819047D01*
X145223809Y-101800000D01*
X145261904Y-101780952D01*
X145338095Y-101780952D01*
X145376190Y-101800000D01*
X145395238Y-101819047D01*
X145414285Y-101857142D01*
X145414285Y-101876190D01*
X145395238Y-101914285D01*
X145376190Y-101933333D01*
X145338095Y-101952380D01*
X145261904Y-101952380D01*
X145223809Y-101971428D01*
X145204761Y-101990476D01*
X145185714Y-102028571D01*
X145185714Y-102104761D01*
X145204761Y-102142857D01*
X145223809Y-102161904D01*
X145261904Y-102180952D01*
X145338095Y-102180952D01*
X145376190Y-102161904D01*
X145395238Y-102142857D01*
X145414285Y-102104761D01*
X145414285Y-102028571D01*
X145395238Y-101990476D01*
X145376190Y-101971428D01*
X145338095Y-101952380D01*
X145661904Y-101780952D02*
X145700000Y-101780952D01*
X145738095Y-101800000D01*
X145757142Y-101819047D01*
X145776190Y-101857142D01*
X145795238Y-101933333D01*
X145795238Y-102028571D01*
X145776190Y-102104761D01*
X145757142Y-102142857D01*
X145738095Y-102161904D01*
X145700000Y-102180952D01*
X145661904Y-102180952D01*
X145623809Y-102161904D01*
X145604761Y-102142857D01*
X145585714Y-102104761D01*
X145566666Y-102028571D01*
X145566666Y-101933333D01*
X145585714Y-101857142D01*
X145604761Y-101819047D01*
X145623809Y-101800000D01*
X145661904Y-101780952D01*
X146157142Y-101780952D02*
X145966666Y-101780952D01*
X145947619Y-101971428D01*
X145966666Y-101952380D01*
X146004761Y-101933333D01*
X146100000Y-101933333D01*
X146138095Y-101952380D01*
X146157142Y-101971428D01*
X146176190Y-102009523D01*
X146176190Y-102104761D01*
X146157142Y-102142857D01*
X146138095Y-102161904D01*
X146100000Y-102180952D01*
X146004761Y-102180952D01*
X145966666Y-102161904D01*
X145947619Y-102142857D01*
X139633333Y-112180952D02*
X139500000Y-111990476D01*
X139404761Y-112180952D02*
X139404761Y-111780952D01*
X139557142Y-111780952D01*
X139595238Y-111800000D01*
X139614285Y-111819047D01*
X139633333Y-111857142D01*
X139633333Y-111914285D01*
X139614285Y-111952380D01*
X139595238Y-111971428D01*
X139557142Y-111990476D01*
X139404761Y-111990476D01*
X140014285Y-112180952D02*
X139785714Y-112180952D01*
X139900000Y-112180952D02*
X139900000Y-111780952D01*
X139861904Y-111838095D01*
X139823809Y-111876190D01*
X139785714Y-111895238D01*
X139123809Y-111580952D02*
X138895238Y-111580952D01*
X139009523Y-111580952D02*
X139009523Y-111180952D01*
X138971428Y-111238095D01*
X138933333Y-111276190D01*
X138895238Y-111295238D01*
X139371428Y-111180952D02*
X139409523Y-111180952D01*
X139447619Y-111200000D01*
X139466666Y-111219047D01*
X139485714Y-111257142D01*
X139504761Y-111333333D01*
X139504761Y-111428571D01*
X139485714Y-111504761D01*
X139466666Y-111542857D01*
X139447619Y-111561904D01*
X139409523Y-111580952D01*
X139371428Y-111580952D01*
X139333333Y-111561904D01*
X139314285Y-111542857D01*
X139295238Y-111504761D01*
X139276190Y-111428571D01*
X139276190Y-111333333D01*
X139295238Y-111257142D01*
X139314285Y-111219047D01*
X139333333Y-111200000D01*
X139371428Y-111180952D01*
X139676190Y-111580952D02*
X139676190Y-111180952D01*
X139904761Y-111580952D02*
X139733333Y-111352380D01*
X139904761Y-111180952D02*
X139676190Y-111409523D01*
X144233333Y-106242857D02*
X144214285Y-106261904D01*
X144157142Y-106280952D01*
X144119047Y-106280952D01*
X144061904Y-106261904D01*
X144023809Y-106223809D01*
X144004761Y-106185714D01*
X143985714Y-106109523D01*
X143985714Y-106052380D01*
X144004761Y-105976190D01*
X144023809Y-105938095D01*
X144061904Y-105900000D01*
X144119047Y-105880952D01*
X144157142Y-105880952D01*
X144214285Y-105900000D01*
X144233333Y-105919047D01*
X144366666Y-105880952D02*
X144614285Y-105880952D01*
X144480952Y-106033333D01*
X144538095Y-106033333D01*
X144576190Y-106052380D01*
X144595238Y-106071428D01*
X144614285Y-106109523D01*
X144614285Y-106204761D01*
X144595238Y-106242857D01*
X144576190Y-106261904D01*
X144538095Y-106280952D01*
X144423809Y-106280952D01*
X144385714Y-106261904D01*
X144366666Y-106242857D01*
X144171428Y-106880952D02*
X143942857Y-106880952D01*
X144057142Y-106880952D02*
X144057142Y-106480952D01*
X144019047Y-106538095D01*
X143980952Y-106576190D01*
X143942857Y-106595238D01*
X144419047Y-106480952D02*
X144457142Y-106480952D01*
X144495238Y-106500000D01*
X144514285Y-106519047D01*
X144533333Y-106557142D01*
X144552380Y-106633333D01*
X144552380Y-106728571D01*
X144533333Y-106804761D01*
X144514285Y-106842857D01*
X144495238Y-106861904D01*
X144457142Y-106880952D01*
X144419047Y-106880952D01*
X144380952Y-106861904D01*
X144361904Y-106842857D01*
X144342857Y-106804761D01*
X144323809Y-106728571D01*
X144323809Y-106633333D01*
X144342857Y-106557142D01*
X144361904Y-106519047D01*
X144380952Y-106500000D01*
X144419047Y-106480952D01*
X144895238Y-106614285D02*
X144895238Y-106880952D01*
X144723809Y-106614285D02*
X144723809Y-106823809D01*
X144742857Y-106861904D01*
X144780952Y-106880952D01*
X144838095Y-106880952D01*
X144876190Y-106861904D01*
X144895238Y-106842857D01*
X145219047Y-106671428D02*
X145085714Y-106671428D01*
X145085714Y-106880952D02*
X145085714Y-106480952D01*
X145276190Y-106480952D01*
X147533333Y-110080952D02*
X147400000Y-109890476D01*
X147304761Y-110080952D02*
X147304761Y-109680952D01*
X147457142Y-109680952D01*
X147495238Y-109700000D01*
X147514285Y-109719047D01*
X147533333Y-109757142D01*
X147533333Y-109814285D01*
X147514285Y-109852380D01*
X147495238Y-109871428D01*
X147457142Y-109890476D01*
X147304761Y-109890476D01*
X147876190Y-109814285D02*
X147876190Y-110080952D01*
X147780952Y-109661904D02*
X147685714Y-109947619D01*
X147933333Y-109947619D01*
X147123809Y-110680952D02*
X146895238Y-110680952D01*
X147009523Y-110680952D02*
X147009523Y-110280952D01*
X146971428Y-110338095D01*
X146933333Y-110376190D01*
X146895238Y-110395238D01*
X147371428Y-110280952D02*
X147409523Y-110280952D01*
X147447619Y-110300000D01*
X147466666Y-110319047D01*
X147485714Y-110357142D01*
X147504761Y-110433333D01*
X147504761Y-110528571D01*
X147485714Y-110604761D01*
X147466666Y-110642857D01*
X147447619Y-110661904D01*
X147409523Y-110680952D01*
X147371428Y-110680952D01*
X147333333Y-110661904D01*
X147314285Y-110642857D01*
X147295238Y-110604761D01*
X147276190Y-110528571D01*
X147276190Y-110433333D01*
X147295238Y-110357142D01*
X147314285Y-110319047D01*
X147333333Y-110300000D01*
X147371428Y-110280952D01*
X147676190Y-110680952D02*
X147676190Y-110280952D01*
X147904761Y-110680952D02*
X147733333Y-110452380D01*
X147904761Y-110280952D02*
X147676190Y-110509523D01*
X146733333Y-106842857D02*
X146714285Y-106861904D01*
X146657142Y-106880952D01*
X146619047Y-106880952D01*
X146561904Y-106861904D01*
X146523809Y-106823809D01*
X146504761Y-106785714D01*
X146485714Y-106709523D01*
X146485714Y-106652380D01*
X146504761Y-106576190D01*
X146523809Y-106538095D01*
X146561904Y-106500000D01*
X146619047Y-106480952D01*
X146657142Y-106480952D01*
X146714285Y-106500000D01*
X146733333Y-106519047D01*
X147114285Y-106880952D02*
X146885714Y-106880952D01*
X147000000Y-106880952D02*
X147000000Y-106480952D01*
X146961904Y-106538095D01*
X146923809Y-106576190D01*
X146885714Y-106595238D01*
X146361904Y-106280952D02*
X146133333Y-106280952D01*
X146247619Y-106280952D02*
X146247619Y-105880952D01*
X146209523Y-105938095D01*
X146171428Y-105976190D01*
X146133333Y-105995238D01*
X146704761Y-106014285D02*
X146704761Y-106280952D01*
X146533333Y-106014285D02*
X146533333Y-106223809D01*
X146552380Y-106261904D01*
X146590476Y-106280952D01*
X146647619Y-106280952D01*
X146685714Y-106261904D01*
X146704761Y-106242857D01*
X147028571Y-106071428D02*
X146895238Y-106071428D01*
X146895238Y-106280952D02*
X146895238Y-105880952D01*
X147085714Y-105880952D01*
X155733333Y-102480952D02*
X155600000Y-102290476D01*
X155504761Y-102480952D02*
X155504761Y-102080952D01*
X155657142Y-102080952D01*
X155695238Y-102100000D01*
X155714285Y-102119047D01*
X155733333Y-102157142D01*
X155733333Y-102214285D01*
X155714285Y-102252380D01*
X155695238Y-102271428D01*
X155657142Y-102290476D01*
X155504761Y-102290476D01*
X155885714Y-102119047D02*
X155904761Y-102100000D01*
X155942857Y-102080952D01*
X156038095Y-102080952D01*
X156076190Y-102100000D01*
X156095238Y-102119047D01*
X156114285Y-102157142D01*
X156114285Y-102195238D01*
X156095238Y-102252380D01*
X155866666Y-102480952D01*
X156114285Y-102480952D01*
X155723809Y-103080952D02*
X155495238Y-103080952D01*
X155609523Y-103080952D02*
X155609523Y-102680952D01*
X155571428Y-102738095D01*
X155533333Y-102776190D01*
X155495238Y-102795238D01*
X155971428Y-102680952D02*
X156009523Y-102680952D01*
X156047619Y-102700000D01*
X156066666Y-102719047D01*
X156085714Y-102757142D01*
X156104761Y-102833333D01*
X156104761Y-102928571D01*
X156085714Y-103004761D01*
X156066666Y-103042857D01*
X156047619Y-103061904D01*
X156009523Y-103080952D01*
X155971428Y-103080952D01*
X155933333Y-103061904D01*
X155914285Y-103042857D01*
X155895238Y-103004761D01*
X155876190Y-102928571D01*
X155876190Y-102833333D01*
X155895238Y-102757142D01*
X155914285Y-102719047D01*
X155933333Y-102700000D01*
X155971428Y-102680952D01*
X156276190Y-103080952D02*
X156276190Y-102680952D01*
X156504761Y-103080952D02*
X156333333Y-102852380D01*
X156504761Y-102680952D02*
X156276190Y-102909523D01*
X143933333Y-112142857D02*
X143914285Y-112161904D01*
X143857142Y-112180952D01*
X143819047Y-112180952D01*
X143761904Y-112161904D01*
X143723809Y-112123809D01*
X143704761Y-112085714D01*
X143685714Y-112009523D01*
X143685714Y-111952380D01*
X143704761Y-111876190D01*
X143723809Y-111838095D01*
X143761904Y-111800000D01*
X143819047Y-111780952D01*
X143857142Y-111780952D01*
X143914285Y-111800000D01*
X143933333Y-111819047D01*
X144066666Y-111780952D02*
X144333333Y-111780952D01*
X144161904Y-112180952D01*
X143271428Y-111580952D02*
X143042857Y-111580952D01*
X143157142Y-111580952D02*
X143157142Y-111180952D01*
X143119047Y-111238095D01*
X143080952Y-111276190D01*
X143042857Y-111295238D01*
X143519047Y-111180952D02*
X143557142Y-111180952D01*
X143595238Y-111200000D01*
X143614285Y-111219047D01*
X143633333Y-111257142D01*
X143652380Y-111333333D01*
X143652380Y-111428571D01*
X143633333Y-111504761D01*
X143614285Y-111542857D01*
X143595238Y-111561904D01*
X143557142Y-111580952D01*
X143519047Y-111580952D01*
X143480952Y-111561904D01*
X143461904Y-111542857D01*
X143442857Y-111504761D01*
X143423809Y-111428571D01*
X143423809Y-111333333D01*
X143442857Y-111257142D01*
X143461904Y-111219047D01*
X143480952Y-111200000D01*
X143519047Y-111180952D01*
X143995238Y-111314285D02*
X143995238Y-111580952D01*
X143823809Y-111314285D02*
X143823809Y-111523809D01*
X143842857Y-111561904D01*
X143880952Y-111580952D01*
X143938095Y-111580952D01*
X143976190Y-111561904D01*
X143995238Y-111542857D01*
X144319047Y-111371428D02*
X144185714Y-111371428D01*
X144185714Y-111580952D02*
X144185714Y-111180952D01*
X144376190Y-111180952D01*
X159533333Y-111242857D02*
X159514285Y-111261904D01*
X159457142Y-111280952D01*
X159419047Y-111280952D01*
X159361904Y-111261904D01*
X159323809Y-111223809D01*
X159304761Y-111185714D01*
X159285714Y-111109523D01*
X159285714Y-111052380D01*
X159304761Y-110976190D01*
X159323809Y-110938095D01*
X159361904Y-110900000D01*
X159419047Y-110880952D01*
X159457142Y-110880952D01*
X159514285Y-110900000D01*
X159533333Y-110919047D01*
X159876190Y-111014285D02*
X159876190Y-111280952D01*
X159780952Y-110861904D02*
X159685714Y-111147619D01*
X159933333Y-111147619D01*
X158542857Y-110280952D02*
X158580952Y-110280952D01*
X158619047Y-110300000D01*
X158638095Y-110319047D01*
X158657142Y-110357142D01*
X158676190Y-110433333D01*
X158676190Y-110528571D01*
X158657142Y-110604761D01*
X158638095Y-110642857D01*
X158619047Y-110661904D01*
X158580952Y-110680952D01*
X158542857Y-110680952D01*
X158504761Y-110661904D01*
X158485714Y-110642857D01*
X158466666Y-110604761D01*
X158447619Y-110528571D01*
X158447619Y-110433333D01*
X158466666Y-110357142D01*
X158485714Y-110319047D01*
X158504761Y-110300000D01*
X158542857Y-110280952D01*
X158847619Y-110642857D02*
X158866666Y-110661904D01*
X158847619Y-110680952D01*
X158828571Y-110661904D01*
X158847619Y-110642857D01*
X158847619Y-110680952D01*
X159247619Y-110680952D02*
X159019047Y-110680952D01*
X159133333Y-110680952D02*
X159133333Y-110280952D01*
X159095238Y-110338095D01*
X159057142Y-110376190D01*
X159019047Y-110395238D01*
X159590476Y-110414285D02*
X159590476Y-110680952D01*
X159419047Y-110414285D02*
X159419047Y-110623809D01*
X159438095Y-110661904D01*
X159476190Y-110680952D01*
X159533333Y-110680952D01*
X159571428Y-110661904D01*
X159590476Y-110642857D01*
X159914285Y-110471428D02*
X159780952Y-110471428D01*
X159780952Y-110680952D02*
X159780952Y-110280952D01*
X159971428Y-110280952D01*
X153133333Y-110080952D02*
X153000000Y-109890476D01*
X152904761Y-110080952D02*
X152904761Y-109680952D01*
X153057142Y-109680952D01*
X153095238Y-109700000D01*
X153114285Y-109719047D01*
X153133333Y-109757142D01*
X153133333Y-109814285D01*
X153114285Y-109852380D01*
X153095238Y-109871428D01*
X153057142Y-109890476D01*
X152904761Y-109890476D01*
X153266666Y-109680952D02*
X153514285Y-109680952D01*
X153380952Y-109833333D01*
X153438095Y-109833333D01*
X153476190Y-109852380D01*
X153495238Y-109871428D01*
X153514285Y-109909523D01*
X153514285Y-110004761D01*
X153495238Y-110042857D01*
X153476190Y-110061904D01*
X153438095Y-110080952D01*
X153323809Y-110080952D01*
X153285714Y-110061904D01*
X153266666Y-110042857D01*
X153123809Y-110680952D02*
X152895238Y-110680952D01*
X153009523Y-110680952D02*
X153009523Y-110280952D01*
X152971428Y-110338095D01*
X152933333Y-110376190D01*
X152895238Y-110395238D01*
X153371428Y-110280952D02*
X153409523Y-110280952D01*
X153447619Y-110300000D01*
X153466666Y-110319047D01*
X153485714Y-110357142D01*
X153504761Y-110433333D01*
X153504761Y-110528571D01*
X153485714Y-110604761D01*
X153466666Y-110642857D01*
X153447619Y-110661904D01*
X153409523Y-110680952D01*
X153371428Y-110680952D01*
X153333333Y-110661904D01*
X153314285Y-110642857D01*
X153295238Y-110604761D01*
X153276190Y-110528571D01*
X153276190Y-110433333D01*
X153295238Y-110357142D01*
X153314285Y-110319047D01*
X153333333Y-110300000D01*
X153371428Y-110280952D01*
X153676190Y-110680952D02*
X153676190Y-110280952D01*
X153904761Y-110680952D02*
X153733333Y-110452380D01*
X153904761Y-110280952D02*
X153676190Y-110509523D01*
D11*
X139360000Y-106162500D02*
X139360000Y-103477500D01*
X137440000Y-103477500D02*
X137440000Y-106162500D01*
X139360000Y-103477500D02*
X137440000Y-103477500D01*
X158238748Y-106465000D02*
X158761252Y-106465000D01*
X158238748Y-107935000D02*
X158761252Y-107935000D01*
X142491052Y-103328800D02*
X141968548Y-103328800D01*
X142491052Y-104798800D02*
X141968548Y-104798800D01*
X160185000Y-106001000D02*
X160185000Y-104081000D01*
X160185000Y-104081000D02*
X157500000Y-104081000D01*
X157500000Y-106001000D02*
X160185000Y-106001000D01*
X142235000Y-109238748D02*
X142235000Y-109761252D01*
X140765000Y-109238748D02*
X140765000Y-109761252D01*
X152910000Y-106000000D02*
X152910000Y-102400000D01*
X147690000Y-106000000D02*
X147690000Y-108200000D01*
X152910000Y-106000000D02*
X152910000Y-108200000D01*
X147690000Y-106000000D02*
X147690000Y-103800000D01*
X143894800Y-101071800D02*
X141209800Y-101071800D01*
X141209800Y-102991800D02*
X143894800Y-102991800D01*
X143894800Y-102991800D02*
X143894800Y-101071800D01*
X140035000Y-109727064D02*
X140035000Y-109272936D01*
X138565000Y-109727064D02*
X138565000Y-109272936D01*
X142491052Y-106830800D02*
X141968548Y-106830800D01*
X142491052Y-105360800D02*
X141968548Y-105360800D01*
X145565000Y-108827064D02*
X145565000Y-108372936D01*
X147035000Y-108827064D02*
X147035000Y-108372936D01*
X147035000Y-103838748D02*
X147035000Y-104361252D01*
X145565000Y-103838748D02*
X145565000Y-104361252D01*
X155235000Y-104427064D02*
X155235000Y-103972936D01*
X153765000Y-104427064D02*
X153765000Y-103972936D01*
X142965000Y-109238748D02*
X142965000Y-109761252D01*
X144435000Y-109238748D02*
X144435000Y-109761252D01*
X158238748Y-108497000D02*
X158761252Y-108497000D01*
X158238748Y-109967000D02*
X158761252Y-109967000D01*
X155235000Y-108372936D02*
X155235000Y-108827064D01*
X153765000Y-108372936D02*
X153765000Y-108827064D01*
M02*
