M48
; DRILL file {KiCad (6.0.0-0)} date Sunday, February 05, 2023 at 10:05:20 PM
; FORMAT={-:-/ absolute / inch / decimal}
; #@! TF.CreationDate,2023-02-05T22:05:20-08:00
; #@! TF.GenerationSoftware,Kicad,Pcbnew,(6.0.0-0)
; #@! TF.FileFunction,Plated,1,2,PTH
FMAT,2
INCH
; #@! TA.AperFunction,Plated,PTH,ViaDrill
T1C0.0130
; #@! TA.AperFunction,Plated,PTH,ComponentDrill
T2C0.0394
%
G90
G05
T1
X5.3937Y-4.0276
X5.4438Y-4.437
X5.6538Y-3.947
X5.689Y-4.1575
X5.6938Y-4.027
X5.7538Y-3.947
X5.7538Y-4.027
X5.7538Y-4.437
X5.8238Y-4.077
X5.8538Y-3.947
X5.8538Y-4.437
X5.9538Y-4.437
X5.9738Y-4.297
X6.0538Y-4.107
X6.0538Y-4.437
X6.1538Y-4.437
X6.1811Y-4.0709
X6.2538Y-4.437
X6.3031Y-4.0276
T2
X5.4988Y-4.501
X5.5988Y-4.501
X5.6Y-3.901
X5.6988Y-4.501
X5.7Y-3.901
X5.7988Y-4.501
X5.8Y-3.901
X5.8988Y-4.501
X5.9Y-3.901
X5.9988Y-4.501
X6.0Y-3.901
X6.0988Y-4.501
X6.1Y-3.901
X6.1988Y-4.501
T0
M30
