G04 #@! TF.GenerationSoftware,KiCad,Pcbnew,(6.0.0-0)*
G04 #@! TF.CreationDate,2023-03-17T12:47:20-07:00*
G04 #@! TF.ProjectId,breakout,62726561-6b6f-4757-942e-6b696361645f,2.0.0*
G04 #@! TF.SameCoordinates,Original*
G04 #@! TF.FileFunction,Copper,L1,Top*
G04 #@! TF.FilePolarity,Positive*
%FSLAX46Y46*%
G04 Gerber Fmt 4.6, Leading zero omitted, Abs format (unit mm)*
G04 Created by KiCad (PCBNEW (6.0.0-0)) date 2023-03-17 12:47:20*
%MOMM*%
%LPD*%
G01*
G04 APERTURE LIST*
G04 Aperture macros list*
%AMRoundRect*
0 Rectangle with rounded corners*
0 $1 Rounding radius*
0 $2 $3 $4 $5 $6 $7 $8 $9 X,Y pos of 4 corners*
0 Add a 4 corners polygon primitive as box body*
4,1,4,$2,$3,$4,$5,$6,$7,$8,$9,$2,$3,0*
0 Add four circle primitives for the rounded corners*
1,1,$1+$1,$2,$3*
1,1,$1+$1,$4,$5*
1,1,$1+$1,$6,$7*
1,1,$1+$1,$8,$9*
0 Add four rect primitives between the rounded corners*
20,1,$1+$1,$2,$3,$4,$5,0*
20,1,$1+$1,$4,$5,$6,$7,0*
20,1,$1+$1,$6,$7,$8,$9,0*
20,1,$1+$1,$8,$9,$2,$3,0*%
G04 Aperture macros list end*
G04 #@! TA.AperFunction,SMDPad,CuDef*
%ADD10RoundRect,0.243750X-0.456250X0.243750X-0.456250X-0.243750X0.456250X-0.243750X0.456250X0.243750X0*%
G04 #@! TD*
G04 #@! TA.AperFunction,ComponentPad*
%ADD11C,1.700000*%
G04 #@! TD*
G04 #@! TA.AperFunction,ComponentPad*
%ADD12R,1.700000X1.700000*%
G04 #@! TD*
G04 #@! TA.AperFunction,ComponentPad*
%ADD13O,1.700000X1.700000*%
G04 #@! TD*
G04 #@! TA.AperFunction,SMDPad,CuDef*
%ADD14RoundRect,0.250000X-0.250000X-0.475000X0.250000X-0.475000X0.250000X0.475000X-0.250000X0.475000X0*%
G04 #@! TD*
G04 #@! TA.AperFunction,SMDPad,CuDef*
%ADD15RoundRect,0.250000X0.250000X0.475000X-0.250000X0.475000X-0.250000X-0.475000X0.250000X-0.475000X0*%
G04 #@! TD*
G04 #@! TA.AperFunction,SMDPad,CuDef*
%ADD16RoundRect,0.243750X0.243750X0.456250X-0.243750X0.456250X-0.243750X-0.456250X0.243750X-0.456250X0*%
G04 #@! TD*
G04 #@! TA.AperFunction,SMDPad,CuDef*
%ADD17RoundRect,0.250000X-0.475000X0.250000X-0.475000X-0.250000X0.475000X-0.250000X0.475000X0.250000X0*%
G04 #@! TD*
G04 #@! TA.AperFunction,SMDPad,CuDef*
%ADD18RoundRect,0.100000X-0.100000X0.637500X-0.100000X-0.637500X0.100000X-0.637500X0.100000X0.637500X0*%
G04 #@! TD*
G04 #@! TA.AperFunction,SMDPad,CuDef*
%ADD19RoundRect,0.250000X0.450000X-0.262500X0.450000X0.262500X-0.450000X0.262500X-0.450000X-0.262500X0*%
G04 #@! TD*
G04 #@! TA.AperFunction,SMDPad,CuDef*
%ADD20RoundRect,0.250000X-0.450000X0.262500X-0.450000X-0.262500X0.450000X-0.262500X0.450000X0.262500X0*%
G04 #@! TD*
G04 #@! TA.AperFunction,ViaPad*
%ADD21C,0.685800*%
G04 #@! TD*
G04 #@! TA.AperFunction,Conductor*
%ADD22C,0.152400*%
G04 #@! TD*
G04 APERTURE END LIST*
D10*
X138400000Y-104225000D03*
X138400000Y-106100000D03*
D11*
X139669800Y-114325800D03*
D12*
X142209800Y-114325800D03*
D13*
X144749800Y-114325800D03*
X147289800Y-114325800D03*
X149829800Y-114325800D03*
X152369800Y-114325800D03*
X154909800Y-114325800D03*
X157449800Y-114325800D03*
D14*
X157550000Y-107200000D03*
X159450000Y-107200000D03*
D15*
X143179800Y-104063800D03*
X141279800Y-104063800D03*
D16*
X159437500Y-105041000D03*
X157562500Y-105041000D03*
D17*
X141500000Y-108550000D03*
X141500000Y-110450000D03*
D18*
X152250000Y-103137500D03*
X151600000Y-103137500D03*
X150950000Y-103137500D03*
X150300000Y-103137500D03*
X149650000Y-103137500D03*
X149000000Y-103137500D03*
X148350000Y-103137500D03*
X148350000Y-108862500D03*
X149000000Y-108862500D03*
X149650000Y-108862500D03*
X150300000Y-108862500D03*
X150950000Y-108862500D03*
X151600000Y-108862500D03*
X152250000Y-108862500D03*
D16*
X143147300Y-102031800D03*
X141272300Y-102031800D03*
D19*
X139300000Y-110412500D03*
X139300000Y-108587500D03*
D15*
X143179800Y-106095800D03*
X141279800Y-106095800D03*
D11*
X142240000Y-99085800D03*
D13*
X144780000Y-99085800D03*
X147320000Y-99085800D03*
X149860000Y-99085800D03*
X152400000Y-99085800D03*
D12*
X154940000Y-99085800D03*
D19*
X146300000Y-109512500D03*
X146300000Y-107687500D03*
D17*
X146300000Y-103150000D03*
X146300000Y-105050000D03*
D19*
X154500000Y-105112500D03*
X154500000Y-103287500D03*
D17*
X143700000Y-108550000D03*
X143700000Y-110450000D03*
D14*
X157550000Y-109232000D03*
X159450000Y-109232000D03*
D20*
X154500000Y-107687500D03*
X154500000Y-109512500D03*
D21*
X160000000Y-114000000D03*
X160000000Y-102400000D03*
X145900000Y-100500000D03*
X137300000Y-102400000D03*
X152400000Y-106000000D03*
X150300000Y-112300000D03*
X146400000Y-112300000D03*
X149100000Y-100500000D03*
X156100000Y-112300000D03*
X153500000Y-100500000D03*
X153600000Y-112300000D03*
X137300000Y-114000000D03*
X151400000Y-100500000D03*
X149600000Y-107300000D03*
X147700000Y-106500000D03*
X151600000Y-107300000D03*
D22*
X152250000Y-103137500D02*
X154350000Y-103137500D01*
X157449800Y-114325800D02*
X157449800Y-112550200D01*
X156100000Y-111200400D02*
X157449800Y-112550200D01*
X154350000Y-103137500D02*
X154500000Y-103287500D01*
X156100000Y-104887500D02*
X156100000Y-111200400D01*
X154500000Y-103287500D02*
X156100000Y-104887500D01*
X150300000Y-103137500D02*
X150300000Y-99525800D01*
X150300000Y-99525800D02*
X149860000Y-99085800D01*
X157562500Y-105041000D02*
X157562500Y-104062500D01*
X157550000Y-105053500D02*
X157550000Y-107200000D01*
X152300000Y-101700000D02*
X151600000Y-102400000D01*
X151600000Y-102400000D02*
X151600000Y-103137500D01*
X155200000Y-101700000D02*
X152300000Y-101700000D01*
X157562500Y-105041000D02*
X157550000Y-105053500D01*
X157550000Y-107200000D02*
X157550000Y-109232000D01*
X157562500Y-104062500D02*
X155200000Y-101700000D01*
X152400000Y-101135970D02*
X150950000Y-102585969D01*
X152400000Y-99085800D02*
X152400000Y-101135970D01*
X150950000Y-102585969D02*
X150950000Y-103137500D01*
X147320000Y-99889626D02*
X147320000Y-99085800D01*
X149650000Y-102219626D02*
X147320000Y-99889626D01*
X149650000Y-103137500D02*
X149650000Y-102219626D01*
X143479100Y-101700000D02*
X148700000Y-101700000D01*
X143147300Y-102031800D02*
X143479100Y-101700000D01*
X143179800Y-102064300D02*
X143147300Y-102031800D01*
X149000000Y-102000000D02*
X149000000Y-103137500D01*
X148700000Y-101700000D02*
X149000000Y-102000000D01*
X143179800Y-106095800D02*
X143179800Y-104063800D01*
X143179800Y-104063800D02*
X143179800Y-102064300D01*
X148337500Y-103150000D02*
X148350000Y-103137500D01*
X146300000Y-103150000D02*
X148337500Y-103150000D01*
X149650000Y-107350000D02*
X149600000Y-107300000D01*
X149650000Y-108862500D02*
X149650000Y-107350000D01*
X144749800Y-114325800D02*
X144749800Y-112350200D01*
X149950000Y-111150000D02*
X150300000Y-110800000D01*
X144749800Y-112350200D02*
X145950000Y-111150000D01*
X150300000Y-110800000D02*
X150300000Y-108862500D01*
X145950000Y-111150000D02*
X149950000Y-111150000D01*
X151900000Y-111100000D02*
X151400000Y-111100000D01*
X152369800Y-114325800D02*
X152369800Y-111569800D01*
X150950000Y-110650000D02*
X151400000Y-111100000D01*
X150950000Y-108862500D02*
X150950000Y-110650000D01*
X152369800Y-111569800D02*
X151900000Y-111100000D01*
X146300000Y-107687500D02*
X146512500Y-107687500D01*
X151600000Y-108862500D02*
X151600000Y-107300000D01*
X146512500Y-107687500D02*
X147700000Y-106500000D01*
X154909800Y-109922300D02*
X154500000Y-109512500D01*
X152250000Y-108862500D02*
X153850000Y-108862500D01*
X153850000Y-108862500D02*
X154500000Y-109512500D01*
X154909800Y-114325800D02*
X154909800Y-109922300D01*
X146950000Y-108862500D02*
X146300000Y-109512500D01*
X148350000Y-107050000D02*
X150287500Y-105112500D01*
X139669800Y-110782300D02*
X139300000Y-110412500D01*
X141500000Y-108550000D02*
X143700000Y-108550000D01*
X139637500Y-110412500D02*
X141500000Y-108550000D01*
X145337500Y-108550000D02*
X146300000Y-109512500D01*
X150287500Y-105112500D02*
X154500000Y-105112500D01*
X148350000Y-108862500D02*
X148350000Y-107050000D01*
X143700000Y-108550000D02*
X145337500Y-108550000D01*
X139669800Y-114325800D02*
X139669800Y-110782300D01*
X139300000Y-110412500D02*
X139637500Y-110412500D01*
X148350000Y-108862500D02*
X146950000Y-108862500D01*
X154500000Y-107687500D02*
X154500000Y-105112500D01*
X139300000Y-107000000D02*
X138400000Y-106100000D01*
X139300000Y-108587500D02*
X139300000Y-107000000D01*
X157830372Y-103900000D02*
X158900000Y-103900000D01*
X159437500Y-104437500D02*
X158900000Y-103900000D01*
X159437500Y-105041000D02*
X159437500Y-104437500D01*
X154940000Y-99085800D02*
X154940000Y-101009627D01*
X154940000Y-101009627D02*
X157830372Y-103900000D01*
X154940000Y-99085800D02*
X154940000Y-100560000D01*
X144780000Y-100020000D02*
X144100000Y-100700000D01*
X144100000Y-100700000D02*
X142200000Y-100700000D01*
X142200000Y-100700000D02*
X141272300Y-101627700D01*
X144780000Y-99085800D02*
X144780000Y-100020000D01*
X141272300Y-101627700D02*
X141272300Y-102031800D01*
G04 #@! TA.AperFunction,Conductor*
G36*
X160007153Y-98046421D02*
G01*
X160020000Y-98048976D01*
X160032172Y-98046555D01*
X160043699Y-98046555D01*
X160054681Y-98047034D01*
X160185449Y-98058475D01*
X160207070Y-98062287D01*
X160356848Y-98102420D01*
X160377484Y-98109931D01*
X160518010Y-98175460D01*
X160537030Y-98186442D01*
X160664046Y-98275379D01*
X160680871Y-98289497D01*
X160790503Y-98399129D01*
X160804621Y-98415954D01*
X160893558Y-98542970D01*
X160904540Y-98561990D01*
X160970069Y-98702516D01*
X160977580Y-98723152D01*
X161017713Y-98872930D01*
X161021526Y-98894554D01*
X161032966Y-99025320D01*
X161033445Y-99036301D01*
X161033445Y-99047828D01*
X161031024Y-99060000D01*
X161033445Y-99072170D01*
X161033579Y-99072844D01*
X161036000Y-99097425D01*
X161036000Y-114262575D01*
X161033579Y-114287153D01*
X161031024Y-114300000D01*
X161033445Y-114312172D01*
X161033445Y-114323699D01*
X161032966Y-114334680D01*
X161021526Y-114465446D01*
X161017713Y-114487070D01*
X160990076Y-114590214D01*
X160977581Y-114636846D01*
X160970069Y-114657484D01*
X160904540Y-114798010D01*
X160893558Y-114817030D01*
X160804621Y-114944046D01*
X160790503Y-114960871D01*
X160680871Y-115070503D01*
X160664046Y-115084621D01*
X160537030Y-115173558D01*
X160518010Y-115184540D01*
X160377484Y-115250069D01*
X160356848Y-115257580D01*
X160207070Y-115297713D01*
X160185449Y-115301525D01*
X160076878Y-115311024D01*
X160054680Y-115312966D01*
X160043699Y-115313445D01*
X160032172Y-115313445D01*
X160020000Y-115311024D01*
X160007153Y-115313579D01*
X159982575Y-115316000D01*
X158331614Y-115316000D01*
X158263493Y-115295998D01*
X158217000Y-115242342D01*
X158206896Y-115172068D01*
X158234740Y-115109431D01*
X158360249Y-114958524D01*
X158360256Y-114958514D01*
X158363947Y-114954076D01*
X158463134Y-114776965D01*
X158464990Y-114771498D01*
X158464992Y-114771493D01*
X158526528Y-114590214D01*
X158526529Y-114590209D01*
X158528384Y-114584745D01*
X158529212Y-114579036D01*
X158529213Y-114579031D01*
X158556979Y-114387527D01*
X158557512Y-114383853D01*
X158559032Y-114325800D01*
X158540458Y-114123659D01*
X158538890Y-114118099D01*
X158486925Y-113933846D01*
X158486924Y-113933844D01*
X158485357Y-113928287D01*
X158474778Y-113906833D01*
X158398131Y-113751409D01*
X158395576Y-113746228D01*
X158274120Y-113583579D01*
X158125058Y-113445787D01*
X158120175Y-113442706D01*
X158120171Y-113442703D01*
X157958264Y-113340548D01*
X157953381Y-113337467D01*
X157948017Y-113335327D01*
X157859809Y-113300135D01*
X157803950Y-113256314D01*
X157780500Y-113183105D01*
X157780500Y-112570138D01*
X157780979Y-112559157D01*
X157783363Y-112531910D01*
X157783363Y-112531908D01*
X157784323Y-112520933D01*
X157775280Y-112487180D01*
X157774396Y-112483882D01*
X157772017Y-112473153D01*
X157767265Y-112446203D01*
X157767265Y-112446202D01*
X157765351Y-112435349D01*
X157759840Y-112425804D01*
X157758570Y-112422314D01*
X157756994Y-112418935D01*
X157754140Y-112408283D01*
X157732122Y-112376839D01*
X157726226Y-112367583D01*
X157712551Y-112343898D01*
X157707039Y-112334351D01*
X157698596Y-112327266D01*
X157698593Y-112327263D01*
X157677636Y-112309678D01*
X157669532Y-112302252D01*
X156467605Y-111100325D01*
X156433579Y-111038013D01*
X156430700Y-111011230D01*
X156430700Y-104907449D01*
X156431179Y-104896468D01*
X156433564Y-104869209D01*
X156433564Y-104869208D01*
X156434524Y-104858233D01*
X156424591Y-104821161D01*
X156422215Y-104810443D01*
X156421813Y-104808160D01*
X156415551Y-104772649D01*
X156410040Y-104763104D01*
X156408769Y-104759611D01*
X156407194Y-104756233D01*
X156404340Y-104745584D01*
X156398016Y-104736553D01*
X156398015Y-104736550D01*
X156382327Y-104714145D01*
X156376421Y-104704875D01*
X156362750Y-104681196D01*
X156362749Y-104681195D01*
X156357239Y-104671651D01*
X156327847Y-104646988D01*
X156319744Y-104639563D01*
X155903610Y-104223429D01*
X155475667Y-103795487D01*
X155441642Y-103733174D01*
X155445845Y-103675159D01*
X155443198Y-103674530D01*
X155445026Y-103666843D01*
X155447798Y-103659448D01*
X155454500Y-103597756D01*
X155454500Y-102977244D01*
X155447798Y-102915552D01*
X155397071Y-102780236D01*
X155391691Y-102773057D01*
X155391689Y-102773054D01*
X155315785Y-102671776D01*
X155310404Y-102664596D01*
X155288332Y-102648054D01*
X155201946Y-102583311D01*
X155201943Y-102583309D01*
X155194764Y-102577929D01*
X155105046Y-102544296D01*
X155066843Y-102529974D01*
X155066841Y-102529974D01*
X155059448Y-102527202D01*
X155051598Y-102526349D01*
X155051597Y-102526349D01*
X155001153Y-102520869D01*
X155001152Y-102520869D01*
X154997756Y-102520500D01*
X154002244Y-102520500D01*
X153998848Y-102520869D01*
X153998847Y-102520869D01*
X153948403Y-102526349D01*
X153948402Y-102526349D01*
X153940552Y-102527202D01*
X153933159Y-102529974D01*
X153933157Y-102529974D01*
X153894954Y-102544296D01*
X153805236Y-102577929D01*
X153798057Y-102583309D01*
X153798054Y-102583311D01*
X153711668Y-102648054D01*
X153689596Y-102664596D01*
X153684215Y-102671776D01*
X153620819Y-102756365D01*
X153563960Y-102798880D01*
X153519993Y-102806800D01*
X152830500Y-102806800D01*
X152762379Y-102786798D01*
X152715886Y-102733142D01*
X152704500Y-102680800D01*
X152704500Y-102466398D01*
X152695757Y-102407003D01*
X152695669Y-102406408D01*
X152695669Y-102406407D01*
X152694243Y-102396722D01*
X152669498Y-102346322D01*
X152646820Y-102300132D01*
X152646819Y-102300130D01*
X152642230Y-102290784D01*
X152597241Y-102245873D01*
X152563162Y-102183590D01*
X152568165Y-102112770D01*
X152610663Y-102055897D01*
X152677161Y-102031029D01*
X152686259Y-102030700D01*
X155010830Y-102030700D01*
X155078951Y-102050702D01*
X155099925Y-102067605D01*
X157030568Y-103998249D01*
X157064594Y-104060561D01*
X157059529Y-104131377D01*
X157017038Y-104188170D01*
X156962811Y-104228811D01*
X156957429Y-104235992D01*
X156893875Y-104320792D01*
X156877217Y-104343018D01*
X156874065Y-104351426D01*
X156865328Y-104374734D01*
X156827119Y-104476658D01*
X156820500Y-104537585D01*
X156820501Y-105544414D01*
X156820870Y-105547808D01*
X156820870Y-105547814D01*
X156823611Y-105573044D01*
X156827119Y-105605342D01*
X156829894Y-105612744D01*
X156829894Y-105612745D01*
X156836348Y-105629962D01*
X156877217Y-105738982D01*
X156882601Y-105746165D01*
X156882601Y-105746166D01*
X156952120Y-105838924D01*
X156962811Y-105853189D01*
X156969992Y-105858571D01*
X157023300Y-105898523D01*
X157077018Y-105938783D01*
X157085424Y-105941934D01*
X157137529Y-105961467D01*
X157194294Y-106004108D01*
X157218994Y-106070670D01*
X157219300Y-106079449D01*
X157219300Y-106129097D01*
X157199298Y-106197218D01*
X157145642Y-106243711D01*
X157137529Y-106247079D01*
X157055236Y-106277929D01*
X157048057Y-106283309D01*
X157048054Y-106283311D01*
X156967015Y-106344047D01*
X156939596Y-106364596D01*
X156934215Y-106371776D01*
X156858311Y-106473054D01*
X156858309Y-106473057D01*
X156852929Y-106480236D01*
X156838077Y-106519855D01*
X156813475Y-106585482D01*
X156802202Y-106615552D01*
X156795500Y-106677244D01*
X156795500Y-107722756D01*
X156802202Y-107784448D01*
X156804974Y-107791841D01*
X156804974Y-107791843D01*
X156809369Y-107803566D01*
X156852929Y-107919764D01*
X156858309Y-107926943D01*
X156858311Y-107926946D01*
X156913926Y-108001153D01*
X156939596Y-108035404D01*
X156946776Y-108040785D01*
X157046033Y-108115174D01*
X157088548Y-108172033D01*
X157093574Y-108242852D01*
X157059514Y-108305145D01*
X157046033Y-108316826D01*
X156939596Y-108396596D01*
X156934215Y-108403776D01*
X156858311Y-108505054D01*
X156858309Y-108505057D01*
X156852929Y-108512236D01*
X156845595Y-108531800D01*
X156805456Y-108638873D01*
X156802202Y-108647552D01*
X156795500Y-108709244D01*
X156795500Y-109754756D01*
X156795869Y-109758152D01*
X156795869Y-109758153D01*
X156797849Y-109776374D01*
X156802202Y-109816448D01*
X156804974Y-109823841D01*
X156804974Y-109823843D01*
X156814185Y-109848414D01*
X156852929Y-109951764D01*
X156858309Y-109958943D01*
X156858311Y-109958946D01*
X156903892Y-110019764D01*
X156939596Y-110067404D01*
X156946776Y-110072785D01*
X157048054Y-110148689D01*
X157048057Y-110148691D01*
X157055236Y-110154071D01*
X157131605Y-110182700D01*
X157183157Y-110202026D01*
X157183159Y-110202026D01*
X157190552Y-110204798D01*
X157198402Y-110205651D01*
X157198403Y-110205651D01*
X157248847Y-110211131D01*
X157252244Y-110211500D01*
X157847756Y-110211500D01*
X157851153Y-110211131D01*
X157901597Y-110205651D01*
X157901598Y-110205651D01*
X157909448Y-110204798D01*
X157916841Y-110202026D01*
X157916843Y-110202026D01*
X157968395Y-110182700D01*
X158044764Y-110154071D01*
X158051943Y-110148691D01*
X158051946Y-110148689D01*
X158153224Y-110072785D01*
X158160404Y-110067404D01*
X158247071Y-109951764D01*
X158250223Y-109943355D01*
X158254181Y-109936126D01*
X158304438Y-109885979D01*
X158373829Y-109870964D01*
X158440322Y-109895848D01*
X158484226Y-109956757D01*
X158506588Y-110023784D01*
X158512761Y-110036962D01*
X158598063Y-110174807D01*
X158607099Y-110186208D01*
X158721829Y-110300739D01*
X158733240Y-110309751D01*
X158871243Y-110394816D01*
X158884424Y-110400963D01*
X159038710Y-110452138D01*
X159052086Y-110455005D01*
X159146438Y-110464672D01*
X159152854Y-110465000D01*
X159177885Y-110465000D01*
X159193124Y-110460525D01*
X159194329Y-110459135D01*
X159196000Y-110451452D01*
X159196000Y-110446884D01*
X159704000Y-110446884D01*
X159708475Y-110462123D01*
X159709865Y-110463328D01*
X159717548Y-110464999D01*
X159747095Y-110464999D01*
X159753614Y-110464662D01*
X159849206Y-110454743D01*
X159862600Y-110451851D01*
X160016784Y-110400412D01*
X160029962Y-110394239D01*
X160167807Y-110308937D01*
X160179208Y-110299901D01*
X160293739Y-110185171D01*
X160302751Y-110173760D01*
X160387816Y-110035757D01*
X160393963Y-110022576D01*
X160445138Y-109868290D01*
X160448005Y-109854914D01*
X160457672Y-109760562D01*
X160458000Y-109754146D01*
X160458000Y-109504115D01*
X160453525Y-109488876D01*
X160452135Y-109487671D01*
X160444452Y-109486000D01*
X159722115Y-109486000D01*
X159706876Y-109490475D01*
X159705671Y-109491865D01*
X159704000Y-109499548D01*
X159704000Y-110446884D01*
X159196000Y-110446884D01*
X159196000Y-108959885D01*
X159704000Y-108959885D01*
X159708475Y-108975124D01*
X159709865Y-108976329D01*
X159717548Y-108978000D01*
X160439884Y-108978000D01*
X160455123Y-108973525D01*
X160456328Y-108972135D01*
X160457999Y-108964452D01*
X160457999Y-108709905D01*
X160457662Y-108703386D01*
X160447743Y-108607794D01*
X160444851Y-108594400D01*
X160393412Y-108440216D01*
X160387239Y-108427038D01*
X160298083Y-108282965D01*
X160300714Y-108281337D01*
X160279304Y-108228418D01*
X160292485Y-108158656D01*
X160299208Y-108148175D01*
X160298910Y-108147991D01*
X160387816Y-108003757D01*
X160393963Y-107990576D01*
X160445138Y-107836290D01*
X160448005Y-107822914D01*
X160457672Y-107728562D01*
X160458000Y-107722146D01*
X160458000Y-107472115D01*
X160453525Y-107456876D01*
X160452135Y-107455671D01*
X160444452Y-107454000D01*
X159722115Y-107454000D01*
X159706876Y-107458475D01*
X159705671Y-107459865D01*
X159704000Y-107467548D01*
X159704000Y-108959885D01*
X159196000Y-108959885D01*
X159196000Y-107072000D01*
X159216002Y-107003879D01*
X159269658Y-106957386D01*
X159322000Y-106946000D01*
X160439884Y-106946000D01*
X160455123Y-106941525D01*
X160456328Y-106940135D01*
X160457999Y-106932452D01*
X160457999Y-106677905D01*
X160457662Y-106671386D01*
X160447743Y-106575794D01*
X160444851Y-106562400D01*
X160393412Y-106408216D01*
X160387239Y-106395038D01*
X160301937Y-106257193D01*
X160292901Y-106245792D01*
X160178171Y-106131261D01*
X160166760Y-106122249D01*
X160054724Y-106053189D01*
X160007231Y-106000417D01*
X159995807Y-105930345D01*
X160024081Y-105865221D01*
X160030483Y-105858215D01*
X160037189Y-105853189D01*
X160047880Y-105838924D01*
X160117399Y-105746166D01*
X160117399Y-105746165D01*
X160122783Y-105738982D01*
X160163652Y-105629962D01*
X160170108Y-105612740D01*
X160170109Y-105612738D01*
X160172881Y-105605342D01*
X160179500Y-105544415D01*
X160179499Y-104537586D01*
X160177795Y-104521899D01*
X160173735Y-104484517D01*
X160173734Y-104484511D01*
X160172881Y-104476658D01*
X160134673Y-104374734D01*
X160125935Y-104351426D01*
X160122783Y-104343018D01*
X160106126Y-104320792D01*
X160042571Y-104235992D01*
X160037189Y-104228811D01*
X159922982Y-104143217D01*
X159886391Y-104129500D01*
X159796740Y-104095892D01*
X159796738Y-104095891D01*
X159789342Y-104093119D01*
X159728415Y-104086500D01*
X159606370Y-104086500D01*
X159538249Y-104066498D01*
X159517275Y-104049595D01*
X159147948Y-103680268D01*
X159140522Y-103672164D01*
X159122936Y-103651206D01*
X159122933Y-103651204D01*
X159115849Y-103642761D01*
X159082625Y-103623578D01*
X159073355Y-103617673D01*
X159050950Y-103601985D01*
X159050947Y-103601984D01*
X159041916Y-103595660D01*
X159031267Y-103592806D01*
X159027889Y-103591231D01*
X159024396Y-103589960D01*
X159014851Y-103584449D01*
X159003998Y-103582535D01*
X159003997Y-103582535D01*
X158992900Y-103580578D01*
X158977053Y-103577784D01*
X158966339Y-103575409D01*
X158929267Y-103565476D01*
X158918292Y-103566436D01*
X158918291Y-103566436D01*
X158891032Y-103568821D01*
X158880051Y-103569300D01*
X158019542Y-103569300D01*
X157951421Y-103549298D01*
X157930447Y-103532395D01*
X155307605Y-100909552D01*
X155273579Y-100847240D01*
X155270700Y-100820457D01*
X155270700Y-100330000D01*
X157140539Y-100330000D01*
X157160354Y-100581775D01*
X157161508Y-100586582D01*
X157161509Y-100586588D01*
X157198613Y-100741135D01*
X157219312Y-100827351D01*
X157221205Y-100831922D01*
X157221206Y-100831924D01*
X157309940Y-101046146D01*
X157315960Y-101060680D01*
X157318546Y-101064900D01*
X157328577Y-101081269D01*
X157447919Y-101276017D01*
X157611939Y-101468061D01*
X157803983Y-101632081D01*
X158019320Y-101764040D01*
X158023890Y-101765933D01*
X158023894Y-101765935D01*
X158241693Y-101856150D01*
X158252649Y-101860688D01*
X158338865Y-101881387D01*
X158493412Y-101918491D01*
X158493418Y-101918492D01*
X158498225Y-101919646D01*
X158586253Y-101926574D01*
X158684507Y-101934307D01*
X158684516Y-101934307D01*
X158686964Y-101934500D01*
X158813036Y-101934500D01*
X158815484Y-101934307D01*
X158815493Y-101934307D01*
X158913747Y-101926574D01*
X159001775Y-101919646D01*
X159006582Y-101918492D01*
X159006588Y-101918491D01*
X159161135Y-101881387D01*
X159247351Y-101860688D01*
X159258307Y-101856150D01*
X159476106Y-101765935D01*
X159476110Y-101765933D01*
X159480680Y-101764040D01*
X159696017Y-101632081D01*
X159888061Y-101468061D01*
X160052081Y-101276017D01*
X160171423Y-101081269D01*
X160181454Y-101064900D01*
X160184040Y-101060680D01*
X160190061Y-101046146D01*
X160278794Y-100831924D01*
X160278795Y-100831922D01*
X160280688Y-100827351D01*
X160301387Y-100741135D01*
X160338491Y-100586588D01*
X160338492Y-100586582D01*
X160339646Y-100581775D01*
X160359461Y-100330000D01*
X160339646Y-100078225D01*
X160338492Y-100073418D01*
X160338491Y-100073412D01*
X160283576Y-99844680D01*
X160280688Y-99832649D01*
X160263776Y-99791819D01*
X160185935Y-99603894D01*
X160185933Y-99603890D01*
X160184040Y-99599320D01*
X160052081Y-99383983D01*
X159888061Y-99191939D01*
X159696017Y-99027919D01*
X159480680Y-98895960D01*
X159476110Y-98894067D01*
X159476106Y-98894065D01*
X159251924Y-98801206D01*
X159251922Y-98801205D01*
X159247351Y-98799312D01*
X159161135Y-98778613D01*
X159006588Y-98741509D01*
X159006582Y-98741508D01*
X159001775Y-98740354D01*
X158913747Y-98733426D01*
X158815493Y-98725693D01*
X158815484Y-98725693D01*
X158813036Y-98725500D01*
X158686964Y-98725500D01*
X158684516Y-98725693D01*
X158684507Y-98725693D01*
X158586253Y-98733426D01*
X158498225Y-98740354D01*
X158493418Y-98741508D01*
X158493412Y-98741509D01*
X158338865Y-98778613D01*
X158252649Y-98799312D01*
X158248078Y-98801205D01*
X158248076Y-98801206D01*
X158023894Y-98894065D01*
X158023890Y-98894067D01*
X158019320Y-98895960D01*
X157803983Y-99027919D01*
X157611939Y-99191939D01*
X157447919Y-99383983D01*
X157315960Y-99599320D01*
X157314067Y-99603890D01*
X157314065Y-99603894D01*
X157236224Y-99791819D01*
X157219312Y-99832649D01*
X157216424Y-99844680D01*
X157161509Y-100073412D01*
X157161508Y-100073418D01*
X157160354Y-100078225D01*
X157140539Y-100330000D01*
X155270700Y-100330000D01*
X155270700Y-100316299D01*
X155290702Y-100248178D01*
X155344358Y-100201685D01*
X155396700Y-100190299D01*
X155815066Y-100190299D01*
X155850818Y-100183188D01*
X155877126Y-100177956D01*
X155877128Y-100177955D01*
X155889301Y-100175534D01*
X155899621Y-100168639D01*
X155899622Y-100168638D01*
X155963168Y-100126177D01*
X155973484Y-100119284D01*
X156029734Y-100035101D01*
X156044500Y-99960867D01*
X156044499Y-98210734D01*
X156041285Y-98194576D01*
X156047615Y-98123864D01*
X156091171Y-98067798D01*
X156164865Y-98044000D01*
X159982575Y-98044000D01*
X160007153Y-98046421D01*
G37*
G04 #@! TD.AperFunction*
G04 #@! TA.AperFunction,Conductor*
G36*
X155663012Y-104918648D02*
G01*
X155669595Y-104924777D01*
X155732395Y-104987577D01*
X155766421Y-105049889D01*
X155769300Y-105076672D01*
X155769300Y-111180451D01*
X155768821Y-111191432D01*
X155765476Y-111229667D01*
X155775409Y-111266739D01*
X155777784Y-111277453D01*
X155784449Y-111315251D01*
X155789960Y-111324796D01*
X155791231Y-111328289D01*
X155792806Y-111331667D01*
X155795660Y-111342316D01*
X155801984Y-111351347D01*
X155801985Y-111351350D01*
X155817673Y-111373755D01*
X155823578Y-111383024D01*
X155842761Y-111416249D01*
X155851204Y-111423333D01*
X155851206Y-111423336D01*
X155872164Y-111440922D01*
X155880268Y-111448348D01*
X157082195Y-112650275D01*
X157116221Y-112712587D01*
X157119100Y-112739370D01*
X157119100Y-113182636D01*
X157099098Y-113250757D01*
X157045442Y-113297250D01*
X157036714Y-113300847D01*
X156972263Y-113324624D01*
X156797810Y-113428412D01*
X156793470Y-113432218D01*
X156793466Y-113432221D01*
X156773523Y-113449711D01*
X156645192Y-113562255D01*
X156519520Y-113721669D01*
X156516831Y-113726780D01*
X156516829Y-113726783D01*
X156505307Y-113748683D01*
X156425003Y-113901315D01*
X156364807Y-114095178D01*
X156340948Y-114296764D01*
X156354224Y-114499322D01*
X156355645Y-114504918D01*
X156355646Y-114504923D01*
X156402771Y-114690474D01*
X156404192Y-114696069D01*
X156406609Y-114701312D01*
X156443810Y-114782008D01*
X156489177Y-114880416D01*
X156492510Y-114885132D01*
X156540526Y-114953073D01*
X156606333Y-115046189D01*
X156610475Y-115050224D01*
X156661311Y-115099746D01*
X156696149Y-115161607D01*
X156692012Y-115232483D01*
X156650213Y-115289871D01*
X156584023Y-115315551D01*
X156573390Y-115316000D01*
X155791614Y-115316000D01*
X155723493Y-115295998D01*
X155677000Y-115242342D01*
X155666896Y-115172068D01*
X155694740Y-115109431D01*
X155820249Y-114958524D01*
X155820256Y-114958514D01*
X155823947Y-114954076D01*
X155923134Y-114776965D01*
X155924990Y-114771498D01*
X155924992Y-114771493D01*
X155986528Y-114590214D01*
X155986529Y-114590209D01*
X155988384Y-114584745D01*
X155989212Y-114579036D01*
X155989213Y-114579031D01*
X156016979Y-114387527D01*
X156017512Y-114383853D01*
X156019032Y-114325800D01*
X156000458Y-114123659D01*
X155998890Y-114118099D01*
X155946925Y-113933846D01*
X155946924Y-113933844D01*
X155945357Y-113928287D01*
X155934778Y-113906833D01*
X155858131Y-113751409D01*
X155855576Y-113746228D01*
X155734120Y-113583579D01*
X155585058Y-113445787D01*
X155580175Y-113442706D01*
X155580171Y-113442703D01*
X155418264Y-113340548D01*
X155413381Y-113337467D01*
X155408017Y-113335327D01*
X155319809Y-113300135D01*
X155263950Y-113256314D01*
X155240500Y-113183105D01*
X155240500Y-110250821D01*
X155260502Y-110182700D01*
X155290935Y-110149995D01*
X155310404Y-110135404D01*
X155397071Y-110019764D01*
X155440005Y-109905236D01*
X155445026Y-109891843D01*
X155445026Y-109891841D01*
X155447798Y-109884448D01*
X155448879Y-109874502D01*
X155454131Y-109826153D01*
X155454131Y-109826152D01*
X155454500Y-109822756D01*
X155454500Y-109202244D01*
X155454131Y-109198847D01*
X155448651Y-109148403D01*
X155448651Y-109148402D01*
X155447798Y-109140552D01*
X155397071Y-109005236D01*
X155391691Y-108998057D01*
X155391689Y-108998054D01*
X155318727Y-108900702D01*
X155310404Y-108889596D01*
X155289977Y-108874287D01*
X155201946Y-108808311D01*
X155201943Y-108808309D01*
X155194764Y-108802929D01*
X155105046Y-108769296D01*
X155066843Y-108754974D01*
X155066841Y-108754974D01*
X155059448Y-108752202D01*
X155051598Y-108751349D01*
X155051597Y-108751349D01*
X155001153Y-108745869D01*
X155001152Y-108745869D01*
X154997756Y-108745500D01*
X154252870Y-108745500D01*
X154184749Y-108725498D01*
X154163775Y-108708595D01*
X154124775Y-108669595D01*
X154090749Y-108607283D01*
X154095814Y-108536468D01*
X154138361Y-108479632D01*
X154204881Y-108454821D01*
X154213870Y-108454500D01*
X154997756Y-108454500D01*
X155001153Y-108454131D01*
X155051597Y-108448651D01*
X155051598Y-108448651D01*
X155059448Y-108447798D01*
X155066841Y-108445026D01*
X155066843Y-108445026D01*
X155114826Y-108427038D01*
X155194764Y-108397071D01*
X155201943Y-108391691D01*
X155201946Y-108391689D01*
X155301835Y-108316826D01*
X155310404Y-108310404D01*
X155397071Y-108194764D01*
X155440005Y-108080236D01*
X155445026Y-108066843D01*
X155445026Y-108066841D01*
X155447798Y-108059448D01*
X155449826Y-108040785D01*
X155454131Y-108001153D01*
X155454131Y-108001152D01*
X155454500Y-107997756D01*
X155454500Y-107377244D01*
X155449202Y-107328472D01*
X155448651Y-107323403D01*
X155448651Y-107323402D01*
X155447798Y-107315552D01*
X155438899Y-107291812D01*
X155400221Y-107188640D01*
X155397071Y-107180236D01*
X155391691Y-107173057D01*
X155391689Y-107173054D01*
X155315785Y-107071776D01*
X155310404Y-107064596D01*
X155275727Y-107038607D01*
X155201946Y-106983311D01*
X155201943Y-106983309D01*
X155194764Y-106977929D01*
X155093947Y-106940135D01*
X155066843Y-106929974D01*
X155066841Y-106929974D01*
X155059448Y-106927202D01*
X155051598Y-106926349D01*
X155051597Y-106926349D01*
X155001153Y-106920869D01*
X155001152Y-106920869D01*
X154997756Y-106920500D01*
X154956700Y-106920500D01*
X154888579Y-106900498D01*
X154842086Y-106846842D01*
X154830700Y-106794500D01*
X154830700Y-106005500D01*
X154850702Y-105937379D01*
X154904358Y-105890886D01*
X154956700Y-105879500D01*
X154997756Y-105879500D01*
X155001733Y-105879068D01*
X155051597Y-105873651D01*
X155051598Y-105873651D01*
X155059448Y-105872798D01*
X155066841Y-105870026D01*
X155066843Y-105870026D01*
X155142136Y-105841800D01*
X155194764Y-105822071D01*
X155201943Y-105816691D01*
X155201946Y-105816689D01*
X155296044Y-105746166D01*
X155310404Y-105735404D01*
X155325713Y-105714977D01*
X155391689Y-105626946D01*
X155391691Y-105626943D01*
X155397071Y-105619764D01*
X155447798Y-105484448D01*
X155450172Y-105462600D01*
X155454131Y-105426153D01*
X155454131Y-105426152D01*
X155454500Y-105422756D01*
X155454500Y-105013872D01*
X155474502Y-104945751D01*
X155528158Y-104899258D01*
X155598432Y-104889154D01*
X155663012Y-104918648D01*
G37*
G04 #@! TD.AperFunction*
G04 #@! TA.AperFunction,Conductor*
G36*
X150780489Y-110948169D02*
G01*
X151152052Y-111319732D01*
X151159478Y-111327836D01*
X151177064Y-111348794D01*
X151177067Y-111348796D01*
X151184151Y-111357239D01*
X151205798Y-111369737D01*
X151217376Y-111376422D01*
X151226645Y-111382327D01*
X151249050Y-111398015D01*
X151249053Y-111398016D01*
X151258084Y-111404340D01*
X151268733Y-111407194D01*
X151272111Y-111408769D01*
X151275604Y-111410040D01*
X151285149Y-111415551D01*
X151296002Y-111417465D01*
X151296003Y-111417465D01*
X151303881Y-111418854D01*
X151322947Y-111422216D01*
X151333661Y-111424591D01*
X151370733Y-111434524D01*
X151381708Y-111433564D01*
X151381709Y-111433564D01*
X151408968Y-111431179D01*
X151419949Y-111430700D01*
X151710829Y-111430700D01*
X151778950Y-111450702D01*
X151799925Y-111467605D01*
X152002196Y-111669877D01*
X152036221Y-111732189D01*
X152039100Y-111758972D01*
X152039100Y-113182636D01*
X152019098Y-113250757D01*
X151965442Y-113297250D01*
X151956714Y-113300847D01*
X151892263Y-113324624D01*
X151717810Y-113428412D01*
X151713470Y-113432218D01*
X151713466Y-113432221D01*
X151693523Y-113449711D01*
X151565192Y-113562255D01*
X151439520Y-113721669D01*
X151436831Y-113726780D01*
X151436829Y-113726783D01*
X151425307Y-113748683D01*
X151345003Y-113901315D01*
X151284807Y-114095178D01*
X151260948Y-114296764D01*
X151274224Y-114499322D01*
X151275645Y-114504918D01*
X151275646Y-114504923D01*
X151322771Y-114690474D01*
X151324192Y-114696069D01*
X151326609Y-114701312D01*
X151363810Y-114782008D01*
X151409177Y-114880416D01*
X151412510Y-114885132D01*
X151460526Y-114953073D01*
X151526333Y-115046189D01*
X151530475Y-115050224D01*
X151581311Y-115099746D01*
X151616149Y-115161607D01*
X151612012Y-115232483D01*
X151570213Y-115289871D01*
X151504023Y-115315551D01*
X151493390Y-115316000D01*
X150711614Y-115316000D01*
X150643493Y-115295998D01*
X150597000Y-115242342D01*
X150586896Y-115172068D01*
X150614740Y-115109431D01*
X150740249Y-114958524D01*
X150740256Y-114958514D01*
X150743947Y-114954076D01*
X150843134Y-114776965D01*
X150844990Y-114771498D01*
X150844992Y-114771493D01*
X150906528Y-114590214D01*
X150906529Y-114590209D01*
X150908384Y-114584745D01*
X150909212Y-114579036D01*
X150909213Y-114579031D01*
X150936979Y-114387527D01*
X150937512Y-114383853D01*
X150939032Y-114325800D01*
X150920458Y-114123659D01*
X150918890Y-114118099D01*
X150866925Y-113933846D01*
X150866924Y-113933844D01*
X150865357Y-113928287D01*
X150854778Y-113906833D01*
X150778131Y-113751409D01*
X150775576Y-113746228D01*
X150654120Y-113583579D01*
X150505058Y-113445787D01*
X150500175Y-113442706D01*
X150500171Y-113442703D01*
X150338264Y-113340548D01*
X150333381Y-113337467D01*
X150144839Y-113262246D01*
X150139179Y-113261120D01*
X150139175Y-113261119D01*
X149951413Y-113223771D01*
X149951410Y-113223771D01*
X149945746Y-113222644D01*
X149939971Y-113222568D01*
X149939967Y-113222568D01*
X149838593Y-113221241D01*
X149742771Y-113219987D01*
X149737074Y-113220966D01*
X149737073Y-113220966D01*
X149639420Y-113237746D01*
X149542710Y-113254364D01*
X149352263Y-113324624D01*
X149177810Y-113428412D01*
X149173470Y-113432218D01*
X149173466Y-113432221D01*
X149153523Y-113449711D01*
X149025192Y-113562255D01*
X148899520Y-113721669D01*
X148896831Y-113726780D01*
X148896829Y-113726783D01*
X148885307Y-113748683D01*
X148805003Y-113901315D01*
X148744807Y-114095178D01*
X148720948Y-114296764D01*
X148734224Y-114499322D01*
X148735645Y-114504918D01*
X148735646Y-114504923D01*
X148782771Y-114690474D01*
X148784192Y-114696069D01*
X148786609Y-114701312D01*
X148823810Y-114782008D01*
X148869177Y-114880416D01*
X148872510Y-114885132D01*
X148920526Y-114953073D01*
X148986333Y-115046189D01*
X148990475Y-115050224D01*
X149041311Y-115099746D01*
X149076149Y-115161607D01*
X149072012Y-115232483D01*
X149030213Y-115289871D01*
X148964023Y-115315551D01*
X148953390Y-115316000D01*
X148171614Y-115316000D01*
X148103493Y-115295998D01*
X148057000Y-115242342D01*
X148046896Y-115172068D01*
X148074740Y-115109431D01*
X148200249Y-114958524D01*
X148200256Y-114958514D01*
X148203947Y-114954076D01*
X148303134Y-114776965D01*
X148304990Y-114771498D01*
X148304992Y-114771493D01*
X148366528Y-114590214D01*
X148366529Y-114590209D01*
X148368384Y-114584745D01*
X148369212Y-114579036D01*
X148369213Y-114579031D01*
X148396979Y-114387527D01*
X148397512Y-114383853D01*
X148399032Y-114325800D01*
X148380458Y-114123659D01*
X148378890Y-114118099D01*
X148326925Y-113933846D01*
X148326924Y-113933844D01*
X148325357Y-113928287D01*
X148314778Y-113906833D01*
X148238131Y-113751409D01*
X148235576Y-113746228D01*
X148114120Y-113583579D01*
X147965058Y-113445787D01*
X147960175Y-113442706D01*
X147960171Y-113442703D01*
X147798264Y-113340548D01*
X147793381Y-113337467D01*
X147604839Y-113262246D01*
X147599179Y-113261120D01*
X147599175Y-113261119D01*
X147411413Y-113223771D01*
X147411410Y-113223771D01*
X147405746Y-113222644D01*
X147399971Y-113222568D01*
X147399967Y-113222568D01*
X147298593Y-113221241D01*
X147202771Y-113219987D01*
X147197074Y-113220966D01*
X147197073Y-113220966D01*
X147099420Y-113237746D01*
X147002710Y-113254364D01*
X146812263Y-113324624D01*
X146637810Y-113428412D01*
X146633470Y-113432218D01*
X146633466Y-113432221D01*
X146613523Y-113449711D01*
X146485192Y-113562255D01*
X146359520Y-113721669D01*
X146356831Y-113726780D01*
X146356829Y-113726783D01*
X146345307Y-113748683D01*
X146265003Y-113901315D01*
X146204807Y-114095178D01*
X146180948Y-114296764D01*
X146194224Y-114499322D01*
X146195645Y-114504918D01*
X146195646Y-114504923D01*
X146242771Y-114690474D01*
X146244192Y-114696069D01*
X146246609Y-114701312D01*
X146283810Y-114782008D01*
X146329177Y-114880416D01*
X146332510Y-114885132D01*
X146380526Y-114953073D01*
X146446333Y-115046189D01*
X146450475Y-115050224D01*
X146501311Y-115099746D01*
X146536149Y-115161607D01*
X146532012Y-115232483D01*
X146490213Y-115289871D01*
X146424023Y-115315551D01*
X146413390Y-115316000D01*
X145631614Y-115316000D01*
X145563493Y-115295998D01*
X145517000Y-115242342D01*
X145506896Y-115172068D01*
X145534740Y-115109431D01*
X145660249Y-114958524D01*
X145660256Y-114958514D01*
X145663947Y-114954076D01*
X145763134Y-114776965D01*
X145764990Y-114771498D01*
X145764992Y-114771493D01*
X145826528Y-114590214D01*
X145826529Y-114590209D01*
X145828384Y-114584745D01*
X145829212Y-114579036D01*
X145829213Y-114579031D01*
X145856979Y-114387527D01*
X145857512Y-114383853D01*
X145859032Y-114325800D01*
X145840458Y-114123659D01*
X145838890Y-114118099D01*
X145786925Y-113933846D01*
X145786924Y-113933844D01*
X145785357Y-113928287D01*
X145774778Y-113906833D01*
X145698131Y-113751409D01*
X145695576Y-113746228D01*
X145574120Y-113583579D01*
X145425058Y-113445787D01*
X145420175Y-113442706D01*
X145420171Y-113442703D01*
X145258264Y-113340548D01*
X145253381Y-113337467D01*
X145248017Y-113335327D01*
X145159809Y-113300135D01*
X145103950Y-113256314D01*
X145080500Y-113183105D01*
X145080500Y-112539370D01*
X145100502Y-112471249D01*
X145117405Y-112450275D01*
X146050075Y-111517605D01*
X146112387Y-111483579D01*
X146139170Y-111480700D01*
X149930051Y-111480700D01*
X149941032Y-111481179D01*
X149968291Y-111483564D01*
X149968292Y-111483564D01*
X149979267Y-111484524D01*
X150016339Y-111474591D01*
X150027053Y-111472216D01*
X150042900Y-111469422D01*
X150053997Y-111467465D01*
X150053998Y-111467465D01*
X150064851Y-111465551D01*
X150074396Y-111460040D01*
X150077889Y-111458769D01*
X150081267Y-111457194D01*
X150091916Y-111454340D01*
X150100947Y-111448016D01*
X150100950Y-111448015D01*
X150123355Y-111432327D01*
X150132624Y-111426422D01*
X150139910Y-111422215D01*
X150165849Y-111407239D01*
X150177452Y-111393412D01*
X150190517Y-111377841D01*
X150197943Y-111369737D01*
X150519744Y-111047937D01*
X150527847Y-111040512D01*
X150548797Y-111022933D01*
X150548798Y-111022932D01*
X150557239Y-111015849D01*
X150576421Y-110982625D01*
X150582324Y-110973358D01*
X150588178Y-110964997D01*
X150643634Y-110920666D01*
X150714253Y-110913355D01*
X150780489Y-110948169D01*
G37*
G04 #@! TD.AperFunction*
G04 #@! TA.AperFunction,Conductor*
G36*
X153487621Y-109213202D02*
G01*
X153534114Y-109266858D01*
X153545500Y-109319200D01*
X153545500Y-109822756D01*
X153545869Y-109826152D01*
X153545869Y-109826153D01*
X153551122Y-109874502D01*
X153552202Y-109884448D01*
X153554974Y-109891841D01*
X153554974Y-109891843D01*
X153559995Y-109905236D01*
X153602929Y-110019764D01*
X153689596Y-110135404D01*
X153696775Y-110140784D01*
X153696776Y-110140785D01*
X153798054Y-110216689D01*
X153798057Y-110216691D01*
X153805236Y-110222071D01*
X153881928Y-110250821D01*
X153933157Y-110270026D01*
X153933159Y-110270026D01*
X153940552Y-110272798D01*
X153948402Y-110273651D01*
X153948403Y-110273651D01*
X153998847Y-110279131D01*
X154002244Y-110279500D01*
X154453100Y-110279500D01*
X154521221Y-110299502D01*
X154567714Y-110353158D01*
X154579100Y-110405500D01*
X154579100Y-113182636D01*
X154559098Y-113250757D01*
X154505442Y-113297250D01*
X154496714Y-113300847D01*
X154432263Y-113324624D01*
X154257810Y-113428412D01*
X154253470Y-113432218D01*
X154253466Y-113432221D01*
X154233523Y-113449711D01*
X154105192Y-113562255D01*
X153979520Y-113721669D01*
X153976831Y-113726780D01*
X153976829Y-113726783D01*
X153965307Y-113748683D01*
X153885003Y-113901315D01*
X153824807Y-114095178D01*
X153800948Y-114296764D01*
X153814224Y-114499322D01*
X153815645Y-114504918D01*
X153815646Y-114504923D01*
X153862771Y-114690474D01*
X153864192Y-114696069D01*
X153866609Y-114701312D01*
X153903810Y-114782008D01*
X153949177Y-114880416D01*
X153952510Y-114885132D01*
X154000526Y-114953073D01*
X154066333Y-115046189D01*
X154070475Y-115050224D01*
X154121311Y-115099746D01*
X154156149Y-115161607D01*
X154152012Y-115232483D01*
X154110213Y-115289871D01*
X154044023Y-115315551D01*
X154033390Y-115316000D01*
X153251614Y-115316000D01*
X153183493Y-115295998D01*
X153137000Y-115242342D01*
X153126896Y-115172068D01*
X153154740Y-115109431D01*
X153280249Y-114958524D01*
X153280256Y-114958514D01*
X153283947Y-114954076D01*
X153383134Y-114776965D01*
X153384990Y-114771498D01*
X153384992Y-114771493D01*
X153446528Y-114590214D01*
X153446529Y-114590209D01*
X153448384Y-114584745D01*
X153449212Y-114579036D01*
X153449213Y-114579031D01*
X153476979Y-114387527D01*
X153477512Y-114383853D01*
X153479032Y-114325800D01*
X153460458Y-114123659D01*
X153458890Y-114118099D01*
X153406925Y-113933846D01*
X153406924Y-113933844D01*
X153405357Y-113928287D01*
X153394778Y-113906833D01*
X153318131Y-113751409D01*
X153315576Y-113746228D01*
X153194120Y-113583579D01*
X153045058Y-113445787D01*
X153040175Y-113442706D01*
X153040171Y-113442703D01*
X152878264Y-113340548D01*
X152873381Y-113337467D01*
X152868017Y-113335327D01*
X152779809Y-113300135D01*
X152723950Y-113256314D01*
X152700500Y-113183105D01*
X152700500Y-111589749D01*
X152700979Y-111578768D01*
X152703364Y-111551509D01*
X152703364Y-111551508D01*
X152704324Y-111540533D01*
X152694393Y-111503468D01*
X152692014Y-111492738D01*
X152687265Y-111465804D01*
X152685351Y-111454949D01*
X152679838Y-111445402D01*
X152678562Y-111441895D01*
X152676994Y-111438532D01*
X152674141Y-111427884D01*
X152652125Y-111396442D01*
X152646219Y-111387172D01*
X152643422Y-111382327D01*
X152627039Y-111353951D01*
X152597647Y-111329288D01*
X152589544Y-111321863D01*
X152147943Y-110880263D01*
X152140517Y-110872159D01*
X152122933Y-110851203D01*
X152122932Y-110851202D01*
X152115849Y-110842761D01*
X152082625Y-110823578D01*
X152073355Y-110817673D01*
X152050950Y-110801985D01*
X152050947Y-110801984D01*
X152041916Y-110795660D01*
X152031267Y-110792806D01*
X152027889Y-110791231D01*
X152024396Y-110789960D01*
X152014851Y-110784449D01*
X152003998Y-110782535D01*
X152003997Y-110782535D01*
X151992900Y-110780578D01*
X151977053Y-110777784D01*
X151966339Y-110775409D01*
X151929267Y-110765476D01*
X151918292Y-110766436D01*
X151918291Y-110766436D01*
X151891032Y-110768821D01*
X151880051Y-110769300D01*
X151589170Y-110769300D01*
X151521049Y-110749298D01*
X151500075Y-110732395D01*
X151317605Y-110549925D01*
X151283579Y-110487613D01*
X151280700Y-110460830D01*
X151280700Y-109973124D01*
X151300702Y-109905003D01*
X151354358Y-109858510D01*
X151424888Y-109848444D01*
X151466398Y-109854500D01*
X151733602Y-109854500D01*
X151738152Y-109853830D01*
X151738155Y-109853830D01*
X151793592Y-109845669D01*
X151793593Y-109845669D01*
X151803278Y-109844243D01*
X151812071Y-109839926D01*
X151869440Y-109811760D01*
X151939403Y-109799692D01*
X151980303Y-109811663D01*
X152047323Y-109844423D01*
X152074680Y-109848414D01*
X152111872Y-109853840D01*
X152111876Y-109853840D01*
X152116398Y-109854500D01*
X152383602Y-109854500D01*
X152388152Y-109853830D01*
X152388155Y-109853830D01*
X152443592Y-109845669D01*
X152443593Y-109845669D01*
X152453278Y-109844243D01*
X152519636Y-109811663D01*
X152549868Y-109796820D01*
X152549870Y-109796819D01*
X152559216Y-109792230D01*
X152642595Y-109708706D01*
X152694423Y-109602677D01*
X152704500Y-109533602D01*
X152704500Y-109319200D01*
X152724502Y-109251079D01*
X152778158Y-109204586D01*
X152830500Y-109193200D01*
X153419500Y-109193200D01*
X153487621Y-109213202D01*
G37*
G04 #@! TD.AperFunction*
G04 #@! TA.AperFunction,Conductor*
G36*
X141136355Y-98064002D02*
G01*
X141182848Y-98117658D01*
X141192952Y-98187932D01*
X141172322Y-98241005D01*
X141058095Y-98408455D01*
X141053000Y-98417423D01*
X140963338Y-98610583D01*
X140959775Y-98620270D01*
X140902864Y-98825481D01*
X140900933Y-98835600D01*
X140878302Y-99047374D01*
X140878050Y-99057663D01*
X140890309Y-99270277D01*
X140891745Y-99280497D01*
X140938565Y-99488246D01*
X140941645Y-99498075D01*
X141021770Y-99695403D01*
X141026413Y-99704594D01*
X141106460Y-99835220D01*
X141116916Y-99844680D01*
X141125694Y-99840896D01*
X142150905Y-98815685D01*
X142213217Y-98781659D01*
X142284032Y-98786724D01*
X142329095Y-98815685D01*
X143350474Y-99837064D01*
X143362484Y-99843623D01*
X143374223Y-99834655D01*
X143405004Y-99791819D01*
X143410315Y-99782980D01*
X143504670Y-99592067D01*
X143508469Y-99582472D01*
X143525066Y-99527847D01*
X143564007Y-99468483D01*
X143628862Y-99439596D01*
X143699038Y-99450358D01*
X143752256Y-99497351D01*
X143760048Y-99511722D01*
X143819377Y-99640416D01*
X143822710Y-99645132D01*
X143920131Y-99782980D01*
X143936533Y-99806189D01*
X144081938Y-99947835D01*
X144135647Y-99983722D01*
X144181173Y-100038197D01*
X144190022Y-100108640D01*
X144154739Y-100177581D01*
X143999925Y-100332395D01*
X143937613Y-100366421D01*
X143910830Y-100369300D01*
X143122184Y-100369300D01*
X143054063Y-100349298D01*
X143007570Y-100295642D01*
X142996745Y-100231424D01*
X142998698Y-100210800D01*
X142990660Y-100195670D01*
X142252812Y-99457822D01*
X142238868Y-99450208D01*
X142237035Y-99450339D01*
X142230420Y-99454590D01*
X141486737Y-100198273D01*
X141479977Y-100210653D01*
X141485258Y-100217707D01*
X141646756Y-100312079D01*
X141656043Y-100316529D01*
X141807141Y-100374228D01*
X141863644Y-100417216D01*
X141887937Y-100483927D01*
X141872307Y-100553182D01*
X141851287Y-100581033D01*
X141391925Y-101040395D01*
X141329613Y-101074421D01*
X141302830Y-101077300D01*
X141004352Y-101077301D01*
X140981386Y-101077301D01*
X140977992Y-101077670D01*
X140977986Y-101077670D01*
X140928317Y-101083065D01*
X140928314Y-101083066D01*
X140920458Y-101083919D01*
X140913056Y-101086694D01*
X140913055Y-101086694D01*
X140820136Y-101121527D01*
X140786818Y-101134017D01*
X140779635Y-101139401D01*
X140779634Y-101139401D01*
X140679792Y-101214229D01*
X140672611Y-101219611D01*
X140667229Y-101226792D01*
X140615629Y-101295642D01*
X140587017Y-101333818D01*
X140536919Y-101467458D01*
X140530300Y-101528385D01*
X140530301Y-102535214D01*
X140530670Y-102538608D01*
X140530670Y-102538614D01*
X140534941Y-102577929D01*
X140536919Y-102596142D01*
X140539694Y-102603544D01*
X140539694Y-102603545D01*
X140565272Y-102671776D01*
X140587017Y-102729782D01*
X140592401Y-102736966D01*
X140592402Y-102736967D01*
X140628105Y-102784606D01*
X140652953Y-102851113D01*
X140637900Y-102920495D01*
X140593582Y-102967315D01*
X140561993Y-102986863D01*
X140550592Y-102995899D01*
X140436061Y-103110629D01*
X140427049Y-103122040D01*
X140341984Y-103260043D01*
X140335837Y-103273224D01*
X140284662Y-103427510D01*
X140281795Y-103440886D01*
X140272128Y-103535238D01*
X140271800Y-103541655D01*
X140271800Y-103791685D01*
X140276275Y-103806924D01*
X140277665Y-103808129D01*
X140285348Y-103809800D01*
X141407800Y-103809800D01*
X141475921Y-103829802D01*
X141522414Y-103883458D01*
X141533800Y-103935800D01*
X141533800Y-107310684D01*
X141538275Y-107325923D01*
X141539665Y-107327128D01*
X141547348Y-107328799D01*
X141576895Y-107328799D01*
X141583414Y-107328462D01*
X141679006Y-107318543D01*
X141692400Y-107315651D01*
X141846584Y-107264212D01*
X141859762Y-107258039D01*
X141997607Y-107172737D01*
X142009008Y-107163701D01*
X142123539Y-107048971D01*
X142132551Y-107037560D01*
X142217616Y-106899557D01*
X142223764Y-106886374D01*
X142245517Y-106820790D01*
X142285947Y-106762430D01*
X142351512Y-106735193D01*
X142421393Y-106747726D01*
X142475630Y-106799947D01*
X142479577Y-106807157D01*
X142482729Y-106815564D01*
X142488112Y-106822746D01*
X142488115Y-106822751D01*
X142526471Y-106873929D01*
X142569396Y-106931204D01*
X142576576Y-106936585D01*
X142677854Y-107012489D01*
X142677857Y-107012491D01*
X142685036Y-107017871D01*
X142767996Y-107048971D01*
X142812957Y-107065826D01*
X142812959Y-107065826D01*
X142820352Y-107068598D01*
X142828202Y-107069451D01*
X142828203Y-107069451D01*
X142851667Y-107072000D01*
X142882044Y-107075300D01*
X143477556Y-107075300D01*
X143507933Y-107072000D01*
X143531397Y-107069451D01*
X143531398Y-107069451D01*
X143539248Y-107068598D01*
X143546641Y-107065826D01*
X143546643Y-107065826D01*
X143591604Y-107048971D01*
X143674564Y-107017871D01*
X143681743Y-107012491D01*
X143681746Y-107012489D01*
X143783024Y-106936585D01*
X143790204Y-106931204D01*
X143833129Y-106873929D01*
X143871489Y-106822746D01*
X143871491Y-106822743D01*
X143876871Y-106815564D01*
X143914887Y-106714154D01*
X143924826Y-106687643D01*
X143924826Y-106687641D01*
X143927598Y-106680248D01*
X143933304Y-106627729D01*
X143933931Y-106621953D01*
X143933931Y-106621952D01*
X143934300Y-106618556D01*
X143934300Y-105573044D01*
X143927598Y-105511352D01*
X143921442Y-105494929D01*
X143903816Y-105447914D01*
X143876871Y-105376036D01*
X143871491Y-105368857D01*
X143871489Y-105368854D01*
X143855181Y-105347095D01*
X145067001Y-105347095D01*
X145067338Y-105353614D01*
X145077257Y-105449206D01*
X145080149Y-105462600D01*
X145131588Y-105616784D01*
X145137761Y-105629962D01*
X145223063Y-105767807D01*
X145232099Y-105779208D01*
X145346829Y-105893739D01*
X145358240Y-105902751D01*
X145496243Y-105987816D01*
X145509424Y-105993963D01*
X145663710Y-106045138D01*
X145677086Y-106048005D01*
X145771438Y-106057672D01*
X145777854Y-106058000D01*
X146027885Y-106058000D01*
X146043124Y-106053525D01*
X146044329Y-106052135D01*
X146046000Y-106044452D01*
X146046000Y-105322115D01*
X146041525Y-105306876D01*
X146040135Y-105305671D01*
X146032452Y-105304000D01*
X145085116Y-105304000D01*
X145069877Y-105308475D01*
X145068672Y-105309865D01*
X145067001Y-105317548D01*
X145067001Y-105347095D01*
X143855181Y-105347095D01*
X143795585Y-105267576D01*
X143790204Y-105260396D01*
X143683767Y-105180626D01*
X143641252Y-105123767D01*
X143636226Y-105052948D01*
X143670286Y-104990655D01*
X143683767Y-104978974D01*
X143783024Y-104904585D01*
X143790204Y-104899204D01*
X143813922Y-104867557D01*
X143871489Y-104790746D01*
X143871491Y-104790743D01*
X143876871Y-104783564D01*
X143918825Y-104671651D01*
X143924826Y-104655643D01*
X143924826Y-104655641D01*
X143927598Y-104648248D01*
X143928777Y-104637400D01*
X143933931Y-104589953D01*
X143933931Y-104589952D01*
X143934300Y-104586556D01*
X143934300Y-103541044D01*
X143929917Y-103500702D01*
X143928451Y-103487203D01*
X143928451Y-103487202D01*
X143927598Y-103479352D01*
X143923418Y-103468200D01*
X143901532Y-103409821D01*
X143876871Y-103344036D01*
X143871491Y-103336857D01*
X143871489Y-103336854D01*
X143795585Y-103235576D01*
X143790204Y-103228396D01*
X143769777Y-103213087D01*
X143681746Y-103147111D01*
X143681743Y-103147109D01*
X143674564Y-103141729D01*
X143666162Y-103138579D01*
X143658285Y-103134267D01*
X143659983Y-103131165D01*
X143616769Y-103098710D01*
X143592062Y-103032151D01*
X143607262Y-102962800D01*
X143642190Y-102922532D01*
X143739808Y-102849371D01*
X143746989Y-102843989D01*
X143789852Y-102786798D01*
X143827199Y-102736966D01*
X143827199Y-102736965D01*
X143832583Y-102729782D01*
X143854328Y-102671776D01*
X143879908Y-102603540D01*
X143879909Y-102603538D01*
X143882681Y-102596142D01*
X143889300Y-102535215D01*
X143889299Y-102156699D01*
X143909301Y-102088580D01*
X143962956Y-102042087D01*
X144015299Y-102030700D01*
X147913729Y-102030700D01*
X147981850Y-102050702D01*
X148028343Y-102104358D01*
X148038447Y-102174632D01*
X148008953Y-102239212D01*
X148002904Y-102245716D01*
X147957405Y-102291294D01*
X147905577Y-102397323D01*
X147895500Y-102466398D01*
X147895500Y-102693300D01*
X147875498Y-102761421D01*
X147821842Y-102807914D01*
X147769500Y-102819300D01*
X147370903Y-102819300D01*
X147302782Y-102799298D01*
X147256289Y-102745642D01*
X147252921Y-102737529D01*
X147228271Y-102671776D01*
X147222071Y-102655236D01*
X147216691Y-102648057D01*
X147216689Y-102648054D01*
X147140785Y-102546776D01*
X147135404Y-102539596D01*
X147043882Y-102471004D01*
X147026946Y-102458311D01*
X147026943Y-102458309D01*
X147019764Y-102452929D01*
X146895668Y-102406408D01*
X146891843Y-102404974D01*
X146891841Y-102404974D01*
X146884448Y-102402202D01*
X146876598Y-102401349D01*
X146876597Y-102401349D01*
X146826153Y-102395869D01*
X146826152Y-102395869D01*
X146822756Y-102395500D01*
X145777244Y-102395500D01*
X145773848Y-102395869D01*
X145773847Y-102395869D01*
X145723403Y-102401349D01*
X145723402Y-102401349D01*
X145715552Y-102402202D01*
X145708159Y-102404974D01*
X145708157Y-102404974D01*
X145704332Y-102406408D01*
X145580236Y-102452929D01*
X145573057Y-102458309D01*
X145573054Y-102458311D01*
X145556118Y-102471004D01*
X145464596Y-102539596D01*
X145459215Y-102546776D01*
X145383311Y-102648054D01*
X145383309Y-102648057D01*
X145377929Y-102655236D01*
X145371729Y-102671776D01*
X145333762Y-102773054D01*
X145327202Y-102790552D01*
X145320500Y-102852244D01*
X145320500Y-103447756D01*
X145327202Y-103509448D01*
X145329974Y-103516841D01*
X145329974Y-103516843D01*
X145335804Y-103532395D01*
X145377929Y-103644764D01*
X145383309Y-103651943D01*
X145383311Y-103651946D01*
X145444188Y-103733174D01*
X145464596Y-103760404D01*
X145580236Y-103847071D01*
X145588645Y-103850223D01*
X145595874Y-103854181D01*
X145646021Y-103904438D01*
X145661036Y-103973829D01*
X145636152Y-104040322D01*
X145575243Y-104084226D01*
X145508216Y-104106588D01*
X145495038Y-104112761D01*
X145357193Y-104198063D01*
X145345792Y-104207099D01*
X145231261Y-104321829D01*
X145222249Y-104333240D01*
X145137184Y-104471243D01*
X145131037Y-104484424D01*
X145079862Y-104638710D01*
X145076995Y-104652086D01*
X145067328Y-104746438D01*
X145067000Y-104752855D01*
X145067000Y-104777885D01*
X145071475Y-104793124D01*
X145072865Y-104794329D01*
X145080548Y-104796000D01*
X147514884Y-104796000D01*
X147530123Y-104791525D01*
X147531328Y-104790135D01*
X147532999Y-104782452D01*
X147532999Y-104752905D01*
X147532662Y-104746386D01*
X147522743Y-104650794D01*
X147519851Y-104637400D01*
X147468412Y-104483216D01*
X147462239Y-104470038D01*
X147376937Y-104332193D01*
X147367901Y-104320792D01*
X147253171Y-104206261D01*
X147241760Y-104197249D01*
X147103757Y-104112184D01*
X147090574Y-104106036D01*
X147024990Y-104084283D01*
X146966630Y-104043853D01*
X146939393Y-103978288D01*
X146951926Y-103908407D01*
X147004147Y-103854170D01*
X147011357Y-103850223D01*
X147019764Y-103847071D01*
X147054231Y-103821240D01*
X147128224Y-103765785D01*
X147135404Y-103760404D01*
X147155812Y-103733174D01*
X147216689Y-103651946D01*
X147216691Y-103651943D01*
X147222071Y-103644764D01*
X147250725Y-103568328D01*
X147252921Y-103562471D01*
X147295562Y-103505706D01*
X147362124Y-103481006D01*
X147370903Y-103480700D01*
X147769500Y-103480700D01*
X147837621Y-103500702D01*
X147884114Y-103554358D01*
X147895500Y-103606700D01*
X147895500Y-103808602D01*
X147896170Y-103813152D01*
X147896170Y-103813155D01*
X147904331Y-103868592D01*
X147905757Y-103878278D01*
X147920550Y-103908407D01*
X147952926Y-103974349D01*
X147957770Y-103984216D01*
X148041294Y-104067595D01*
X148147323Y-104119423D01*
X148177645Y-104123847D01*
X148211872Y-104128840D01*
X148211876Y-104128840D01*
X148216398Y-104129500D01*
X148483602Y-104129500D01*
X148488152Y-104128830D01*
X148488155Y-104128830D01*
X148543592Y-104120669D01*
X148543593Y-104120669D01*
X148553278Y-104119243D01*
X148562071Y-104114926D01*
X148619440Y-104086760D01*
X148689403Y-104074692D01*
X148730303Y-104086663D01*
X148797323Y-104119423D01*
X148827645Y-104123847D01*
X148861872Y-104128840D01*
X148861876Y-104128840D01*
X148866398Y-104129500D01*
X149133602Y-104129500D01*
X149138152Y-104128830D01*
X149138155Y-104128830D01*
X149193592Y-104120669D01*
X149193593Y-104120669D01*
X149203278Y-104119243D01*
X149212071Y-104114926D01*
X149269440Y-104086760D01*
X149339403Y-104074692D01*
X149380303Y-104086663D01*
X149447323Y-104119423D01*
X149477645Y-104123847D01*
X149511872Y-104128840D01*
X149511876Y-104128840D01*
X149516398Y-104129500D01*
X149783602Y-104129500D01*
X149788152Y-104128830D01*
X149788155Y-104128830D01*
X149843592Y-104120669D01*
X149843593Y-104120669D01*
X149853278Y-104119243D01*
X149862071Y-104114926D01*
X149919440Y-104086760D01*
X149989403Y-104074692D01*
X150030303Y-104086663D01*
X150097323Y-104119423D01*
X150127645Y-104123847D01*
X150161872Y-104128840D01*
X150161876Y-104128840D01*
X150166398Y-104129500D01*
X150433602Y-104129500D01*
X150438152Y-104128830D01*
X150438155Y-104128830D01*
X150493592Y-104120669D01*
X150493593Y-104120669D01*
X150503278Y-104119243D01*
X150512071Y-104114926D01*
X150569440Y-104086760D01*
X150639403Y-104074692D01*
X150680303Y-104086663D01*
X150747323Y-104119423D01*
X150777645Y-104123847D01*
X150811872Y-104128840D01*
X150811876Y-104128840D01*
X150816398Y-104129500D01*
X151083602Y-104129500D01*
X151088152Y-104128830D01*
X151088155Y-104128830D01*
X151143592Y-104120669D01*
X151143593Y-104120669D01*
X151153278Y-104119243D01*
X151162071Y-104114926D01*
X151219440Y-104086760D01*
X151289403Y-104074692D01*
X151330303Y-104086663D01*
X151397323Y-104119423D01*
X151427645Y-104123847D01*
X151461872Y-104128840D01*
X151461876Y-104128840D01*
X151466398Y-104129500D01*
X151733602Y-104129500D01*
X151738152Y-104128830D01*
X151738155Y-104128830D01*
X151793592Y-104120669D01*
X151793593Y-104120669D01*
X151803278Y-104119243D01*
X151812071Y-104114926D01*
X151869440Y-104086760D01*
X151939403Y-104074692D01*
X151980303Y-104086663D01*
X152047323Y-104119423D01*
X152077645Y-104123847D01*
X152111872Y-104128840D01*
X152111876Y-104128840D01*
X152116398Y-104129500D01*
X152383602Y-104129500D01*
X152388152Y-104128830D01*
X152388155Y-104128830D01*
X152443592Y-104120669D01*
X152443593Y-104120669D01*
X152453278Y-104119243D01*
X152524483Y-104084283D01*
X152549868Y-104071820D01*
X152549870Y-104071819D01*
X152559216Y-104067230D01*
X152642595Y-103983706D01*
X152694423Y-103877677D01*
X152699674Y-103841685D01*
X152703840Y-103813128D01*
X152703840Y-103813124D01*
X152704500Y-103808602D01*
X152704500Y-103594200D01*
X152724502Y-103526079D01*
X152778158Y-103479586D01*
X152830500Y-103468200D01*
X153419500Y-103468200D01*
X153487621Y-103488202D01*
X153534114Y-103541858D01*
X153544797Y-103590970D01*
X153545316Y-103590942D01*
X153545490Y-103594154D01*
X153545500Y-103594200D01*
X153545500Y-103597756D01*
X153552202Y-103659448D01*
X153554974Y-103666841D01*
X153554974Y-103666843D01*
X153555532Y-103668332D01*
X153602929Y-103794764D01*
X153608309Y-103801943D01*
X153608311Y-103801946D01*
X153665519Y-103878278D01*
X153689596Y-103910404D01*
X153696776Y-103915785D01*
X153798054Y-103991689D01*
X153798057Y-103991691D01*
X153805236Y-103997071D01*
X153894954Y-104030704D01*
X153933157Y-104045026D01*
X153933159Y-104045026D01*
X153940552Y-104047798D01*
X153948402Y-104048651D01*
X153948403Y-104048651D01*
X153957093Y-104049595D01*
X154002244Y-104054500D01*
X154747130Y-104054500D01*
X154815251Y-104074502D01*
X154836225Y-104091405D01*
X154875225Y-104130405D01*
X154909251Y-104192717D01*
X154904186Y-104263532D01*
X154861639Y-104320368D01*
X154795119Y-104345179D01*
X154786130Y-104345500D01*
X154002244Y-104345500D01*
X153998848Y-104345869D01*
X153998847Y-104345869D01*
X153948403Y-104351349D01*
X153948402Y-104351349D01*
X153940552Y-104352202D01*
X153933159Y-104354974D01*
X153933157Y-104354974D01*
X153894954Y-104369296D01*
X153805236Y-104402929D01*
X153798057Y-104408309D01*
X153798054Y-104408311D01*
X153716737Y-104469255D01*
X153689596Y-104489596D01*
X153684215Y-104496776D01*
X153608311Y-104598054D01*
X153608309Y-104598057D01*
X153602929Y-104605236D01*
X153576424Y-104675940D01*
X153567393Y-104700029D01*
X153524752Y-104756794D01*
X153458190Y-104781494D01*
X153449411Y-104781800D01*
X150307449Y-104781800D01*
X150296468Y-104781321D01*
X150269209Y-104778936D01*
X150269208Y-104778936D01*
X150258233Y-104777976D01*
X150221161Y-104787909D01*
X150210447Y-104790284D01*
X150203410Y-104791525D01*
X150183503Y-104795035D01*
X150183502Y-104795035D01*
X150172649Y-104796949D01*
X150163104Y-104802460D01*
X150159611Y-104803731D01*
X150156233Y-104805306D01*
X150145584Y-104808160D01*
X150136553Y-104814484D01*
X150136550Y-104814485D01*
X150114145Y-104830173D01*
X150104875Y-104836079D01*
X150071651Y-104855261D01*
X150064568Y-104863702D01*
X150064567Y-104863703D01*
X150046983Y-104884659D01*
X150039557Y-104892762D01*
X148498318Y-106434001D01*
X148436006Y-106468027D01*
X148365191Y-106462962D01*
X148308355Y-106420415D01*
X148284301Y-106361350D01*
X148283102Y-106352238D01*
X148283101Y-106352233D01*
X148282023Y-106344047D01*
X148221828Y-106198723D01*
X148126071Y-106073929D01*
X148104885Y-106057672D01*
X148043732Y-106010748D01*
X148001278Y-105978172D01*
X147855953Y-105917977D01*
X147700000Y-105897445D01*
X147691812Y-105898523D01*
X147552234Y-105916899D01*
X147552233Y-105916899D01*
X147544047Y-105917977D01*
X147537870Y-105920536D01*
X147467621Y-105918863D01*
X147408825Y-105879068D01*
X147380878Y-105813804D01*
X147392652Y-105743790D01*
X147398727Y-105732730D01*
X147462816Y-105628757D01*
X147468963Y-105615576D01*
X147520138Y-105461290D01*
X147523005Y-105447914D01*
X147532672Y-105353562D01*
X147533000Y-105347146D01*
X147533000Y-105322115D01*
X147528525Y-105306876D01*
X147527135Y-105305671D01*
X147519452Y-105304000D01*
X146572115Y-105304000D01*
X146556876Y-105308475D01*
X146555671Y-105309865D01*
X146554000Y-105317548D01*
X146554000Y-106039884D01*
X146558475Y-106055123D01*
X146559865Y-106056328D01*
X146567548Y-106057999D01*
X146822095Y-106057999D01*
X146828614Y-106057662D01*
X146924206Y-106047743D01*
X146937603Y-106044850D01*
X147032078Y-106013332D01*
X147103027Y-106010748D01*
X147164111Y-106046932D01*
X147195935Y-106110397D01*
X147188396Y-106180992D01*
X147182328Y-106193306D01*
X147178172Y-106198723D01*
X147117977Y-106344047D01*
X147097445Y-106500000D01*
X147098523Y-106508188D01*
X147098523Y-106508191D01*
X147105025Y-106557581D01*
X147094085Y-106627729D01*
X147069198Y-106663121D01*
X146848724Y-106883595D01*
X146786412Y-106917621D01*
X146759629Y-106920500D01*
X145802244Y-106920500D01*
X145798848Y-106920869D01*
X145798847Y-106920869D01*
X145748403Y-106926349D01*
X145748402Y-106926349D01*
X145740552Y-106927202D01*
X145733159Y-106929974D01*
X145733157Y-106929974D01*
X145706053Y-106940135D01*
X145605236Y-106977929D01*
X145598057Y-106983309D01*
X145598054Y-106983311D01*
X145524273Y-107038607D01*
X145489596Y-107064596D01*
X145484215Y-107071776D01*
X145408311Y-107173054D01*
X145408309Y-107173057D01*
X145402929Y-107180236D01*
X145399779Y-107188640D01*
X145361102Y-107291812D01*
X145352202Y-107315552D01*
X145351349Y-107323402D01*
X145351349Y-107323403D01*
X145350798Y-107328472D01*
X145345500Y-107377244D01*
X145345500Y-107997756D01*
X145345869Y-108001152D01*
X145345869Y-108001153D01*
X145350175Y-108040785D01*
X145352202Y-108059448D01*
X145354290Y-108065017D01*
X145350635Y-108135050D01*
X145309191Y-108192695D01*
X145243161Y-108218783D01*
X145231753Y-108219300D01*
X144770903Y-108219300D01*
X144702782Y-108199298D01*
X144656289Y-108145642D01*
X144652921Y-108137529D01*
X144631443Y-108080236D01*
X144622071Y-108055236D01*
X144616691Y-108048057D01*
X144616689Y-108048054D01*
X144540785Y-107946776D01*
X144535404Y-107939596D01*
X144497729Y-107911360D01*
X144426946Y-107858311D01*
X144426943Y-107858309D01*
X144419764Y-107852929D01*
X144302886Y-107809114D01*
X144291843Y-107804974D01*
X144291841Y-107804974D01*
X144284448Y-107802202D01*
X144276598Y-107801349D01*
X144276597Y-107801349D01*
X144226153Y-107795869D01*
X144226152Y-107795869D01*
X144222756Y-107795500D01*
X143177244Y-107795500D01*
X143173848Y-107795869D01*
X143173847Y-107795869D01*
X143123403Y-107801349D01*
X143123402Y-107801349D01*
X143115552Y-107802202D01*
X143108159Y-107804974D01*
X143108157Y-107804974D01*
X143097114Y-107809114D01*
X142980236Y-107852929D01*
X142973057Y-107858309D01*
X142973054Y-107858311D01*
X142902271Y-107911360D01*
X142864596Y-107939596D01*
X142859215Y-107946776D01*
X142783311Y-108048054D01*
X142783309Y-108048057D01*
X142777929Y-108055236D01*
X142768557Y-108080236D01*
X142747079Y-108137529D01*
X142704438Y-108194294D01*
X142637876Y-108218994D01*
X142629097Y-108219300D01*
X142570903Y-108219300D01*
X142502782Y-108199298D01*
X142456289Y-108145642D01*
X142452921Y-108137529D01*
X142431443Y-108080236D01*
X142422071Y-108055236D01*
X142416691Y-108048057D01*
X142416689Y-108048054D01*
X142340785Y-107946776D01*
X142335404Y-107939596D01*
X142297729Y-107911360D01*
X142226946Y-107858311D01*
X142226943Y-107858309D01*
X142219764Y-107852929D01*
X142102886Y-107809114D01*
X142091843Y-107804974D01*
X142091841Y-107804974D01*
X142084448Y-107802202D01*
X142076598Y-107801349D01*
X142076597Y-107801349D01*
X142026153Y-107795869D01*
X142026152Y-107795869D01*
X142022756Y-107795500D01*
X140977244Y-107795500D01*
X140973848Y-107795869D01*
X140973847Y-107795869D01*
X140923403Y-107801349D01*
X140923402Y-107801349D01*
X140915552Y-107802202D01*
X140908159Y-107804974D01*
X140908157Y-107804974D01*
X140897114Y-107809114D01*
X140780236Y-107852929D01*
X140773057Y-107858309D01*
X140773054Y-107858311D01*
X140702271Y-107911360D01*
X140664596Y-107939596D01*
X140659215Y-107946776D01*
X140583311Y-108048054D01*
X140583309Y-108048057D01*
X140577929Y-108055236D01*
X140547079Y-108137529D01*
X140533858Y-108172798D01*
X140527202Y-108190552D01*
X140526349Y-108198402D01*
X140526349Y-108198403D01*
X140521520Y-108242852D01*
X140520500Y-108252244D01*
X140520500Y-108847756D01*
X140527202Y-108909448D01*
X140538445Y-108939439D01*
X140543628Y-109010244D01*
X140509558Y-109072762D01*
X140434082Y-109148238D01*
X140371770Y-109182264D01*
X140300955Y-109177199D01*
X140244119Y-109134652D01*
X140219308Y-109068132D01*
X140227005Y-109014914D01*
X140245026Y-108966843D01*
X140245026Y-108966841D01*
X140247798Y-108959448D01*
X140254500Y-108897756D01*
X140254500Y-108277244D01*
X140247798Y-108215552D01*
X140239230Y-108192695D01*
X140226469Y-108158656D01*
X140197071Y-108080236D01*
X140191691Y-108073057D01*
X140191689Y-108073054D01*
X140115785Y-107971776D01*
X140110404Y-107964596D01*
X140077269Y-107939763D01*
X140001946Y-107883311D01*
X140001943Y-107883309D01*
X139994764Y-107877929D01*
X139867851Y-107830352D01*
X139866843Y-107829974D01*
X139866841Y-107829974D01*
X139859448Y-107827202D01*
X139851598Y-107826349D01*
X139851597Y-107826349D01*
X139801153Y-107820869D01*
X139801152Y-107820869D01*
X139797756Y-107820500D01*
X139756700Y-107820500D01*
X139688579Y-107800498D01*
X139642086Y-107746842D01*
X139630700Y-107694500D01*
X139630700Y-107019949D01*
X139631179Y-107008968D01*
X139633564Y-106981709D01*
X139633564Y-106981708D01*
X139634524Y-106970733D01*
X139624591Y-106933661D01*
X139622215Y-106922943D01*
X139617465Y-106896003D01*
X139617465Y-106896002D01*
X139615551Y-106885149D01*
X139610040Y-106875604D01*
X139608769Y-106872111D01*
X139607194Y-106868733D01*
X139604340Y-106858084D01*
X139598016Y-106849053D01*
X139598015Y-106849050D01*
X139582327Y-106826645D01*
X139576422Y-106817376D01*
X139575376Y-106815564D01*
X139557239Y-106784151D01*
X139548796Y-106777067D01*
X139548794Y-106777064D01*
X139527836Y-106759478D01*
X139519732Y-106752052D01*
X139385575Y-106617895D01*
X140271801Y-106617895D01*
X140272138Y-106624414D01*
X140282057Y-106720006D01*
X140284949Y-106733400D01*
X140336388Y-106887584D01*
X140342561Y-106900762D01*
X140427863Y-107038607D01*
X140436899Y-107050008D01*
X140551629Y-107164539D01*
X140563040Y-107173551D01*
X140701043Y-107258616D01*
X140714224Y-107264763D01*
X140868510Y-107315938D01*
X140881886Y-107318805D01*
X140976238Y-107328472D01*
X140982654Y-107328800D01*
X141007685Y-107328800D01*
X141022924Y-107324325D01*
X141024129Y-107322935D01*
X141025800Y-107315252D01*
X141025800Y-106367915D01*
X141021325Y-106352676D01*
X141019935Y-106351471D01*
X141012252Y-106349800D01*
X140289916Y-106349800D01*
X140274677Y-106354275D01*
X140273472Y-106355665D01*
X140271801Y-106363348D01*
X140271801Y-106617895D01*
X139385575Y-106617895D01*
X139370246Y-106602566D01*
X139336220Y-106540254D01*
X139341358Y-106469244D01*
X139345109Y-106459238D01*
X139345110Y-106459234D01*
X139347881Y-106451842D01*
X139352621Y-106408216D01*
X139354131Y-106394312D01*
X139354131Y-106394311D01*
X139354500Y-106390915D01*
X139354499Y-105823685D01*
X140271800Y-105823685D01*
X140276275Y-105838924D01*
X140277665Y-105840129D01*
X140285348Y-105841800D01*
X141007685Y-105841800D01*
X141022924Y-105837325D01*
X141024129Y-105835935D01*
X141025800Y-105828252D01*
X141025800Y-104335915D01*
X141021325Y-104320676D01*
X141019935Y-104319471D01*
X141012252Y-104317800D01*
X140289916Y-104317800D01*
X140274677Y-104322275D01*
X140273472Y-104323665D01*
X140271801Y-104331348D01*
X140271801Y-104585895D01*
X140272138Y-104592414D01*
X140282057Y-104688006D01*
X140284949Y-104701400D01*
X140336388Y-104855584D01*
X140342561Y-104868762D01*
X140431717Y-105012835D01*
X140429086Y-105014463D01*
X140450496Y-105067382D01*
X140437315Y-105137144D01*
X140430592Y-105147625D01*
X140430890Y-105147809D01*
X140341984Y-105292043D01*
X140335837Y-105305224D01*
X140284662Y-105459510D01*
X140281795Y-105472886D01*
X140272128Y-105567238D01*
X140271800Y-105573655D01*
X140271800Y-105823685D01*
X139354499Y-105823685D01*
X139354499Y-105809086D01*
X139351254Y-105779208D01*
X139348735Y-105756017D01*
X139348734Y-105756011D01*
X139347881Y-105748158D01*
X139342098Y-105732730D01*
X139300935Y-105622926D01*
X139297783Y-105614518D01*
X139285021Y-105597489D01*
X139217571Y-105507492D01*
X139212189Y-105500311D01*
X139097982Y-105414717D01*
X139089572Y-105411564D01*
X139083918Y-105408469D01*
X139033770Y-105358212D01*
X139018754Y-105288822D01*
X139043637Y-105222328D01*
X139104546Y-105178424D01*
X139170360Y-105156466D01*
X139183543Y-105150290D01*
X139320149Y-105065756D01*
X139331550Y-105056720D01*
X139445051Y-104943021D01*
X139454063Y-104931610D01*
X139538365Y-104794846D01*
X139544509Y-104781668D01*
X139595227Y-104628760D01*
X139598093Y-104615394D01*
X139607672Y-104521899D01*
X139608000Y-104515484D01*
X139608000Y-104497115D01*
X139603525Y-104481876D01*
X139602135Y-104480671D01*
X139594452Y-104479000D01*
X137210116Y-104479000D01*
X137194877Y-104483475D01*
X137193672Y-104484865D01*
X137192001Y-104492548D01*
X137192001Y-104515433D01*
X137192338Y-104521952D01*
X137202166Y-104616670D01*
X137205058Y-104630064D01*
X137256036Y-104782865D01*
X137262210Y-104796043D01*
X137346744Y-104932649D01*
X137355780Y-104944050D01*
X137469479Y-105057551D01*
X137480890Y-105066563D01*
X137617654Y-105150865D01*
X137630831Y-105157009D01*
X137695221Y-105178366D01*
X137753581Y-105218796D01*
X137780818Y-105284360D01*
X137768285Y-105354242D01*
X137716061Y-105408480D01*
X137710425Y-105411565D01*
X137702018Y-105414717D01*
X137694835Y-105420101D01*
X137694834Y-105420101D01*
X137608977Y-105484448D01*
X137587811Y-105500311D01*
X137582429Y-105507492D01*
X137514980Y-105597489D01*
X137502217Y-105614518D01*
X137499065Y-105622926D01*
X137457903Y-105732730D01*
X137452119Y-105748158D01*
X137445500Y-105809085D01*
X137445501Y-106390914D01*
X137445870Y-106394308D01*
X137445870Y-106394314D01*
X137447512Y-106409426D01*
X137452119Y-106451842D01*
X137454892Y-106459238D01*
X137454894Y-106459245D01*
X137470172Y-106500000D01*
X137502217Y-106585482D01*
X137507601Y-106592665D01*
X137507601Y-106592666D01*
X137566599Y-106671386D01*
X137587811Y-106699689D01*
X137594992Y-106705071D01*
X137688314Y-106775012D01*
X137702018Y-106785283D01*
X137710426Y-106788435D01*
X137828260Y-106832608D01*
X137828262Y-106832609D01*
X137835658Y-106835381D01*
X137896585Y-106842000D01*
X137944376Y-106842000D01*
X138622129Y-106841999D01*
X138690250Y-106862001D01*
X138711224Y-106878904D01*
X138932395Y-107100075D01*
X138966421Y-107162387D01*
X138969300Y-107189170D01*
X138969300Y-107694500D01*
X138949298Y-107762621D01*
X138895642Y-107809114D01*
X138843300Y-107820500D01*
X138802244Y-107820500D01*
X138798848Y-107820869D01*
X138798847Y-107820869D01*
X138748403Y-107826349D01*
X138748402Y-107826349D01*
X138740552Y-107827202D01*
X138733159Y-107829974D01*
X138733157Y-107829974D01*
X138732149Y-107830352D01*
X138605236Y-107877929D01*
X138598057Y-107883309D01*
X138598054Y-107883311D01*
X138522731Y-107939763D01*
X138489596Y-107964596D01*
X138484215Y-107971776D01*
X138408311Y-108073054D01*
X138408309Y-108073057D01*
X138402929Y-108080236D01*
X138373531Y-108158656D01*
X138360771Y-108192695D01*
X138352202Y-108215552D01*
X138345500Y-108277244D01*
X138345500Y-108897756D01*
X138352202Y-108959448D01*
X138354974Y-108966841D01*
X138354974Y-108966843D01*
X138358530Y-108976329D01*
X138402929Y-109094764D01*
X138408309Y-109101943D01*
X138408311Y-109101946D01*
X138432823Y-109134652D01*
X138489596Y-109210404D01*
X138496776Y-109215785D01*
X138598054Y-109291689D01*
X138598057Y-109291691D01*
X138605236Y-109297071D01*
X138685086Y-109327005D01*
X138733157Y-109345026D01*
X138733159Y-109345026D01*
X138740552Y-109347798D01*
X138748402Y-109348651D01*
X138748403Y-109348651D01*
X138798847Y-109354131D01*
X138802244Y-109354500D01*
X139797756Y-109354500D01*
X139801153Y-109354131D01*
X139851597Y-109348651D01*
X139851598Y-109348651D01*
X139859448Y-109347798D01*
X139866841Y-109345026D01*
X139866843Y-109345026D01*
X139914914Y-109327005D01*
X139985721Y-109321822D01*
X140048090Y-109355743D01*
X140082219Y-109417999D01*
X140077272Y-109488823D01*
X140048238Y-109534082D01*
X139965492Y-109616828D01*
X139903180Y-109650854D01*
X139859640Y-109650437D01*
X139859448Y-109652202D01*
X139801153Y-109645869D01*
X139801152Y-109645869D01*
X139797756Y-109645500D01*
X138802244Y-109645500D01*
X138798848Y-109645869D01*
X138798847Y-109645869D01*
X138748403Y-109651349D01*
X138748402Y-109651349D01*
X138740552Y-109652202D01*
X138733159Y-109654974D01*
X138733157Y-109654974D01*
X138709155Y-109663972D01*
X138605236Y-109702929D01*
X138598057Y-109708309D01*
X138598054Y-109708311D01*
X138540642Y-109751339D01*
X138489596Y-109789596D01*
X138484215Y-109796776D01*
X138408311Y-109898054D01*
X138408309Y-109898057D01*
X138402929Y-109905236D01*
X138352202Y-110040552D01*
X138345500Y-110102244D01*
X138345500Y-110722756D01*
X138352202Y-110784448D01*
X138354972Y-110791836D01*
X138354974Y-110791843D01*
X138356405Y-110795660D01*
X138402929Y-110919764D01*
X138408309Y-110926943D01*
X138408311Y-110926946D01*
X138463890Y-111001104D01*
X138489596Y-111035404D01*
X138496775Y-111040784D01*
X138496776Y-111040785D01*
X138598054Y-111116689D01*
X138598057Y-111116691D01*
X138605236Y-111122071D01*
X138694954Y-111155704D01*
X138733157Y-111170026D01*
X138733159Y-111170026D01*
X138740552Y-111172798D01*
X138748402Y-111173651D01*
X138748403Y-111173651D01*
X138798847Y-111179131D01*
X138802244Y-111179500D01*
X139213100Y-111179500D01*
X139281221Y-111199502D01*
X139327714Y-111253158D01*
X139339100Y-111305500D01*
X139339100Y-113182636D01*
X139319098Y-113250757D01*
X139265442Y-113297250D01*
X139256714Y-113300847D01*
X139192263Y-113324624D01*
X139017810Y-113428412D01*
X139013470Y-113432218D01*
X139013466Y-113432221D01*
X138993523Y-113449711D01*
X138865192Y-113562255D01*
X138739520Y-113721669D01*
X138736831Y-113726780D01*
X138736829Y-113726783D01*
X138725307Y-113748683D01*
X138645003Y-113901315D01*
X138584807Y-114095178D01*
X138560948Y-114296764D01*
X138574224Y-114499322D01*
X138575645Y-114504918D01*
X138575646Y-114504923D01*
X138622771Y-114690474D01*
X138624192Y-114696069D01*
X138626609Y-114701312D01*
X138663810Y-114782008D01*
X138709177Y-114880416D01*
X138712510Y-114885132D01*
X138760526Y-114953073D01*
X138826333Y-115046189D01*
X138830475Y-115050224D01*
X138881311Y-115099746D01*
X138916149Y-115161607D01*
X138912012Y-115232483D01*
X138870213Y-115289871D01*
X138804023Y-115315551D01*
X138793390Y-115316000D01*
X137197425Y-115316000D01*
X137172847Y-115313579D01*
X137160000Y-115311024D01*
X137147828Y-115313445D01*
X137136301Y-115313445D01*
X137125320Y-115312966D01*
X137103122Y-115311024D01*
X136994551Y-115301525D01*
X136972930Y-115297713D01*
X136823152Y-115257580D01*
X136802516Y-115250069D01*
X136661990Y-115184540D01*
X136642970Y-115173558D01*
X136515954Y-115084621D01*
X136499129Y-115070503D01*
X136389497Y-114960871D01*
X136375379Y-114944046D01*
X136286442Y-114817030D01*
X136275460Y-114798010D01*
X136209931Y-114657484D01*
X136202419Y-114636846D01*
X136189924Y-114590214D01*
X136162287Y-114487070D01*
X136158474Y-114465446D01*
X136147034Y-114334680D01*
X136146555Y-114323699D01*
X136146555Y-114312172D01*
X136148976Y-114300000D01*
X136146421Y-114287153D01*
X136144000Y-114262575D01*
X136144000Y-103952885D01*
X137192000Y-103952885D01*
X137196475Y-103968124D01*
X137197865Y-103969329D01*
X137205548Y-103971000D01*
X138127885Y-103971000D01*
X138143124Y-103966525D01*
X138144329Y-103965135D01*
X138146000Y-103957452D01*
X138146000Y-103952885D01*
X138654000Y-103952885D01*
X138658475Y-103968124D01*
X138659865Y-103969329D01*
X138667548Y-103971000D01*
X139589884Y-103971000D01*
X139605123Y-103966525D01*
X139606328Y-103965135D01*
X139607999Y-103957452D01*
X139607999Y-103934567D01*
X139607662Y-103928048D01*
X139597834Y-103833330D01*
X139594942Y-103819936D01*
X139543964Y-103667135D01*
X139537790Y-103653957D01*
X139453256Y-103517351D01*
X139444220Y-103505950D01*
X139330521Y-103392449D01*
X139319110Y-103383437D01*
X139182346Y-103299135D01*
X139169168Y-103292991D01*
X139016260Y-103242273D01*
X139002894Y-103239407D01*
X138909399Y-103229828D01*
X138902984Y-103229500D01*
X138672115Y-103229500D01*
X138656876Y-103233975D01*
X138655671Y-103235365D01*
X138654000Y-103243048D01*
X138654000Y-103952885D01*
X138146000Y-103952885D01*
X138146000Y-103247616D01*
X138141525Y-103232377D01*
X138140135Y-103231172D01*
X138132452Y-103229501D01*
X137897067Y-103229501D01*
X137890548Y-103229838D01*
X137795830Y-103239666D01*
X137782436Y-103242558D01*
X137629635Y-103293536D01*
X137616457Y-103299710D01*
X137479851Y-103384244D01*
X137468450Y-103393280D01*
X137354949Y-103506979D01*
X137345937Y-103518390D01*
X137261635Y-103655154D01*
X137255491Y-103668332D01*
X137204773Y-103821240D01*
X137201907Y-103834606D01*
X137192328Y-103928101D01*
X137192000Y-103934516D01*
X137192000Y-103952885D01*
X136144000Y-103952885D01*
X136144000Y-100330000D01*
X136820539Y-100330000D01*
X136840354Y-100581775D01*
X136841508Y-100586582D01*
X136841509Y-100586588D01*
X136878613Y-100741135D01*
X136899312Y-100827351D01*
X136901205Y-100831922D01*
X136901206Y-100831924D01*
X136989940Y-101046146D01*
X136995960Y-101060680D01*
X136998546Y-101064900D01*
X137008577Y-101081269D01*
X137127919Y-101276017D01*
X137291939Y-101468061D01*
X137483983Y-101632081D01*
X137699320Y-101764040D01*
X137703890Y-101765933D01*
X137703894Y-101765935D01*
X137921693Y-101856150D01*
X137932649Y-101860688D01*
X138018865Y-101881387D01*
X138173412Y-101918491D01*
X138173418Y-101918492D01*
X138178225Y-101919646D01*
X138266253Y-101926574D01*
X138364507Y-101934307D01*
X138364516Y-101934307D01*
X138366964Y-101934500D01*
X138493036Y-101934500D01*
X138495484Y-101934307D01*
X138495493Y-101934307D01*
X138593747Y-101926574D01*
X138681775Y-101919646D01*
X138686582Y-101918492D01*
X138686588Y-101918491D01*
X138841135Y-101881387D01*
X138927351Y-101860688D01*
X138938307Y-101856150D01*
X139156106Y-101765935D01*
X139156110Y-101765933D01*
X139160680Y-101764040D01*
X139376017Y-101632081D01*
X139568061Y-101468061D01*
X139732081Y-101276017D01*
X139851423Y-101081269D01*
X139861454Y-101064900D01*
X139864040Y-101060680D01*
X139870061Y-101046146D01*
X139958794Y-100831924D01*
X139958795Y-100831922D01*
X139960688Y-100827351D01*
X139981387Y-100741135D01*
X140018491Y-100586588D01*
X140018492Y-100586582D01*
X140019646Y-100581775D01*
X140039461Y-100330000D01*
X140019646Y-100078225D01*
X140018492Y-100073418D01*
X140018491Y-100073412D01*
X139963576Y-99844680D01*
X139960688Y-99832649D01*
X139943776Y-99791819D01*
X139865935Y-99603894D01*
X139865933Y-99603890D01*
X139864040Y-99599320D01*
X139732081Y-99383983D01*
X139568061Y-99191939D01*
X139376017Y-99027919D01*
X139160680Y-98895960D01*
X139156110Y-98894067D01*
X139156106Y-98894065D01*
X138931924Y-98801206D01*
X138931922Y-98801205D01*
X138927351Y-98799312D01*
X138841135Y-98778613D01*
X138686588Y-98741509D01*
X138686582Y-98741508D01*
X138681775Y-98740354D01*
X138593747Y-98733426D01*
X138495493Y-98725693D01*
X138495484Y-98725693D01*
X138493036Y-98725500D01*
X138366964Y-98725500D01*
X138364516Y-98725693D01*
X138364507Y-98725693D01*
X138266253Y-98733426D01*
X138178225Y-98740354D01*
X138173418Y-98741508D01*
X138173412Y-98741509D01*
X138018865Y-98778613D01*
X137932649Y-98799312D01*
X137928078Y-98801205D01*
X137928076Y-98801206D01*
X137703894Y-98894065D01*
X137703890Y-98894067D01*
X137699320Y-98895960D01*
X137483983Y-99027919D01*
X137291939Y-99191939D01*
X137127919Y-99383983D01*
X136995960Y-99599320D01*
X136994067Y-99603890D01*
X136994065Y-99603894D01*
X136916224Y-99791819D01*
X136899312Y-99832649D01*
X136896424Y-99844680D01*
X136841509Y-100073412D01*
X136841508Y-100073418D01*
X136840354Y-100078225D01*
X136820539Y-100330000D01*
X136144000Y-100330000D01*
X136144000Y-99097425D01*
X136146421Y-99072844D01*
X136146555Y-99072170D01*
X136148976Y-99060000D01*
X136146555Y-99047828D01*
X136146555Y-99036301D01*
X136147034Y-99025320D01*
X136158474Y-98894554D01*
X136162287Y-98872930D01*
X136202420Y-98723152D01*
X136209931Y-98702516D01*
X136275460Y-98561990D01*
X136286442Y-98542970D01*
X136375379Y-98415954D01*
X136389497Y-98399129D01*
X136499129Y-98289497D01*
X136515954Y-98275379D01*
X136642970Y-98186442D01*
X136661990Y-98175460D01*
X136802516Y-98109931D01*
X136823152Y-98102420D01*
X136972930Y-98062287D01*
X136994551Y-98058475D01*
X137125319Y-98047034D01*
X137136301Y-98046555D01*
X137147828Y-98046555D01*
X137160000Y-98048976D01*
X137172847Y-98046421D01*
X137197425Y-98044000D01*
X141068234Y-98044000D01*
X141136355Y-98064002D01*
G37*
G04 #@! TD.AperFunction*
G04 #@! TA.AperFunction,Conductor*
G36*
X149137621Y-108682502D02*
G01*
X149184114Y-108736158D01*
X149195500Y-108788500D01*
X149195500Y-109533602D01*
X149196170Y-109538151D01*
X149196170Y-109538156D01*
X149198657Y-109555048D01*
X149200000Y-109573398D01*
X149200000Y-110081965D01*
X149204044Y-110095736D01*
X149217583Y-110097765D01*
X149250533Y-110093428D01*
X149266348Y-110089190D01*
X149398993Y-110034247D01*
X149413176Y-110026059D01*
X149527080Y-109938656D01*
X149538653Y-109927083D01*
X149556523Y-109903795D01*
X149613862Y-109861928D01*
X149656485Y-109854500D01*
X149783602Y-109854500D01*
X149788153Y-109853830D01*
X149788167Y-109853829D01*
X149824948Y-109848414D01*
X149895256Y-109858281D01*
X149949068Y-109904593D01*
X149969300Y-109973070D01*
X149969300Y-110610828D01*
X149949298Y-110678949D01*
X149932396Y-110699923D01*
X149849925Y-110782395D01*
X149787613Y-110816420D01*
X149760829Y-110819300D01*
X145969949Y-110819300D01*
X145958968Y-110818821D01*
X145931709Y-110816436D01*
X145931708Y-110816436D01*
X145920733Y-110815476D01*
X145883661Y-110825409D01*
X145872947Y-110827784D01*
X145857100Y-110830578D01*
X145846003Y-110832535D01*
X145846002Y-110832535D01*
X145835149Y-110834449D01*
X145825604Y-110839960D01*
X145822111Y-110841231D01*
X145818733Y-110842806D01*
X145808084Y-110845660D01*
X145799053Y-110851984D01*
X145799050Y-110851985D01*
X145776645Y-110867673D01*
X145767375Y-110873578D01*
X145734151Y-110892761D01*
X145727067Y-110901204D01*
X145727064Y-110901206D01*
X145709478Y-110922164D01*
X145702052Y-110930268D01*
X144530068Y-112102252D01*
X144521964Y-112109678D01*
X144501006Y-112127264D01*
X144501004Y-112127267D01*
X144492561Y-112134351D01*
X144474182Y-112166183D01*
X144473378Y-112167576D01*
X144467473Y-112176845D01*
X144451785Y-112199250D01*
X144451784Y-112199253D01*
X144445460Y-112208284D01*
X144442606Y-112218933D01*
X144441031Y-112222311D01*
X144439760Y-112225804D01*
X144434249Y-112235349D01*
X144432335Y-112246202D01*
X144432335Y-112246203D01*
X144427585Y-112273143D01*
X144425209Y-112283861D01*
X144415276Y-112320933D01*
X144416236Y-112331908D01*
X144416236Y-112331909D01*
X144418621Y-112359168D01*
X144419100Y-112370149D01*
X144419100Y-113182636D01*
X144399098Y-113250757D01*
X144345442Y-113297250D01*
X144336714Y-113300847D01*
X144272263Y-113324624D01*
X144097810Y-113428412D01*
X144093470Y-113432218D01*
X144093466Y-113432221D01*
X144073523Y-113449711D01*
X143945192Y-113562255D01*
X143819520Y-113721669D01*
X143816831Y-113726780D01*
X143816829Y-113726783D01*
X143805307Y-113748683D01*
X143755887Y-113799656D01*
X143686755Y-113815818D01*
X143619859Y-113792039D01*
X143576438Y-113735868D01*
X143567799Y-113690015D01*
X143567799Y-113431131D01*
X143567429Y-113424310D01*
X143561905Y-113373448D01*
X143558279Y-113358196D01*
X143513124Y-113237746D01*
X143504586Y-113222151D01*
X143428085Y-113120076D01*
X143415524Y-113107515D01*
X143313449Y-113031014D01*
X143297854Y-113022476D01*
X143177406Y-112977322D01*
X143162151Y-112973695D01*
X143111286Y-112968169D01*
X143104472Y-112967800D01*
X142481915Y-112967800D01*
X142466676Y-112972275D01*
X142465471Y-112973665D01*
X142463800Y-112981348D01*
X142463800Y-114453800D01*
X142443798Y-114521921D01*
X142390142Y-114568414D01*
X142337800Y-114579800D01*
X142081800Y-114579800D01*
X142013679Y-114559798D01*
X141967186Y-114506142D01*
X141955800Y-114453800D01*
X141955800Y-112985916D01*
X141951325Y-112970677D01*
X141949935Y-112969472D01*
X141942252Y-112967801D01*
X141315131Y-112967801D01*
X141308310Y-112968171D01*
X141257448Y-112973695D01*
X141242196Y-112977321D01*
X141121746Y-113022476D01*
X141106151Y-113031014D01*
X141004076Y-113107515D01*
X140991515Y-113120076D01*
X140915014Y-113222151D01*
X140906476Y-113237746D01*
X140861322Y-113358194D01*
X140857695Y-113373449D01*
X140852169Y-113424314D01*
X140851800Y-113431128D01*
X140851800Y-113685960D01*
X140831798Y-113754081D01*
X140778142Y-113800574D01*
X140707868Y-113810678D01*
X140643288Y-113781184D01*
X140618367Y-113751794D01*
X140618131Y-113751408D01*
X140615576Y-113746228D01*
X140494120Y-113583579D01*
X140345058Y-113445787D01*
X140340175Y-113442706D01*
X140340171Y-113442703D01*
X140178264Y-113340548D01*
X140173381Y-113337467D01*
X140168017Y-113335327D01*
X140079809Y-113300135D01*
X140023950Y-113256314D01*
X140000500Y-113183105D01*
X140000500Y-111180799D01*
X140020502Y-111112678D01*
X140050934Y-111079974D01*
X140110404Y-111035404D01*
X140126007Y-111014585D01*
X140182866Y-110972070D01*
X140253685Y-110967044D01*
X140315978Y-111001104D01*
X140333977Y-111023847D01*
X140423063Y-111167807D01*
X140432099Y-111179208D01*
X140546829Y-111293739D01*
X140558240Y-111302751D01*
X140696243Y-111387816D01*
X140709424Y-111393963D01*
X140863710Y-111445138D01*
X140877086Y-111448005D01*
X140971438Y-111457672D01*
X140977854Y-111458000D01*
X141227885Y-111458000D01*
X141243124Y-111453525D01*
X141244329Y-111452135D01*
X141246000Y-111444452D01*
X141246000Y-111439884D01*
X141754000Y-111439884D01*
X141758475Y-111455123D01*
X141759865Y-111456328D01*
X141767548Y-111457999D01*
X142022095Y-111457999D01*
X142028614Y-111457662D01*
X142124206Y-111447743D01*
X142137600Y-111444851D01*
X142291784Y-111393412D01*
X142304962Y-111387239D01*
X142442807Y-111301937D01*
X142454208Y-111292901D01*
X142510827Y-111236183D01*
X142573109Y-111202104D01*
X142643929Y-111207107D01*
X142689018Y-111236028D01*
X142746829Y-111293739D01*
X142758240Y-111302751D01*
X142896243Y-111387816D01*
X142909424Y-111393963D01*
X143063710Y-111445138D01*
X143077086Y-111448005D01*
X143171438Y-111457672D01*
X143177854Y-111458000D01*
X143427885Y-111458000D01*
X143443124Y-111453525D01*
X143444329Y-111452135D01*
X143446000Y-111444452D01*
X143446000Y-111439884D01*
X143954000Y-111439884D01*
X143958475Y-111455123D01*
X143959865Y-111456328D01*
X143967548Y-111457999D01*
X144222095Y-111457999D01*
X144228614Y-111457662D01*
X144324206Y-111447743D01*
X144337600Y-111444851D01*
X144491784Y-111393412D01*
X144504962Y-111387239D01*
X144642807Y-111301937D01*
X144654208Y-111292901D01*
X144768739Y-111178171D01*
X144777751Y-111166760D01*
X144862816Y-111028757D01*
X144868963Y-111015576D01*
X144920138Y-110861290D01*
X144923005Y-110847914D01*
X144932672Y-110753562D01*
X144933000Y-110747146D01*
X144933000Y-110722115D01*
X144928525Y-110706876D01*
X144927135Y-110705671D01*
X144919452Y-110704000D01*
X143972115Y-110704000D01*
X143956876Y-110708475D01*
X143955671Y-110709865D01*
X143954000Y-110717548D01*
X143954000Y-111439884D01*
X143446000Y-111439884D01*
X143446000Y-110722115D01*
X143441525Y-110706876D01*
X143440135Y-110705671D01*
X143432452Y-110704000D01*
X141772115Y-110704000D01*
X141756876Y-110708475D01*
X141755671Y-110709865D01*
X141754000Y-110717548D01*
X141754000Y-111439884D01*
X141246000Y-111439884D01*
X141246000Y-110322000D01*
X141266002Y-110253879D01*
X141319658Y-110207386D01*
X141372000Y-110196000D01*
X144914884Y-110196000D01*
X144930123Y-110191525D01*
X144931328Y-110190135D01*
X144932999Y-110182452D01*
X144932999Y-110152905D01*
X144932662Y-110146386D01*
X144922743Y-110050794D01*
X144919851Y-110037400D01*
X144868412Y-109883216D01*
X144862239Y-109870038D01*
X144776937Y-109732193D01*
X144767901Y-109720792D01*
X144653171Y-109606261D01*
X144641760Y-109597249D01*
X144503757Y-109512184D01*
X144490574Y-109506036D01*
X144424990Y-109484283D01*
X144366630Y-109443853D01*
X144339393Y-109378288D01*
X144351926Y-109308407D01*
X144404147Y-109254170D01*
X144411357Y-109250223D01*
X144419764Y-109247071D01*
X144464956Y-109213202D01*
X144528224Y-109165785D01*
X144535404Y-109160404D01*
X144555824Y-109133157D01*
X144616689Y-109051946D01*
X144616691Y-109051943D01*
X144622071Y-109044764D01*
X144652921Y-108962471D01*
X144695562Y-108905706D01*
X144762124Y-108881006D01*
X144770903Y-108880700D01*
X145148330Y-108880700D01*
X145216451Y-108900702D01*
X145237425Y-108917605D01*
X145324333Y-109004513D01*
X145358359Y-109066825D01*
X145354158Y-109124841D01*
X145356802Y-109125470D01*
X145354974Y-109133157D01*
X145352202Y-109140552D01*
X145351349Y-109148402D01*
X145351349Y-109148403D01*
X145345869Y-109198847D01*
X145345500Y-109202244D01*
X145345500Y-109822756D01*
X145345869Y-109826152D01*
X145345869Y-109826153D01*
X145351122Y-109874502D01*
X145352202Y-109884448D01*
X145354974Y-109891841D01*
X145354974Y-109891843D01*
X145359995Y-109905236D01*
X145402929Y-110019764D01*
X145489596Y-110135404D01*
X145496775Y-110140784D01*
X145496776Y-110140785D01*
X145598054Y-110216689D01*
X145598057Y-110216691D01*
X145605236Y-110222071D01*
X145681928Y-110250821D01*
X145733157Y-110270026D01*
X145733159Y-110270026D01*
X145740552Y-110272798D01*
X145748402Y-110273651D01*
X145748403Y-110273651D01*
X145798847Y-110279131D01*
X145802244Y-110279500D01*
X146797756Y-110279500D01*
X146801153Y-110279131D01*
X146851597Y-110273651D01*
X146851598Y-110273651D01*
X146859448Y-110272798D01*
X146866841Y-110270026D01*
X146866843Y-110270026D01*
X146918072Y-110250821D01*
X146994764Y-110222071D01*
X147001943Y-110216691D01*
X147001946Y-110216689D01*
X147103224Y-110140785D01*
X147103225Y-110140784D01*
X147110404Y-110135404D01*
X147197071Y-110019764D01*
X147240005Y-109905236D01*
X147245026Y-109891843D01*
X147245026Y-109891841D01*
X147247798Y-109884448D01*
X147248879Y-109874502D01*
X147254131Y-109826153D01*
X147254131Y-109826152D01*
X147254500Y-109822756D01*
X147254500Y-109319200D01*
X147274502Y-109251079D01*
X147328158Y-109204586D01*
X147380500Y-109193200D01*
X147769500Y-109193200D01*
X147837621Y-109213202D01*
X147884114Y-109266858D01*
X147895500Y-109319200D01*
X147895500Y-109533602D01*
X147896170Y-109538152D01*
X147896170Y-109538155D01*
X147904331Y-109593592D01*
X147905757Y-109603278D01*
X147910073Y-109612068D01*
X147953137Y-109699779D01*
X147957770Y-109709216D01*
X148041294Y-109792595D01*
X148147323Y-109844423D01*
X148174680Y-109848414D01*
X148211872Y-109853840D01*
X148211876Y-109853840D01*
X148216398Y-109854500D01*
X148343515Y-109854500D01*
X148411636Y-109874502D01*
X148443477Y-109903795D01*
X148461347Y-109927083D01*
X148472920Y-109938656D01*
X148586824Y-110026059D01*
X148601007Y-110034247D01*
X148733649Y-110089189D01*
X148749469Y-110093428D01*
X148782040Y-110097716D01*
X148796222Y-110095505D01*
X148800000Y-110082348D01*
X148800000Y-109573589D01*
X148801320Y-109555400D01*
X148803840Y-109538128D01*
X148803840Y-109538124D01*
X148804500Y-109533602D01*
X148804500Y-108788500D01*
X148824502Y-108720379D01*
X148878158Y-108673886D01*
X148930500Y-108662500D01*
X149069500Y-108662500D01*
X149137621Y-108682502D01*
G37*
G04 #@! TD.AperFunction*
G04 #@! TA.AperFunction,Conductor*
G36*
X153517532Y-105463202D02*
G01*
X153564025Y-105516858D01*
X153567393Y-105524971D01*
X153602929Y-105619764D01*
X153608309Y-105626943D01*
X153608311Y-105626946D01*
X153674287Y-105714977D01*
X153689596Y-105735404D01*
X153703956Y-105746166D01*
X153798054Y-105816689D01*
X153798057Y-105816691D01*
X153805236Y-105822071D01*
X153857864Y-105841800D01*
X153933157Y-105870026D01*
X153933159Y-105870026D01*
X153940552Y-105872798D01*
X153948402Y-105873651D01*
X153948403Y-105873651D01*
X153998267Y-105879068D01*
X154002244Y-105879500D01*
X154043300Y-105879500D01*
X154111421Y-105899502D01*
X154157914Y-105953158D01*
X154169300Y-106005500D01*
X154169300Y-106794500D01*
X154149298Y-106862621D01*
X154095642Y-106909114D01*
X154043300Y-106920500D01*
X154002244Y-106920500D01*
X153998848Y-106920869D01*
X153998847Y-106920869D01*
X153948403Y-106926349D01*
X153948402Y-106926349D01*
X153940552Y-106927202D01*
X153933159Y-106929974D01*
X153933157Y-106929974D01*
X153906053Y-106940135D01*
X153805236Y-106977929D01*
X153798057Y-106983309D01*
X153798054Y-106983311D01*
X153724273Y-107038607D01*
X153689596Y-107064596D01*
X153684215Y-107071776D01*
X153608311Y-107173054D01*
X153608309Y-107173057D01*
X153602929Y-107180236D01*
X153599779Y-107188640D01*
X153561102Y-107291812D01*
X153552202Y-107315552D01*
X153551349Y-107323402D01*
X153551349Y-107323403D01*
X153550798Y-107328472D01*
X153545500Y-107377244D01*
X153545500Y-107997756D01*
X153545869Y-108001152D01*
X153545869Y-108001153D01*
X153550175Y-108040785D01*
X153552202Y-108059448D01*
X153554974Y-108066841D01*
X153554974Y-108066843D01*
X153559995Y-108080236D01*
X153602929Y-108194764D01*
X153689596Y-108310404D01*
X153696776Y-108315785D01*
X153697696Y-108316705D01*
X153731722Y-108379017D01*
X153726657Y-108449832D01*
X153684110Y-108506668D01*
X153617590Y-108531479D01*
X153608601Y-108531800D01*
X152830500Y-108531800D01*
X152762379Y-108511798D01*
X152715886Y-108458142D01*
X152704500Y-108405800D01*
X152704500Y-108191398D01*
X152703759Y-108186360D01*
X152695669Y-108131408D01*
X152695669Y-108131407D01*
X152694243Y-108121722D01*
X152659813Y-108051597D01*
X152646820Y-108025132D01*
X152646819Y-108025130D01*
X152642230Y-108015784D01*
X152558706Y-107932405D01*
X152547545Y-107926949D01*
X152496839Y-107902164D01*
X152452677Y-107880577D01*
X152422355Y-107876153D01*
X152388128Y-107871160D01*
X152388124Y-107871160D01*
X152383602Y-107870500D01*
X152170750Y-107870500D01*
X152102629Y-107850498D01*
X152056136Y-107796842D01*
X152046032Y-107726568D01*
X152070787Y-107667797D01*
X152116799Y-107607832D01*
X152116801Y-107607828D01*
X152121828Y-107601277D01*
X152182023Y-107455953D01*
X152202555Y-107300000D01*
X152182023Y-107144047D01*
X152121828Y-106998723D01*
X152026071Y-106873929D01*
X151901278Y-106778172D01*
X151755953Y-106717977D01*
X151600000Y-106697445D01*
X151444047Y-106717977D01*
X151298723Y-106778172D01*
X151173929Y-106873929D01*
X151078172Y-106998723D01*
X151017977Y-107144047D01*
X150997445Y-107300000D01*
X151017977Y-107455953D01*
X151078172Y-107601277D01*
X151083199Y-107607828D01*
X151083201Y-107607832D01*
X151129213Y-107667797D01*
X151154813Y-107734017D01*
X151140548Y-107803566D01*
X151090946Y-107854362D01*
X151029250Y-107870500D01*
X150816398Y-107870500D01*
X150811848Y-107871170D01*
X150811845Y-107871170D01*
X150756408Y-107879331D01*
X150756407Y-107879331D01*
X150746722Y-107880757D01*
X150737930Y-107885074D01*
X150737929Y-107885074D01*
X150680560Y-107913240D01*
X150610597Y-107925308D01*
X150569697Y-107913337D01*
X150546839Y-107902164D01*
X150502677Y-107880577D01*
X150472355Y-107876153D01*
X150438128Y-107871160D01*
X150438124Y-107871160D01*
X150433602Y-107870500D01*
X150170750Y-107870500D01*
X150102629Y-107850498D01*
X150056136Y-107796842D01*
X150046032Y-107726568D01*
X150070787Y-107667797D01*
X150116799Y-107607832D01*
X150116801Y-107607828D01*
X150121828Y-107601277D01*
X150182023Y-107455953D01*
X150202555Y-107300000D01*
X150182023Y-107144047D01*
X150121828Y-106998723D01*
X150026071Y-106873929D01*
X149901278Y-106778172D01*
X149755953Y-106717977D01*
X149600000Y-106697445D01*
X149473085Y-106714154D01*
X149402936Y-106703215D01*
X149349837Y-106656087D01*
X149330647Y-106587733D01*
X149351458Y-106519855D01*
X149367543Y-106500137D01*
X149584370Y-106283311D01*
X150387576Y-105480105D01*
X150449888Y-105446079D01*
X150476671Y-105443200D01*
X153449411Y-105443200D01*
X153517532Y-105463202D01*
G37*
G04 #@! TD.AperFunction*
G04 #@! TA.AperFunction,Conductor*
G36*
X151646027Y-98064002D02*
G01*
X151692520Y-98117658D01*
X151702624Y-98187932D01*
X151673130Y-98252512D01*
X151660984Y-98264732D01*
X151641637Y-98281699D01*
X151595392Y-98322255D01*
X151469720Y-98481669D01*
X151467031Y-98486780D01*
X151467029Y-98486783D01*
X151454073Y-98511409D01*
X151375203Y-98661315D01*
X151315007Y-98855178D01*
X151291148Y-99056764D01*
X151304424Y-99259322D01*
X151305845Y-99264918D01*
X151305846Y-99264923D01*
X151326119Y-99344745D01*
X151354392Y-99456069D01*
X151356809Y-99461312D01*
X151422540Y-99603894D01*
X151439377Y-99640416D01*
X151442710Y-99645132D01*
X151540131Y-99782980D01*
X151556533Y-99806189D01*
X151701938Y-99947835D01*
X151870720Y-100060612D01*
X151876023Y-100062890D01*
X151876026Y-100062892D01*
X151993038Y-100113164D01*
X152047731Y-100158432D01*
X152069300Y-100228932D01*
X152069300Y-100946800D01*
X152049298Y-101014921D01*
X152032395Y-101035895D01*
X150959694Y-102108595D01*
X150897382Y-102142621D01*
X150870599Y-102145500D01*
X150816398Y-102145500D01*
X150811847Y-102146170D01*
X150811833Y-102146171D01*
X150775052Y-102151586D01*
X150704744Y-102141719D01*
X150650932Y-102095407D01*
X150630700Y-102026930D01*
X150630700Y-99932101D01*
X150650702Y-99863980D01*
X150659826Y-99851531D01*
X150770453Y-99718518D01*
X150770455Y-99718515D01*
X150774147Y-99714076D01*
X150835852Y-99603894D01*
X150870510Y-99542008D01*
X150870511Y-99542006D01*
X150873334Y-99536965D01*
X150875190Y-99531498D01*
X150875192Y-99531493D01*
X150936728Y-99350214D01*
X150936729Y-99350209D01*
X150938584Y-99344745D01*
X150939412Y-99339036D01*
X150939413Y-99339031D01*
X150967179Y-99147527D01*
X150967712Y-99143853D01*
X150969232Y-99085800D01*
X150952026Y-98898546D01*
X150951187Y-98889413D01*
X150951186Y-98889410D01*
X150950658Y-98883659D01*
X150947630Y-98872923D01*
X150897125Y-98693846D01*
X150897124Y-98693844D01*
X150895557Y-98688287D01*
X150884978Y-98666833D01*
X150808331Y-98511409D01*
X150805776Y-98506228D01*
X150684320Y-98343579D01*
X150610542Y-98275379D01*
X150596636Y-98262524D01*
X150560191Y-98201596D01*
X150562472Y-98130636D01*
X150602755Y-98072174D01*
X150668250Y-98044771D01*
X150682165Y-98044000D01*
X151577906Y-98044000D01*
X151646027Y-98064002D01*
G37*
G04 #@! TD.AperFunction*
G04 #@! TA.AperFunction,Conductor*
G36*
X149106027Y-98064002D02*
G01*
X149152520Y-98117658D01*
X149162624Y-98187932D01*
X149133130Y-98252512D01*
X149120984Y-98264732D01*
X149101637Y-98281699D01*
X149055392Y-98322255D01*
X148929720Y-98481669D01*
X148927031Y-98486780D01*
X148927029Y-98486783D01*
X148914073Y-98511409D01*
X148835203Y-98661315D01*
X148775007Y-98855178D01*
X148751148Y-99056764D01*
X148764424Y-99259322D01*
X148765845Y-99264918D01*
X148765846Y-99264923D01*
X148786119Y-99344745D01*
X148814392Y-99456069D01*
X148816809Y-99461312D01*
X148882540Y-99603894D01*
X148899377Y-99640416D01*
X148902710Y-99645132D01*
X149000131Y-99782980D01*
X149016533Y-99806189D01*
X149161938Y-99947835D01*
X149330720Y-100060612D01*
X149336023Y-100062890D01*
X149336026Y-100062892D01*
X149467283Y-100119284D01*
X149517228Y-100140742D01*
X149547890Y-100147680D01*
X149709579Y-100184267D01*
X149709584Y-100184268D01*
X149715216Y-100185542D01*
X149720987Y-100185769D01*
X149720989Y-100185769D01*
X149789934Y-100188478D01*
X149848247Y-100190769D01*
X149915530Y-100213430D01*
X149959880Y-100268870D01*
X149969300Y-100316672D01*
X149969300Y-101767055D01*
X149949298Y-101835176D01*
X149895642Y-101881669D01*
X149825368Y-101891773D01*
X149760788Y-101862279D01*
X149754205Y-101856150D01*
X148018486Y-100120432D01*
X147984461Y-100058120D01*
X147989525Y-99987305D01*
X148027012Y-99934463D01*
X148099908Y-99873836D01*
X148099913Y-99873831D01*
X148104345Y-99870145D01*
X148161463Y-99801469D01*
X148230453Y-99718518D01*
X148230455Y-99718515D01*
X148234147Y-99714076D01*
X148295852Y-99603894D01*
X148330510Y-99542008D01*
X148330511Y-99542006D01*
X148333334Y-99536965D01*
X148335190Y-99531498D01*
X148335192Y-99531493D01*
X148396728Y-99350214D01*
X148396729Y-99350209D01*
X148398584Y-99344745D01*
X148399412Y-99339036D01*
X148399413Y-99339031D01*
X148427179Y-99147527D01*
X148427712Y-99143853D01*
X148429232Y-99085800D01*
X148412026Y-98898546D01*
X148411187Y-98889413D01*
X148411186Y-98889410D01*
X148410658Y-98883659D01*
X148407630Y-98872923D01*
X148357125Y-98693846D01*
X148357124Y-98693844D01*
X148355557Y-98688287D01*
X148344978Y-98666833D01*
X148268331Y-98511409D01*
X148265776Y-98506228D01*
X148144320Y-98343579D01*
X148070542Y-98275379D01*
X148056636Y-98262524D01*
X148020191Y-98201596D01*
X148022472Y-98130636D01*
X148062755Y-98072174D01*
X148128250Y-98044771D01*
X148142165Y-98044000D01*
X149037906Y-98044000D01*
X149106027Y-98064002D01*
G37*
G04 #@! TD.AperFunction*
G04 #@! TA.AperFunction,Conductor*
G36*
X153783255Y-98064002D02*
G01*
X153829748Y-98117658D01*
X153838713Y-98194581D01*
X153835500Y-98210733D01*
X153835501Y-99960866D01*
X153840047Y-99983720D01*
X153846864Y-100017995D01*
X153850266Y-100035101D01*
X153857161Y-100045420D01*
X153857162Y-100045422D01*
X153897516Y-100105815D01*
X153906516Y-100119284D01*
X153990699Y-100175534D01*
X154064933Y-100190300D01*
X154483300Y-100190300D01*
X154551421Y-100210302D01*
X154597914Y-100263958D01*
X154609300Y-100316300D01*
X154609300Y-100989678D01*
X154608821Y-101000659D01*
X154606852Y-101023170D01*
X154605476Y-101038894D01*
X154615409Y-101075966D01*
X154617784Y-101086680D01*
X154624449Y-101124478D01*
X154629960Y-101134023D01*
X154631231Y-101137516D01*
X154632806Y-101140894D01*
X154635660Y-101151543D01*
X154641983Y-101160573D01*
X154649305Y-101171030D01*
X154671992Y-101238304D01*
X154654706Y-101307165D01*
X154602936Y-101355748D01*
X154546091Y-101369300D01*
X152844821Y-101369300D01*
X152776700Y-101349298D01*
X152730207Y-101295642D01*
X152720735Y-101221422D01*
X152722215Y-101213028D01*
X152724591Y-101202309D01*
X152734524Y-101165237D01*
X152731179Y-101127002D01*
X152730700Y-101116021D01*
X152730700Y-100230316D01*
X152750702Y-100162195D01*
X152804358Y-100115702D01*
X152816184Y-100111008D01*
X152851165Y-100099134D01*
X152879691Y-100083159D01*
X152925683Y-100057402D01*
X153028276Y-99999947D01*
X153043477Y-99987305D01*
X153179913Y-99873831D01*
X153184345Y-99870145D01*
X153241463Y-99801469D01*
X153310453Y-99718518D01*
X153310455Y-99718515D01*
X153314147Y-99714076D01*
X153375852Y-99603894D01*
X153410510Y-99542008D01*
X153410511Y-99542006D01*
X153413334Y-99536965D01*
X153415190Y-99531498D01*
X153415192Y-99531493D01*
X153476728Y-99350214D01*
X153476729Y-99350209D01*
X153478584Y-99344745D01*
X153479412Y-99339036D01*
X153479413Y-99339031D01*
X153507179Y-99147527D01*
X153507712Y-99143853D01*
X153509232Y-99085800D01*
X153492026Y-98898546D01*
X153491187Y-98889413D01*
X153491186Y-98889410D01*
X153490658Y-98883659D01*
X153487630Y-98872923D01*
X153437125Y-98693846D01*
X153437124Y-98693844D01*
X153435557Y-98688287D01*
X153424978Y-98666833D01*
X153348331Y-98511409D01*
X153345776Y-98506228D01*
X153224320Y-98343579D01*
X153150542Y-98275379D01*
X153136636Y-98262524D01*
X153100191Y-98201596D01*
X153102472Y-98130636D01*
X153142755Y-98072174D01*
X153208250Y-98044771D01*
X153222165Y-98044000D01*
X153715134Y-98044000D01*
X153783255Y-98064002D01*
G37*
G04 #@! TD.AperFunction*
G04 #@! TA.AperFunction,Conductor*
G36*
X146566027Y-98064002D02*
G01*
X146612520Y-98117658D01*
X146622624Y-98187932D01*
X146593130Y-98252512D01*
X146580984Y-98264732D01*
X146561637Y-98281699D01*
X146515392Y-98322255D01*
X146389720Y-98481669D01*
X146387031Y-98486780D01*
X146387029Y-98486783D01*
X146374073Y-98511409D01*
X146295203Y-98661315D01*
X146235007Y-98855178D01*
X146211148Y-99056764D01*
X146224424Y-99259322D01*
X146225845Y-99264918D01*
X146225846Y-99264923D01*
X146246119Y-99344745D01*
X146274392Y-99456069D01*
X146276809Y-99461312D01*
X146342540Y-99603894D01*
X146359377Y-99640416D01*
X146362710Y-99645132D01*
X146460131Y-99782980D01*
X146476533Y-99806189D01*
X146621938Y-99947835D01*
X146790720Y-100060612D01*
X146796023Y-100062890D01*
X146796026Y-100062892D01*
X146927283Y-100119284D01*
X146977228Y-100140742D01*
X147055406Y-100158432D01*
X147104818Y-100169613D01*
X147166104Y-100203410D01*
X148116900Y-101154207D01*
X148150924Y-101216517D01*
X148145859Y-101287333D01*
X148103312Y-101344168D01*
X148036792Y-101368979D01*
X148027803Y-101369300D01*
X143922202Y-101369300D01*
X143854081Y-101349298D01*
X143821376Y-101318865D01*
X143812608Y-101307165D01*
X143779969Y-101263616D01*
X143756473Y-101232265D01*
X143731625Y-101165759D01*
X143746678Y-101096376D01*
X143796852Y-101046146D01*
X143857299Y-101030700D01*
X144080051Y-101030700D01*
X144091032Y-101031179D01*
X144118291Y-101033564D01*
X144118292Y-101033564D01*
X144129267Y-101034524D01*
X144166339Y-101024591D01*
X144177053Y-101022216D01*
X144192900Y-101019422D01*
X144203997Y-101017465D01*
X144203998Y-101017465D01*
X144214851Y-101015551D01*
X144224396Y-101010040D01*
X144227889Y-101008769D01*
X144231267Y-101007194D01*
X144241916Y-101004340D01*
X144250947Y-100998016D01*
X144250950Y-100998015D01*
X144273355Y-100982327D01*
X144282624Y-100976422D01*
X144284017Y-100975618D01*
X144315849Y-100957239D01*
X144322933Y-100948796D01*
X144322936Y-100948794D01*
X144340522Y-100927836D01*
X144347948Y-100919732D01*
X144999732Y-100267948D01*
X145007836Y-100260522D01*
X145028794Y-100242936D01*
X145028796Y-100242933D01*
X145037239Y-100235849D01*
X145056422Y-100202624D01*
X145062327Y-100193355D01*
X145072571Y-100178725D01*
X145128028Y-100134396D01*
X145135283Y-100131682D01*
X145225694Y-100100992D01*
X145225702Y-100100989D01*
X145231165Y-100099134D01*
X145408276Y-99999947D01*
X145423477Y-99987305D01*
X145559913Y-99873831D01*
X145564345Y-99870145D01*
X145621463Y-99801469D01*
X145690453Y-99718518D01*
X145690455Y-99718515D01*
X145694147Y-99714076D01*
X145755852Y-99603894D01*
X145790510Y-99542008D01*
X145790511Y-99542006D01*
X145793334Y-99536965D01*
X145795190Y-99531498D01*
X145795192Y-99531493D01*
X145856728Y-99350214D01*
X145856729Y-99350209D01*
X145858584Y-99344745D01*
X145859412Y-99339036D01*
X145859413Y-99339031D01*
X145887179Y-99147527D01*
X145887712Y-99143853D01*
X145889232Y-99085800D01*
X145872026Y-98898546D01*
X145871187Y-98889413D01*
X145871186Y-98889410D01*
X145870658Y-98883659D01*
X145867630Y-98872923D01*
X145817125Y-98693846D01*
X145817124Y-98693844D01*
X145815557Y-98688287D01*
X145804978Y-98666833D01*
X145728331Y-98511409D01*
X145725776Y-98506228D01*
X145604320Y-98343579D01*
X145530542Y-98275379D01*
X145516636Y-98262524D01*
X145480191Y-98201596D01*
X145482472Y-98130636D01*
X145522755Y-98072174D01*
X145588250Y-98044771D01*
X145602165Y-98044000D01*
X146497906Y-98044000D01*
X146566027Y-98064002D01*
G37*
G04 #@! TD.AperFunction*
M02*
