G04 #@! TF.GenerationSoftware,KiCad,Pcbnew,(6.0.0-0)*
G04 #@! TF.CreationDate,2023-02-05T22:05:23-08:00*
G04 #@! TF.ProjectId,breakout,62726561-6b6f-4757-942e-6b696361645f,1.0.0*
G04 #@! TF.SameCoordinates,Original*
G04 #@! TF.FileFunction,Soldermask,Top*
G04 #@! TF.FilePolarity,Negative*
%FSLAX46Y46*%
G04 Gerber Fmt 4.6, Leading zero omitted, Abs format (unit mm)*
G04 Created by KiCad (PCBNEW (6.0.0-0)) date 2023-02-05 22:05:23*
%MOMM*%
%LPD*%
G01*
G04 APERTURE LIST*
G04 Aperture macros list*
%AMRoundRect*
0 Rectangle with rounded corners*
0 $1 Rounding radius*
0 $2 $3 $4 $5 $6 $7 $8 $9 X,Y pos of 4 corners*
0 Add a 4 corners polygon primitive as box body*
4,1,4,$2,$3,$4,$5,$6,$7,$8,$9,$2,$3,0*
0 Add four circle primitives for the rounded corners*
1,1,$1+$1,$2,$3*
1,1,$1+$1,$4,$5*
1,1,$1+$1,$6,$7*
1,1,$1+$1,$8,$9*
0 Add four rect primitives between the rounded corners*
20,1,$1+$1,$2,$3,$4,$5,0*
20,1,$1+$1,$4,$5,$6,$7,0*
20,1,$1+$1,$6,$7,$8,$9,0*
20,1,$1+$1,$8,$9,$2,$3,0*%
G04 Aperture macros list end*
%ADD10C,2.801600*%
%ADD11RoundRect,0.294550X-0.456250X0.243750X-0.456250X-0.243750X0.456250X-0.243750X0.456250X0.243750X0*%
%ADD12C,1.801600*%
%ADD13RoundRect,0.050800X0.850000X-0.850000X0.850000X0.850000X-0.850000X0.850000X-0.850000X-0.850000X0*%
%ADD14O,1.801600X1.801600*%
%ADD15RoundRect,0.300800X-0.250000X-0.475000X0.250000X-0.475000X0.250000X0.475000X-0.250000X0.475000X0*%
%ADD16RoundRect,0.300800X0.250000X0.475000X-0.250000X0.475000X-0.250000X-0.475000X0.250000X-0.475000X0*%
%ADD17RoundRect,0.294550X0.243750X0.456250X-0.243750X0.456250X-0.243750X-0.456250X0.243750X-0.456250X0*%
%ADD18RoundRect,0.150800X-0.637500X-0.100000X0.637500X-0.100000X0.637500X0.100000X-0.637500X0.100000X0*%
%ADD19RoundRect,0.300800X0.450000X-0.262500X0.450000X0.262500X-0.450000X0.262500X-0.450000X-0.262500X0*%
G04 APERTURE END LIST*
D10*
X158750000Y-100330000D03*
D11*
X138000000Y-104462500D03*
X138000000Y-106337500D03*
D12*
X139669800Y-114325800D03*
D13*
X142209800Y-114325800D03*
D14*
X144749800Y-114325800D03*
X147289800Y-114325800D03*
X149829800Y-114325800D03*
X152369800Y-114325800D03*
X154909800Y-114325800D03*
X157449800Y-114325800D03*
D15*
X157150000Y-107200000D03*
X159050000Y-107200000D03*
D16*
X143179800Y-104063800D03*
X141279800Y-104063800D03*
D10*
X138430000Y-100330000D03*
D17*
X159037500Y-105041000D03*
X157162500Y-105041000D03*
D15*
X141279800Y-111429800D03*
X143179800Y-111429800D03*
D18*
X146078300Y-103637800D03*
X146078300Y-104287800D03*
X146078300Y-104937800D03*
X146078300Y-105587800D03*
X146078300Y-106237800D03*
X146078300Y-106887800D03*
X146078300Y-107537800D03*
X151803300Y-107537800D03*
X151803300Y-106887800D03*
X151803300Y-106237800D03*
X151803300Y-105587800D03*
X151803300Y-104937800D03*
X151803300Y-104287800D03*
X151803300Y-103637800D03*
D17*
X143147300Y-102031800D03*
X141272300Y-102031800D03*
D19*
X138000000Y-109868500D03*
X138000000Y-108043500D03*
D16*
X143179800Y-106095800D03*
X141279800Y-106095800D03*
D12*
X142239800Y-99085800D03*
D14*
X144779800Y-99085800D03*
X147319800Y-99085800D03*
X149859800Y-99085800D03*
X152399800Y-99085800D03*
D13*
X154939800Y-99085800D03*
D15*
X145704800Y-109651800D03*
X147604800Y-109651800D03*
X141279800Y-109397800D03*
X143179800Y-109397800D03*
X157150000Y-109232000D03*
X159050000Y-109232000D03*
M02*
